<?xml version="1.0" encoding="utf-8"?>
<!-- Generator: Adobe Illustrator 19.2.1, SVG Export Plug-In . SVG Version: 6.00 Build 0)  -->
<svg version="1.1" id="layer" xmlns="http://www.w3.org/2000/svg" xmlns:xlink="http://www.w3.org/1999/xlink" x="0px" y="0px"
	 viewBox="0 0 652 652" style="enable-background:new 0 0 652 652;" xml:space="preserve">
<style type="text/css">
	.st0{fill:#FFFFFF;}
	.st1{fill:#0039A6;}
	.st2{fill:#C60C30;}
	.st3{fill:#BBC1DB;}
	.st4{fill:#9F0A2B;}
	.st5{fill:#06357A;}
</style>
<g>
	<path class="st0" d="M483.8,270.6c3.6-20.3,6.7-40.7,9.1-61.1c-112.3-26.3-255.6,4.4-346.2,46.8C120.9,399.7,186.8,517.2,280.9,571
		c2.6-1,5.1-2.1,7.6-3.1l2.8-1.2c54.4-23.9,95.1-60.6,125.7-108.2 M455.6,378.8c2-5.5,3.9-11,5.7-16.7 M461.3,362.1
		c9.2-28.3,16.6-58.9,22.5-91.5 M417.2,458.2c15.2-23.8,27.9-50.3,38.4-79.3"/>
	<path class="st0" d="M417,238.9L417,238.9C417.1,239,417.1,239,417,238.9"/>
	<path class="st1" d="M210.1,477.9c14.4,25,34.1,48.9,56.1,68.7c7.7,6.9,16.1,13.6,25.1,20c54.4-23.9,95.2-60.7,125.8-108.4
		c-39.6-0.2-79.3,1.9-118.5,6.2C268.7,467.6,239.1,472.2,210.1,477.9 M177.4,388.2c0.9,5.4,2.2,10.8,3.3,16
		c88-19,182.6-28.5,275-25.6c2-5.5,3.9-11,5.7-16.7C366.5,358.1,267.5,367.2,177.4,388.2 M146.4,256
		C120.7,399.5,186.6,517.2,280.8,571c2.6-1,5.1-2.1,7.6-3.2c-89.1-50.9-150-162.2-125.6-297.9c80.3-37.6,203.7-65.1,306.3-48
		c-76.4-7.8-196.8,12.1-276.9,43.5c-4.8,1.8-9.8,3.7-14.9,5.7c0,0-3.5,14.6-4.9,38l5.6-1.5c99.6-27,202.6-39.6,305.9-37.2
		c3.6-19.7,6.6-40.1,9.1-61.2C380.6,182.8,237.2,213.6,146.4,256"/>
	<path class="st2" d="M266.9,287.4L266.9,287.4c-31.8,5.8-63.3,13-94.5,21.7c-1.6,26.5,0.1,53,4.9,79.1
		c42.3-9.8,85.1-16.9,128.2-21.3h0c51.4-5.3,103.6-7,155.8-4.9c9.2-28.4,16.6-59,22.5-91.6C410.1,268.7,337.5,274.6,266.9,287.4"/>
	<path class="st3" d="M376.9,448.5l-0.2,0.4c-1.5,2.4-4.7,6.5-8.1,10.2c16.1-0.7,32.3-1,48.6-0.9c15.3-23.9,28-50.5,38.6-79.6
		c-66.2-2.1-131.6,1.9-195.9,11.3c0,0.1,0,0,0.1,0.1c2.3,3.8,4.6,7,6,9.2c3.1,4.6,0.7,7.8,1.1,10.1c0.4,2.1-0.8,8.4,0.9,15.2
		c-1.9,2.5-5.9,5.5-7.9,10.1c-3.6,8-4.3,14.7-2,24.8c-0.5,3.4-0.6,6.9-0.3,10.3c24.2-3.6,48.6-6.4,73-8.2l0.1-0.1
		c6.3-7.6,7.1-12,9.6-22.5c1.8-9.6,3.5-7.7,7.9-13c3.2-3.9,3.6-7.6,2.5-13.9c0.2,0,0.4,0,0.5,0c20.3-1.8,26.2-5.2,31.7-6.3
		c11.6-2.4,10.6,4.9,10.7,6.8c-0.2,3.2-2.5,9.6-6.8,17.5C387,429.8,384.1,437.7,376.9,448.5"/>
	<path class="st4" d="M469.9,328c-1.1-8.5-2.5-16.3-5.3-22.6c-5.2-11.7-18.1-25.4-29.1-35c-69.3,1.5-138.3,9.7-206,24.6
		c-0.8,2.9-1.5,5.9-2,8.9c0.3,1,1,2.5,1.8,4c-0.4,4.3,1.5,14.5,3.1,19.2c-0.8,1.7-1,3.6-0.5,5.3c0.8,2.3,4.9,5.8,7.4,7
		c0,0,0.8,18.8,15.8,27.3c-0.7,2.2-1.3,4.4-1.7,6.7c68.8-10.5,138.4-14.4,207.9-11.6c3.5-10.7,6.6-21.5,9.5-32.4L469.9,328"/>
	<path class="st5" d="M308.6,198.8c-5.5-3.1-11.5-5-17.7-5.9c-8,2.7-15.9,7.4-21.1,10.5c-2.9,6.2-8.2,20.7-8.3,23.5
		c1.7,0,4.5-0.1,7.9-1.2c-1.5,1.4-2.9,3.1-4.5,5.4c-6,2.2-14.4,5.5-22.9,10.1c-2.3,1.9-4.8,5.1-5.7,8.5c-0.5,1.6-0.3,3.3,1,4.3
		c0.8,0.7,2.1,1.3,3.3,1.6l0.2,0.1c-0.9,5.1,0.8,12.2,2.8,15.5c-0.7,1-1.4,2.6-2.1,4.5c-2.1,5.6-3.7,11.5-4.7,17.4
		c0.3,1,1,2.5,1.8,4c-0.4,4.3,1.5,14.5,3.1,19.2c-0.8,1.7-1,3.6-0.5,5.3c0.8,2.3,4.9,5.8,7.4,7c0,0,0.8,18.8,15.8,27.3
		c-1.3,4.4-1.9,7.1-2,9.9c0.1,0.2,0.2,0.5,0.3,0.7c1.3,3.8,3.8,8.2,6.3,12.3c2.3,3.8,4.7,7.2,6.2,9.4c3.1,4.6,1.8,8.4,1.5,10.7
		c-0.3,2.4-1.2,7.8,0.5,14.5c-1.9,2.5-5.9,5.5-7.9,10.1c-3.6,8-4.3,14.7-2,24.8c-2,13.2,2.3,25.9,12.9,29.9
		c5.8,2.1,10.4,2.3,12.7,1.5c6.2,0.7,11.4-1.7,14.8-4.1c5.2-3.3,11.6-4.4,18.3-12.7c2.6-3.2,7.8-5,14.1-12.6
		c6.3-7.6,7.1-12,9.6-22.5c1.8-9.6,3.5-7.7,7.9-13c3.2-3.9,3.6-7.6,2.5-13.9l0.6,0c20.3-1.8,26.2-5.2,31.7-6.3
		c11.6-2.4,10.6,4.9,10.7,6.8c-0.2,3.2-2.5,9.6-6.8,17.5c0,0-3,7.9-10.1,18.8l-0.2,0.4c-3.3,5.4-15.2,18.8-18.4,18.9
		c-12.3,0.5-21.6,5.8-27.5,18c-7.5,2.2-17.1,10.2-18.6,22.8c0,0.1-1,7.2,3.3,12.2c1.2,1.6,3.7,3,5.2,4.8c1.9,2.3,5.1,2.8,7,3.5
		c3.7,1,7.8,0.1,12.6-1.7c6-2.4,16.8,5.3,31.3,5.2c15.8-0.1,28.4-0.4,31.6,2.7c8.6,8.6,20.6-0.2,20.6-0.2c6.5-4.9,8.5-12.5,9.2-15.8
		c2.9-14.7,0.7-15.4-0.3-26.3c-1-10.8,3.6-19.9,5.5-23.7c9.3-19.3,29.6-33.5,39.7-66.7c9.6-31.5,6.1-62.9-8.7-80.9
		c-1.1-8.5-1.7-10-4.5-16.2c-6.7-15-26-33.3-37.7-41.9c-5.3-7.7-13.5-15.4-19.6-19.4c-0.2-0.6-0.4-1.3-0.5-1.9l-2.1-4.3
		c-1.4-2.2-3.4-4-6.4-6.6c-2.2-1.6-6.7-4.4-10.1-4.8c1.2-1.8,2.2-4.9,2.2-6.9c-8.7-9.6-23.3-14.5-32.7-23c-10.9,0-21.8,0.9-32.5,2.6
		c-4,2-7.7,4.7-10.9,7.8C319.6,196.5,312.5,197.8,308.6,198.8"/>
	<path class="st0" d="M417.1,238.6L417.1,238.6L417.1,238.6 M313.5,305.6c3.1,0.3,12.8,1.6,20.3,2.9c-2.5-1.7-5.8-6.7-7.4-9
		c-1.4,1.8-2.6,3.5-4.5,5.2c-1-2.1-4.1-5.8-7.6-7.6c-0.7,2.1-2,4.3-3,6.1c-3.3-1.1-6.5-2.6-9.5-4.5c-0.6,0.2-1.2,0.5-1.8,0.9
		c2.9,1.4,7.5,3.8,11.3,7.6C311.4,307.1,313.5,305.6,313.5,305.6z M314.4,291.2c2.4,1.5,6,4.5,8.3,7.6c0.3-0.5,1-1.1,1.3-2
		c-1.7-1.4-5.6-5.8-7.1-8.1c-3,0.5-8.9,1.5-13.6,2.9c-1.3,0.6-2.5,1.2-3.7,2c1.7,1.5,5.8,3.9,10.9,5.1
		C312.5,295.8,313.6,293,314.4,291.2L314.4,291.2z M425.5,513.2c-2.5-1.3-5.5,0.9-5.3,3.9c0.1,1.7-0.4,4.6,0.7,5.6
		c0,0,2.2,1.5,5.9-3C428.5,517.7,427.7,514.4,425.5,513.2z M421.6,494.9c-3.5-2.2-6.8-3-8.9-2.8l0-1.3c-0.2-7-6.3-21.1-21.7-21
		c-6.6,0-8.5,6.1-9.2,10.7c-0.9,6.6-1.1,14.2-0.8,16.1c0.3,2.2-0.1,5.7,2.1,7.5c1.1,0.9,2.7,1.5,2.9,0.2c0.2-2.5,0.7-5.6,2.1-7.3
		c1.5-1.7,3.5-3,5.6-3c0.6,0,1.3,0.1,2,0.2c2.8,0.7,5.3,2.7,6.6,5.3c1.3,2.5,1.4,5.9,0.3,8.5c-0.5,1.2-1.1,2.3-1.7,3.3
		c0,0.4,0.1,0.6,0.3,0.6c2.6,0.4,6.6-1.6,8.3-4.1c1.9-3,2.9-6.7,3.2-10.9c2.5,2.9,1.6,10,1.2,12.3c-0.3,1.7-0.8,5,0.1,6.9
		c0.8,1.6,2.5,2.1,3.3,1.6l0-0.2c-0.4-2,0-4.1,1.2-5.8c1.2-1.7,2.9-2.7,4.9-3c1-0.1,2,0,3,0.3c2.1,0.8,3.4,2.6,4.2,4.8
		c0.4,1.1,0.5,2.1,0.4,3.2c0.7,0.4,1.2-0.3,1.6-1.7C435.2,505.8,427.4,498.6,421.6,494.9z M395.4,499c-4.2-1.4-6.7,3.2-6.5,7.1
		c0.1,2.3-1.5,7,1.6,8.2c0,0,4.4,0.9,8.4-6.7c1.5-3,0.4-6.6-2.6-8.2C396,499.2,395.7,499.1,395.4,499z M483.4,357.2
		c-0.1-6.4,0-8.3-2-16.8c-4.5-19.2-18.2-38.5-32.5-53.3c8.1,4,13.7,8.1,20,17.4c-1.2-13.2-15.6-33-28.5-42.3
		c3.3,6.6,4.4,13.5,4.6,19.6c0.1,5.6-0.9,12.6-1.9,16.7c-2.2,8.2-4.5,17.3-11.4,24c-5.3,4-11,9.3-16.1,12.6l-8.4,6.5
		c-5.4,4.5-9.3,8.2-11.2,12.8c5.2-4.5,15.8-14.5,26.8-17.2c-2.3,2.1-5.6,5.6-12.5,11.1c2.7,0.7,4.9,2.5,6.9,5.8
		c3.4,5.5,4.3,13.6,3.1,21.3c5.8-2.9,14.5-16.8,15.9-27.9c0.7-5.6,1.4-9.2,1.4-9.2s0.6,2.3,1.1,8.5c0.9,12.5-3.8,26.2-9,34.7
		c-2.7,4.4-7.6,6.2-9.7,9.1c-2.2,3-1.5,5.1-2.1,10.1c-1,7.9-8.3,13.9-4.3,13.7c2.7-0.2,8.4,0,10.8,2.5c-5-1.5-17.1,2.1-23.2,11.5
		c-1.7,2.6-5.6,9.4-5.6,9.4s-4.6,8.6-13.4,16.5c-6,5.4-4.9,5.8-3.6,6.1c0.2,0,0.4,0.1,0.6,0.2c7.6-3.7,13.2-8.2,16.2-11.7
		c1.7-2,2.8-2.9,2.8-2.9s-0.5,1.4-1.9,3.7c-2.8,4.4-5,8.4-12.2,14.2c20.5-4,35.5,11.1,37.6,25.7c4.4,1.2,8.6,3.1,11,6.9
		c4.9-9.8,2.2-21.4,1.6-30.4c-0.5-7.4,1.6-18,7-29c-1.4,5.9-2.2,11.7-2.4,16.7c3.2-10.1,14.9-21.2,23.3-30.2
		c9.1-9.1,15.3-23.8,17.3-35.1c2.6-14.3,3-27.8-5.1-50.5C478.6,343.4,481.8,350.1,483.4,357.2z M339,435.7c1.3-8.2,10.4-25.3,0-14.2
		c-6,6.4-11.7,8.2-18.6,12.9c-9.7,6.5-3.5,14-5.2,18.9c-0.7,2.1-0.2,1-2.7,4.3c-4.4,5.7-11.8,7-8.4,9.1c3.5,2.1,4.1,0,7.1-0.6
		c2-0.4,4.5-2,5.2-4.2c1.3-3.6,3.6-9.4,10.5-11.5C333.9,448.4,337.8,443.8,339,435.7L339,435.7z M334.3,503.7
		c-2.1,1.4-2.7,4.7-0.8,6.6c4.1,4.1,6.1,2.5,6.1,2.5c1.1-1.1,0.3-4,0.3-5.7C339.8,504.1,336.6,502.2,334.3,503.7z M360.5,493.5
		c-3.4-0.1-6.2,2.5-6.3,5.9c0,0.3,0,0.7,0,1c1.2,8.5,5.7,9.2,5.7,9.2c3.4,0,3.4-5,4.3-7.2C365.7,498.8,364.9,493.7,360.5,493.5z
		 M363.6,465.3c0,0-11.3,0.2-17.1,11.2c0,0-0.6,1.3-1.2,3.3c-0.3,0.1-0.7,0.1-1,0.2c-11.6,2.9-17.2,13-17.4,19.2
		c0,3.2,0.3,7.2,2.2,8.7l0,0c-0.2-1.1-0.2-2.2,0.1-3.3c0.5-2.3,2-4.2,4.1-5.2c0.9-0.4,1.9-0.7,2.8-0.7c2,0,3.9,0.9,5.2,2.4
		c0.7,0.8,1.2,1.7,1.5,2.7c0.9-0.2,1.3-1.4,0.9-3.1c-1.2-4.6-1.7-8.5,0.3-14.4c-0.4,5.3,0,12.4,5.4,16.8c0,0,1.7,1.1,2.5,0.5
		c-0.5-1.4-0.8-2.9-1-4.4c-0.7-5.3,3-10.1,8.3-10.8c0.4-0.1,0.8-0.1,1.2-0.1h0.3c2.6,0.1,4.8,1.3,6.2,3.4c1.8,2.7,2,6.8,0.6,10.4
		c-0.2,0.4-0.3,1.1-0.5,1.8c0,0,0,0.1,0,0.1c2,0.3,4.1-0.3,5.7-1.5c0,0,7.8-4.8,6.3-26.2C378.8,476.4,377.3,463.1,363.6,465.3z
		 M341.7,395.4c1.7-1.3,3.8-1.9,5.9-1.6c-8.3-6.6-21.6-6.2-25.3-3c-0.4-0.2-0.8-0.3-1.2-0.5c-2.6-0.8-13.8-2.6-20.6,3.2
		c-7.1,6.2-12,16-2.8,23.1c6.2,4.8,12.2,8,19,2.2c0.5-0.4-2-2.3-3.9-5.1c-2-2.2-3.3-4.9-3.2-7.5c0-2.5,1.3-4.8,3.5-6.2
		c3.9-2.6,9.1-2.1,12.3,1.3c0.5,0.4,1.1,0.9,1.5,1.5c6.4,7.7,4.6-1,2.7-5.1c-0.9-1.9-2.2-3.6-3.8-5c2.1,0.3,4.8,2,6.3,4.1
		c1.5,2.2,2.7,5,4.8,7c2.3,2.2,3.3,1.7,3.6,0.2c-0.5-0.8-0.8-1.6-0.9-2.4C338.9,399.5,339.8,397,341.7,395.4z M315.8,404.2
		c-3.7,2.5-1.6,7.2,1.6,9.5c1.9,1.3,4.6,5.5,7.5,3.8c0,0,3.4-2.9-0.1-10.8c-1.4-3.1-5-4.4-8.1-3
		C316.4,403.9,316.1,404.1,315.8,404.2z M345.6,404.3c1.5,0.8,3.7,2.9,5.1,2.4c0,0,2.4-1,0.7-6.6c-0.8-2.5-4-3.6-6.2-2.4
		C342.7,399.2,343,402.9,345.6,404.3L345.6,404.3z M287.1,460.1c0.4,0,0.9,0,1.3,0.1c0.2-0.5-0.7-1.3-2.8-1.4
		c-5.3-0.3-10-4.1-12.2-10.3c-2.7,5.4-1,16.7,3.2,21.3c2.7,3,6.6,4.1,7.1,3.5c-2.1-1.3-3.5-3.4-3.8-5.8c-0.2-1.9,0.4-3.7,1.7-5.1
		C283.1,461,285.1,460.1,287.1,460.1z M411.1,378.8c1.8-0.5,3.3-1.1,4.6-1.5c-0.1-11.2-4.4-18.2-13-23.9
		C394,360.9,388,366,381,369.8c-3.7,2-7.8,3.6-13.3,5c-3,0.8-5.7,1.3-8.4,1.8c5.8-1.7,11.6-5.5,16-9.7c1.6-1.6,3.1-3.3,4.4-5.1
		c-1.8,1.8-4,3.2-6.6,4c-1.4,0.5-2.9,0.8-4.5,1c1-0.6,1.9-1.2,2.7-1.8c4.2-3.1,6.9-7.7,7.7-12.8c-3.7,6.1-9.1,9.6-13.5,9.7l-0.2,0.1
		c-3.9,2.7-9.4,4.2-13.4,4.3c-11.1,0.4-14.7,0.9-14.7,0.9c1.3,1.7,6.6,11.3,7.3,15.4c5.8,2.3,10.9,8.4,13.3,11.7
		c14-0.9,28.8-4.8,40.7-8.2c-7.2-1.1-13.4,1.9-22.4,0.7c5.6-0.6,11.1-1.8,16.4-3.5c5.4-1.9,5.8-7-2.6-13.5
		C400.2,371,407.4,373.9,411.1,378.8L411.1,378.8z M255.3,271.2c6-3.1,12.7-4.3,19.4-3.5l0.8,1.4c-3.5,2.5-9.4,10.7-10.3,12.7
		c-1.7,0.7-7.2,1.7-8.5,1.5C255.9,280.4,254.8,274.1,255.3,271.2z M359.5,223.4c13.2,3.3,21.7,6.5,26.8,9.6
		c5,7.2,9.1,14.6,11.4,22.1C387.7,241.9,376.8,231.1,359.5,223.4z M328.8,222.3l-0.7,0.2l2.8,1.4c-16.4,0.9-28.7,8.6-28.7,8.6
		c5.4-4.9,10.8-8.2,15.9-10.2c0,0,12.6-3.3,24.7-2C336.9,220.6,333.9,221,328.8,222.3L328.8,222.3z M271.5,307.7
		c0,0-1.2,0.6-2.9,1.6c-5.1,2.6-8.4,5.6-10.5,10.1l-0.4,0.8c0,0,6.9,43.7,37.4,29.9c7.1-1.7,19.8-0.6,27.6-5.5c-1.1,3.2-3,3.4-5,5.1
		c5,1.1,6.6,2.9,10.3,0.3c4.3-3,3.5-1.8,7.9,0.4c4.4,2.3,12.4,6.5,19.2,5.9c3.5-0.7,6.1-2.7,8.1-4.6c-2.6-0.6-5-1.7-7.1-3.3
		c-3.8-2.9-3-7.1-5.7-12.7l-2.6-2.9c-6.1,4.8-11.1,6.9-19,9.2c3-3.9,5.6-5.8,9.5-8.2c2.2-1.4,5.2-4.2,7.8-6.7l-2.4-8.1
		c-1.4-1.1-2.8-2.3-4.1-3.6c-9.1-3.3-17.5-4.7-26.5-6.2l-3.6,3.6c-3-4.1-9.1-9.3-15.8-12.8c-2.6-0.8-5.7-2-8.6-2.4
		c-0.4-3.2-2.5-9.5-4.6-13.4c-1.2,2.3-3.8,7.2-5.1,12.9c-4.8,0.3-9.6,1.1-14.3,2.4c-1.3,0.3-2.6,0.7-3.8,1.2c-0.4-1.3-3-4.9-5.4-7.7
		c-0.7-0.9-1.3-1.8-2-2.6l9.7,4.2c4.1-1.3,7.8-2.1,10.5-2.6c1.4-0.2,2.7-0.4,4.1-0.5c1.9-4.4,7-11.6,7-11.6c4.3,3.3,7.5,8,9.9,14.8
		c2.8-3.1,6.8-6,10.6-7.7c6.9-3,19.8-5.9,25.4-4.1c1.5,8.4,8.2,16.9,12,24.6c2.1,3.3,4,9.4,4,9.4l-1.8-23.6l8.5,29.6
		c0,0,11.8,19.9,20.8,21.9c2.7-0.8,5.2-1.6,6.8-2.5c3.5-2.1,8.4-7.5,11.4-13c0.4-1,0.9-3.5,1.3-6.2c0.3-2,0.5-4,0.5-6
		c1.8,3.9,2.7,7.5,3.6,13c-0.8,4.7-2.9,10.5-5.4,15.9c4.8-2.4,9.2-14.6,11.3-18.7c2.3-4.3,6.9-12.8,9.1-21.6c0-1.3-0.2-2.5-0.5-3.7
		c-2.1-7-5.4-16.4-7.7-22.7c2.4,3.3,4.3,6.3,6.1,9.3c2.5,4.2,4.5,8.6,6.7,14.4c0.1,7.6-0.1,16-1.6,24.3c0.2-0.2,12-9.6,20.6-23.7
		c4.9-7.9,10.6-19.4,6.7-36.1c-1.9-7.8-13.5-20.6-20-24.9c-0.3-0.2-0.7-0.4-1-0.6l-1.3-3.1c-0.3-0.4-5.3-7.7-10.4-11.2
		c-2.5-1.8-9.8-5.5-14.3-6.3l-4.2,0.2c-4.9,0-9.7,0.3-14.6,0.9c-13.8-7.8-25.3-12-35.9-14.4c-1.5,0.8-2.7,1.3-3.9,1.9
		c0.7-2.9,1.8-5.3,4-7.2c0,0,15.3,5.5,24.5,10.5c3.5,0.3,17.4,0.3,23.8-1.3c0.9-0.8,1.3-2.4,1.4-3.7c-1.6-2.6-7.4-5.1-16.4-10.3
		c-4.8-2.9-9.5-6.6-9.5-6.6s-3.5-0.3-7-0.2c-2.6,0.1-17.5,1.3-20.3,2.4c-0.6,0.2-2.6,1-2.8,1.1c-3.2,1.1-6.4,3.2-10,6.5
		c-1.8,1.1-3.7,1.9-5.7,2.6c-7.1,2.4-17.7,5.1-20.8,6.3c-4.8,2-13.2,7-13.2,7l-10,12.6c-2.1,2.6-3.9,5.1-5,7.1
		c-6.8,2.2-16.1,6.3-20.5,9.3c-1.1,0.8-2.6,2.9-1.9,3.8c0.8,0.7,1.7,1.3,2.6,1.6c1.8,0.2,3.2,0.3,4.3,0.2c0.4,0,0.7-0.1,1-0.1
		c1,1.5,2.2,3.8,4.7,4.5c0,0,2.2,0.1,4.7,0c0.9,0,1.9-0.1,2.8-0.2c2.2-1.1,5.5-4.6,6.4-5.8c1.3-1.6,3-4.3,5.4-7.8
		c2.7-3.4,8.2-7.9,13.3-11.7c2.1-1.2,8-4.4,15.7-7.2c-4.2,1.9-16.7,12.6-20.5,17.6c-2.2,3.1-2.5,5.9-2.9,8.1
		c0.1,0.7,1.2,2.6,3.4,4.5c3.5-0.1,12.4-2.9,15.8-3.5c6.5-2.3,11.2-8.4,14.3-12.6c4.1-0.1,18.6-0.4,25.4-2c2.4,1.1,8.2,5.4,13,10.8
		c-3-2-7.5-3.9-11.6-4.9c-1.6,0.2-6.8,0.6-8.8,1.2c0.4,5.5-1.8,8.8-4.6,12c2.9-0.3,8,0.2,14,0c9.7,2.1,17.3,11,17.3,11
		c-7.4-6.6-19.7-7.1-19.7-7.1c-8.7-0.8-22.5,0.3-32.1,1.6c2.2,2.2,5.8,8.4,8.6,13.7c-6.5-7-10.8-8.9-17.9-12
		c-7-2.5-15.5-2.7-19.2-2.6c-2.6,0.1-5.2,0.4-7.8,0.8c-16.7,4.8-26.8,15-29.4,24.1c0.2,2.3,1.8,4.5,3.6,6.1
		c0.1,3.6,1.5,11.2,3.3,15.4c0,0-0.4,0.4-1,1c-0.7,0.6-1.3,1.2-1.7,1.8c-0.7,1-0.7,3-0.3,4.4c0.2,0.6,0.5,1.2,0.9,1.7
		c0,0,1.8,2.2,5.7,0.9c0,0,5.2-2.9,10.5-5C265.9,309,268.7,308.2,271.5,307.7L271.5,307.7z M246.2,256.7c-0.8,3.7,1.1,7.8,3.3,9.5
		c1.9-1.4,4.9-3.1,7.2-4.2c-0.7-0.4-1.4-1-2-1.6c-0.3,1.5-1.2,2.7-2.4,2.9c-1.7,0.3-3.4-1.5-3.8-3.9c-0.1-0.8-0.1-1.7,0.2-2.5
		C247.9,256.9,247,256.9,246.2,256.7z M316.4,254.4c-1.9,0.1-3.6-1.2-4.5-3.1c-2.2,1.9-4.5,3.7-6.3,4.7c3-0.2,9.6-0.3,12.8-0.6
		c6.5-0.8,8.3-4.4,8.4-5.9c0.1-1.4,0.2-3.8-1.6-6.4c-2.4,0.3-3.3,0.3-6,0.5c-0.1,0.1-0.1,0.2-0.2,0.2c0.9,1,1.5,2.5,1.6,4.1
		C321,251.4,319,254.2,316.4,254.4z M303.7,439.7c4-11.5,1.7-13.6-7.3-20.1c-8-5.8-16.1-1.2-20.7,7.7c-3.5,6.7-2.7,13.3,0.3,19.2
		c1.6,3.2,5.4,6.7,9.9,7.4c4.3,0.7,10.7,0.7,5-3c-1.2-0.5-2.4-1.1-3.5-1.8c-4.5-2.8-5.8-8.7-3-13.2c0.3-0.5,0.6-0.9,1-1.3
		c1.4-1.7,3.5-2.6,5.7-2.6c3.6,0,6.7,2.5,8.6,5.2c0.4,0.4,0.7,0.9,1,1.4C302.8,441.7,303.7,439.7,303.7,439.7z M274,211.9
		c-3.5,3.7-4.8,5.7-6.1,9c4.1-1.4,7.9-3.3,11.5-5.7C277.7,213.9,275.8,212.4,274,211.9z M289.8,472.3c5.5-1.7,5-4.3,5-4.3
		c-0.5-1.5-3.4-2.1-4.9-2.8c-2.7-1.3-5.9,0.6-5.6,3.4C284.6,471.1,287.3,473.1,289.8,472.3L289.8,472.3z M300.9,448.6
		c2.2-2.6-1.7-5.8-2.7-7.9c-1.8-3.4-6.3-6.2-9.2-2.9c-2.2,2.5-2,6.4,0.5,8.6c0.2,0.2,0.5,0.4,0.8,0.6
		C297.5,451.6,300.9,448.6,300.9,448.6L300.9,448.6z M317.1,372.5c1.4,0.1,9.1,0.9,13.7,2.1c-1.8-3.4-4.4-7.9-16.2-10.9
		c-2.6-0.5-4.2-0.1-6.5-0.7c-8.7-2.2-14.4-0.8-14.4-0.8c-10.4,2.1-18.4-1.5-24.5-3.7c0.5,2.3,1,5.2,2.1,7.6
		c6.3,7,10.2,13.2,12.3,14.6c4.1,2.9,6.7,8.2,7.1,10c-2.8-3-5.1-4.2-8.9-5.9c0.2,5,0.5,7.7,1.4,11.1c0.6,3.1-2,9.2-2.5,14
		c2.6-2.2,4.7-2.6,5.2-5.2c1.4-8.6,5.4-14.4,16.2-18.5c6.9-2.6,14.6-2.6,18.6-1.3c1.5,0.9,7-1.8,12.3-0.6c0,0-3.4-4.7-12.3-7.5
		c-5.1-1.6-14.7-3-21.1-2.8C304.3,372.4,312.3,372.1,317.1,372.5z M283.1,212.5c2.6-1.7,12.3-7.6,18.8-10.3
		c-2.3-1.3-10.4-3-15.4-3.3c-3.2,0.9-8.8,3.5-12.6,6C276.5,206.3,281.9,210.6,283.1,212.5L283.1,212.5z"/>
	<path class="st1" d="M299.4,86.4c-3.4-1-6.5-0.8-6.5-3.1c0-1.7,1.6-2.5,3.9-2.5c2.6,0,5.3,1,7.5,2.3l1.5-9.2
		C302.5,72,299,71,295.3,71c-6.8,0-14.6,3.4-14.6,12.8c0,6.8,4,10.4,8.1,11.8c3.6,1.2,7.4,0.8,7.4,3.2c0,1.6-1.6,2.7-4,2.7
		c-3.1,0-6.4-1.5-9.2-3.4l-2.6,9.4c3.5,2.1,7.8,3.9,12.7,3.9c7.7,0,15.3-4.4,15.3-13.4C308.4,90.8,303.5,87.7,299.4,86.4L299.4,86.4
		z M329.5,164.8c-1,0.2-2,0.3-3,0.2v-30.9c0.9-0.1,1.7-0.2,2.7-0.1c4.7,0.5,10,4.2,10,15.4C339.1,159.8,334.2,163.9,329.5,164.8z
		 M325.7,118.8c-6.9-0.1-12.8,0.1-17.8,0.3v60.7c4,0.3,7.3,0.4,11.3,0.4c26.4,0,38.3-10.5,38.3-30.6
		C357.6,129,346,119.1,325.7,118.8z M284,119.1h-18.5v60.7h37.9v-15.2H284V119.1z M241.6,119.1h-18.5v60.7H261v-15.2h-19.4
		C241.6,164.6,241.6,119.1,241.6,119.1z M453.9,158.1h9.3v6.2c-1.6,1-3.8,2.1-6.8,2.1c-7.3,0-13.5-6.2-13.5-16.6
		c0-10.1,6.1-17.3,14-17.4c4.2-0.1,7.6,1.8,10,4.3l5.5-14.5c-4.2-2.4-10.1-4.7-16.8-4.7c-16.9,0-31.1,13.7-31.1,32.5
		c0,18.7,13.5,31.6,31.3,31.6c10.1,0,17-4,22.2-7.7v-29.5l-23.9-0.1V158.1z M512.5,142.2c-5.3-1.6-10.1-1.2-10.1-4.9
		c0-2.7,2.5-3.9,6-3.9c4,0,8.2,1.6,11.6,3.6l2.3-14.3c-4.9-2.9-10.4-4.4-16-4.4c-10.6,0-22.6,5.3-22.6,19.8
		c0,10.5,6.2,16.1,12.6,18.3c5.6,1.9,11.5,1.3,11.5,4.9c0,2.4-2.4,4.2-6.2,4.3c-4.8,0.1-9.9-2.3-14.2-5.3l-4.1,14.6
		c5.4,3.2,12.1,6,19.7,6c11.9,0,23.7-6.8,23.7-20.7C526.4,148.9,518.9,144.1,512.5,142.2z M442.8,110.8V71.5h-11.9V92L420,71.5h-11
		v39.2h11.9V90.9l11,19.9C431.8,110.8,442.8,110.8,442.8,110.8z M237.8,110.8l10.5-39.2H237l-5.4,24.1l-6.3-24.1h-8.8l-6.2,24
		l-5.5-24h-11.6l11.3,39.2H215l5.9-23.9l6,23.9L237.8,110.8L237.8,110.8z M391,166.7c-6.4,0-10.7-6.8-10.7-16.7
		c0-10.2,4.3-16.7,10.8-16.7c6.5,0,10.7,6.7,10.7,16.7C401.7,159.8,397.4,166.7,391,166.7z M391,117.9c-16,0-29.2,12.5-29.2,32.2
		c0,19.6,13.2,32.1,29.4,32.1c16.6,0,29-13.2,29-32.3C420.2,130,406.6,117.9,391,117.9L391,117.9z M371.4,101h-15.1v-5.5H367v-8.7
		h-10.7v-5.4h14.2v-9.8h-26.1v39.2h27.1L371.4,101L371.4,101z M319.6,110.8h11.9V81.4h10.3v-9.9h-32.3v9.9h10.2L319.6,110.8
		L319.6,110.8z M277.3,101h-15.1v-5.5h10.7v-8.7h-10.7v-5.4h14.2v-9.8h-26.1v39.2h27.1L277.3,101L277.3,101z M387.2,81.1
		c0.7-0.1,1.4,0,2,0.1c1.6,0.3,3.4,1.6,3.4,5c0,2.7-1.3,4.5-3.2,5.1c-0.7,0.2-1.5,0.2-2.2,0.2L387.2,81.1L387.2,81.1z M387.2,101.2
		c1.1,0.2,2.1,0.1,2.9,0.1l2.8,9.5h12.8l-5.1-14.1c2.5-2.5,4-6,4-10.5c0-8.9-6.1-14.6-16.9-14.9c-3.3-0.1-8.9,0-12.4,0.2v39.2h11.9
		C387.2,110.8,387.2,101.2,387.2,101.2z M198.1,156.9c0,5.1-3,8.1-6.9,8.1c-4,0-6.9-2.9-6.9-8.1v-37.9h-18.5v37.3
		c0,18.2,13.8,25.2,25.8,25.2c13.3,0,25.1-8.6,25.1-25.8v-36.8h-18.5C198.1,119.1,198.1,156.9,198.1,156.9z M135.6,165.5
		c-1.4,0.1-2.7,0-3.5-0.1v-10.8c0.8-0.2,1.9-0.3,3.1-0.2c3.3,0.2,5.8,2.1,5.8,5.6C141.1,163.9,138.6,165.2,135.6,165.5z
		 M132.2,133.7c0.9-0.2,2.1-0.3,3.2-0.1c2.1,0.3,5,1,5,4.6c0,2.9-2.3,4.2-5.2,4.7c-0.8,0.1-1.7,0.2-3-0.1
		C132.2,142.8,132.2,133.7,132.2,133.7z M150,147.2c5.3-2.3,8.1-6.9,8.1-12.6c0-6.9-4.2-16-25.5-16c-4.8,0-10.7,0.1-18.6,0.4v60.7
		c6,0.4,10.8,0.6,17.9,0.6c18.1,0,29-6.1,29-18.4C160.8,153.6,155.7,148.8,150,147.2L150,147.2z"/>
</g>
</svg>
