<?xml version="1.0" encoding="UTF-8" standalone="no"?>
<svg version="1.1" id="Layer_1" xmlns="http://www.w3.org/2000/svg" xmlns:xlink="http://www.w3.org/1999/xlink" x="0px" y="0px"
	 width="100%" viewBox="0 0 96 96" enable-background="new 0 0 96 96" xml:space="preserve">
<path fill="#D9DADC" opacity="1.000000" stroke="none" 
	d="
M51.000000,97.000000 
	C34.000004,97.000000 17.500006,97.000000 1.000007,97.000000 
	C1.000004,65.000008 1.000004,33.000019 1.000002,1.000020 
	C32.999985,1.000013 64.999969,1.000013 96.999969,1.000006 
	C96.999977,32.999981 96.999977,64.999962 96.999985,96.999969 
	C81.833336,97.000000 66.666664,97.000000 51.000000,97.000000 
M92.034042,80.082069 
	C92.021362,75.049263 92.008675,70.016464 92.169617,64.065948 
	C92.111794,59.049431 92.053970,54.032917 92.034042,48.081108 
	C92.021362,43.048626 92.008682,38.016144 92.169632,32.065960 
	C92.111748,27.049450 92.053856,22.032942 92.033333,16.143118 
	C92.062767,8.299583 90.830505,6.025510 85.725998,6.003039 
	C61.288002,5.895458 36.849251,5.934243 12.410835,5.970721 
	C8.179555,5.977036 6.018252,8.276552 5.952686,12.503979 
	C5.929496,13.999199 5.980900,15.495576 5.736501,17.894926 
	C5.823744,22.932838 5.910988,27.970751 5.955661,33.940483 
	C5.969895,38.957420 5.984129,43.974361 5.736523,49.894806 
	C5.823757,54.932758 5.910991,59.970707 5.955660,65.940475 
	C5.969794,70.957367 5.983927,75.974266 5.739058,81.833382 
	C5.639578,90.878395 6.977361,92.225594 16.128862,92.227814 
	C37.957439,92.233101 59.786018,92.232933 81.614594,92.227783 
	C91.120537,92.225533 92.598206,90.621666 92.034042,80.082069 
z"/>
<path fill="#002C57" opacity="1.000000" stroke="none" 
	d="
M5.998231,33.008663 
	C5.910988,27.970751 5.823744,22.932838 6.336123,17.447102 
	C35.289154,17.004995 63.642563,17.010714 91.995972,17.016432 
	C92.053856,22.032942 92.111748,27.049450 91.614479,32.532204 
	C62.705627,33.001854 34.351929,33.005257 5.998231,33.008663 
z"/>
<path fill="#FFFFFF" opacity="1.000000" stroke="none" 
	d="
M5.976946,33.474571 
	C34.351929,33.005257 62.705627,33.001854 91.527664,32.991055 
	C92.008682,38.016144 92.021362,43.048626 91.546753,48.541332 
	C62.705765,48.998135 34.352062,48.994717 5.998363,48.991299 
	C5.984129,43.974361 5.969895,38.957420 5.976946,33.474571 
z"/>
<path fill="#002C57" opacity="1.000000" stroke="none" 
	d="
M5.867443,49.443054 
	C34.352062,48.994717 62.705765,48.998135 91.527802,49.008980 
	C92.053970,54.032917 92.111794,59.049431 91.614471,64.532196 
	C62.705627,65.001854 34.351925,65.005257 5.998225,65.008659 
	C5.910991,59.970707 5.823757,54.932758 5.867443,49.443054 
z"/>
<path fill="#FFFFFF" opacity="1.000000" stroke="none" 
	d="
M5.976943,65.474564 
	C34.351925,65.005257 62.705627,65.001854 91.527664,64.991058 
	C92.008675,70.016464 92.021362,75.049263 91.546738,80.541534 
	C62.705647,80.997719 34.351852,80.994438 5.998060,80.991158 
	C5.983927,75.974266 5.969794,70.957367 5.976943,65.474564 
z"/>
<path fill="#FFFFFF" opacity="1.000000" stroke="none" 
	d="
M92.014648,16.579775 
	C63.642563,17.010714 35.289154,17.004995 6.466997,16.995350 
	C5.980900,15.495576 5.929496,13.999199 5.952686,12.503979 
	C6.018252,8.276552 8.179555,5.977036 12.410835,5.970721 
	C36.849251,5.934243 61.288002,5.895458 85.725998,6.003039 
	C90.830505,6.025510 92.062767,8.299583 92.014648,16.579775 
z"/>
<path fill="#002C57" opacity="1.000000" stroke="none" 
	d="
M5.868559,81.412270 
	C34.351852,80.994438 62.705647,80.997719 91.527794,81.009247 
	C92.598206,90.621666 91.120537,92.225533 81.614594,92.227783 
	C59.786018,92.232933 37.957439,92.233101 16.128862,92.227814 
	C6.977361,92.225594 5.639578,90.878395 5.868559,81.412270 
z"/>
</svg>
