<?xml version="1.0" encoding="utf-8"?>
<!-- Generator: Adobe Illustrator 19.2.1, SVG Export Plug-In . SVG Version: 6.00 Build 0)  -->
<svg version="1.1" id="layer" xmlns="http://www.w3.org/2000/svg" xmlns:xlink="http://www.w3.org/1999/xlink" x="0px" y="0px"
	 viewBox="0 0 652 652" style="enable-background:new 0 0 652 652;" xml:space="preserve">
<style type="text/css">
	.st0{fill:#002244;}
	.st1{fill:#FFFFFF;}
</style>
<g>
	<path class="st0" d="M254.9,506.5h-31.3v-19.1c0-5.5-0.3-9-1-10.4c-0.7-1.4-2.1-2.1-4.4-2.1c-2.6,0-4.2,0.8-4.9,2.5
		c-0.7,1.7-1,5.3-1,10.8v51c0,5.3,0.4,8.8,1,10.4c0.7,1.6,2.3,2.4,4.7,2.4c2.3,0,3.9-0.8,4.6-2.4c0.7-1.6,1.1-5.5,1.1-11.5v-13.8
		h31.3v4.3c0,11.4-0.9,19.4-2.6,24.1c-1.8,4.8-5.7,8.9-11.7,12.5c-6,3.6-13.5,5.3-22.3,5.3c-9.2,0-16.7-1.5-22.7-4.5
		c-5.9-3-9.9-7.2-11.8-12.5c-1.9-5.3-2.9-13.4-2.9-24.1v-32c0-7.9,0.3-13.8,0.9-17.8c0.6-3.9,2.4-7.7,5.3-11.4
		c2.9-3.7,7-6.5,12.3-8.6c5.2-2.1,11.2-3.1,18-3.1c9.2,0,16.8,1.6,22.8,4.9c6,3.2,10,7.3,11.8,12.1c1.9,4.8,2.8,12.4,2.8,22.6
		L254.9,506.5L254.9,506.5z M302.2,529.3c-1.6-12.4-3.1-27.7-4.8-46c-3.2,21-5.1,36.3-6,46L302.2,529.3L302.2,529.3z M318.8,458.8
		l18,109.6h-32l-1.7-19.7h-11.2l-1.8,19.7h-32.5l15.9-109.6C273.4,458.8,318.8,458.8,318.8,458.8z M395.5,458.8v24.1h-18.7v85.4
		h-31.3v-85.4H327v-24.1L395.5,458.8z"/>
	<path class="st0" d="M460.1,492h-29.1v-8.2c0-3.8-0.4-6.2-1.1-7.3c-0.7-1-2-1.6-3.7-1.6c-1.7-0.1-3.3,0.7-4.3,2.1
		c-1,1.4-1.5,3.5-1.5,6.4c0,3.7,0.5,6.4,1.6,8.3c1,1.8,4,4.1,8.8,6.7c14,7.5,22.7,13.7,26.4,18.5c3.6,4.8,5.4,12.6,5.4,23.4
		c0,7.8-1,13.6-3,17.3c-2,3.7-5.9,6.8-11.7,9.3c-5.7,2.5-12.4,3.8-20.1,3.8c-8.4,0-15.5-1.4-21.5-4.3c-5.9-2.9-9.8-6.6-11.7-11
		c-1.8-4.5-2.7-10.8-2.7-19v-7.2h29.1v13.4c0,4.1,0.4,6.8,1.2,7.9s2.3,1.8,4.4,1.8c2.1,0,3.6-0.7,4.7-2.2c1-1.5,1.5-3.7,1.5-6.6
		c0-6.5-1-10.7-2.9-12.7c-2-2-6.9-5.3-14.7-9.9c-7.8-4.7-13-8.1-15.5-10.2c-2.5-2.1-4.6-5.1-6.3-8.8c-1.7-3.7-2.5-8.5-2.5-14.4
		c0-8.4,1.2-14.5,3.5-18.4c2.4-3.9,6.2-6.9,11.4-9.1c5.3-2.2,11.6-3.3,19.1-3.3c8.1,0,15.1,1.2,20.8,3.6c5.7,2.4,9.5,5.4,11.4,9
		c1.9,3.6,2.8,9.8,2.8,18.6L460.1,492L460.1,492z"/>
	<path class="st1" d="M101.1,207.3c26.5,119.2,109.7,217.1,219.9,264c110.2-46.8,193.3-144.7,219.9-264
		c-31.9-18-43.1-58.5-25.1-90.4c2.2-3.9,4.8-7.5,7.7-10.9C458.5,82.6,390,70.6,321,70.7c-69-0.1-137.6,11.9-202.5,35.3
		c10.5,12.1,16.3,27.5,16.3,43.5C134.8,174.3,121.2,195.9,101.1,207.3"/>
	<path class="st0" d="M515.1,149.5c0-15.8,6.3-30.1,16.4-40.6c-2.7-1-5.3-2-8-2.9c-24,27.6-21.2,69.5,6.5,93.5
		c3.4,2.9,7,5.5,10.9,7.7c-26.6,119.2-109.7,217.1-219.9,264c-110.1-46.8-193.3-144.7-219.9-264c31.9-18,43.1-58.5,25.1-90.3
		c-2.2-3.9-4.8-7.6-7.7-10.9c-2.7,1-5.3,1.9-8,2.9c22.4,23.2,21.8,60.2-1.5,82.7c-5.1,4.9-11,8.8-17.4,11.6
		C117.8,331.5,204.7,437.6,321,490.4c116.3-52.7,203.2-158.9,229.4-287.1C528.9,194,515.1,172.9,515.1,149.5"/>
	<path class="st0" d="M165.3,181.9c-2.3-1.6-6.4-3.6-6-4.9c0.9-3.1,22.8-3.1,26.9,12.8c3.3,13.1,6.8,29.7,14.3,32.4
		c7.9,2.8,12.6,0,16-2.4c0,0,12.2-10.2,22.5-10.4c9.1-0.2,15.6,2.6,23.5,6.8c0,0,15.2,9.5,25.9,9.1c10.7-0.4,16.8-6.5,21.9-9.8
		c5.1-3.3,19-11.8,27.9-7.5c4.4,2.1,0.9,8.6-0.9,11.8c-1.2,2.1-5.8,11.9,2.1,15.3c10.8,4.6,40.5-25.6,65.1-25.6
		c10.4,0,22.5,10.4,22.5,10.4c3.4,2.4,8.2,5.3,16,2.4c7.5-2.7,11.5-19.8,14.2-32c3.7-16.4,25.4-16.1,25.6-13.2
		c0.1,1.4-3.1,3.1-5.6,4.6c-2.6,1.5-2.7,2.2,2.3,3.8c11.4,3.6,22.4,7.7,32.8,11.8c-10.7-13.6-16.5-30.4-16.5-47.6
		c0-17.9,6.1-34.3,16.3-47.4c-61.7-20.9-126.4-31.5-191.5-31.4c-65.1-0.1-129.8,10.5-191.4,31.4c10.6,13.5,16.3,30.2,16.3,47.4
		c0,17.2-5.8,34-16.4,47.5c10.8-4.4,21.7-8.3,32.8-11.7C167.5,183.8,167,183,165.3,181.9 M372.2,365.1c-3.7,4.2-17.4,25.3-23.5,32.5
		c-6.2,7.3-16,14.4-27.8,14.4c-11.8,0-21.6-7.1-27.8-14.4c-6.1-7.2-19.8-28.3-23.5-32.5c-7.3-8.5-18.5-8.2-38-3.4
		c-11.1,2.8-22,6.3-32.6,10.5c34.2,37.2,75.7,67,121.9,87.3c46.2-20.4,87.7-50.1,121.8-87.3c-10.6-4.3-21.6-7.8-32.7-10.6
		C390.7,356.9,379.5,356.6,372.2,365.1"/>
	<path class="st0" d="M331.6,307.9c-3.4,2.7-7.5,6.1-10.9,6.1c-3.4,0-7.4-3.4-10.9-6.1c-1.3-1-1-2.5,2.1-3c2.1-0.3,4.9-0.5,8.8-0.5
		c3.9,0,6.6,0.2,8.8,0.5C332.6,305.4,332.9,306.8,331.6,307.9z M331.7,374.7l3.6,3.7c0,0,2.8-4.4,2.9-11.7c0,0,3.1,6.5,2.3,12.1
		c-0.1,0.9-0.4,3.2-2.7,3.9c-2.3,0.7-7.8,2.7-16.8,2.7c-8.9,0-14.5-2-16.8-2.7c-2.3-0.7-2.6-3-2.7-3.9c-0.8-5.6,2.3-12.1,2.3-12.1
		c0.1,7.2,2.9,11.7,2.9,11.7l3.6-3.7l3.2,4.7l4.2-4l3.2,4.5l3.2-4.5l4.2,4C328.5,379.4,331.7,374.7,331.7,374.7z M442.7,239.4
		c-9.6-2.7-15.6-4.4-22.8-5.6c-5.5-1.1-10.9,2.5-12.1,8c-1.9,7.8-7.3,19.2-21.5,21.6c-20.3,3.4-25.2-13.4-30.3-11.8
		c0,0,7.3-6.7,18.6-13.3c-0.7,1.7-1.2,3.7-1.2,5.8c0,7.5,6.3,13.5,6.3,13.5s6.3-6,6.3-13.5c0-4-1.8-7.5-3.4-10
		c12.3-6.7,24.5-8.2,24.5-8.2s-13.4-7.5-36.7,4.9c-6.3,3.4-13.9,7.6-23.9,16.4c-2.4,2.1-10.8,8.5-9.5,17.6c0.7,5.3,7,9,3.8,12.9
		c-2.8,3.4-7.9-2-19.8-2c-11.8,0-17,5.4-19.8,2c-3.2-3.9,3.1-7.6,3.8-12.9c1.3-9.1-7.1-15.5-9.5-17.6c-7.3-6.5-15.3-12-23.9-16.4
		c-23.3-12.4-36.7-4.9-36.7-4.9s12.2,1.4,24.5,8.2c-1.7,2.5-3.4,6-3.4,10c0,7.5,6.3,13.5,6.3,13.5s6.3-6,6.3-13.5
		c0-2.1-0.5-4-1.2-5.8c6.6,3.8,12.8,8.3,18.6,13.3c-5.1-1.6-10,15.2-30.3,11.8c-14.3-2.4-19.6-13.8-21.5-21.6c-1.2-5.5-6.5-9-12.1-8
		c-7.2,1.2-13.2,2.9-22.8,5.6c-23.5,6.6-46.5,15-68.8,25.1c8.7,21.1,19.4,41.2,31.8,60.3c5-2.4,9.8-4.4,13.7-5.8
		c11.4-4.2,24.5-10.1,46-0.2c22.8,10.5,41,31,41,31c1.3-0.8,0.9-3.7-0.3-6.1c-2.2-4.2-7.2-9.1-9.9-11.8
		c-13.9-13.9-1.2-15.4,3.9-15.4c8.8,0.1,17.9,3.3,17.9,3.3c-13.6-13.6-53.3-14.2-53.3-14.2c28.2-7.7,62.8,8.9,62.8,8.9
		c-27.9-24.8-89-18.9-89-18.9c45.5-12.6,86.8,8.5,86.8,8.5c-21.3-18.9-57.7-20.2-57.7-20.2c39.1-4.4,66.7,15,75.3,26.1
		c6.8,8.8,8.5,11.8,9.1,13c0.7,1.2,3.5,6.5,0.3,10.2c-3.2,3.7-10.2,3-10.2,3s-2.1,8.6-1.6,11.9c0,0-4-2.6-4.7-11.9
		c0,0-5.6-0.9-10.2-3.7c-4.6-2.8-11.8-7.4-15.3-4c-3.5,3.3,0.5,8.6,2.3,11.2c1.8,2.6,24.2,41.4,27.8,46.6c4.3,6.2,11.6,13,23.8,13
		c12.2,0,19.5-6.8,23.8-13c3.6-5.2,26-44,27.8-46.6c1.8-2.6,5.8-7.9,2.3-11.2c-3.5-3.3-10.7,1.2-15.3,4c-4.6,2.8-10.2,3.7-10.2,3.7
		c-0.7,9.3-4.7,11.9-4.7,11.9c0.5-3.3-1.6-11.9-1.6-11.9s-7,0.7-10.2-3c-3.2-3.7-0.3-8.9,0.4-10.2c0.6-1.1,2.3-4.1,9.1-12.9
		c8.6-11.2,36.2-30.5,75.3-26.1c0,0-36.4,1.3-57.7,20.2c0,0,41.3-21,86.8-8.5c0,0-61.1-6-89,18.9c0,0,34.6-16.6,62.8-8.9
		c0,0-39.7,0.6-53.3,14.2c0,0,9.1-3.2,18-3.3c5,0,17.8,1.5,3.9,15.4c-2.7,2.7-7.7,7.6-9.9,11.8c-1.3,2.4-1.6,5.3-0.4,6.1
		c0,0,18.2-20.4,41-31c21.5-9.9,34.6-4,46,0.2c3.9,1.4,8.7,3.5,13.8,5.9c12.5-19.1,23.1-39.2,31.8-60.3
		C489.2,254.5,466.2,246.1,442.7,239.4z"/>
	<path class="st1" d="M201.7,148.4c-2.9,0.8-7.8,5-16.6,7.2c-14.9,3.8-24.9-1.8-28.3-14.8c-3.3-12.9,3.4-23.8,19.8-28
		c5.8-1.5,10.3-1.5,12.8-2.1c1.3-0.4,2.5-0.8,3.8-1.4l-0.1,11c-4.9-1.5-10-1.6-14.9-0.4c-9.5,2.4-13.5,9.2-11.1,18.7
		c2.3,8.8,7.8,12.3,16.2,10.1c7.3-1.9,10.5-5.5,9.3-10.2l-0.9-3.7l-8.9,2.3c-1.8,0.4-3.5,1.4-4.6,2.9l0-5.6c0.1-3,0.7-3.7,3.9-4.5
		l18.3-4.7c-0.8,1.4-0.5,2.5-0.1,4.1l4.8,18.9C203.9,148.1,202.8,148.2,201.7,148.4 M212.2,140.8l-4.4-27c-0.6-3.7-2-5.8-4.5-6.5
		l41.8-6.8c-0.3,0.5-0.5,1.1-0.4,1.8c0.1,0.8,1.7,3.5,3.9,8.5c-4.9-2.1-9.7-2-15.2-1.2l-15.9,2.6l1.6,9.6l17.5-2.8
		c2.3-0.4,3.9-1.2,5.2-2l-2.4,6.3c-0.6,1.6-2,2.8-3.8,3l-15.4,2.5l1.7,10.3l16.7-2.7c6.6-1.1,11.6-3.7,14.7-7.4
		c-1.3,6.2-2.3,9.7-2.1,10.7c0.1,0.6,0.4,1.1,1,1.7l-42.4,6.9C212.2,147,212.9,144.5,212.2,140.8 M260,133.5l-2-27.2
		c-0.3-3.8-1.5-5.9-3.9-6.9l42.2-3.1c-0.4,0.5-0.6,1.1-0.6,1.7c0.1,0.8,1.4,3.6,3.2,8.8c-4.7-2.5-9.5-2.9-15-2.4l-16,1.2l0.7,9.7
		l17.7-1.3c2.4-0.2,4-0.9,5.3-1.5l-2.9,6.1c-0.7,1.6-2.3,2.6-4,2.7l-15.5,1.1l0.8,10.5l16.9-1.3c6.7-0.5,11.9-2.6,15.3-6.1
		c-1.8,6.1-3.1,9.5-3,10.5c0,0.6,0.3,1.1,0.9,1.8l-42.8,3.2C259.5,139.7,260.3,137.3,260,133.5 M304.8,95.8l16.9,0.3
		c-2.4,1-3.6,3.4-3.7,7.1l-0.5,27.3l11.5,0.2c6.4,0.1,11.5-1.1,15.9-4.7c-2.3,5.9-4,9.2-4,10.2c0,0.6,0.3,1.1,0.8,1.8l-37.5-0.6
		c2.4-1.1,3.4-3.4,3.5-7.1l0.5-27.3C308.1,99.2,307.2,97,304.8,95.8"/>
	<path class="st1" d="M376.8,118.9c0.6-8.6-3.7-13.9-11.6-14.5c-8.8-0.7-14.1,4.3-14.8,13.8c-0.6,8.5,3.7,13.7,11.6,14.3
		C370.8,133.2,376.1,128.2,376.8,118.9 M362,140.3c-15.1-1.1-23-10.1-22-23c1-13.2,10.6-21.6,25.3-20.5c15.1,1.1,23.1,9.8,22,23.5
		C386.3,132.8,376.7,141.4,362,140.3 M400.2,136c-0.6,3.8-0.2,6.1,2.2,7.7l-15.7-2.6c2.6-0.7,3.9-2.8,4.5-6.6l4.4-26.7
		c0.6-3.8,0.1-6.2-2.2-7.7l19.5,3.2c-0.3,0.3-0.5,0.6-0.6,1c0,0.5,0.1,1.1,0.3,1.6l10.5,33.5l4.2-26.4c0.6-3.8-0.1-6.3-2.3-7.7
		l15.3,2.5c-3.4,1.1-3.9,3.4-4.4,6.5c0,0.1,0,0.2-0.1,0.3l-4.9,30.1c-0.2,1.5-0.3,2.6,0.4,3.7l-16-2.6c0.3-0.3,0.5-0.7,0.7-1.2
		c0-0.5-0.1-1-0.3-1.5L404,108.5L400.2,136L400.2,136z M475.1,157.4c-3-0.8-9.2,0.6-18-1.6c-14.9-3.8-21-13.5-17.7-26.6
		c3.3-12.9,14.3-19.3,30.8-15.1c5.8,1.5,9.7,3.6,12.3,4.3c0.8,0.2,2.1,0.4,4,0.6l-5.4,9.6c-3.5-3.6-8-6.2-12.9-7.5
		c-9.5-2.4-16.3,1.6-18.7,11.1c-2.2,8.8,1,14.5,9.4,16.7c7.3,1.8,11.8,0.2,13.1-4.6l0.9-3.7l-8.9-2.3c-1.8-0.6-3.8-0.4-5.5,0.3
		l2.7-4.9c1.5-2.6,2.4-2.9,5.6-2.1l18.3,4.6c-1.4,0.9-1.7,1.9-2.1,3.5l-4.8,18.9C477.2,158.2,476.1,157.8,475.1,157.4"/>
</g>
</svg>
