<?xml version="1.0" encoding="UTF-8" standalone="no"?>
<svg version="1.1" id="Layer_1" xmlns="http://www.w3.org/2000/svg" xmlns:xlink="http://www.w3.org/1999/xlink" x="0px" y="0px"
	 width="100%" viewBox="0 0 96 96" enable-background="new 0 0 96 96" xml:space="preserve">
<path fill="#DFDFDF" opacity="1.000000" stroke="none" 
	d="
M51.000000,97.000000 
	C34.000004,97.000000 17.500006,97.000000 1.000007,97.000000 
	C1.000004,65.000008 1.000004,33.000019 1.000002,1.000020 
	C32.999985,1.000013 64.999969,1.000013 96.999969,1.000006 
	C96.999977,32.999981 96.999977,64.999962 96.999985,96.999969 
	C81.833336,97.000000 66.666664,97.000000 51.000000,97.000000 
M5.034350,81.832336 
	C5.009315,90.223305 6.896852,92.209824 15.074966,92.216743 
	C37.210789,92.235497 59.346642,92.226784 81.482483,92.221886 
	C90.638367,92.219864 92.322968,90.384865 91.973389,80.074745 
	C91.926552,75.049782 91.879715,70.024811 91.978859,64.076393 
	C91.930222,59.050999 91.881584,54.025604 91.966507,48.074844 
	C91.922035,43.048943 91.877563,38.023041 91.972786,32.072979 
	C91.926193,27.048445 91.879608,22.023912 91.978104,16.145971 
	C92.034332,7.385405 90.411118,5.717504 81.759933,5.715045 
	C59.820793,5.708810 37.881649,5.706893 15.942514,5.715794 
	C6.352247,5.719685 4.676115,7.489207 5.026518,17.923853 
	C5.073316,22.948282 5.120114,27.972713 5.033281,33.922039 
	C5.077872,38.948093 5.122463,43.974152 5.021153,49.924973 
	C5.069809,54.949932 5.118466,59.974888 5.026614,65.923882 
	C5.073371,70.948967 5.120129,75.974045 5.034350,81.832336 
z"/>
<path fill="#E61230" opacity="1.000000" stroke="none" 
	d="
M91.833023,16.999378 
	C91.879608,22.023912 91.926193,27.048445 91.445511,32.535202 
	C62.334457,32.997334 33.750683,32.997238 5.166912,32.997143 
	C5.120114,27.972713 5.073316,22.948282 5.554458,17.461662 
	C34.665939,16.999439 63.249481,16.999409 91.833023,16.999378 
z"/>
<path fill="#FED300" opacity="1.000000" stroke="none" 
	d="
M5.100097,33.459591 
	C33.750683,32.997238 62.334457,32.997334 91.375656,32.997284 
	C91.877563,38.023041 91.922035,43.048943 91.442467,48.537453 
	C62.334637,49.000107 33.750847,49.000156 5.167055,49.000206 
	C5.122463,43.974152 5.077872,38.948093 5.100097,33.459591 
z"/>
<path fill="#002C57" opacity="1.000000" stroke="none" 
	d="
M5.094104,49.462589 
	C33.750847,49.000156 62.334637,49.000107 91.375687,49.000134 
	C91.881584,54.025604 91.930222,59.050999 91.448151,64.538139 
	C62.334003,64.999878 33.750561,64.999863 5.167122,64.999847 
	C5.118466,59.974888 5.069809,54.949932 5.094104,49.462589 
z"/>
<path fill="#E61230" opacity="1.000000" stroke="none" 
	d="
M5.096869,65.461868 
	C33.750561,64.999863 62.334003,64.999878 91.375160,64.999863 
	C91.879715,70.024811 91.926552,75.049782 91.445824,80.537048 
	C62.334469,80.999275 33.750675,80.999199 5.166886,80.999130 
	C5.120129,75.974045 5.073371,70.948967 5.096869,65.461868 
z"/>
<path fill="#002C57" opacity="1.000000" stroke="none" 
	d="
M91.905563,16.572674 
	C63.249481,16.999409 34.665939,16.999439 5.624688,16.999424 
	C4.676115,7.489207 6.352247,5.719685 15.942514,5.715794 
	C37.881649,5.706893 59.820793,5.708810 81.759933,5.715045 
	C90.411118,5.717504 92.034332,7.385405 91.905563,16.572674 
z"/>
<path fill="#FED300" opacity="1.000000" stroke="none" 
	d="
M5.100618,81.415733 
	C33.750675,80.999199 62.334469,80.999275 91.375687,80.999237 
	C92.322968,90.384865 90.638367,92.219864 81.482483,92.221886 
	C59.346642,92.226784 37.210789,92.235497 15.074966,92.216743 
	C6.896852,92.209824 5.009315,90.223305 5.100618,81.415733 
z"/>
</svg>
