<?xml version="1.0" encoding="utf-8"?>
<!-- Generator: Adobe Illustrator 19.2.1, SVG Export Plug-In . SVG Version: 6.00 Build 0)  -->
<svg version="1.1" id="layer" xmlns="http://www.w3.org/2000/svg" xmlns:xlink="http://www.w3.org/1999/xlink" x="0px" y="0px"
	 viewBox="0 0 652 652" style="enable-background:new 0 0 652 652;" xml:space="preserve">
<style type="text/css">
	.st0{fill:#061A33;}
	.st1{fill:#DE0316;}
</style>
<g>
	<path class="st0" d="M552.7,133.3c-8.5-3-17.1-5.8-25.8-8.4v-20.4c0,0-71-32.9-206.1-32.9c-135.2,0-206.1,32.9-206.1,32.9v20.4
		c-8.6,2.7-17.2,5.5-25.8,8.5v138.2l30.9,34.1c28.3,193,164.9,257.7,196.2,265c2.1,0.5,4.8,1,4.8,1s2.7-0.5,4.8-1
		c31.3-7.2,167.4-71.7,196-263.7l31.1-35.4L552.7,133.3L552.7,133.3z"/>
	<path class="st1" d="M502.7,260.2l-0.3-0.1C494.7,472,355.1,540.5,325,547.6c-1.8,0.4-4.2,0.9-4.2,0.9s-2.4-0.4-4.2-0.9
		C286.5,540.5,146.9,472,139.3,260l-0.3,0.1c2.7,221.5,147,292.5,177.7,299.7c1.8,0.4,4.2,0.9,4.2,0.9s2.4-0.4,4.2-0.9
		C355.7,552.5,499.9,481.6,502.7,260.2"/>
	<path class="st1" d="M277.6,337.2l31.8,90.5l0-45.4l-19.5-57.4l0,0l-9.6-28.3l-2.7-7.8h-23.1l7.2,10.2l0,168.3l-6.7,10.1h29.3
		l-6.7-10.1V337.2z"/>
	<path class="st1" d="M249.7,415.4c-4-4.1-7.4-8.7-10.1-13.7c-2.8-5.2-4.6-10.9-5.5-16.7c-1-7.4-0.2-14.9,2.3-22
		c1.8-5.2,4.5-10.1,7.9-14.6c4-5.2,8.6-9.9,13.9-13.8v-21.4l-0.6,0.4v0c-1.9,1.1-3.7,2.1-5.6,3.2c-1.7,1-3.3,2.1-4.8,3.3
		c-8.4,6.3-15.5,14.1-21,23c-3.4,5.6-6.3,11.5-8.5,17.7c-1.1,3.1-2.2,6.3-3.3,9.4c-0.9,2.6-1.8,5.3-2.8,7.9
		c-0.1,0.2-0.2,0.4-0.2,0.6c0,0.2,0.2,0.5,0.3,0.7l1,2.8c1.5,4.5,3.1,9,4.6,13.4c1.7,5,3.9,9.8,6.4,14.5
		c4.9,9.1,11.5,17.1,19.3,23.9c2.9,2.5,5.8,4.8,9.1,6.7c1.8,1.1,3.7,2.1,5.5,3.1v0c0.2,0.1,0.4,0.2,0.6,0.4v-21.4
		C255.2,420.6,252.3,418.1,249.7,415.4 M346.8,439.9c-7.9,1.7-15.9,2.6-24,2.8c-7.5,0.1-15.1-0.5-22.5-1.7c-6.6-1.1-13-2.8-19.3-5.1
		V454c7.7,2.2,15.5,3.7,23.4,4.6c9.1,1,18.3,1.2,27.5,0.5c9.7-0.7,19.3-2.4,28.7-5v-18.1C356.1,437.6,351.5,438.9,346.8,439.9
		 M309.4,315.3v-16.9c-0.6,0.1-1.2,0.1-1.8,0.1c-7.3,0.7-14.6,1.9-21.8,3.7l5.5,16.3C297.3,316.9,303.3,315.9,309.4,315.3"/>
	<path class="st1" d="M380.1,298.9l7.2-10.2h-23.1l-2.7,7.8l-9.6,28.4l0,0l-19.5,57.4l0,45.4l31.8-90.5v130l-6.7,10.1h29.3l-6.7-10
		L380.1,298.9z"/>
	<path class="st1" d="M396.4,345.2c2.5,2.9,4.8,6.1,6.7,9.4l6-5.5l8.2-7.5l2.4-2.2c-4.1-3.5-8.2-7-12.3-10.5c-2.4-2-4.7-4.1-7.1-5.9
		c-2.4-1.9-5-3.7-7.6-5.3c-1.5-1-3.1-1.9-4.6-2.8c-1.3-0.8-2.6-1.5-3.9-2.1l-0.5-0.3v21.1C388.3,336.8,392.6,340.7,396.4,345.2
		 M405.3,404.9l-2.2-2c-4,7.3-9.9,13.6-16.4,18.8c-1,0.8-2.1,1.6-3.2,2.4v21.1c0.2-0.1,0.4-0.2,0.5-0.3c2.6-1.2,5.1-2.8,7.5-4.3
		c2.6-1.6,5.2-3.4,7.6-5.2c2.5-1.9,4.8-3.9,7.2-5.9c2.3-1.9,4.6-3.9,6.9-5.9c2.1-1.8,4.2-3.6,6.4-5.4l-5.3-4.9L405.3,404.9
		 M320.8,477.2l13.4-14.2h-26.7L320.8,477.2z M328.8,439.1l0-123.8c0,0,10.4,0.4,21.5,3.3l5.6-16.5c-8.9-2.2-18-3.5-27.1-4l0-20.4
		c0,0,12.7,0.1,17.6,0.6c4.8,0.5,12.8,3.2,12.8,3.2l0.4-19.4h-53.5l6.1,10.1l0.7,6v160.8C318.6,439.5,322.1,439.4,328.8,439.1
		 M108.1,148.5c7.1-2.3,14.3-4.5,21.5-6.6l4.9,45l0.8,11.4l1-11.9c1.7-15.9,3.4-31.9,5.2-47.8c7.3-2,14.6-3.8,21.9-5.5v102.5
		c-6.5,1.5-9.8,2.3-16.3,4v-63.2l-1,16.2l-5.3,48.8c-4.6,1.3-7,1.9-11.6,3.2l-5.3-45.6l-1-15.8v63.2c-6,1.8-8.9,2.7-14.9,4.7V148.5
		L108.1,148.5z M170.2,131.5c11.4-2.5,22.8-4.8,34.3-6.8v16.7c-6.9,1.2-10.3,1.8-17.2,3.2v25.6c5.6-1.1,11.1-2.2,16.7-3.1v16.5
		c-6.7,1.2-10.1,1.8-16.7,3.1v27.8c5.7-1.1,11.4-2.2,17.2-3.2v15.9c-11.5,1.9-22.9,4.2-34.3,6.8V131.5L170.2,131.5z M211.3,123.6
		c6.9-1.1,10.3-1.6,17.2-2.5v86.6c6.2-0.8,9.3-1.2,15.5-1.9v15.9c-10.9,1.3-21.8,2.8-32.7,4.5V123.6L211.3,123.6z M271.2,203.6
		c4.8-0.3,5-3.5,5-14.5c0-10.9-0.3-13.7-5-13.4l-4.2,0.3v27.8L271.2,203.6z M270.9,159.2c4.5-0.3,4.8-2.4,4.8-13.5
		c0-11.1-0.1-13.4-4.8-13.1c-1.6,0.1-2.3,0.2-3.9,0.3v26.6L270.9,159.2z M250,118.4c7.6-0.8,15.2-1.5,22.8-2
		c16.8-1.8,19.3,11.3,19.5,24.8c0.1,7,1.1,18.7-6.6,22.9c9.4,3,7.3,18.8,7.3,26c0,14.2-3.3,28.2-20,28.9c-7.6,0.5-15.3,1.2-22.9,2
		C250,221,250,118.4,250,118.4z M349.8,188.9v-73.5c6.9,0.3,10.4,0.5,17.4,1v73.9c0,10.9,0.3,13.4,5.2,13.8c4.9,0.4,5.2-2.1,5.2-13
		v-73.9c6.8,0.6,10.1,0.9,16.9,1.6v73.5c0.4,16.8-3.6,29-22.5,27.8C353.3,218.9,349.7,205.3,349.8,188.9 M421.2,173.9
		c4.9,0.7,4.8-4,5-17.2c0.1-4.9,1.7-16.5-5-18.3l-4-0.6v35.6L421.2,173.9L421.2,173.9z M400.5,119.4c7.7,0.9,15.3,1.9,23,3.1
		c18.3,3,19.9,20.4,19.8,35.8c0,9.4,1,23.5-8.2,29.6l7.6,40.4c-6.7-1.2-10.1-1.8-16.8-2.8c-2.2-12-4.4-23.9-6.7-35.9l-2.1-0.3v34.9
		c-5.6-0.8-11.1-1.5-16.7-2.2V119.4L400.5,119.4z M448.6,126.8c7.3,1.4,10.9,2.1,18.2,3.7L474,165l2.9,15.3v-47.6
		c6.4,1.5,9.6,2.3,16,3.9v102.5c-6.4-1.7-9.7-2.5-16.2-4l-9.2-41.7l-2.9-14.2v53.1c-5.3-1.1-10.7-2.2-16-3.2
		C448.6,229.3,448.6,126.8,448.6,126.8z M499.6,138.5c11.3,3.1,22.5,6.4,33.7,10v16.7c-5.6-1.8-11.2-3.6-16.8-5.2v25.6
		c6.6,1.9,9.8,3,16.4,5.1v16.5c-6.5-2.1-9.8-3.1-16.4-5.1v27.8c6.7,2,10.1,3,16.8,5.2V251c-11.1-3.6-22.4-7-33.7-10
		C499.6,241,499.6,138.5,499.6,138.5z M326.7,166.4c0-33.5,0-35.4-5.5-35.4c-5.4,0-5.4,1.9-5.4,35.4c0,33.8,0,35.6,5.4,35.6
		C326.7,202,326.7,200.2,326.7,166.4 M304.4,212.9c-5.8-6.9-6.1-20.1-6.1-46.9c0-25.7,0.3-38.9,5.7-46.1c3.3-4.1,8.8-5.9,17.2-5.9
		c8.3,0,14,1.8,17,5.7c5.7,7.1,5.8,20.2,5.8,46.4c0,28.6-0.1,41.1-5.9,47.5c-3.1,3.5-8.6,4.7-16.9,4.7
		C313,218.2,307.5,216.7,304.4,212.9"/>
</g>
</svg>
