<?xml version="1.0" encoding="utf-8"?>
<!-- Generator: Adobe Illustrator 19.2.1, SVG Export Plug-In . SVG Version: 6.00 Build 0)  -->
<svg version="1.1" id="layer" xmlns="http://www.w3.org/2000/svg" xmlns:xlink="http://www.w3.org/1999/xlink" x="0px" y="0px"
	 viewBox="0 0 652 652" style="enable-background:new 0 0 652 652;" xml:space="preserve">
<style type="text/css">
	.st0{fill:#A5ACAF;}
	.st1{fill:#331C54;}
	.st2{fill:#FFFFFF;}
</style>
<g>
	<path class="st0" d="M320,70.9c-79.2,0-132,13.2-132,13.2v230.3c0,20.6,2.5,36.7,26.4,52.3L320,435.6c0,0,93.5-61,105.6-68.9
		c23.9-15.6,26.4-31.7,26.4-52.3V84.1C452,84.1,399.2,70.9,320,70.9"/>
	<path class="st1" d="M444,314.3c0,9.9-0.6,17.9-3.6,25c-3.3,7.7-9.4,14.3-19.2,20.7c-10.4,6.8-82.7,54-101.2,66.1
		c-18.6-12.1-90.8-59.3-101.2-66.1c-9.8-6.4-15.9-13-19.2-20.7c-3-7.1-3.6-15.1-3.6-25V126.2c17.5-3.4,62.9-11,124-11
		c61.1,0,106.5,7.5,124,11V314.3z"/>
	<path class="st2" d="M269.9,309.1v15.8h76.8l23.5-20.1v-57.4l-23.5-20.1h-13.5v15.8h7.6l13.5,11.6v42.9l-13.5,11.6h-41.9v-66h7.9
		v-15.8h-36.9v15.8h13.2v66L269.9,309.1z"/>
	<path class="st2" d="M320,158.3c5.4,0,9.7,4.4,9.7,9.7c-0.3,5.4-4.9,9.5-10.3,9.2c-4.9-0.3-8.9-4.2-9.2-9.2
		C310.3,162.6,314.6,158.3,320,158.3z M312.1,303.8h15.8v-89.7H386v-15.8h-58.1V192c13.3-4.4,20.4-18.8,16-32
		c-3.4-10.3-13.1-17.3-23.9-17.3c-14,0-25.3,11.3-25.3,25.3c0,10.9,7,20.6,17.4,24v6.2H254v15.8h58.1V303.8z"/>
	<path class="st2" d="M393.9,287.8v21.6c0,7.5-1.9,10.9-9,15.4c-4.6,3-40.7,26.3-57,36.8v-31.5h-15.8v31.5c-19-12.2-38-24.5-57-36.8
		c-7-4.6-9-7.9-9-15.4v-21.6h-15.8v26.7c0,7.2,1.2,14,11.4,20.6c10.2,6.6,78.3,50.6,78.3,50.6s68.1-44,78.3-50.6
		c10.2-6.6,11.4-13.4,11.4-20.6v-26.7H393.9z"/>
	<path class="st1" d="M235.6,106V90.3c4.7-0.6,9.4-1.1,14.1-1.6v3.4c-3.2,0.3-6.4,0.7-9.6,1.1v2.9c2.3-0.3,4.6-0.5,6.8-0.8v2.6
		c-2.3,0.3-4.6,0.5-6.8,0.8v3.1c3.2-0.4,6.4-0.7,9.6-1.1v3.6C245,104.8,240.3,105.4,235.6,106 M267.6,103.2c-3,0.3-5.9-0.3-8.6-1.8
		c0.6-1,1.2-1.9,1.8-2.9c2.2,1.1,4.6,1.7,6.8,1.6c2.3-0.2,3.3-1.1,3.3-2c0-2.6-11.2-0.2-11.2-5.9c0-2.8,3.1-5.4,7.8-5.7
		c3.4-0.3,5.8,0.6,7.8,2l-2.1,2.6c-1.7-1.1-3.8-1.6-5.8-1.5c-2.1,0.2-3.3,1-3.3,1.9c0,2.5,11.2,0.3,11.2,5.9
		C275.4,100.5,272,102.8,267.6,103.2 M293.7,89v12.1c-1.5,0.1-3.1,0.1-4.6,0.2V89.2c-1.9,0.1-3.9,0.2-5.8,0.3V86
		c5.4-0.3,10.8-0.5,16.1-0.7v3.5C297.6,88.9,295.6,88.9,293.7,89 M304.9,100.8v-3.4l3.3-0.1v3.4L304.9,100.8 M328.9,100.7V87
		c1.4,0,2.1-0.9,2.1-1.9l2.1,0v15.6C331.7,100.7,330.3,100.7,328.9,100.7 M354.1,91.6c0-1.6-1.2-3.1-3.5-3.2c-2-0.1-3.2,0.8-3.2,2.2
		v0.3c0,1.4,1.1,2.4,3.1,2.5c1.3,0.1,2.6-0.3,3.6-1.1C354.1,92.2,354.1,91.6,354.1,91.6z M350.4,101.8c-2.5-0.1-4.9-0.9-6.9-2.5
		l1.8-2.4c1.4,1,3.2,1.7,4.8,1.8c2.7,0.1,4-1.4,4-3.7v-0.9c-1.2,1.1-2.9,1.6-4.5,1.5c-3.8-0.2-6.1-2.2-6.1-4.9v-0.3
		c0-3,2.8-5.5,7.1-5.3c4.5,0.2,7.6,3.3,7.6,7.6v1.8C358.2,99,355.2,102,350.4,101.8z M378.4,93.2c0-1.6-1.2-3.1-3.5-3.3
		c-2-0.2-3.2,0.7-3.2,2.1v0.3c0,1.4,1.1,2.4,3.1,2.6c1.3,0.1,2.6-0.2,3.6-1C378.4,93.8,378.4,93.2,378.4,93.2z M374.8,103.4
		c-2.5-0.2-4.9-1.1-6.9-2.7l1.8-2.4c1.4,1.1,3.1,1.8,4.8,1.9c2.7,0.2,3.9-1.3,3.9-3.5v-0.9c-1.3,1-2.9,1.5-4.5,1.3
		c-3.8-0.3-6.1-2.4-6.1-5.1v-0.3c0-3,2.8-5.4,7.1-5c4.5,0.4,7.5,3.5,7.5,7.9v1.8C382.6,100.8,379.6,103.7,374.8,103.4z M398.2,93.7
		l-4.4,4.3l4.4,0.5L398.2,93.7L398.2,93.7z M402.3,102v3.6l-4.1-0.5v-3.6c-2.8-0.3-5.6-0.6-8.5-0.9v-2.7c2.9-2.8,5.8-5.6,8.7-8.4
		l3.8,0.5v9l2.5,0.3v3C404.7,102.3,402.3,102,402.3,102z"/>
	<path d="M188.1,469.9h17.2v5.7h-11v3.3H205v5.6h-10.7v7.9h-6.3V469.9z M227.8,480.4c2.4,0,3.3-0.5,3.3-2.5c0-2.1-0.8-2.6-3.3-2.6
		h-5v5.2H227.8z M226.8,485.6h-4.1v6.7h-6.1v-22.4H228c8,0,9.4,3.5,9.4,7.7c0,2.8-0.7,5.7-4.3,7.2l4.1,7.5h-6.7L226.8,485.6z
		 M248.3,469.9h17.8v5.7h-11.6v2.7h11.3v5.5h-11.3v3.1h11.7v5.4h-18V469.9z M278.8,469.9h8.2l5,13.3l5.1-13.3h8.2v22.4h-6.1v-13
		l-5,13h-4.7l-5-12.9v12.9h-5.7V469.9z M329.3,484.3l-2.8-7.1l-2.8,7.1H329.3z M323.5,469.8h6.4l9,22.5h-6.5l-1.1-2.9h-9.6l-1.1,2.9
		h-6.1C314.5,492.3,323.5,469.8,323.5,469.8z M347.5,469.9h6.7l8.7,11.9v-11.9h6v22.4h-5.8l-9.7-13.1v13.1h-6V469.9z M385.6,475.6
		h-7.4v-5.7h21.2v5.7h-7.4v16.7h-6.3L385.6,475.6z M408.6,469.9h6.3v17h10.6v5.4h-16.8L408.6,469.9z M434,469.9h17.8v5.7h-11.6v2.7
		h11.3v5.5h-11.3v3.1H452v5.4h-18V469.9z"/>
	<path class="st1" d="M464.9,526l2.3,2.3v10.8l-3.2,2.6h-20.4V526H464.9z M468.7,552.5l9.8-8.2v-20.7l-8.9-8.9h-45V526h7.9v33.7
		h-7.9v11.2h19.1v-17.9h11.6l12.4,17.9h14.2v-11.2h-8.3L468.7,552.5L468.7,552.5z M145.8,552.8l-6.8,6.8h-19V526h19l6.8,6.8V552.8z
		 M101,514.7V526h7.8v33.7H101v11.2h42.7l13.4-13.4v-29.3l-13.4-13.4C143.7,514.7,101,514.7,101,514.7z M209.6,552.8l-6.8,6.8h-15.6
		l-6.8-6.8v-20.1l6.8-6.8h15.6l6.8,6.8V552.8z M182.6,514.7l-13.4,13.4v29.3l13.4,13.4h24.9l13.4-13.4v-29.3l-13.4-13.4L182.6,514.7
		L182.6,514.7z M539.1,532.7v-9.1l-8.9-8.9h-29.3l-8.9,8.9v15.9l8.9,8.9h24.7l2.3,2.3v6.6l-2.3,2.3h-20l-2.3-2.3v-4.4H492v9.1
		l8.9,8.9h29.3l8.9-8.9v-15.9l-8.9-8.9h-24.7l-2.3-2.3v-6.6l2.3-2.3h20l2.3,2.3v4.4L539.1,532.7z M245.6,514.7l-13.4,13.4v29.3
		l13.4,13.4h24.9l13.4-13.4v-7.9h-11.2v3.3l-6.8,6.8h-15.6l-6.8-6.8v-20l6.8-6.8h15.6l6.8,6.8v3.3h11.2v-7.9l-13.4-13.4L245.6,514.7
		z M350.5,526v-11.2h-11.1l-25.9,23.3v-23.3h-19.1V526h7.9v33.7h-7.6v11.2h18.9v-17.7l7.3-6.6l17.9,24.3h11.8v-11.2h-6.2L329.2,539
		l14.5-13.1L350.5,526z M361.8,526h9v33.7h-9v11.2h50.5V554h-11.2v5.6H382v-11.2h18v-11.2h-18V526h19.1v5.6h11.2v-16.8h-50.5V526z"
		/>
</g>
</svg>
