<?xml version="1.0" encoding="UTF-8" standalone="no"?>
<svg version="1.1" id="Layer_1" xmlns="http://www.w3.org/2000/svg" xmlns:xlink="http://www.w3.org/1999/xlink" x="0px" y="0px"
	 width="100%" viewBox="0 0 96 96" enable-background="new 0 0 96 96" xml:space="preserve">
<path fill="#D8D5D9" opacity="1.000000" stroke="none" 
	d="
M1.000000,33.000000 
	C1.000000,22.000002 1.000000,11.500004 1.000000,1.000004 
	C32.999992,1.000003 64.999985,1.000003 96.999985,1.000001 
	C96.999985,32.999989 96.999985,64.999977 96.999992,96.999969 
	C65.000023,96.999985 33.000038,96.999985 1.000029,96.999992 
	C1.000000,75.833336 1.000000,54.666668 1.000000,33.000000 
M37.308868,5.725348 
	C33.886776,5.812780 30.464682,5.900213 26.114874,5.860092 
	C23.267937,5.894545 20.421001,5.928999 16.933184,5.640331 
	C13.428899,4.426391 10.319424,4.711085 7.264356,8.251974 
	C6.836072,10.533968 6.407790,12.815963 5.642427,15.822751 
	C5.750891,19.511013 5.859355,23.199274 5.787326,27.824894 
	C5.761787,46.649189 5.688001,65.473610 5.739994,84.297691 
	C5.755672,89.973854 7.983133,92.169876 13.633528,92.183151 
	C37.123146,92.238335 60.613026,92.235039 84.102676,92.186852 
	C89.908302,92.174942 92.137878,90.068024 92.148705,84.476509 
	C92.186142,65.152962 92.110405,45.829197 92.191742,25.770298 
	C92.133636,22.209509 92.075523,18.648720 92.109016,14.279330 
	C91.408264,12.190793 90.707520,10.102256 89.672104,7.380735 
	C86.909019,4.651608 83.786942,4.277423 79.411461,5.793772 
	C76.587753,5.856737 73.764053,5.919701 70.209213,5.662348 
	C66.775436,5.781814 63.341656,5.901279 58.995705,5.847784 
	C52.019592,5.903383 45.043480,5.958982 37.308868,5.725348 
z"/>
<path fill="#46116C" opacity="1.000000" stroke="none" 
	d="
M92.077759,26.505514 
	C92.110405,45.829197 92.186142,65.152962 92.148705,84.476509 
	C92.137878,90.068024 89.908302,92.174942 84.102676,92.186852 
	C60.613026,92.235039 37.123146,92.238335 13.633528,92.183151 
	C7.983133,92.169876 5.755672,89.973854 5.739994,84.297691 
	C5.688001,65.473610 5.761787,46.649189 6.190395,27.491938 
	C20.482634,41.381180 34.371803,55.603374 48.713943,70.289406 
	C51.936646,66.805710 54.103687,64.299347 56.441364,61.963772 
	C68.295815,50.119980 80.194542,38.320511 92.077759,26.505514 
z"/>
<path fill="#F3EFF4" opacity="1.000000" stroke="none" 
	d="
M92.134750,26.137905 
	C80.194542,38.320511 68.295815,50.119980 56.441364,61.963772 
	C54.103687,64.299347 51.936646,66.805710 48.713943,70.289406 
	C34.371803,55.603374 20.482634,41.381180 6.280641,27.023258 
	C5.859355,23.199274 5.750891,19.511013 6.103901,15.610821 
	C20.687937,29.434246 34.810497,43.469601 50.022205,58.587379 
	C64.301003,43.797123 78.159203,29.442522 92.017410,15.087927 
	C92.075523,18.648720 92.133636,22.209509 92.134750,26.137905 
z"/>
<path fill="#F2EEF4" opacity="1.000000" stroke="none" 
	d="
M7.999770,7.993809 
	C10.319424,4.711085 13.428899,4.426391 17.422171,6.114271 
	C28.235195,16.832825 38.559235,27.077436 48.712891,37.152981 
	C59.565559,26.453060 69.958450,16.206450 80.351349,5.959842 
	C83.786942,4.277423 86.909019,4.651608 89.633270,7.956218 
	C76.081688,21.928196 62.568943,35.324688 49.077057,48.700508 
	C35.314148,35.061764 21.656960,21.527786 7.999770,7.993809 
z"/>
<path fill="#47126C" opacity="1.000000" stroke="none" 
	d="
M7.632063,8.122891 
	C21.656960,21.527786 35.314148,35.061764 49.077057,48.700508 
	C62.568943,35.324688 76.081688,21.928196 89.800598,8.272711 
	C90.707520,10.102256 91.408264,12.190793 92.063210,14.683626 
	C78.159203,29.442522 64.301003,43.797123 50.022205,58.587379 
	C34.810497,43.469601 20.687937,29.434246 6.272441,15.248424 
	C6.407790,12.815963 6.836072,10.533968 7.632063,8.122891 
z"/>
<path fill="#48146E" opacity="1.000000" stroke="none" 
	d="
M79.881401,5.876805 
	C69.958450,16.206450 59.565559,26.453060 48.712891,37.152981 
	C38.559235,27.077436 28.235195,16.832825 17.742611,6.275832 
	C20.421001,5.928999 23.267937,5.894545 26.723003,6.223038 
	C34.656658,13.705114 41.982182,20.824245 48.250351,26.915813 
	C55.844460,19.909706 63.392406,12.946189 70.940353,5.982669 
	C73.764053,5.919701 76.587753,5.856737 79.881401,5.876805 
z"/>
<path fill="#F6F3F7" opacity="1.000000" stroke="none" 
	d="
M70.574783,5.822510 
	C63.392406,12.946189 55.844460,19.909706 48.250351,26.915813 
	C41.982182,20.824245 34.656658,13.705114 27.186861,6.286815 
	C30.464682,5.900213 33.886776,5.812780 37.816643,6.174594 
	C41.820889,10.257712 45.317356,13.891585 49.035172,17.755507 
	C52.991920,13.485044 56.449902,9.752894 59.907879,6.020744 
	C63.341656,5.901279 66.775436,5.781814 70.574783,5.822510 
z"/>
<path fill="#4A176F" opacity="1.000000" stroke="none" 
	d="
M59.451790,5.934265 
	C56.449902,9.752894 52.991920,13.485044 49.035172,17.755507 
	C45.317356,13.891585 41.820889,10.257712 38.195892,6.319211 
	C45.043480,5.958982 52.019592,5.903383 59.451790,5.934265 
z"/>
</svg>
