<?xml version="1.0" encoding="utf-8"?>
<!-- Generator: Adobe Illustrator 19.2.1, SVG Export Plug-In . SVG Version: 6.00 Build 0)  -->
<svg version="1.1" id="layer" xmlns="http://www.w3.org/2000/svg" xmlns:xlink="http://www.w3.org/1999/xlink" x="0px" y="0px"
	 viewBox="0 0 652 652" style="enable-background:new 0 0 652 652;" xml:space="preserve">
<style type="text/css">
	.st0{fill:#003087;}
	.st1{filter:url(#Adobe_OpacityMaskFilter);}
	.st2{fill:#FFFFFF;}
	.st3{mask:url(#b_1_);fill:#003087;}
	.st4{filter:url(#Adobe_OpacityMaskFilter_1_);}
	.st5{mask:url(#d_1_);fill:#003087;}
	.st6{fill:#F2A900;}
</style>
<g>
	<path class="st0" d="M449.3,186.7c0,0,11.6-0.2,14.9,1.1c0,0,3-3.6,9.5-6.8C473.7,181,461.4,178.9,449.3,186.7"/>
	<path class="st0" d="M489.8,275.6c10.3-29.2-27.5-32-27.5-32C443,219,315.8,228.1,315.8,228.1c45.9-24.2,130.3-51.7,130.3-51.7
		c-5.8-6.4-21-13.4-21-13.4c4.4-1.5,8.5-2.9,12.2-4.1c0,0-21.2-13.3-55-22.6c0,0,9.1,4.7,27.7,20.5c0,0-40.1-18.6-115.6-14.9
		c0,0,16.9,6.5,44.7,22.9c0,0,4.3-3.9,12.2-5.8c-0.7,10,12.7,19.2,29.9,20.4c6,0.5,12.1-0.2,17.9-1.9c0,0-8.6,9.8-28.3,9.7
		c-23.8-0.1-30.8-12.7-30.8-12.7s-33.2,10.1-53.6,21c0,0,21.4-1.7,47.2-0.5c0,0-74.4,27.9-180.7,127.6c0,0-16.9-52.4,17.7-92.7
		c0,0,12-9.5,62-26.3c0,0-72.9,15-115.9,29.4c0,0,10.5-41.7,63.5-66.9c0,0,16.7-5,63.8-10.4c0,0-47.1-3.4-106.8,1.8
		c0,0,31.2-37.1,80.2-47.1c0,0,5.4-0.7,36.1-0.6c0,0-28-9.4-69.2-18.6c0,0,168.6-13.6,274.3,61.1c0,0-5.3,1.8-11.3,4
		c0,0,48.3,17.4,67.2,42.8C541.1,233.2,489.8,275.6,489.8,275.6 M371.2,257.7c15.8-8.8,32.3-18.6,32.3-18.6
		c33.9-1.3,47.8,6.2,47.8,6.2C409.2,247.5,371.2,257.7,371.2,257.7 M301.5,348.5c-26.3-13.3-32.7-32.1-32.7-32.1
		c35.7-51.4,89.8-54.7,89.8-54.7C317.8,300.5,301.5,348.5,301.5,348.5 M221,363.1c0,0-26.3-25.1-31.7-55.5c0,0,52.6-65.9,141.5-58.8
		C330.8,248.8,262.8,282,221,363.1 M474,152c0,0,5.8-2,10.8-3.3c0,0-120-100.2-358.3-70.9c0,0,30.4,12.6,56.7,26.6
		c0,0-41.7,12.2-84,69.5c0,0,5.7-0.2,38.2-1.2c0,0-34.3,24.7-46.6,86.1c0,0,19.3-6.9,49-14.3c0,0-22.8,40,7.2,112.1
		c0,0,12.7-15.4,29.9-31.2c0,0,10.7,39.4,50.9,66.6c0,0,14.8-34.5,31.1-57.1c0,0,13.2,23.9,52.3,35.8
		c37.4-113.7,135.6-109,135.6-109c49.7-1.2,19,39,19,39s61.7-17.9,72.9-75.1C538.6,225.7,547.7,185.5,474,152 M187.6,527.6l-4-17.1
		l-1.9-10.6l-4.6,10.6l-8.6,17.1L187.6,527.6L187.6,527.6z M227.1,568.2c-6.6,1.2-13.5,2-19.8,2c-3.6,0-7.1-0.3-10.2-0.8l-4-17.1
		h-37.3l-8.6,17.1c-4.5,0.5-9.2,0.7-13.7,0.7c-5.8,0-11.2-0.5-15.3-1.8L172.4,463c5.1-0.8,10.4-1,15.4-1c5.1,0,9.6,0.2,14.4,1
		C202.2,463,227.1,568.2,227.1,568.2z M414.3,556.2c-0.6,4.5-1.6,8.8-3.1,13.1h-71.4L354.2,463c5-0.8,10-1.3,15.1-1.3
		c5,0,9.9,0.5,14.7,1.3l-10.7,79.5h41.6C415.2,547.1,415,551.6,414.3,556.2"/>
	<g transform="translate(61.771 55.697)">
		<defs>
			<filter id="Adobe_OpacityMaskFilter" filterUnits="userSpaceOnUse" x="449.6" y="404.5" width="97.3" height="111.8">
				<feColorMatrix  type="matrix" values="1 0 0 0 0  0 1 0 0 0  0 0 1 0 0  0 0 0 1 0"/>
			</filter>
		</defs>
		<mask maskUnits="userSpaceOnUse" x="449.6" y="404.5" width="97.3" height="111.8" id="b_1_">
			<g class="st1">
				<path id="a_1_" class="st2" d="M546.9,404.5v111.8h-97.3V404.5H546.9z"/>
			</g>
		</mask>
		<path class="st3" d="M449.6,503.5c2-10.3,8.3-19.7,16.1-24c6.4,5.1,17.9,9.4,30.7,9.4c9.8,0,13.3-1.8,13.8-5.3
			c0.6-4.1-1.2-5.8-18.6-10.4c-17.9-4.6-32.7-11.6-29.9-33.5c2.8-22,22.2-35.3,48.3-35.3c19.2,0,31.6,6.3,36.9,11.1
			c-1.9,9.3-7.6,19.2-16.7,24.2c-5.2-4.1-14.5-8-26.3-8c-8.3,0-12.7,2-13.1,5.3c-0.5,3.8,0.7,5,20.1,9.8
			c18.6,4.6,30.8,13.2,28.8,31.8c-2.6,24.5-21,37.6-47.6,37.6C469.4,516.3,456.1,509.5,449.6,503.5"/>
	</g>
	<path class="st0" d="M501.9,543h-44.1l2-14.6h37.8c1.6-4.3,2.5-8.6,3.1-12.9c0.6-4.5,0.9-8.8,0.4-13.1h-37.8l1.8-13.1h42.6
		c1.6-4.5,2.5-8.8,3.1-13.2c0.6-4.3,0.8-8.8,0.4-13.1h-85.5l11.4,13.2l-12.6,93.2h73.9c1.5-4.3,2.6-8.7,3.1-13.3
		C502,551.8,502.3,547.3,501.9,543 M109.9,543H65.9l2-14.6h37.8c1.6-4.3,2.5-8.6,3.1-12.9c0.6-4.5,0.9-8.8,0.4-13.1H71.3l1.8-13.1
		h42.6c1.6-4.5,2.5-8.8,3.1-13.2c0.6-4.3,0.8-8.7,0.4-13.1H33.7l11.4,13.2l-12.6,93.2h73.9c1.6-4.5,2.5-8.8,3.1-13.3
		C110.1,551.8,110.3,547.3,109.9,543"/>
	<g transform="translate(30.668 55.446)">
		<defs>
			<filter id="Adobe_OpacityMaskFilter_1_" filterUnits="userSpaceOnUse" x="201.9" y="403.9" width="100.8" height="113.1">
				<feColorMatrix  type="matrix" values="1 0 0 0 0  0 1 0 0 0  0 0 1 0 0  0 0 0 1 0"/>
			</filter>
		</defs>
		<mask maskUnits="userSpaceOnUse" x="201.9" y="403.9" width="100.8" height="113.1" id="d_1_">
			<g class="st4">
				<path id="c_1_" class="st2" d="M201.9,517h100.8V403.9H201.9V517z"/>
			</g>
		</mask>
		<path class="st5" d="M256.2,450.4c-3.8,6.6-5,14.6-4.9,21.8H268l-2.7,16.4c-2.7,0.3-5.7,0.5-9.2,0.5c-15.2,0-23.4-10.9-21-28.3
			c2.4-17.7,13.1-28.3,29.2-28.3c7.3,0,13.8,1.8,18.8,5.5c9.4-4.8,16.8-15.4,19.6-24.9c-7.4-5.1-18.8-9.1-34.1-9.1
			c-35.6,0-61.5,24-66,57.3c-4.5,33.5,13.5,55.8,49.8,55.8c20,0,31.2-4.3,40.1-8.5l7.8-58.2L256.2,450.4L256.2,450.4z"/>
	</g>
	<path class="st0" d="M170.5,407.1c-1,0-1.9,0.1-2.6,0.1l-0.5,0l-0.1,0.5c-2.2,10.8-5.6,21.3-10,31.3c-1.3-7.9-2.3-17.7-3.1-29.9
		l0-0.5l-0.5-0.1c-1.6-0.3-3.3-0.5-5-0.5c-1.9,0-3.6,0.1-5.2,0.5l-0.4,0.1l-0.1,0.4c-1.4,8.4-5.1,19.4-9.9,30
		c-1.5-10.3-2.2-20.8-2.1-31.2v-0.6l-0.5-0.1c-1-0.1-2.1-0.2-3.1-0.2c-2.5,0-5.5,0.3-7.8,0.8l-0.5,0.1l0,0.5
		c0.6,16,2.6,29.6,6.1,41.4l0.1,0.4l0.4,0.1c1.8,0.3,3.5,0.5,5.6,0.5c1.6,0,3.5-0.2,5.3-0.5l0.3,0l0.2-0.2c2.5-4,7.1-11.8,9.6-20.9
		c0.5,6.3,1.2,13.1,3.1,20.7l0.1,0.4l0.4,0.1c1.8,0.3,3.4,0.5,5.4,0.5c2,0,3.8-0.2,5.4-0.5l0.3-0.1l0.1-0.2
		c8.1-12.6,13-27.3,17-41.4l0.2-0.6l-0.5-0.2C177,407.4,173.2,407.1,170.5,407.1z M214.6,407.5h-27.6l-5.8,43h28.1l0.2-0.4
		c1.3-2.6,1.7-5.2,1.3-9l-0.1-0.6h-17.1l1-7.3h14.7l0.2-0.4c1.1-2.3,1.5-5.1,1.2-8.5l-0.1-0.6h-14.7l0.8-6.4h16.6l0.2-0.4
		c1.4-3,1.8-5.5,1.3-9L214.6,407.5L214.6,407.5z M239.8,406.4c-5.7,0-10.5,1.8-13.6,5c-2.5,2.6-3.7,6-3.6,9.8
		c0.4,8.6,7.2,11,12.1,12.6c3.6,1.2,5.8,2.1,5.9,4c0,1-0.2,1.7-0.7,2.2c-0.8,0.8-2.4,1.2-4.8,1.2c-4.1,0-8.3-1.4-10.8-3.6l-0.3-0.3
		l-0.4,0.2c-2.8,1.6-5,4.7-5.7,8.2l-0.1,0.4l0.3,0.2c2,1.9,6.9,5.1,16.2,5.1c5.8,0,10.6-1.7,13.6-4.9c2.6-2.7,3.8-6.3,3.7-10.4
		c-0.4-9-7.4-11.4-12.6-13.1c-3-1-5.4-1.8-5.5-3.5c0-0.6,0.2-1.2,0.6-1.6c0.8-0.9,2.5-1.3,4.8-1.3c4.8,0,8.1,2,9.3,2.9l0.3,0.2
		l0.4-0.2c2.7-1.4,4.9-4.7,5.6-8.2l0.1-0.3l-0.3-0.3C253.2,409.8,248.8,406.4,239.8,406.4z M295.6,407.5h-32.9l-0.2,0.4
		c-1,2.5-1.4,5.4-1.2,8.9l0,0.6h11.1l-4.5,32.9l0.6,0.1c1.5,0.3,3.1,0.5,4.9,0.5c1.7,0,3.4-0.1,5-0.5l0.5-0.1l4.5-33h11l0.2-0.4
		c1-2.6,1.4-5.5,1.2-8.9C295.6,408.1,295.6,407.5,295.6,407.5z M341.1,406c-6.6,0-12.6,2.5-16.9,7c-4.8,5-7.2,12.2-6.9,20.2
		c0.5,11.3,7.9,18.4,19.4,18.4c5.6,0,10.3-1.4,13.9-4.3l0.3-0.2l0-0.3c-0.2-3.7-1.8-6.5-4.8-8.2l-0.4-0.2l-0.3,0.3
		c-2,1.5-3.6,2.6-7.4,2.6c-5.3,0-8.6-3.5-8.8-9.4c-0.2-5.1,1.1-9.4,3.8-12.2c1.9-2,4.5-3.1,7.2-3.1c2.8,0,4.7,0.6,6.6,2.3l0.3,0.3
		l0.4-0.2c2.9-1.5,5.6-4.8,6.6-8l0.1-0.4l-0.3-0.3C351.8,408.3,347.9,406,341.1,406z M380.6,406.1c-6.4,0-12,2.3-16,6.5
		c-4.7,4.9-7,12.1-6.7,20.4c0.5,11.5,7.9,18.6,19.3,18.6c6.5,0,12-2.3,16.1-6.5c4.7-4.9,7-12.1,6.7-20.4
		C399.5,413.3,392.1,406.1,380.6,406.1z M384.5,438.5c-1.7,1.8-4.1,2.8-6.6,2.7c-5,0-8-3.4-8.2-9.3c-0.2-5.5,1-10,3.6-12.6
		c1.7-1.8,4.1-2.7,6.6-2.7c6.5,0,8,5.1,8.2,9.3C388.3,431.4,387,435.9,384.5,438.5L384.5,438.5z M432.1,407.5
		c-1.6-0.3-3.2-0.4-4.9-0.4c-1.4,0-3.3,0-5.2,0.4l-0.3,0.1l-20.9,42.2l0.7,0.2c1.3,0.5,3.1,0.8,5.3,0.8c1.7,0,3.2-0.1,4.6-0.3l0.4,0
		l3.9-8.2H429l1.6,8.2l0.4,0.1c1.3,0.2,2.5,0.3,3.6,0.3c1.9,0,4-0.3,6.5-0.8l0.6-0.1l-9.3-42.3L432.1,407.5L432.1,407.5z
		 M419.9,433.2l4.3-9l0.8-1.8l0.3,1.7l1.8,9.2H419.9L419.9,433.2z M469.4,406.4c-5.7,0-10.5,1.8-13.6,5c-2.5,2.6-3.7,6-3.6,9.8
		c0.4,8.6,7.2,11,12.1,12.6c3.6,1.2,5.8,2.1,5.9,4c0,1-0.2,1.7-0.7,2.2c-0.8,0.8-2.4,1.2-4.8,1.2c-4.1,0-8.3-1.4-10.8-3.6l-0.4-0.3
		l-0.4,0.2c-2.8,1.6-5,4.7-5.7,8.2l-0.1,0.4l0.3,0.2c2,1.9,6.9,5.1,16.2,5.1c5.8,0,10.6-1.7,13.7-4.9c2.6-2.7,3.8-6.3,3.7-10.4
		c-0.4-9-7.5-11.4-12.6-13.1c-3-1-5.4-1.8-5.5-3.5c0-0.6,0.2-1.2,0.6-1.6c0.8-0.9,2.5-1.3,4.8-1.3c4.8,0,8.1,2,9.3,2.9l0.3,0.2
		l0.4-0.2c2.7-1.4,4.9-4.7,5.6-8.2l0.1-0.3l-0.3-0.3C482.8,409.8,478.4,406.4,469.4,406.4z M525.2,408.1l0-0.6h-32.9l-0.2,0.4
		c-1,2.5-1.4,5.4-1.3,8.9l0,0.6h11.1l-4.5,32.9l0.6,0.1c1.5,0.3,3.1,0.5,4.9,0.5c1.7,0,3.4-0.1,5-0.5l0.5-0.1l4.5-33h11l0.2-0.4
		C525.1,414.4,525.4,411.5,525.2,408.1z"/>
	<path class="st2" d="M369.9,164c-6.1-1.8-6.7-6.9-6.7-6.9s8.5-0.7,20.8,1.3C384,158.4,375.2,160.8,369.9,164"/>
	<path class="st6" d="M514.8,199.2c26.3,34-25,76.5-25,76.5c10.3-29.2-27.5-32-27.5-32C443,219,315.8,228.1,315.8,228.1
		c45.9-24.2,130.3-51.7,130.3-51.7c-5.8-6.4-21-13.4-21-13.4c4.4-1.5,8.5-2.9,12.2-4.1c0,0-21.2-13.3-55-22.6c0,0,9.1,4.7,27.7,20.5
		c0,0-40.1-18.6-115.6-14.9c0,0,16.9,6.5,44.7,22.9c0,0,4.3-3.9,12.2-5.8c-0.7,10,12.7,19.2,29.9,20.4c6.6,0.5,12.7-0.3,17.9-1.9
		c0,0-8.6,9.8-28.3,9.7c-23.8-0.1-30.8-12.7-30.8-12.7s-33.2,10.1-53.6,21c0,0,21.4-1.7,47.2-0.5c0,0-74.4,27.9-180.7,127.6
		c0,0-16.9-52.4,17.7-92.7c0,0,12-9.5,62-26.3c0,0-72.9,15-115.9,29.4c0,0,10.4-41.7,63.5-66.9c0,0,16.7-5,63.8-10.4
		c0,0-47.1-3.4-106.8,1.8c0,0,31.2-37.1,80.2-47.1c0,0,5.4-0.7,36.1-0.6c0,0-28-9.4-69.1-18.6c0,0,168.6-13.6,274.3,61.2
		c0,0-5.3,1.8-11.3,4C447.5,156.3,495.8,173.7,514.8,199.2 M464.2,187.8c0,0,3-3.6,9.5-6.8c0,0-12.3-2.1-24.4,5.7
		C449.3,186.7,460.9,186.5,464.2,187.8 M371.2,257.7c0,0,38-10.1,80-12.3c0,0-13.9-7.5-47.8-6.2C403.5,239.1,387,248.9,371.2,257.7
		 M301.5,348.5c0,0,16.3-48.1,57.1-86.8c0,0-54.1,3.3-89.8,54.7C268.8,316.5,275.2,335.2,301.5,348.5 M189.3,307.6
		c0,0,52.6-65.9,141.5-58.8c0,0-68,33.3-109.8,114.3C221,363.1,194.7,338,189.3,307.6"/>
</g>
</svg>
