<?xml version="1.0" encoding="UTF-8" standalone="no"?>
<svg version="1.1" id="Layer_1" xmlns="http://www.w3.org/2000/svg" xmlns:xlink="http://www.w3.org/1999/xlink" x="0px" y="0px"
	 width="100%" viewBox="0 0 96 96" enable-background="new 0 0 96 96" xml:space="preserve">
<path fill="#DDD8D4" opacity="1.000000" stroke="none" 
	d="
M65.000000,97.000000 
	C43.333336,97.000000 22.166674,97.000000 1.000009,97.000000 
	C1.000006,65.000008 1.000006,33.000019 1.000003,1.000021 
	C32.999985,1.000014 64.999969,1.000014 96.999969,1.000007 
	C96.999977,32.999981 96.999977,64.999962 96.999985,96.999969 
	C86.500000,97.000000 76.000000,97.000000 65.000000,97.000000 
M40.981861,92.136292 
	C55.456593,92.162109 69.931503,92.238602 84.405968,92.187614 
	C89.832184,92.168503 92.145493,89.971931 92.151390,84.705627 
	C92.175613,63.077396 92.081734,41.449028 91.996849,18.935951 
	C91.283096,14.885299 94.377769,9.806882 88.153915,6.349724 
	C87.676285,6.209444 87.198936,5.947479 86.720970,5.946326 
	C61.900234,5.886439 37.079334,5.798490 12.258769,5.854643 
	C7.767337,5.864804 5.748491,8.765781 5.744134,13.060349 
	C5.719797,37.051270 5.711197,61.042271 5.754488,85.033134 
	C5.762828,89.655197 8.215956,92.157425 12.885782,92.170250 
	C17.880009,92.183960 22.874643,92.049248 28.808889,92.032600 
	C32.559895,92.018028 36.310902,92.003456 40.981861,92.136292 
z"/>
<path fill="#FF7901" opacity="1.000000" stroke="none" 
	d="
M27.869099,91.979324 
	C22.874643,92.049248 17.880009,92.183960 12.885782,92.170250 
	C8.215956,92.157425 5.762828,89.655197 5.754488,85.033134 
	C5.711197,61.042271 5.719797,37.051270 5.744134,13.060349 
	C5.748491,8.765781 7.767337,5.864804 12.258769,5.854643 
	C37.079334,5.798490 61.900234,5.886439 86.720970,5.946326 
	C87.198936,5.947479 87.676285,6.209444 88.231384,6.989411 
	C86.077660,10.737210 83.843895,13.843483 81.615677,16.953722 
	C63.699558,41.961830 45.784492,66.970688 27.869099,91.979324 
z"/>
<path fill="#343E45" opacity="1.000000" stroke="none" 
	d="
M92.031296,19.820709 
	C92.081734,41.449028 92.175613,63.077396 92.151390,84.705627 
	C92.145493,89.971931 89.832184,92.168503 84.405968,92.187614 
	C69.931503,92.238602 55.456593,92.162109 40.619820,91.741089 
	C46.768242,82.293350 53.253033,73.222206 59.794983,64.192474 
	C70.520882,49.387733 81.283920,34.609894 92.031296,19.820709 
z"/>
<path fill="#FDFBFA" opacity="1.000000" stroke="none" 
	d="
M92.014069,19.378330 
	C81.283920,34.609894 70.520882,49.387733 59.794983,64.192474 
	C53.253033,73.222206 46.768242,82.293350 40.159843,91.667389 
	C36.310902,92.003456 32.559895,92.018028 28.338995,92.005959 
	C45.784492,66.970688 63.699558,41.961830 81.615677,16.953722 
	C83.843895,13.843483 86.077660,10.737210 88.551788,7.349692 
	C94.377769,9.806882 91.283096,14.885299 92.014069,19.378330 
z"/>
</svg>