<?xml version="1.0" encoding="utf-8"?>
<!-- Generator: Adobe Illustrator 19.2.1, SVG Export Plug-In . SVG Version: 6.00 Build 0)  -->
<svg version="1.1" id="layer" xmlns="http://www.w3.org/2000/svg" xmlns:xlink="http://www.w3.org/1999/xlink" x="0px" y="0px"
	 viewBox="0 0 652 652" style="enable-background:new 0 0 652 652;" xml:space="preserve">
<style type="text/css">
	.st0{fill:#F47A20;}
</style>
<path class="st0" d="M305.5,249.1c-4.2,6-11,9.5-18.3,9.5H220l34.7-48.5c4.2-5.8,11-9.2,18.1-9.2h159l92.4-129.1H285.7
	c-92.1,0-166.7,74.6-166.7,166.7c0,92.1,74.6,166.7,166.7,166.7l119.1-166.4l-91.8,0L305.5,249.1z"/>
<polygon class="st0" points="375.3,515.5 330,436 301.4,436 301.4,571.8 330,571.8 330,492.7 375.3,571.8 403.8,571.8 403.8,436 
	375.3,436 "/>
<polygon class="st0" points="414.2,462.9 449.2,462.9 449.2,571.8 478.8,571.8 478.8,462.9 513.9,462.9 513.9,436 414.2,436 "/>
<path class="st0" d="M593.8,496.6c-26.9-7.6-38.5-10.8-40.6-11.4c-1.2-0.4-2.2-1-2.2-2.6V465c0-1.2,0.8-2,2-2h27.3c1.2,0,2,0.8,2,2
	v11.4h28.9v-17.9c0-12.4-10-22.4-22.4-22.4H544c-12.4,0-22.4,10-22.4,22.4v30.4c0,12.4,6.9,17.7,19,21.2
	c25.3,7.1,36.1,10.2,39.6,11.2c1.6,0.4,2.6,1.2,2.6,2.6v19c0,1.2-0.8,2-2,2h-28.5c-1.2,0-2-0.8-2-2v-11.6h-29v18.1
	c0,12.4,10,22.4,22.4,22.4h46.1c12.4,0,22.4-10,22.4-22.4v-31.6C612.1,505.4,605.4,499.8,593.8,496.6"/>
<path class="st0" d="M74.2,523.5h19.2v19.4c0,1.2-0.8,2-2,2H61.2c-1.2,0-2-0.8-2-2V465c0-1.2,0.8-2,2-2h30c1.2,0,2,0.8,2,2v13.9h29
	v-20.4c0-12.4-10-22.4-22.4-22.4H52c-12.4,0-22.4,10-22.4,22.4v90.9c0,12.4,10,22.4,22.4,22.4h47.9c12.4,0,22.4-10,22.4-22.4v-51.6
	H74.2V523.5z"/>
<path class="st0" d="M219.6,436l-44.4,135.8h30.2l8.2-26.9h41.8l8.6,26.9H294L249.4,436H219.6z M222.2,518.8l12.2-45.3l12.2,45.3
	H222.2z"/>
<rect x="138.1" y="436" class="st0" width="29.6" height="135.8"/>
</svg>
