<?xml version="1.0" encoding="utf-8"?>
<!-- Generator: Adobe Illustrator 19.2.1, SVG Export Plug-In . SVG Version: 6.00 Build 0)  -->
<svg version="1.1" id="layer" xmlns="http://www.w3.org/2000/svg" xmlns:xlink="http://www.w3.org/1999/xlink" x="0px" y="0px"
	 viewBox="0 0 652 652" style="enable-background:new 0 0 652 652;" xml:space="preserve">
<style type="text/css">
	.st0{fill:#562500;}
	.st1{fill:#FFC400;}
	.st2{fill:#212121;}
	.st3{fill:#FFFFFF;}
</style>
<g>
	<path class="st0" d="M198.5,154.8l8.1-32.2c1.2-4.8,2-9.6,2.5-14.6h0.4c0,0,0.5,7.2,2.1,14.7l7.1,32.1H198.5L198.5,154.8z
		 M233.1,72.5H188l-27.2,91.3V72.5h-42.2v45.9h-16.3V72.5H60.1v118.6h42.2v-46.7h16.3v46.7h71l3.6-14.6h30.3l2,9
		c13.2-2.1,26.5-3.8,39.8-5L233.1,72.5L233.1,72.5z M555.2,116.8C545.3,112,542,109,542,104c0-4.5,3.4-6.6,9.6-6.6
		c6.9,0,13.2,2.4,17.6,4.8l8.5-24.3c-6.7-3.8-17.4-7.2-32.8-7.2c-27,0-44,17.9-44,39.8c0,11.6,5.1,25,23.2,33.8
		c9.8,4.7,12.8,7.8,12.8,12.2c0,3.8-3.4,6.4-9.8,6.4c-7.3,0-15-3.3-18.3-5.7l-4.4,13.4l-20.9-44.3l27.9-54h-42.6l-22.4,52.1H446
		V72.5h-77l-10.4,54.4c-1.3,6.7-1.6,13.2-1.6,13.2h-0.4c0,0-0.2-6.5-1.5-13.2l-11-54.4h-33.8l-11.5,54.4c-1.3,6.7-1.7,13.2-1.7,13.2
		h-0.4c0,0-0.3-6.5-1.6-13.2l-9.9-54.4h-42.8l30.4,107.4c15.2-1.2,30.5-1.8,45.8-1.9l6.5-26.1c1.4-5.7,1.8-11.5,1.8-11.5h0.4
		c0,0,0.5,5.9,2,11.5l6.9,26.3c15.1,0.4,30.1,1.3,45,2.8l22.7-80.6v83.3c14.1,2,28.1,4.4,42,7.4h0.2v-56.2h0.4l21,56.2h46.7
		l-0.1-0.2c6,1.3,13.3,2,21.8,2c27.3,0,46-17.2,46-39.3C581.8,139.7,578.6,128,555.2,116.8"/>
	<path class="st1" d="M127,220c3.3,147.6,73.9,238.6,193.8,334.4C440.7,458.6,511.4,367.5,514.6,220
		C452.7,198.1,387.5,187,320.8,187C254.1,187,188.9,198.1,127,220"/>
	<path class="st0" d="M532.1,277.7c3.7-21.5,3.5-34.3,3.5-34.3c-231.9-90.3-289.1,13-289.1,13c-51.9,11.1-93.3,43.2-77.6,93.4
		c4.7,15.2,15.7,29.2,30.3,39.9c-3.6-5.9-4.7-12.9-3-19.5c4-17.1,26.9-28.5,61.4-27c53.7,2.3,69.5,12,69.5,12s-89.8-19.9-114.6,0.7
		c6.2-1.5,12.6-2.3,19-2.3c53.8,0,97.4,36.3,97.4,121.1c0,30.8-5.8,55.2-15.7,73.8c-111.3-90.4-178.4-177.6-185.8-313.4
		c-6.9,2.5-13.7,5.1-20.5,7.8c3.5,189.1,213.6,327.9,213.6,327.9s16.8-11,27.1-18.6c18.2-55.5,13.1-117.3-15.8-169.7
		c34.5,46.6,44.3,105.5,30,159c12.9-10,25.4-20.6,37.4-31.7c2.6-50.4-12.6-100.1-43-140.3c35.2,34.7,54.1,81.7,54.3,129.5
		c10.3-10.1,20.1-20.7,29.4-31.7c-8.2-45-30.4-86.3-63.4-118.1c36.1,26.1,61.6,64.2,72.1,107.4c8.6-10.7,16.6-21.9,24.2-33.4
		c-18.1-39.3-46.3-72.8-82.3-97.6c38,19,69.1,49.4,89.1,86.8c6.5-10.5,12.5-21.3,18-32.4c-26.1-35.2-60.6-63.4-100.3-81.9
		c41.3,13.1,77.9,37.9,105.4,71.4c5.3-11.4,10-23,14.2-34.9c-35.1-31.9-76.9-54.5-122.4-66.1c46.5,5.9,90,24.9,126.2,54.9
		c4-12.6,6.9-24.2,9.1-34.4c-43-27.8-92.4-44.2-143.5-47.7C437.4,239.5,487.9,252.1,532.1,277.7"/>
	<path class="st1" d="M473.1,420L473.1,420L473.1,420z M207.4,294c-1.1,7.7,0.4,20.1,19.4,31.3c15,8.9,38.5,10.3,54.2,12.4
		c19.1,2.5,39.8,7.5,46.2,17.4c-6.5-17.4-41.8-19.2-64.3-26c-24.7-7.4-23.6-31.5-19.5-44.3c2.3-7.2,6.8-15.3,2.6-19.8
		c-3.4-3.7-10.2-1.3-10.2-1.3c-12.6,3.6-23.8,8.5-33.3,14.4C207.3,280.4,208.4,287.1,207.4,294"/>
	<path class="st0" d="M236.2,291.4c-0.4-2.4-3-4.1-5.9-3.6c-7.5,1.3-13.2,7.1-13.2,7.1c-0.9,0.9-1.3,2.1-0.7,2.9
		c0.6,0.9,2,1,3.2,0.3v0c0,0,2-1.1,4.1-1.7c2.8-0.7,5.7,0.2,5.7,0.2v0c0.7,0.2,1.5,0.2,2.3,0.1C234.5,296.2,236.6,293.9,236.2,291.4
		"/>
	<path class="st2" d="M317.3,268.1c-4.7,1.9-11.2,3.5-17.8,4.4c1.9,18.4,18.4,31.9,36.8,30c18.4-1.9,31.9-18.4,30-36.8
		c-0.6-6.1-2.9-11.8-6.5-16.7c-13.6,3-27.2,11.5-27.2,11.5C327.8,263.4,322.7,266,317.3,268.1"/>
	<path class="st1" d="M351.9,251.2c-6.9,2.4-13,5.6-16.4,7.5c7.3,1.4,12.1,8.6,10.7,15.9c-1.4,7.3-8.6,12.1-15.9,10.7
		c-7.3-1.4-12.1-8.6-10.7-15.9c0.2-0.9,0.4-1.8,0.8-2.6c-1,0.5-2,0.9-3.1,1.3c-3.4,1.3-6.9,2.3-10.4,3.1c1.2,14.4,13.8,25,28.1,23.9
		c14.4-1.2,25-13.8,23.9-28.1C358.4,261.1,356,255.5,351.9,251.2"/>
	<path class="st3" d="M334.7,260c0,3.2,2.6,5.9,5.8,5.9c3.2,0,5.9-2.6,5.9-5.8c0-2.2-1.2-4.2-3.2-5.2c-3.6,1.7-6.6,3.3-8.5,4.4
		C334.8,259.4,334.7,259.7,334.7,260"/>
	<path class="st2" d="M317.3,268.1c5.3-2.1,10.4-4.6,15.3-7.7c0,0,15-9.4,29.2-11.9c12-2.1,16.2-5.2,17.6-6.8
		c-36.7,2.1-72.6,11.6-105.5,27.9C282.4,276.2,305.6,272.7,317.3,268.1"/>
	<path d="M281,337.7c19.1,2.5,39.8,7.5,46.2,17.4c0,0-15.8-9.7-69.5-12c-34.5-1.5-57.5,9.9-61.4,27c-1.6,6.7-0.5,13.7,3,19.5
		c-14.6-10.7-25.5-24.8-30.3-39.9c-8.9-28.5,0.6-51.2,19.9-67.5c0,0,7.6-6.5,12.9-4.5c5.3,2,6.6,9,5.6,16.3
		c-1.1,7.7,0.4,20.1,19.4,31.3C241.8,334.2,265.3,335.6,281,337.7"/>
	<path class="st3" d="M219.3,273.5c-18.4,7.9-34,25.1-33,26.3c0.8,0.9,8.5-10.5,35.3-21c1.5-0.6,2.2-2.3,1.6-3.8c0,0,0,0,0-0.1
		C222.5,273.5,220.8,272.8,219.3,273.5"/>
</g>
</svg>
