<?xml version="1.0" encoding="utf-8"?>
<!-- Generator: Adobe Illustrator 19.2.1, SVG Export Plug-In . SVG Version: 6.00 Build 0)  -->
<svg version="1.1" id="layer" xmlns="http://www.w3.org/2000/svg" xmlns:xlink="http://www.w3.org/1999/xlink" x="0px" y="0px"
	 viewBox="0 0 652 652" style="enable-background:new 0 0 652 652;" xml:space="preserve">
<style type="text/css">
	.st0{fill:#C3D0E4;}
	.st1{fill:#003CA0;}
</style>
<g>
	<path class="st0" d="M225.6,289c-5.4,3.2-20.8,12.1-30.7,17.7c18.7-5.4,37.3-10.8,55.5-16.2c0.5-4.8,1.3-10.3,2.2-16.1
		c-8.2,5-16.5,10.1-24.8,15.3C228,284,225.6,289,225.6,289 M372.2,139c10.1-14.7,13.4-30.5,9.8-46.9l0-0.1c-0.4-1.4-0.7-2-0.9-2.2
		c-0.5,0.3-1.2,0.9-1.9,1.6c0.2,0.6,0.6,1.7,0.6,1.8l0,0.2c3.5,16.5-1.5,32-11.9,46.4c-6.1,8.5-12.6,14.8-15.4,17
		c0.5,0.2,1,0.5,1.6,0.7C361.2,152.5,367.3,146.2,372.2,139 M365.5,192.9c11.4,14.9,24.4,29.1,36.6,44.4c3.8,4.5,7,9,10.8,13.6
		l0.7-0.2l0.5-1.4c-13.9-18.3-27.6-36.8-41.1-55.5l-2.2-3l3.5-11c-17.6-15.9-32.5-19.3-32.7-19.3c-3.1-0.7-6.3-1-9.5-1H332
		c-2,0-4.1,0.1-6.1,0.4l-0.3,0l-0.6,0.1c-5.5,1.3-12.5,2.6-18,3.8c3.8,2.5,5.3,2.8,9.1,5.3l0,0.1c0,0,0.1,0.1,0.1,0.1
		c0.9,0.4,1.7,0.8,2.1,1.3c1.1,0.7,1.4,0.8,2.4,1.6l1.2,0.1c-2.5-3.7-8.8-10.1,7.5-12.5c0,0-0.1,0,0,0c5-1.1,33.5,10.7,37.9,21.8
		C367.5,181.5,365.5,192.9,365.5,192.9z M197.6,124c12.5,1.2,49.6,3.3,76.7,22.3c2.3,1.4,16.6,10.7,25.5,19.6l0.4,0
		c-11.5-14.3-40.7-42.7-91.2-42.7c-4.4,0-9,0.2-13.6,0.7C195.3,123.9,197.6,124,197.6,124z M274.3,247.6c0.4,0.7,0.9,1.7,1.3,2.4
		l0.4-0.2c0.1,0.2,0.1,0.2,0.3,0.5l0.6,0.9c0.8,1.1,1.3,1.7,1.4,1.8l0.1,0.1l0.1,0.1c3.8,4.6,11.8,12.4,23.4,13.2
		c1.2,0.2,2.3,0.2,3.4,0.2c2.7,0,5.2-0.6,7.5-1.5c-9-0.7-12.5-20.4-13.6-28.4l-0.5-0.1c-2.1,21.8-24,15.9-18.6-37.5
		c-6.3,10.6-9.5,20.8-9.4,30.6v0.1l-1.2,5.4c0,0.2-0.1,0.4-0.1,0.6l-0.6,0c0.3,3.2,0.9,6.2,1.9,8.8c0,0,2.7,7,5.1,9.3
		c-0.6-0.9-0.8-1.5-0.8-1.5l-0.6-4.4C274.1,247.7,274.3,247.6,274.3,247.6z M366.3,108.2c-0.4,0.4-0.9,1-1.6,1.6
		c-2.4,1.9-4.8,4.1-7.1,6.4c-8.1,7.8-19.2,20.5-26.1,36.3h0.6c0.5,0,1,0,1.6,0l0.3,0l0.9-1.6c4.6-7.8,15-25,21.8-29.7
		c0,0.1-15.8,23.9-16.5,32h0c1.8,0.6,3.7,1.1,5.7,1.3c-0.7-7.5,18-41.9,20.1-45.7C366.1,108.5,366.2,108.3,366.3,108.2 M399.4,290.7
		c-1.8,1-3.6,2-5.4,2.9c11.3,5.2,22.8,10.4,34.3,15.6l4.2,1.9l0.6,0.3C421.8,304.4,410.6,297.6,399.4,290.7 M370.7,230.1
		L370.7,230.1c-2.4-3.2-4.6-6.4-6.9-9.6c5,11.1,16.7,31,22.1,41.2l7.1,1.9l-8.8-14.8C380.7,243.9,373.8,234.7,370.7,230.1"/>
	<path class="st0" d="M423.8,282.9l-0.2,2.3l-2.1,0.8c-2.7,1-5.4,2.1-8.1,3.1c-1.7-1.4-3.4-2.8-5.2-4.2l1.1-0.8
		c3.2-1.3,6.5-2.6,9.8-3.9l0.3-0.1l0-0.3c0.7-9.4,1.5-19.3,2.4-30.4l0.1-1.9l-0.2-0.2c-15.6-18.5-30.9-37.3-45.9-56.2l7-12.5
		l0.2-0.3l-2-1.9c-9-8.5-13.2-10.8-18.8-13.8c3-2.6,11.6-10.9,17.2-21.3c9-17,10.2-32.1,6.3-50c-1.4-6.1-2.8-9.7-3.7-9.6
		c0,0-0.2-0.1-0.5,0.2c-2.9,3.6-5.7,7.2-8.6,10.8c-2.8,4.1-5.6,8.2-8.5,12.3c-2.4,1.8-9.2,6.9-17.2,15.7l0.6-3.8l-8.5,13.2
		c-4.9,6.5-9.6,14-13.1,22.4l-2.4,0.4l-0.2,0l-3.6,0.8l2.1,1.8l-8.9-0.2l-1.1,2.9c-3.1-0.1-8.9-1.6-8.9-1.6l-0.7,2.2
		c-4.7-5.4-12.7-14.2-23.9-21.7c-2.2-1.4-4.4-2.8-6.7-4.1L253,122l0.3,2.7c-14.3-4.9-29.8-7.1-46.2-7.1c-7.2,0-13.7,0.1-21.2,1.1
		c-1.4,0.2-3.4,0.4-3.8,1.9c-0.4,1.4,0.2,2.9,1.3,3.7c5.6,3.9,11.1,7.8,16.7,11.7c1.2,1.6,4.2,5.5,5.7,8.8
		c5.8,12.7,18.3,33.4,67.6,52.3c-2.9,6.9-4.8,14.1-5.7,21.5c-1.2-2.1-2.5-4.2-3.3-5.5c0.1-0.1-4.7,21.4-8.8,44L183,310.8l17.8-14.7
		l44.3-36.7c-1.7,1.3-1.4,1.1,4.2-3.5l9.3-52.1l0.4-1.6l3.9,4.1l1-6.1c-45.2-18.9-58.2-38.2-64.1-51.1c-0.7-1.4-2.1-3.7-3.9-6
		l-6.6-5.3l-2.2-1.8c-4.6-2.9-9-6.1-13.1-9.7c-6.8-5.9-7.3-6.6-6.7-8.9c-0.1-0.8,1.7-2.2,1.7-2.2c5.7-3.3,13-4.6,17.3-5.1l2.7-0.2
		c7.4-0.9,14.8-1.3,22.3-1.3c13.7,0.2,26.8,2.2,39.2,6.1l-0.2-2.1c0,0,12.1,4.9,23.5,12c3.4,1.8,6.7,3.8,9.9,6
		c7.8,5.3,15.1,11.4,21.6,18.3l2.7,3.5l2.6-5.5l8.9,2l1.6-3.6c4.7-10,10.8-18.8,16.7-25.9l8.9-13.1l-0.1,3.4c3.4-3.5,7-6.7,10.8-9.8
		l6.4-8.2c5-6.3,10.2-12.8,15.3-19.4c1.4-1.5,2.9-1.4,2.9-1.4c2.6,0,5.7,2.4,10.7,20l0,0.2c4.3,20,1.1,41.4-11.4,58.8
		c-3,4.2-5.9,7.8-9.1,10.8c0,0,10.6,7.3,19.2,16.4l-1.4,2.5l-5.9,10.8c12,16,26.4,33.4,42.1,53.2l1.3,1.6
		C427.1,245.4,423.8,282.9,423.8,282.9z"/>
	<path class="st0" d="M281.7,310c3.7-6.5,21-34.5,46.8-35.1c9.4,3.6,12.6,16,13.4,20.1l0.5,0c1.8-8.2,2.5-13.7,2.8-17
		c-0.2-0.1-0.4-0.2-0.5-0.2c-4.2-2.3-8.7-3.8-13.3-4.6c-2.2-0.4-3.6-0.4-3.6-0.4l0.1-0.3l1.5-3.3l-9.7,2.2l-12.2,2.8l0.7-3
		c-11.8-2-12.5-2.3-20.2-5.8l-0.1,0l-0.5-0.3l-0.1,0c-0.4-0.2-0.7-0.4-1.1-0.6c-1.7,14.8-3.5,29.9-5.4,45.4
		C281.1,310,281.7,310,281.7,310z"/>
	<path class="st1" d="M220,486.7c-0.8,6.2-1.6,12.4-2.5,18.4c-1-5.9-1.9-11.6-2.8-17.2c-3.7,0.9-7.4,1.8-11.1,2.9
		c0,10,0,20.1,0,30.1h8.2l-0.1-16.9c0.9,5.5,1.9,11.1,2.8,16.9h6.3c0.8-6,1.7-12.1,2.5-18.3l0.2,18.3h8.2l-0.5-36.4
		C227.5,485.1,223.7,485.8,220,486.7 M248.2,514.4l-0.2-11.2c1.7-0.1,3.3-0.2,5-0.3l-0.1-6.5c-1.7,0.1-3.3,0.3-5,0.4l-0.1-8.8
		c1.8-0.2,3.7-0.4,5.5-0.6l-0.1-6.5c-4.7,0.6-9.4,1.3-14.1,2.1l0.5,37.7h14.2l-0.1-6.5L248.2,514.4 M275.6,514l-5.6,0.1l-0.4-34.9
		c-2.9,0.3-5.8,0.6-8.7,0.9l0.6,40.8h14.2L275.6,514 M293.7,513.8c-0.6,0-1.2,0-1.8,0l-0.1-12.4l1.8,0l0.8,1l0.1,10.7L293.7,513.8
		 M291.7,484.6l1.8-0.1l0.8,1l0.1,8.1l-0.8,0.7l-1.8,0.1L291.7,484.6 M303.1,480.6l-3.5-3.3c-5.6,0.2-11.1,0.5-16.7,0.8l0.4,42.7
		l16.5,0l3.5-3.4l-0.1-17.9l-1.9-2l1.9-2L303.1,480.6 M322.4,513l-0.8,0.7h-0.9l-0.9-0.7v-28.2l0.9-0.7h0.9l0.8,0.7L322.4,513
		 M314.5,476.9l-3.4,3.5l0.1,37l3.4,3.4l13.1,0l3.5-3.4l0.1-36.9l-3.5-3.5C323.3,476.9,318.9,476.9,314.5,476.9 M339.2,477.2
		l-0.2,40.2l3.4,3.4l13.1,0l3.5-3.4l0.4-39.2c-2.9-0.2-5.8-0.4-8.8-0.6l-0.3,35.4l-0.8,0.7c-0.3,0-0.6,0-0.9,0l-0.9-0.7l0.3-35.5
		C345.1,477.5,342.2,477.3,339.2,477.2 M378.4,495.9l-0.8,0.6l-1.8-0.1l0.1-9.9l1.8,0.2l0.8,0.7L378.4,495.9 M367.3,478.9l-0.5,42
		h8.7l0.3-17.8l1.8,0.1c0.3,0.2,0.5,0.4,0.8,0.7c-0.1,5.7-0.2,11.4-0.2,17h8.7l0.3-18.5c-0.7-0.7-1.5-1.4-2.2-2.1l2.3-1.7l0.2-14.4
		c-1.1-1.2-2.3-2.4-3.4-3.6C378.4,480,372.9,479.4,367.3,478.9 M406.8,499.3c-1.2-5.3-2.4-10.6-3.6-15.9c-2.6-0.4-5.3-0.9-7.9-1.3
		l-0.6,38.7c2.7,0,5.4,0,8.1,0l0.2-15.4c1.2,5.2,2.5,10.4,3.7,15.4h7.9l0.4-35.2c-2.7-0.5-5.3-1.1-8-1.5L406.8,499.3 M422.4,520.9
		h14.2V516l-5.5-0.2l0-9c1.6,0.2,3.3,0.4,4.9,0.6l0-4.9c-1.6-0.3-3.3-0.5-4.9-0.8l0-7.1c1.8,0.4,3.6,0.8,5.4,1.2v-4.9
		c-4.6-1.3-9.2-2.4-13.9-3.5L422.4,520.9 M347.4,214.4c-13.5,8.2-24.5,5.1-27,4.2l-0.1,0.2c5.9,6,7.6,14.4,8,17.4l0.4,0
		c0.9-2.4,4.3-6.5,7.9-10.5l-5.3,0l11.7-6.8C345,216.9,346.7,215.2,347.4,214.4L347.4,214.4L347.4,214.4z M429,232.5
		c25.7,7.9,39.8,13.8,60.5,22.4c-0.7,8.2-2.3,28.1-10.2,49.7c5.3,4.7,10.8,9.3,16.4,13.8c11.1-32.8,11.2-53.7,11.3-56.1
		c-2.5-5-5.2-10-8-14.8c-25.1-8.1-43.5-13.4-74.8-20.2L429,232.5L429,232.5z"/>
	<path class="st1" d="M378.8,290c-11.1,0-21.6-3.3-22.7-4c-0.4-1.2-0.3-4.1-0.4-6.6l0.2,0h0c1.7,0.4,3.3,0.8,4.8,1.2
		c11.7,3,18.3,6.7,21.7,8.8l0.5,0.3C381.5,290.2,378.8,290,378.8,290L378.8,290z M410.6,277.1l2.2-4.5l0.2-0.5l0.3-0.6l1.7-3.4
		l2.6-5.6l-1.4,13.7l-6.4,2.4L410.6,277.1L410.6,277.1z M352.7,157c-2.2-1-4.5-1.9-6.8-2.6c-1.8-0.6-2.8-0.8-2.8-0.8
		c-1-0.2-2-0.4-2.9-0.6c0.7-8,16.5-31.9,16.5-32c-6.7,4.7-17.2,22-21.8,29.7l-0.9,1.6l-0.3,0c-0.5,0-1,0-1.6,0h-0.6
		c6.9-15.8,18-28.4,26.1-36.3c2.4-2.3,4.8-4.4,7.2-6.4c0.7-0.6,1.3-1.3,1.9-2c2.8-3.7,5.6-7.5,8.3-11.3l0.9-1.2
		c1-1.3,2.2-2.7,3.3-3.8c0.7-0.7,1.4-1.3,1.9-1.6c0.2,0.2,0.5,0.8,0.9,2.2c0,0,0,0.1,0,0.1c3.6,16.4,0.3,32.1-9.8,46.9
		c-4.9,7.2-11,13.5-18,18.7C353.7,157.5,353.2,157.2,352.7,157L352.7,157z M250.6,296.8c1.1-3.2,3.2-10.4,5.1-17.3
		c1.2-4.2,2.4-8.8,3.6-13.5c3.1-12,6.3-24.7,8.5-33.2c0.1,0.9,0.3,1.8,0.5,2.7h0.4l0.6,0l0.1-0.6l1.2-5.4v-0.1
		c0-9.7,3.1-20,9.4-30.6c0.6-0.9,1.1-1.8,1.7-2.8l0.1-0.1l-0.6-5.5l-0.3-0.1c-55.9-20.7-65.5-41.7-68.6-48.7
		c-2-4.4-6.1-9.6-6.9-10.6c-0.2-0.3-0.4-0.5-0.7-0.7l-6.9-4.8l-2.5-1.7c4.6-0.4,9.2-0.7,13.6-0.7c50.5,0,79.7,28.4,91.2,42.7l0.4,0
		l0.2,0l0.1,0c4.1,0.3,11.3,1.4,15.3,3.1l0,0l0-0.1c-3.8-2.5-5.3-2.8-9.1-5.3c5.5-1.3,12.5-2.5,18-3.8l0.6-0.1l0.3,0
		c2-0.3,4.1-0.4,6.1-0.4h0.1c3.4,0,6.6,0.3,9.5,1c0.1,0,15,3.4,32.7,19.3l-3.5,11l2.2,3c12.1,16.9,25.6,35.1,41.1,55.5l-0.5,1.4
		l-0.7,0.2c-3.4,1-8.8,2.6-12,2.8h-0.2c-1.8,0-1.8-0.3-4.9-2c-1.1-0.6-2.1-1.2-3.2-1.8l-2.5-1.4l-27.4-30.9l0.1,1.7l0.9,1.3
		c2.3,3.2,4.5,6.3,6.9,9.6l0,0c3.1,4.6,10,13.8,13.4,18.7l8.8,14.8l14.4,5.5c-1.3,3.9-1.9,6.4-3.2,10.4l-8.6,5.5
		c-1,0.7-2.1,1.3-3.2,1.9c-5.6,2.4-5.8,2.2-5.8,2.2c-0.9,0.2-1.4,0.3-2.3,0.4l-0.3-0.3l-17.9-13.3l-6.6-5.1l-1.3-1
		c-1.1,1.1-2.1,2.2-3.3,3.2c-0.1,0.9-0.1,1.7-0.1,2.6v0.1c0,0.3,0,0.4,0,0.4c-9.3-6.1-27.3-14.6-27.3-14.6c-0.8-3.2,0.7-6.4,1.4-7.5
		l-0.4-0.5l-0.5-1c-0.6,0.8-6.4,9-15.1,12.3c-2.4,1-4.9,1.4-7.5,1.5c-1.1,0-2.3-0.1-3.4-0.2c-11.6-0.8-19.6-8.6-23.4-13.2l-0.1-0.1
		l-0.1-0.1c-0.1-0.1-0.6-0.7-1.4-1.8c-0.2-0.3-0.4-0.6-0.6-0.9c-0.2-0.3-0.2-0.3-0.3-0.5l-0.4,0.2c-0.5-0.8-0.9-1.6-1.3-2.4
		l-0.2,0.1c0.2,1.5,0.4,2.9,0.7,4.4c0,0,0.3,0.6,0.8,1.5c0.4,0.7,1,1.5,1.9,2.6c2.6,3.3,5.2,6.3,9.1,8.5c0.4,0.2,0.7,0.4,1.1,0.6
		l0.1,0l0.5,0.3l0.1,0c7.7,3.5,8.4,3.9,20.2,5.8l-0.7,3l12.2-2.8l9.7-2.2l-1.5,3.3l-0.1,0.3c1.5,0.3,3,0.5,4.5,0.6
		c3.3,0.6,7.9,1.8,12.4,4.4c0.2,0.1,0.4,0.2,0.5,0.2c1.5,0.7,2.7,1.4,3.8,2.1c1,3,2,6.5,2.1,6.7l0.9,4l1.5,0.7
		c0.2,0.1,16.1,5.6,27.3,5.6c1.9,0,3.7-0.3,5.5-0.8c2.6-0.7,5.2-1.7,7.6-2.9c1.7-0.8,3.5-1.8,5.4-2.9c16.3,10.1,32.8,20.1,49.3,30
		l0.2,0.1l2.6-1l-0.6-0.5c-5.7-4.5-11.3-9.1-17-13.6c-6.7-5.4-13.5-10.9-20.4-16.5l-5.2-4.2l1.1-0.8c3.2-1.3,6.5-2.6,9.8-3.9
		l0.3-0.1l0-0.3c0.7-9.4,1.5-19.3,2.4-30.4l0.1-1.9l-0.2-0.2c-15.5-18.5-30.9-37.3-45.9-56.2l7-12.5l0.2-0.3l-2-1.9
		c-9-8.5-13.2-10.8-18.8-13.8c3-2.6,11.6-10.9,17.2-21.3c9-17,10.2-32.1,6.3-50c-1.4-6.1-2.8-9.7-3.7-9.6c0,0-0.2-0.1-0.5,0.2
		c-2.9,3.6-5.7,7.2-8.6,10.8c-2.8,4.1-5.6,8.2-8.5,12.3c-2.4,1.8-9.2,6.9-17.2,15.7l0.6-3.8l-8.5,13.2c-4.9,6.5-9.6,14-13.1,22.4
		l-2.4,0.4l-0.2,0l-3.6,0.8l2.1,1.8l-8.9-0.2l-1.1,2.9c-3.1-0.1-8.9-1.6-8.9-1.6l-0.7,2.2c-4.7-5.4-12.7-14.2-23.9-21.7
		c-1.6-1.1-3.3-2.1-5-3.1h0l-1.7-1L253,122l0.3,2.7c-14.3-4.9-29.8-7.1-46.2-7.1c-7.2,0-13.7,0.1-21.2,1.1c-1.4,0.2-3.4,0.4-3.8,1.9
		c-0.4,1.4,0.2,2.9,1.3,3.7c5.6,3.9,11.1,7.8,16.7,11.7c1.2,1.6,4.2,5.5,5.7,8.8c5.8,12.7,18.3,33.4,67.6,52.3
		c-2.9,6.9-4.8,14.1-5.7,21.5c-1.2-2.1-2.5-4.2-3.3-5.5c0.1-0.1-4.7,21.4-8.8,44L183,310.8l4.7,0c1.5-0.8,4.1-2.3,7.2-4.1
		c9.9-5.6,25.3-14.6,30.7-17.7c0,0,2.4-5,2.2,0.7c8.4-5.1,16.7-10.2,24.8-15.2c-0.9,5.3-1.6,10.7-2.2,16.1c-0.2,1.8-0.6,4.9-0.7,6.4
		L250.6,296.8L250.6,296.8z"/>
	<path class="st1" d="M334.2,203c-0.6,0.9-1.2,1.9-3,1.7c1-0.7,0.9-2.2,1.2-3.3C334,202.2,334.2,203,334.2,203z M328.6,186.7
		l2.1,5.9l-3.6-3.1c-5.6-4.4-11.8-7.9-18.5-10.3c-2.1,0.2-3.9,0.4-5.2,0.6c3.5,1.6,6.7,3.6,9.5,6.1c2,1.8,6.4,6.3,3.6,8.8
		c-1.1,0.6-1.9,0.3-2.6-0.1l-0.3,0.3c0.3,0.3,1.2,0.9,1.6,1.1c2,1.5,4.2,3.5,5.9,5.4c-0.3-2.5,1.3-3.6,3.3-4.5
		c-0.8-1.7-2.1-2.7-3.3-3.8c2.1,0.8,4.6,2.8,6.6,4.5c-1.2,0.7-2,0.8-2.7,1.6c-5.2,6.5,9.4,12.7,11.5,4.5c1.1,0.3,2.3,0.6,3.5,0.8
		c-0.3,0.5-2,0.9-2.6,0.7c0.6,6.2-6.5,9-12.8,8.6l0.1,0.3c5.5,2.4,15.3-2.1,19.3-6.1c0.6-0.6,1.2-1.9,2-2.2c0.5-0.2,1.9,0.5,2.8,0.8
		c2.3-1.2,9.6-5.1,14.4-7.8l-2.1,0.1c-6.5,1.7-14,2.4-18.8,1C337,198.1,329.8,188.3,328.6,186.7L328.6,186.7L328.6,186.7z
		 M163.7,398.8c-4.7-21.5-9.3-43.1-13.8-64.7h-29.1v174.5c9.5-4.6,19.1-8.8,28.9-12.7l0.3-66.8c4.7,21.2,9.3,41.6,13.9,61.5
		c9.5-3.4,19.1-6.4,28.7-9.1l1-147.4H164L163.7,398.8 M245.9,445.8l-3,2.5l-3.4,0.5l-3.2-1.7l0.6-88.4l3.2-2.2l3.4-0.1l2.9,2.1
		L245.9,445.8z M217.9,334.2c-4.2,3.7-8.4,7.5-12.5,11.3l-0.9,121.6c4.1,2.8,8.3,5.6,12.4,8.4c15.9-3.5,31.9-6.2,48.1-8
		c4.3-4,8.6-7.9,12.9-11.7l0.4-111.3c-4.2-3.4-8.4-6.9-12.6-10.4L217.9,334.2L217.9,334.2z M328.4,386.8c-2.2,0-4.4,0-6.6,0v-31.4
		h6.6l3,2.1l0,27.3C330.3,385.4,329.4,386.1,328.4,386.8 M363.2,404.8c-2.8-2.3-5.5-4.5-8.3-6.7l8.3-5.9l-0.2-47.7
		c-4.2-3.5-8.5-6.9-12.7-10.4h-60.2l-0.4,131.1c10.7-0.7,21.4-1,32.1-1V408l6.6,0l3,2.1l0.1,54.3c10.7,0.2,21.4,0.8,32.1,1.7
		L363.2,404.8 M368.4,334.2l0.1,21.6c6.7,0.1,13.4,0.2,20.1,0.4l0.7,113c10.7,1.5,21.3,3.4,31.9,5.7l-0.8-117.8
		c6.7,0.2,13.4,0.5,20.1,0.8l-0.2-23.7C440.2,334.2,368.4,334.2,368.4,334.2z M488.4,334.2c0.1,20.9,0.2,41.7,0.3,62.6
		c-3.2-0.5-6.4-1-9.7-1.4l-0.3-61.2h-31.5l1,147.4c10.5,2.9,20.9,6.2,31.3,10l-0.4-70.6c3.2,0.6,6.4,1.3,9.6,2l0.3,72.3
		c10.3,4,20.6,8.5,30.8,13.4V334.2H488.4z M159,300.3c-6.7-19.8-8-35.8-8.9-44.6l-5-0.4c1.6-0.6,4.8-2,4.8-2
		c25.9-10.3,58.1-20.9,90.3-29.5c1-1.4,2.1-2.9,3.2-4.2c-36.3,7.2-73.7,16.7-103,26.2c-2.8,4.9-5.5,9.8-8,14.9c0,0,0,20.6,10.5,53.6
		C148.3,309.6,153.7,305,159,300.3 M219.8,145.6c35.2,36,54.7,38.4,63.4,36.8c-2.2-1.5-7.4-3.7-9.6-5.2l6.6,0l-3.3-3.6l8.6,2.3
		c-4.9-5.7-11.6-10.6-18.9-14.5l-21.7-7.7l2.5-0.7c-8.7-3.2-17.7-5.7-26.8-7.5L219.8,145.6L219.8,145.6z M325.2,559l-4,2.8
		l-31.5-29.1l-19.9,0c23.1,22.8,40.9,37.4,42.1,38.3l12.9,0l43.3-38.3h-7.3C360.8,532.7,325.2,559,325.2,559z"/>
</g>
</svg>
