<?xml version="1.0" encoding="utf-8"?>
<!-- Generator: Adobe Illustrator 19.2.1, SVG Export Plug-In . SVG Version: 6.00 Build 0)  -->
<svg version="1.1" id="layer" xmlns="http://www.w3.org/2000/svg" xmlns:xlink="http://www.w3.org/1999/xlink" x="0px" y="0px"
	 viewBox="0 0 652 652" style="enable-background:new 0 0 652 652;" xml:space="preserve">
<style type="text/css">
	.st0{fill:#8B0042;}
	.st1{fill:#0055A3;}
	.st2{fill:#EDC157;}
	.st3{fill:#69003D;}
	.st4{fill:#F8E3A2;}
	.st5{fill:#FFFFFF;}
</style>
<g>
	<path class="st0" d="M110.3,212.6v-71.2c0-8,0-13.6-6.3-19.3h43.5c-6.2,5.7-6.3,11.3-6.3,19.3v72c6,1.9,11.7,2.9,17.7,2.9
		c8.1,0,14.9-2.4,22.2-7.5l-5.8,23.2H104C110.2,226.2,110.3,220.3,110.3,212.6 M224.6,232h-43.5c6.2-5.8,6.3-11.7,6.3-19.4v-71.2
		c0-7.9,0-13.6-6.3-19.3h43.5c-6.2,5.7-6.3,11.3-6.3,19.3v71.2C218.3,220.3,218.4,226.2,224.6,232 M288.8,218.6
		c17,0,28.5-13,28.5-36.5c0-27.9-12.6-45.1-30.5-45.1c-16.7,0-28.4,13-28.4,36.3C258.4,201.4,271.1,218.6,288.8,218.6 M225.7,176.9
		c0-15.1,7-30.5,19.6-41.8c11.3-10.1,26.3-15.6,42.5-15.6c36.8,0,62.3,23.8,62.3,57.6c0,15.1-7,30.8-19.6,42
		c-11.4,10.2-26.3,15.6-42.6,15.6C251.3,234.6,225.7,210.5,225.7,176.9"/>
	<path class="st0" d="M357.3,204.5v-59c0-7.8-0.2-14.1-8.8-23.3h33.9l49.9,67.3v-43.4c0-7.5-0.6-14.6-7.8-23.8H456
		c-6,9.9-6.5,17.2-6.5,24.3v88.4c-23.8-2.8-31.8-14.1-41.8-27.2l-33.2-43.3v46.7c0,8.4,0.7,14.6,7.3,21.1h-32.1
		C357.3,223.7,357.3,216,357.3,204.5 M490.2,216.8c10.4,0,16.7-5.3,16.7-12.2c0-10.4-11.4-13.3-26.8-21.2
		c-15.2-7.8-23.2-19-23.2-31.9c0-18.6,15.1-31.9,40.4-31.9c9.4,0,18.2,1.8,27.6,5.2v18.5c-9.2-4.7-16.7-7.5-22.9-7.5
		c-8.8,0-14.4,4.9-14.4,10.7c0,9.1,11.7,12.3,30.6,22.7c12.6,7,18.5,16.5,18.5,29.8c0,20.6-17,34.9-43.3,34.9
		c-10.9,0-21.4-2.1-32.6-5.8l-5.7-23.3C468,212.4,478.9,216.8,490.2,216.8"/>
	<path class="st1" d="M196.4,103.5c3.3,0,5.5-2.6,5.5-6c0-3.9-2.2-6.4-5.5-6.4c-0.5,0-1.2,0.1-2.1,0.2v11.9
		C195.3,103.5,196,103.5,196.4,103.5 M195.7,86.1c2.3,0,3.8-1.6,3.8-4.4c0-2.3-1.5-4.1-3.7-4.1c-0.3,0-0.8,0.1-1.6,0.2V86
		C194.9,86.1,195.4,86.1,195.7,86.1 M183.8,102.3V78.5c0-2.7-0.1-4.6-2.1-6.5h13.7c9.2,0,13.9,3.3,13.9,8.7c0,3.2-1.9,5.8-5.5,7.3
		c4.9,1.5,7.5,4.7,7.5,9.6c0,2.9-1,5.5-2.9,7.6c-2.8,3-6.1,3.6-10.8,3.6h-15.8C183.8,106.9,183.8,105,183.8,102.3 M237.4,83.1
		c0-3.4-2-5.5-5.2-5.5c-0.3,0-0.5,0-0.8,0.1v12.5C235.3,89.2,237.4,86.7,237.4,83.1z M218.9,108.9c2.1-2,2.1-3.9,2.1-6.5V78.5
		c0-2.7,0-4.6-2.1-6.5h14.3c9.5,0,14.3,3.2,14.3,9.8c0,4-2.2,6.8-6.7,9l6.7,11.4c1,1.7,2.6,3.8,4.9,6.1l-6.1,0.6
		c-0.5,0.1-1,0.1-1.5,0.1c-4.1,0-6.2-2-8.6-6.6l-4.8-9.3v9.3c0,2.6,0.1,4.6,2.1,6.5C233.5,108.9,218.9,108.9,218.9,108.9z
		 M271,108.9h-14.5c2.1-2,2.1-3.9,2.1-6.5V78.5c0-2.7,0-4.6-2.1-6.5H271c-2.1,1.9-2.1,3.8-2.1,6.5v23.8
		C268.9,105,269,106.9,271,108.9 M290.1,103.8c3.5,0,5.6-1.8,5.6-4.1c0-3.5-3.8-4.5-9-7.1c-5.1-2.6-7.8-6.4-7.8-10.7
		c0-6.2,5.1-10.7,13.5-10.7c3.1,0,6.1,0.6,9.2,1.7v6.2c-3.1-1.6-5.6-2.5-7.7-2.5c-2.9,0-4.8,1.6-4.8,3.6c0,3,3.9,4.1,10.3,7.6
		c4.2,2.3,6.2,5.5,6.2,10c0,6.9-5.7,11.7-14.5,11.7c-3.6,0-7.2-0.7-10.9-2l-1.9-7.8C282.7,102.3,286.3,103.8,290.1,103.8 M327,103.5
		c3.3,0,5.5-2.6,5.5-6c0-3.9-2.2-6.4-5.5-6.4c-0.5,0-1.2,0.1-2.1,0.2v11.9C325.9,103.5,326.6,103.5,327,103.5 M326.3,86.1
		c2.3,0,3.8-1.6,3.8-4.4c0-2.3-1.5-4.1-3.7-4.1c-0.5,0-1.1,0.1-1.6,0.2V86C325.5,86.1,326,86.1,326.3,86.1 M314.4,102.3V78.5
		c0-2.7-0.1-4.6-2.1-6.5H326c9.2,0,13.9,3.3,13.9,8.7c0,3.2-1.9,5.8-5.5,7.3c4.9,1.5,7.5,4.7,7.5,9.6c0,2.9-1,5.5-2.9,7.6
		c-2.8,3-6.1,3.6-10.8,3.6h-15.9C314.4,106.9,314.4,104.9,314.4,102.3 M365.7,92.8L362,81.5l-3.8,11.3L365.7,92.8L365.7,92.8z
		 M348.4,103.4l8.6-24.7c0.3-1,0.8-1.9,0.8-3.1c0-1.3-0.7-2.2-1.8-3.5h13l10.4,30.2c0.9,2.6,2.3,4.9,4.1,6.6h-16
		c1.2-1.4,2-2.3,2-3.8c0-0.6-0.1-1.3-0.3-1.9l-1.9-5.3h-11.1l-1.7,5.1c-0.3,0.7-0.4,1.5-0.5,2.2c0,1.3,0.6,2.5,1.7,3.6h-10.8
		C346.6,107.1,347.7,105.4,348.4,103.4L348.4,103.4z M389.1,99.6V79.9c0-2.6-0.1-4.7-2.9-7.8h11.4l16.7,22.5V80c0-2.5-0.2-4.9-2.6-8
		h10.5c-2,3.3-2.2,5.8-2.2,8.1v29.6c-8-0.9-10.6-4.7-14-9.1l-11.1-14.5v15.6c0,2.8,0.2,4.9,2.5,7.1h-10.8
		C389.1,106.1,389.1,103.5,389.1,99.6 M432,102.3V78.5c0-2.7,0-4.6-2.1-6.5h21.5v7.7c-1.8-1.7-3.2-2.1-5.3-2.1h-3.8v9.2h7.1v7.1
		c-0.9-1.2-2.2-1.9-4-1.9h-3.1V103c1.4,0.3,2.7,0.5,4.1,0.5c3.7,0,6.5-0.7,9.2-2.7l-2,8h-23.9C432,106.9,432,105,432,102.3"/>
	<path class="st2" d="M310.7,198.7c0,0-28.8-3.7-58.5,8.2c0,0,4,4.4,3.5,7.3c0,0-41.1,9.1-56.1,34.7c0,0,5.9,0.5,7.4,4.4
		c0,0-31.5,20.5-32.5,41.4c0,0,11.8,3.4,5.4,8.8s-27.1,14.1-28.1,26.3c0,0,12.8-0.8,9.4,11.2c-1.2,4.1-3.7,14.5-3.7,28.7
		c0,118.8,163.3,201.5,163.3,201.5s163.5-82.7,163.5-201.5c0-2.9-0.8-28.2-8.7-41.9c0,0,2.6-1.8,5.4-1.5c0,0-1.2-12.5-15.2-27.9
		c-6.3-6.9-8.2-19,0.4-19.8c0,0-1-7.5-17.6-10.2c-4-0.7-4.5-0.5-6.9-4.4c-2.2-3.6-3.7-11.8-1-17c0,0-6.4-2.6-11.2,0.1
		c0,0-13.6-29.9-30.4-34.3c0,0-0.3,2.8-2.8,4.5c0,0-21.2-24.1-41.8-24.9c0,0,0.2,3.8-1.8,6.5c0,0-22.8-6.9-42.5-6.2
		C310.2,192.8,312,196.3,310.7,198.7"/>
	<path class="st0" d="M204.5,305.3c0,0-6.7,3.4-17.2,4.1c0,0,6.6,5.2,18.5,5C205.9,314.5,204.8,309.8,204.5,305.3"/>
	<path class="st0" d="M478.7,377.2c-5.7-51.9-30.8-73.2-30.8-73.2c11.1-0.9,19.7,8.1,19.7,8.1c-17.8-34.6-36.2-42.1-44.1-43.7
		c11.3,7,19.2,24.9,9,57.4c-10.5-18.1-21-23-21-23c5.7-3.2,14.6,1.7,14.6,1.7c-6.9-16.8-24-16.3-24-16.3c7.2-6.4,19-2,19-2
		c-14-13.6-36-7.9-36-7.9s11.2-14.4,27.5-13.5c2.5,0.1,4.9,0.7,7.4,1.7c2.7-9.5,12.1-12.3,12.1-12.3c-15.8-4.7-34.4,7.4-34.4,7.4
		c7.5-17.3,5.6-34.1,5.6-34.1c-12.3,32.9-28.9,47.4-28.9,47.4c15.1-29.6-2.6-67.5-2.6-67.5c6.1,39.6-13.5,60.8-13.5,60.8
		c3.4-47.6-17.3-62.4-17.3-62.4c15.7,24.1,2.6,58.8,2.6,58.8c-9.3-48.2-49.2-57.7-49.2-57.7c39.2,23.9,33.3,71.7,33.3,71.7
		c-7.4-39-38.3-54.8-38.3-54.8c18.7,17.8,21.5,47.8,21.5,47.8c-28.5-57.6-79.2-43.2-79.2-43.2c48.2,4.4,59.4,43.6,59.4,43.6
		c-29.7-38.9-70.3-27-70.3-27c30.8,1.9,42.6,25.1,42.6,25.1c-39.4-30.2-74.3,8.5-74.3,8.5c11.2-3.7,15.4,2.5,15.4,2.5
		c-12.1,5.6-17.2,14.9-17.2,14.9c11.2-3.4,16.9-1.1,16.9-1.1c0.1-3,1.9-24,19.2-29c19-5.6,32.8,12.5,32.8,12.5
		c-24.8-5.3-35.8,7.8-35.8,7.8c13.3-4.4,18.8,2.1,18.8,2.1c-18.9,0.7-23.9,16.2-23.9,16.2c10.2-5,14.6-1.6,14.6-1.6
		c-26.3,26.4-57.6,17.3-57.6,17.3c24,15.7,53.6,7.2,53.6,7.2c-25,18.4-57.1,12.6-57.1,12.6c32.2,18.4,50.3,10.8,50.3,10.8
		c-12.9,18.6-52.4,17.5-52.4,17.5c24.5,15.8,52.4,7,52.4,7c-7.4,11.2-23,12.8-23,12.8c16.1,7.3,26.9,3.8,26.9,3.8
		c-12.6,12.4-40.6,7.1-40.6,7.1c21.6,17.6,50.2,11.1,50.2,11.1c-29,20.3-59.8,2-59.8,2c21.9,23.4,61.7,21.2,61.7,21.2
		c-15.3,10.6-34,6.4-34,6.4c15.5,12.9,27.7,12.3,27.7,12.3c-17.3,7.5-38.5-1.5-38.5-1.5c18.1,22.2,51.5,21.1,51.5,21.1
		c-10.8,7.2-30.4,3.3-30.4,3.3c27.9,18.8,52.2,14.5,52.2,14.5c-22,8.7-38.9,3.3-38.9,3.3c28.3,15.1,45.3,13.7,45.3,13.7
		c-9.9,7.4-19.1,4.8-19.1,4.8s19.7,15.9,33.3,26c23.7,16.2,37.1,23.1,37.1,23.1c74.6-42.2,69.3-65,69.3-65
		c5.6,4.9,7.1,11.9,7.1,11.9c26-21.6,28.9-51.1,28.9-51.1c6.2,11.8-0.5,29.2-0.5,29.2c30-32.8,19.4-65.3,19.4-65.3
		c9,3.2,10.2,24.3,10.2,24.3c30.9-53.3,2-95,2-95C467.4,352.6,478.7,377.2,478.7,377.2"/>
	<path class="st3" d="M478.7,377.2c-5.7-51.9-30.8-73.2-30.8-73.2c11.1-0.9,19.7,8.1,19.7,8.1c-17.8-34.6-36.2-42.1-44.1-43.7
		c11.3,7,19.2,24.9,9,57.4c-10.5-18.1-21-23-21-23c5.7-3.2,14.6,1.7,14.6,1.7c-6.9-16.8-24-16.3-24-16.3c7.2-6.4,19-2,19-2
		c-14-13.6-36-7.9-36-7.9c-1.6,0.3-3.1,0.6-4.7,1c0,0-17.8-2.5-35.6,3.6c-21.1,7.2-22.7,30.5-24,30.5c-1.3,0-3-23.3-24.1-30.5
		c-17.9-6.1-35.7-3.6-35.7-3.6s10.9,2.4,10.7,6.1c-0.1,2.3-3.9,3-8,3.9c-2.1,0.4-10.3,2.5-14.4,6.8c0,0,9.4-1.5,10.6,1.2
		c1.5,3.2-9.4,8.9-22.3,13.6c0,0,5.8-0.3,7.2,2.9c1.9,4.2-2.7,9.7-4.5,12.3c-19.5,27.7-12.3,50.5-3.1,66.5
		c6.2,10.8,25.2,41.2,25.2,41.2s-3.7,7.3-2.8,17.1c1.1,13,1.1,19.1,7,26c2.1,2.4,7.2,9.3,6.6,16c-0.8,8.8,1.9,17.4,11.3,24
		c0,0,1.3-3.2,3.7-3.8c0,0,2.6,4.3,12.3,9.4c12.2,6.5,19.3,13.1,20.1,38c0.1,0,0.1,0.1,0.2,0.1c74.6-42.2,69.3-65,69.3-65
		c5.6,4.9,7.1,11.9,7.1,11.9c26-21.6,28.9-51.1,28.9-51.1c6.2,11.8-0.5,29.2-0.5,29.2c30-32.8,19.4-65.3,19.4-65.3
		c9,3.2,10.2,24.3,10.2,24.3c30.9-53.3,2-95,2-95C467.4,352.6,478.7,377.2,478.7,377.2"/>
	<path class="st2" d="M412.5,370.6c2.3-12.2,0.5-29.5-11.3-44.5c-1.3-1.6-8.9-10.9-14-17c-2.9-3.5-7.6-7.9-6.7-10.5
		c1.5-4.4,11.7-2.4,11.7-2.4c-3.7-4.2-11.2-5.8-14.4-6.8c-3.5-1-7.9-1.5-8-3.9c-0.2-3.7,10.7-6.1,10.7-6.1s-17.7-2.5-35.6,3.6
		c-21.1,7.2-22.7,30.5-24,30.5c-1.3,0-3-23.3-24.1-30.5c-17.9-6.1-35.7-3.6-35.7-3.6s10.9,2.4,10.7,6.1c-0.1,2.3-3.9,3-8,3.9
		c-2.1,0.4-10.3,2.5-14.4,6.8c0,0,9.4-1.5,10.6,1.2c1.5,3.2-9.4,8.9-22.3,13.6c0,0,5.8-0.3,7.2,2.9c1.9,4.2-2.7,9.7-4.5,12.3
		c-19.5,27.7-12.3,50.5-3.1,66.5c6.2,10.8,25.2,41.2,25.2,41.2c4.1-8.4,11.4-10,11.4-10c-4.9,3-7.5,7.7-8.9,12.5
		c10.8-1.1,21.7-0.2,32.1,2.8c0.8,0.2,1.9,1.2,1.4,2.8c-0.5,1.6-2.1,1.6-2.7,1.4c-8.4-2.8-17.2-4.2-26.1-4.2
		c-12.3,0-24,2.7-34.5,7.4l0.3,0.8c9.1-3.9,18.8-6.2,28.6-6.6c-0.3,1.9-0.4,3.7-0.4,5.3c10.1-1.4,20.3-0.7,30.1,2
		c0.8,0.2,1.9,1.2,1.5,2.7c-0.4,1.6-2.1,1.8-2.7,1.6c-7.4-2.4-15.1-3.6-22.9-3.6c-11.2,0-21.9,2.5-31.4,7l0.3,0.8
		c8-3.5,16.5-5.6,25.2-6.1c0.1,1.1,0.4,3.9,0.6,5.2l0,0c8.7-1.3,17.5-0.8,26,1.4c0.8,0.2,2,1.1,1.6,2.6c-0.5,1.7-2.1,1.8-2.7,1.6
		c-15.8-4.9-32.9-3.6-47.7,3.6l0.3,0.7c7.4-3.4,15.3-5.3,23.4-5.7c0.4,2,0.7,3.9,0.9,4.9c1.6,9.5,11.2,12.7,17.9,9.5
		c0.5-0.2,24-11.5,24.8-11.8c6.7-3,11.3-9.3,12.2-16.6c0.9,7.4,5.7,13.6,12.2,16.6c0.8,0.4,24.3,11.6,24.8,11.8
		c6.6,3.1,16.2,0,17.9-9.5c0.2-1.3,0.5-3,0.9-4.9c8.3,0.4,16.2,2.4,23.4,5.7l0.3-0.7c-14.9-7.3-32-8.6-47.8-3.6
		c-1.1,0.3-2.3-0.3-2.7-1.4c-0.5-1.5,0.7-2.5,1.5-2.7c8.5-2.2,17.3-2.7,26-1.5c0.1-0.3,0.5-3.2,0.7-5.2c8.7,0.5,17.2,2.5,25.1,6.1
		l0.3-0.8c-9.8-4.6-20.5-7-31.4-7c-7.8,0-15.5,1.2-22.8,3.6c-0.6,0.2-2.2,0.1-2.7-1.5c-0.4-1.2,0.3-2.4,1.5-2.7c0,0,0,0,0,0
		c9.8-2.7,20.1-3.4,30.2-2c0-1.8-0.2-3.5-0.5-5.3c9.8,0.4,19.5,2.7,28.6,6.6l0.3-0.8c-10.8-4.9-22.6-7.4-34.5-7.4
		c-9.1,0-17.9,1.5-26.1,4.2c-0.6,0.2-2.3,0-2.7-1.5c-0.3-1.1,0.3-2.3,1.4-2.6c10.5-3,21.4-4,32.2-2.8h0c-0.3-0.8-0.5-1.7-0.9-2.5
		c-3.9-10.3-13.9-12.5-13.9-12.5s5.1-6,1.1-15.8l-5.3-12.6c0,0,9,7.1,21.5,7.4C400.8,400.5,410.3,382.3,412.5,370.6"/>
	<path class="st2" d="M313.7,503c0,0-3.7,1.9-5.5,6.5c0,0-4.8-3.2-5.3-8.6c0,0-5,1.9-7,6.6c0,0-5.2-2.1-5.2-8.2c0,0-3.5,2.1-5.3,6.3
		c0,0-6-7.4-5.4-14.8c0.9-9.7,8.6-12.9,9.7-13.4c6.6-3.2,13.1-6.3,19.7-9.4c3.5-1.5,7.3-2.3,11.1-2.4c4.1,0,7.9,1,11.1,2.4
		c0.9,0.4,18.6,8.8,19.7,9.4c1.1,0.6,8.8,3.7,9.7,13.4c0.6,7.2-4.9,14.2-5.4,14.8c0,0-1.4-3.7-5.3-6.3c0,0-0.6,5.7-5.2,8.2
		c0,0-1.5-4.3-7-6.6c0,0-0.1,4.8-5.3,8.6c0,0-1.3-4.1-6.4-6.5c0,0-0.4,6.1-7.1,10C319.6,513,318,505,313.7,503"/>
	<path class="st4" d="M394.3,344.8c-0.1-0.4-0.5-0.7-0.9-0.8l-0.4-1h0c0.3-0.2,0.8-0.7,0.7-1.8c-0.2-1.4-1.3-2-2.2-2.2
		c-6.2-1.2-9.4-3.6-11.4-5.1c-2-1.4-3.4-2.1-5.9-2.1c-7.7,0-22.3,11.3-26.7,11.3c-1,0-1.9-0.5-2.4-1.4l0-0.1
		c-5.2,7.3-2.1,14.4,0,19.6c0.5,1.2,9,21.9,9.3,22.8l0,0.1c0,0,2.1-1.3,2.2-4.2c0.1-3.4,3.6-11.1,12.1-11.1
		c9.2,0,16.8-3.6,19.5-13.9c0.4-1.6,1.7-6.3,5.6-8.8C394.2,346.1,394.6,345.5,394.3,344.8 M238.3,353.9c2.3-10.7,9.4-9.8,9.8-9.9
		l0.4-1h0c-0.3-0.2-0.8-0.7-0.7-1.8c0.2-1.4,1.3-2,2.2-2.2c6.2-1.2,9.4-3.6,11.4-5.1c2-1.4,3.4-2.1,5.9-2.1
		c7.7,0,22.3,11.3,26.7,11.3c1.5,0,2.2-1.1,2.4-1.4l0-0.1c5.2,7.3,2.1,14.5,0,19.7c-0.5,1.2-9,21.9-9.3,22.8l0,0.1l-8.7,21
		c-3.9,9.1,1.1,15.8,1.1,15.8c-9.2,0-19.6-8.6-33.8-31.8C237.3,375.4,236.8,361.3,238.3,353.9"/>
	<path class="st3" d="M344.9,341.7c1.6,4.4,5.6,4.5,8,3.8c5.5-1.7,10.9-3.5,16.2-5.5c4.8-1.9,6.1-1,8.6,0.1c7.3,3.2,15.2,3,15.2,3
		l0.4,1c-6.1,2.5-7.9,5.2-11,10.1c-3.4,5.3-9.3,8.5-15.6,8.5c-5.4,0-7.2-2.2-9.8-1.3c-1.5,0.5-3,1.8-3.5,4.9c-1.2,7.1,4,15.1,0.8,18
		c0,0-8.9-21.7-9.4-22.9C342.8,356.2,339.7,349.1,344.9,341.7 M343.2,425.6c-2.3-2.6-6.2-2.9-8.8-0.6c-2,1.8-2.7,4.7-1.6,7.2
		l-12,7.6l-12.1-7.6c1.4-3.2-0.1-6.8-3.3-8.2c-2.5-1.1-5.4-0.4-7.2,1.6l-5.4-3.4c0,0-7.2-4.7-7.5-9.1c-0.1-1.8,1.1-3.2,3.1-0.3
		c0.9,1.2,1.9,2.7,4.7,2.7c1.9,0,5.1-3,11.3-3c9.3,0,10.1,4.2,16.2,4.2c6.2,0,7-4.2,16.2-4.2c6.3,0,9.4,3,11.3,3
		c2.8,0,3.8-1.5,4.7-2.8c2.1-2.9,3.3-1.4,3.1,0.3c-0.3,4.4-7.5,9.1-7.5,9.1L343.2,425.6L343.2,425.6z M296.6,341.7
		c-1.6,4.4-5.6,4.5-8,3.8c-5.5-1.7-10.9-3.5-16.2-5.5c-4.8-1.9-6.1-1-8.6,0.1c-7.3,3.2-15.2,3-15.2,3l-0.4,1
		c6.1,2.5,7.9,5.2,11,10.1c3.4,5.3,9.3,8.6,15.6,8.5c5.4,0,7.2-2.2,9.8-1.3c1.5,0.5,3,1.8,3.5,4.9c1.2,7.1-7.6,21.7-3.8,25.4
		l12.4-30.3C298.7,356.2,301.8,349.1,296.6,341.7"/>
	<path class="st5" d="M367.5,346.4c0.1,0.9-0.6,1.6-1.4,1.7s-1.6-0.6-1.7-1.4c0-0.1,0-0.2,0-0.2c0.1-0.9,0.8-1.5,1.7-1.4
		C366.8,345,367.5,345.6,367.5,346.4"/>
	<path class="st5" d="M366.9,357.7c7.1,0,12.9-5.4,13.4-12.4c-1-0.3-2-0.7-3-1.1c-1.9-0.8-4-1.1-6.1-0.9c1.7,2.6,1,6.1-1.6,7.8
		c-2.6,1.7-6.1,1-7.8-1.6c-0.5-0.8-0.9-1.8-0.9-2.8c-2.1,0.9-4.3,1.6-6.5,2.2C356.2,354.2,361.2,357.7,366.9,357.7 M274,346.4
		c-0.1,0.9,0.6,1.6,1.4,1.7c0.9,0.1,1.6-0.6,1.7-1.4c0-0.1,0-0.2,0-0.2c-0.1-0.9-0.8-1.5-1.7-1.4C274.7,345,274,345.6,274,346.4"/>
	<path class="st5" d="M274.6,357.7c-7,0-12.9-5.4-13.4-12.4c1-0.3,2-0.7,3-1.1c1.8-0.8,4-1.1,6.1-0.9c-1.7,2.6-1,6.1,1.6,7.8
		c2.6,1.7,6.1,1,7.8-1.6c0.5-0.8,0.9-1.8,0.9-2.8c2.6,1,4.2,1.6,6.5,2.2C285.3,354.2,280.3,357.7,274.6,357.7"/>
</g>
</svg>
