<?xml version="1.0" encoding="utf-8"?>
<!-- Generator: Adobe Illustrator 19.2.1, SVG Export Plug-In . SVG Version: 6.00 Build 0)  -->
<svg version="1.1" id="layer" xmlns="http://www.w3.org/2000/svg" xmlns:xlink="http://www.w3.org/1999/xlink" x="0px" y="0px"
	 viewBox="0 0 652 652" style="enable-background:new 0 0 652 652;" xml:space="preserve">
<style type="text/css">
	.st0{fill:#FFFFFF;}
	.st1{fill:#E00034;}
	.st2{filter:url(#Adobe_OpacityMaskFilter);}
	.st3{mask:url(#b_1_);}
	.st4{filter:url(#Adobe_OpacityMaskFilter_1_);}
	.st5{mask:url(#d_1_);}
</style>
<g>
	<path d="M531.8,354.6l-4.2-64.2c0,0-28.7,100-105.6,175.5c-0.1,0,28.1,45.7,28.1,45.7c3.7-3.6,80.5-60.8,127.3-195.2
		C577.7,315.7,531.8,354.6,531.8,354.6"/>
	<path d="M527.2,293.9l4,62l1-0.9C543,346,569,324,576,318.3c-39.5,111.7-100.2,171-124.6,191.3l-1.1,0.9
		c-2.2-3.5-25.8-41.7-27.5-44.6C491.1,398.7,521.6,311.5,527.2,293.9 M421.6,465.4c-0.5,0.9,27.8,46.4,28.2,46.7l0.4,0.3l2.1-1.8
		c24.7-20.5,86.3-80.6,125.9-194.1l0.2-0.5l-0.4-0.3c-0.1-0.1-0.3-0.1-1,0.3c-2.2,1.4-10.4,8.2-44.5,37.2l-4.1-62.9l-1.3-0.1
		C526.7,291.2,497.4,390.9,421.6,465.4"/>
	<path class="st0" d="M472.4,466.2l20.9,38.5l-42.8,4.8l-27.1-42.9L472.4,466.2z"/>
	<path d="M472.1,466.7l20.4,37.5c-1.5,0.2-42.1,4.7-42.1,4.7h0c0-0.5-23.5-37.8-26.1-41.9C426.1,467,471.5,466.7,472.1,466.7z
		 M472.4,465.7l-49.9,0.3l27.5,43.7c0.5,0.2,43.3-4.6,43.3-4.6l0.8-0.1l-21.4-39.4L472.4,465.7L472.4,465.7z"/>
	<path class="st1" d="M109.9,354.6l4.2-64.2c0,0,30,100.1,106.9,175.6c-0.2,0-31.7,37.8-31.7,43c0,5.2-78.2-58.2-125-192.7
		C64,315.7,109.9,354.6,109.9,354.6"/>
	<path d="M110.6,354.6l4-60.8c5.8,17.3,37.2,104.8,105.5,172.2c-2.5,2.9-31.5,37.6-31.5,43c-5.7-0.2-78.7-65.4-122.9-190.8
		c6.9,5.6,33,27.7,43.8,36.9l1,0.8L110.6,354.6L110.6,354.6z M113.5,290.3l-4.1,62.9c-34.2-28.9-42.3-35.7-44.5-37.2h0
		c-0.7-0.4-0.9-0.4-1-0.3l-0.4,0.3l0.2,0.5C109.1,447,183.9,510.8,189.1,509.9l0.5-0.1l0.2-0.8c0-4.5,29.6-40.7,31.5-42.5l0.5-0.5
		l-0.5-0.5C145.6,391,115.1,291.2,114.8,290.2C114.8,290.2,113.5,290.3,113.5,290.3z"/>
	<path d="M169.6,466.7h51.1v-1.3h-51.1V466.7z"/>
	<path class="st0" d="M171.3,466.6l-23.2,38.1l39,1.5l32.4-39.5L171.3,466.6z"/>
	<path class="st0" d="M320.9,517c0-0.5-73,6.4-151-50.4L141,506.9c0,0,61.2,63.2,179.9,63.2s179.9-63.2,179.9-63.2l-28.9-40.3
		C393.9,523.4,320.9,516.4,320.9,517"/>
	<path d="M170.1,467.5c64.3,46.6,125.7,50.6,149.2,50.1h3.2c23.5,0.5,85-3.6,149.2-50.1l28.2,39.4c-4.1,4-65.4,62.6-179.1,62.6
		s-175-58.6-179.1-62.6C141.9,506.9,170.1,467.5,170.1,467.5z M471.5,466.1c-64.2,46.7-125.6,50.7-149,50.3l-1.6,0.1
		c-0.5,0-1.1-0.1-1.6-0.1c-23.4,0.5-84.9-3.5-149-50.3l-0.5-0.4L140.2,507l0.4,0.4c0.6,0.6,62.7,63.4,180.4,63.4
		s179.8-62.8,180.4-63.4l0.4-0.4l-29.6-41.3L471.5,466.1L471.5,466.1z"/>
	<path d="M395.5,546.1c6.8-2.1,6-8.9,4.4-15.1c-1.7-6.3-4.7-12.3-12.6-9.9l-6.9,2.1l7.7,25.1L395.5,546.1L395.5,546.1z M332.3,541.5
		c0.3,7.3,1.5,14.3,9.2,14c7.7-0.3,8.4-7.3,8.1-14.6c-0.2-6-1.4-13.1-9-12.8C332.7,528.4,332,535.5,332.3,541.5 M305.7,551.8
		c1.9-2.2,2.3-8.6,2.4-10.5c0.2-6-0.5-13.1-8.3-13.4c-7.7-0.3-8.8,6.8-9,12.8c-0.2,7.3,0.5,14.4,8.1,14.6c1.9,0.1,4.2-0.6,5.3-1.7
		l2.9,2.5l1.5-1.8L305.7,551.8L305.7,551.8z"/>
	<path class="st0" d="M133.9,71.5c0,0-61.6,216.5,187.1,408.1C569.6,287.9,508,71.5,508,71.5L133.9,71.5L133.9,71.5z"/>
	<path class="st0" d="M507.5,72.1c0.7,2.6,6.3,25,6.3,60.6c0,78-27.1,218.1-192.8,346.1c-165.7-127.9-192.8-268.1-192.8-346
		c0-35.6,5.6-57.9,6.3-60.6L507.5,72.1L507.5,72.1z M508,70.8H133.4l-0.1,0.5c-0.6,2.2-58.9,219.1,187.3,408.8l0.4,0.3l0.4-0.3
		C567.5,290.4,509.3,73.4,508.6,71.3l-0.1-0.5C508.5,70.8,508,70.8,508,70.8z"/>
	<path d="M320.9,478.7C170,362.2,132.8,236.9,128.3,152.2l-1.3,0.1c4.6,85,41.9,210.9,193.6,327.8l0.4,0.3l0.4-0.3
		c151.6-116.8,189-242.7,193.7-327.8l-1.3-0.1C509,236.9,471.7,362.3,320.9,478.7"/>
	<path d="M288.3,152.2h65.4v300.5l-32.8,26.9l-32.6-26.8V152.2z"/>
	<path d="M353.7,152.3l-0.1,300.4c-10.9,8.9-21.9,17.9-32.8,26.8c0-0.1-32.5-26.8-32.5-26.8l0-300.4
		C288.4,152.3,353.7,152.3,353.7,152.3z M288.2,152.2v300.6c0,0.1,32.7,26.9,32.7,26.9c0.1,0,32.9-26.9,32.9-26.9l0-300.5
		L288.2,152.2C288.3,152.2,288.2,152.2,288.2,152.2z"/>
	<path class="st1" d="M514.3,152.2c2.7-49.4-6.3-80.8-6.3-80.8H133.9c0,0-8.9,31.4-6.3,80.8L514.3,152.2L514.3,152.2z"/>
	<path d="M507.5,72.1c0.7,2.5,6.6,25.6,6.6,62c0,5.5-0.2,11.4-0.5,17.4H128.2c-0.3-5.8-0.5-11.6-0.5-17.5c0-36.4,5.9-59.5,6.6-62
		H507.5z M133.9,70.8h-0.5l-0.1,0.5c-0.1,0.3-8.9,32-6.3,81l0,0.6h387.9l0-0.6c2.6-49-6.2-80.7-6.3-81l-0.1-0.5
		C508.5,70.8,133.9,70.8,133.9,70.8z M184.8,505.6c-3.2,6.5-5.6,13.2,1.2,16.7c6.8,3.5,10.9-2.4,14.2-8.8c2.8-5.4,5.2-12.1-1.7-15.6
		C191.6,494.4,187.6,500.2,184.8,505.6"/>
	<path class="st0" d="M221.2,96.7h7.2V86.6h-25.7v10.2h6.9v21.4h11.6V96.7z M330.2,124.3c-4.4,0-8,3.5-8,7.9c0,4.4,3.6,8.1,8,8.1
		c4.4,0,8-3.7,8-8.1C338.2,127.8,334.6,124.3,330.2,124.3L330.2,124.3z M197,89.4c-3.9-3.7-11.8-6-17.4-6
		c-10.8,0-18.6,7.2-18.6,16.2c0,8.4,6,11.9,14.2,14.8c5,1.7,11.1,3.2,11.1,8.8c0,4.2-3.1,7.8-8.2,7.8c-5.3,0-9.8-3.7-11.5-7.9
		l-8,6.7c4.4,6.2,10.8,10.5,19.6,10.5c13,0,21-7.7,21-18.5c0-18.1-25.3-14.3-25.3-23.4c0-3.5,3.8-6.1,7.8-6.1c4.2,0,7.2,1.7,9.6,4.4
		C191.2,96.7,197,89.4,197,89.4z M281.9,109.5l-0.2-22.4h-12v53.2h12v-23.9l19.9,23.9H317l-24.7-28.6L315.7,87h-14.8L281.9,109.5
		L281.9,109.5z M215.5,124.3c-4.4,0-8,3.5-8,7.9c0,4.4,3.6,8.1,8,8.1c4.4,0,8-3.6,8-8.1C223.5,127.8,219.9,124.3,215.5,124.3
		L215.5,124.3z M398,124.3c-4.4,0-8,3.5-8,7.9c0,4.4,3.6,8.1,8,8.1c4.4,0,8-3.7,8-8.1C406,127.8,402.4,124.3,398,124.3L398,124.3z
		 M489.9,124.3c-4.4,0-8,3.5-8,7.9c0,4.4,3.6,8.1,8,8.1s8-3.7,8-8.1C497.8,127.8,494.3,124.3,489.9,124.3L489.9,124.3z M473.3,88.4
		c-4-2-8.4-3-12.9-3c-16.9,0-28.5,13.1-28.5,27.8c0,14.4,12,27,28.3,27c4.7,0,8.9-1.3,13.1-3.1V125c-3.1,3.3-8,5.5-12.8,5.5
		c-10.5,0-16.9-8.8-16.9-17.5c0-9,6.2-18,17-18c4.8,0,9.6,2.1,12.7,5.5C473.3,100.6,473.3,88.4,473.3,88.4z M392,95.8v-9.1h-31v53.6
		h12.2v-23.6h17.7v-9.1h-17.7V95.8L392,95.8L392,95.8z"/>
	<path d="M168.6,511.1l6.8-10.4l7.4,4.8l1.4-2.2l-7.3-4.8l4.7-7.2l7.9,5.1l1.4-2.2l-10.3-6.7l-14.3,22.1L168.6,511.1z"/>
	<path class="st0" d="M197.5,512.2c-3.5,6.8-6,10-10.3,7.8c-4.3-2.2-3.2-6.1,0.3-12.9c2.6-5.2,5.8-8.9,9.7-6.9
		C201.4,502.3,200.2,507,197.5,512.2"/>
	<path d="M205.2,518.8l4.7,1.9c3.2,1.3,3.3,3.8,2.3,6.2c-0.7,1.6-1.6,4.7-1.7,6.5l3.2,1.3l0.2-0.6c-0.7-0.3-0.4-1.4-0.3-1.9
		c0.5-1.9,1-3.8,1.7-5.6c0.9-3.4,0.5-4.7-2.5-6.3l0-0.1c3,0.8,5.6-0.6,6.8-3.4c2.4-5.6-0.3-8.2-5.4-10.3l-6.3-2.5l-9.9,24.4l2.7,1.1
		L205.2,518.8L205.2,518.8z"/>
	<path class="st0" d="M209.7,507.6l3.8,1.5c1.8,0.7,5.1,2.2,3.4,6.4c-1.6,4.3-5.2,3.1-6.5,2.6l-4.3-1.7
		C206.2,516.4,209.7,507.6,209.7,507.6z"/>
	<path d="M223.8,513.3l6.3,2.5l-8.9,21.9l2.7,1.1l8.9-21.9l6.3,2.5l1-2.4l-15.3-6.2L223.8,513.3z M236.8,543.2l8.1-25l-2.8-0.9
		l-8.1,25L236.8,543.2z M243.9,539.1c-1,4.6,1.6,7.5,6.3,8.5c4.7,1,8.2-0.6,9.2-5.2l4.2-19.5l-2.9-0.6l-3.9,18.5
		c-0.4,2-1.4,5.2-6,4.2c-4.6-1-4.2-4.3-3.7-6.3l3.9-18.5l-2.9-0.6L243.9,539.1z M281.2,533.7c1.3-4.8-1.1-7.8-5.8-8.8
		c-4.2-0.9-7.8,1.3-8.7,5.5c-0.5,2.5-0.4,4.7,1.8,6.5c1.2,1,3.3,2.2,4.6,3.1c2.4,1.5,4,1.9,3.1,5.8c-0.6,3-3,4.1-5.9,3.5
		c-4.3-0.9-4.5-3.5-3.5-7.2l-2.8-0.6c-0.3,1.4-0.7,3.4-0.4,4.8c0.8,3.7,3.6,5,6.2,5.6c4.9,1.1,8.6-1.1,9.6-6
		c0.7-3.4,0.2-5.3-4.3-8.2l-3.7-2.4c-1.5-1-2.1-2.2-1.7-4c0.4-2,1.4-4.5,5.6-3.6c2.9,0.6,3.9,2.9,3.1,5.6
		C278.3,533.1,281.2,533.7,281.2,533.7z"/>
	<path class="st0" d="M302.1,551.8c-0.9,0.6-2.1,0.9-3.2,0.9c-4.5,0-5.4-4.9-5.2-10.7c0.3-7.6,1.2-11.6,6.1-11.4
		c4.8,0.2,5.5,4.2,5.3,11.8c-0.1,2.8-0.8,6.5-1.5,7.5l-2.4-2l-1.6,1.9C299.6,549.7,302.1,551.8,302.1,551.8z"/>
	<path d="M312.5,549c-0.2,4.7,2.9,7.1,7.6,7.2c4.8,0.2,8-2,8.1-6.7l0.7-19.9l-2.9-0.1l-0.7,18.9c0,2.1-0.5,5.4-5.2,5.2
		c-4.7-0.2-4.9-3.5-4.8-5.6l0.7-18.9l-2.9-0.1L312.5,549L312.5,549z"/>
	<path class="st0" d="M346.5,541.1c0.2,7.6-0.4,11.7-5.2,11.8c-4.8,0.2-5.7-3.8-6-11.4c-0.2-5.8,0.7-10.6,5.2-10.7
		C345.1,530.6,346.4,535.2,346.5,541.1"/>
	<path d="M365.9,552.2l-1.5-12.3l8.7-1.1l-0.3-2.6l-8.7,1.1l-1-8.6l9.4-1.2l-0.3-2.6l-12.2,1.5l3.2,26.1L365.9,552.2z M381.9,549.1
		l-5.5-25.7l-2.8,0.6l5.5,25.7L381.9,549.1z"/>
	<path class="st0" d="M384,524.8l4.5-1.4c4.5-1.4,6.5,2.2,8.4,7.9c2.6,7.4,1.8,11-2.3,12.2l-4.5,1.4L384,524.8z"/>
	<path d="M420.9,538.5l-0.8-2.5l-9.9,3l-2.8-9.3l9.2-2.8l-0.8-2.5l-9.2,2.8l-2.5-8.3l9.8-3l-0.8-2.5l-12.6,3.8l7.7,25.1L420.9,538.5
		z M437.6,531.5l-1-2.4l-9.9,4l-8.9-21.9l-2.7,1.1l9.9,24.4L437.6,531.5z M444.2,528.6l-11.9-23.4l-2.6,1.3l11.9,23.4L444.2,528.6z
		 M446.8,520.2c2.1,4.2,6,4.8,10.2,2.6c4.2-2.2,6-5.6,3.9-9.8l-9.1-17.8l-2.6,1.3l8.6,16.8c1,1.8,2.2,5-2,7.1
		c-4.2,2.1-6-0.7-6.9-2.5l-8.6-16.8l-2.6,1.3C437.8,502.4,446.8,520.2,446.8,520.2z M470.1,491.9c-2.4-4.3-6.2-4.9-10.3-2.4
		c-3.6,2.3-4.7,6.3-2.4,10c1.4,2.2,3,3.7,5.8,3.4c1.6-0.1,3.9-0.7,5.5-1c2.8-0.5,4.2-1.4,6.3,2c1.6,2.6,0.7,5-1.8,6.5
		c-3.7,2.3-5.6,0.6-7.6-2.7l-2.5,1.5c0.8,1.2,1.9,3,3,3.8c3.1,2.1,6.1,1.1,8.3-0.3c4.3-2.7,5.4-6.8,2.7-11c-1.8-2.9-3.5-4-8.7-2.9
		l-4.4,0.9c-1.8,0.4-3-0.2-4-1.7c-1.1-1.7-2.1-4.2,1.5-6.5c2.5-1.5,4.8-0.6,6.1,1.9C467.6,493.4,470.1,491.9,470.1,491.9z
		 M173.8,484l0.4,1.1l8-2.7l-0.4-1.1L173.8,484z M459.5,482.5l8,2.7l0.4-1.1l-8-2.7L459.5,482.5z"/>
	<g transform="translate(19.073 30.728)">
		<defs>
			<filter id="Adobe_OpacityMaskFilter" filterUnits="userSpaceOnUse" x="104.6" y="195.6" width="390.2" height="63.1">
				<feColorMatrix  type="matrix" values="1 0 0 0 0  0 1 0 0 0  0 0 1 0 0  0 0 0 1 0"/>
			</filter>
		</defs>
		<mask maskUnits="userSpaceOnUse" x="104.6" y="195.6" width="390.2" height="63.1" id="b_1_">
			<g class="st2">
				<path id="a_1_" class="st0" d="M120.4,195.6c5.8,21.6,13.4,42.8,22.9,63.1h317.3c10.1-22,17.6-43.2,22.9-63.1
					C483.4,195.6,120.4,195.6,120.4,195.6z"/>
			</g>
		</mask>
		<path class="st3" d="M494.8,195.6l-20,63.1H127.2l-22.6-63.1H494.8z"/>
		<defs>
			<filter id="Adobe_OpacityMaskFilter_1_" filterUnits="userSpaceOnUse" x="104.6" y="195.5" width="390.4" height="63.3">
				<feColorMatrix  type="matrix" values="1 0 0 0 0  0 1 0 0 0  0 0 1 0 0  0 0 0 1 0"/>
			</filter>
		</defs>
		<mask maskUnits="userSpaceOnUse" x="104.6" y="195.5" width="390.4" height="63.3" id="d_1_">
			<g class="st4">
				<path id="c_1_" class="st0" d="M120.4,195.5c5.8,21.7,13.5,42.9,22.9,63.3h317.2c9.4-20.4,17.1-41.6,22.9-63.3H120.4z"/>
			</g>
		</mask>
		<path class="st5" d="M127.2,258.6c0.1,0.1-22.5-63-22.5-63l390,0.1l-20,63L127.2,258.6z M494.8,195.5H104.6
			c-0.1,0.1,22.5,63.2,22.5,63.2l347.7,0.1c0.1-0.1,20.1-63.1,20.1-63.1l0-0.1H494.8L494.8,195.5z"/>
	</g>
</g>
</svg>
