<?xml version="1.0" encoding="utf-8"?>
<!-- Generator: Adobe Illustrator 19.2.1, SVG Export Plug-In . SVG Version: 6.00 Build 0)  -->
<svg version="1.1" id="layer" xmlns="http://www.w3.org/2000/svg" xmlns:xlink="http://www.w3.org/1999/xlink" x="0px" y="0px"
	 viewBox="0 0 652 652" style="enable-background:new 0 0 652 652;" xml:space="preserve">
<style type="text/css">
	.st0{fill:#007CBB;}
	.st1{fill:#E13210;}
	.st2{fill:#FCD800;}
	.st3{fill:#FEFEFE;}
</style>
<g>
	<path class="st0" d="M216,282.1c-7.4-3.3-14.7-7.1-21.6-11.4c-8-4.9-15.5-10.5-22.5-16.8c-6.9-6.2-13-13.1-18.2-20.7
		c-5.6-8.2-9.8-17.4-12.2-27c-2.2-9.1-2.7-18.5-1.3-27.7c1.5-9.9,4.8-19.5,9.9-28.2c4.4-7.8,10.2-15.2,17.2-22.2
		c6.5-6.5,14-12.6,22.4-18.2c6.7-4.4,14-8.6,21.7-12.3c7-3.4,14.5-6.5,22.4-9.3c12.9-4.6,26.2-8,39.6-10.4
		c5.6-1.1,11.5-1.9,17.6-2.6c6.2-0.7,12.4-1.3,18.2-1.6c5.7-0.3,11.4-0.5,16.8-0.5h0.1c5.9,0,11.9,0.2,18.1,0.6
		c5.6,0.3,11.4,0.8,17.2,1.5h0.3c2.6,0.3,5.2,0.7,7.8,1.1c-17.8-3.3-35.9-5-54.1-5h-0.1c-11.7,0-23.3,0.7-34.9,2.1
		c-12.6,1.4-25,3.8-37.3,6.9c-6.8,1.8-13.3,3.8-19.6,6c-7.8,2.7-15.3,5.8-22.3,9.2c-7.7,3.7-15,7.8-21.6,12.2
		c-8,5.2-15.5,11.2-22.3,18c-6.7,6.5-12.4,13.9-17.1,22l-0.4,0.6c-4.8,8.4-8,17.7-9.5,27.3c-1.3,9.1-0.8,18.5,1.3,27.4
		c2.3,9.4,6.4,18.4,12.2,26.8c4.9,7.2,11,14.1,18.1,20.5c6.6,6,14.1,11.5,22.4,16.6c6.7,4.1,13.9,7.9,21.5,11.3
		c6.3,2.9,13,5.5,19.9,7.8C222.5,285,219.2,283.6,216,282.1"/>
	<path class="st1" d="M492.1,188.3c0,51.8-74.3,93.8-166,93.8c-91.6,0-165.9-42-165.9-93.8c0-51.8,74.3-93.8,165.9-93.8
		C417.8,94.5,492.1,136.5,492.1,188.3"/>
	<path class="st2" d="M318.1,167.8v0.2v0c-3.4-1.2-6.9-2.1-10.4-2.7c-2.8-0.5-5.5-0.8-8.3-1c-5-0.4-9.9-0.6-14.9-0.6h-29.2
		c-0.6,0-1.2,0-1.8,0.1c-0.6,0-1.2,0.1-1.8,0.1c-14.2,0-20.6,4.3-23.3,15.7c-0.5,2.2-0.9,4.8-1.3,7.8l-1.2,11
		c-0.4,4.1-0.3,7.3-0.2,9.8l0.1,1.3c0.5,13.9,11.2,13.9,22.5,13.9h30.5c2.5,0,4.6-0.1,6.5-0.4c9-1.5,15-3.2,17-13.5
		c0.1-0.3,0.1-0.6,0.2-0.9l0.9-9.1h-54.8l0.8-10h67.1l-2,22.1c-0.3,3-0.9,6-1.9,8.9c-1.6,4.7-3.6,7.9-5.9,9.4
		c-2.2,1.3-4.6,2.2-7.2,2.7c-3.3,0.7-6.7,1.1-10.1,1.2c-3,0.2-6.6,0.3-11.6,0.3h-36.5l-0.8,0h-0.1c-10.5-0.1-17.5-1.5-21.9-4.5
		c-3.3-2.2-5.5-6.7-6.2-12.7c-0.3-3.1-0.3-6.3,0.1-9.4l2.9-26.3l0.1-0.3v-0.1c0.7-6.2,2.1-11,4.5-14.9c3.1-5,7.2-8.2,12.7-9.9
		c4.8-1.5,11-2.2,18.9-2.2h40.4c2.1,0,4.1,0.1,6.6,0.3c2.8,0.2,5.3,0.5,7.4,1c2,0.4,3.8,1,5.4,1.7c1.6,0.6,3,1.6,4.2,2.9
		C316.9,161,317.8,164,318.1,167.8 M499.8,219.8c-3.9,7.9-9.3,15.6-16.1,22.9c-6.5,6.9-14.1,13.3-22.6,19.2
		c-7.3,4.9-14.9,9.3-22.8,13c-7.7,3.7-15.7,7-23.8,9.7c-6.6,2.3-13.8,4.3-21.1,6.1c-13.2,3.2-26.5,5.4-40,6.6
		c-6.4,0.6-12.9,1-19.3,1.1c-5.9,0.2-11.7,0.2-17.6,0c-19.1-0.6-38.1-3.2-56.7-7.6c-6.7-1.6-13.2-3.4-19.4-5.5c-3-1-6.1-2.1-9.1-3.3
		c-11.7-4.3-23-9.8-33.7-16.2c-7.7-4.7-15-10.1-21.7-16.2c-6.5-5.8-12.3-12.4-17.2-19.6c-5.3-7.6-9.1-16.2-11.4-25.2
		c-2.1-8.3-2.5-16.9-1.2-25.4c1.4-9,4.3-17.6,8.8-25.5l0.1-0.1l0.3-0.5c4.5-7.7,9.9-14.7,16.2-20.9c6.6-6.5,13.8-12.3,21.5-17.4
		c6.7-4.4,13.8-8.4,21-11.9c6.8-3.3,14.1-6.3,21.9-9c18.1-6.4,36.9-10.6,56-12.8c6.1-0.7,12.1-1.2,17.9-1.5
		c5.6-0.3,11.2-0.5,16.5-0.5h0.1c11.6,0,23.2,0.7,34.8,2.1h0.2c13.1,1.5,26,4,38.7,7.5c7.6,2.1,15.1,4.5,22.1,7.2
		c7.7,2.9,15.1,6.3,22,9.8c8.6,4.5,16.6,9.6,23.7,15c7.7,5.9,14.5,12.3,20.1,19c3.8,4.6,7.1,9.3,9.7,14c2.1,3.6,3.8,7.5,5.3,11.4
		c2.9,7.8,4.4,15.8,4.4,23.7c0,0.5,0,1.1-0.1,1.8l0,1.1C506.6,201.5,504.1,211,499.8,219.8 M497.9,188.3c0-8.3-1.8-16.7-5.3-24.8
		c-4.3-9.4-10.2-18-17.6-25.2c-6.6-6.5-13.8-12.3-21.7-17.2c-7.6-4.8-15.5-8.9-23.7-12.5c-6.8-2.9-13.7-5.5-20.7-7.7
		c-6.5-2.1-13.3-3.9-20.1-5.4c-5.6-1.3-11.3-2.4-16.9-3.3c-15.1-2.4-30.4-3.6-45.7-3.6h-0.6c-9.7,0-19.4,0.5-29,1.5
		c-16.5,1.6-32.8,4.8-48.7,9.4c-7,2.1-13.8,4.4-20.1,7c-7,2.8-13.8,6-20.4,9.6c-7.9,4.3-15.4,9.4-22.3,15.1
		c-7.3,6.1-13.5,12.8-18.3,19.8c-5.9,8.6-9.7,17.7-11.4,27c-0.5,2.5-0.7,5.1-0.8,7.7c0,0.5-0.1,1.7-0.1,3.6H193l-0.8,10h-36.7
		c0.4,1.9,0.9,4.1,1.5,6.5l0.4,1.2c2.6,8.1,7,16.1,13,23.6c5.2,6.5,11.5,12.6,18.8,18.1c6.5,5,13.9,9.6,21.9,13.8
		c6.3,3.3,13,6.3,19.9,8.9c6.3,2.4,13,4.6,19.9,6.6c5.7,1.6,11.5,3.1,17.2,4.2c10.7,2.2,21.6,3.8,32.5,4.7
		c8.5,0.7,17.1,1.1,25.7,1.1l4,0l1.2,0c5.5-0.1,11-0.3,16.4-0.7c18.1-1.3,36-4.3,53.5-9.1c7.6-2.2,15.1-4.7,22.2-7.5
		c8-3.2,15.5-6.7,22.4-10.6c8.9-5,17-10.6,23.9-16.7l0.2-0.2l9.2-9.2H365.4c-3.6,0-7-0.1-10.1-0.5c-3.8-0.3-7.5-1.2-10.9-2.7
		c-6.3-3-9.2-9.9-8.5-20.7l0-0.6l0.1-2l2.9-26.4v-0.1l0.1-0.5l0-0.1c0.3-2.7,0.8-5.3,1.6-7.9c1.9-6.5,5.2-10.9,10.2-13.7
		c3.8-2.2,8.1-3.7,12.4-4.3c3.4-0.5,7.3-0.7,11.9-0.7h40.4c9.3,0,15.9,1.1,20.2,3.3c3.9,2,5.7,5.4,6,11.2c-1.2-0.5-2.5-0.9-3.7-1.3
		c-7.4-2.1-17.4-3.2-30-3.2h-29.1l-2,0h-2c-7,0-14.2,0.6-18.9,7.9c-1.9,3-3.1,6.3-3.7,9.7c-0.4,1.9-0.6,3.8-0.9,6.1l-1.2,11
		l-0.1,1.4l0,0.6c-0.2,2-0.2,4-0.1,6.1c0,0.9,0.1,1.7,0,2.4c-0.1,4.5,1.1,8,3.4,10.4c3.6,3.7,9.1,4.2,14,4.2c1.2,0,2.4,0,3.6-0.1
		c1,0,2-0.1,2.9-0.1h113.5l1.7-3c5.1-8.7,8.1-18.4,8.8-28.4l0-0.4C497.9,190.5,497.9,189.4,497.9,188.3"/>
	<path class="st3" d="M323.9,167.5c-0.3-5.3-1.7-9.3-4.1-12c-1.7-1.9-3.8-3.4-6.2-4.4c-2.1-0.9-4.3-1.6-6.6-2
		c-2.7-0.5-5.5-0.9-8.2-1.1c-2.3-0.2-4.7-0.2-7-0.3h-40.4c-8.5,0-15.2,0.8-20.6,2.4c-6.9,2.1-12.2,6.3-16,12.5
		c-2.8,4.6-4.5,10.3-5.3,17.4l-2.9,26.7c-0.4,3.5-0.4,7.1-0.1,10.7c0.9,7.9,3.9,13.8,8.8,17c5.4,3.6,13.4,5.4,25.2,5.5h37.4
		c5.1,0,8.8-0.1,11.9-0.3c3.7-0.2,7.4-0.6,11-1.4c3.2-0.6,6.3-1.8,9.1-3.5c3.5-2.2,6.2-6.4,8.3-12.5c1-3,1.7-6.3,2.1-10.2l2.6-28.5
		H244l-1.8,21.8h54.7l-0.3,2.5c0,0.1,0,0.1,0,0.1l-0.1,0.2c-1.2,6.5-3.5,7.5-12.2,8.9c-1.6,0.3-3.4,0.4-5.6,0.4h-30.5
		c-14,0-16.5-1.2-16.7-8.2l-0.1-1.3c-0.2-3-0.1-6,0.2-8.9l1.2-11c0.3-2.8,0.7-5.1,1.1-7.1c1.9-7.8,4.9-11.2,17.7-11.2
		c0.8,0,1.5,0,2.1-0.1l1.5,0h29.2c5.1,0,9.8,0.2,14.4,0.6c3,0.3,5.6,0.6,7.9,1c3.2,0.6,6.3,1.4,9.3,2.4c1.1,0.4,2,0.9,2.9,1.4
		l4.8,2.7l0.3-5.6C323.9,170.4,323.9,168.9,323.9,167.5L323.9,167.5z M318,168c-3.4-1.2-6.9-2.1-10.4-2.7c-2.8-0.5-5.5-0.8-8.3-1
		c-5-0.4-9.9-0.6-14.9-0.6h-29.2c-0.6,0-1.2,0-1.8,0.1c-0.6,0-1.2,0.1-1.8,0.1c-14.2,0-20.6,4.3-23.3,15.7c-0.5,2.2-0.9,4.8-1.3,7.8
		l-1.2,11c-0.4,4.1-0.3,7.3-0.2,9.8l0.1,1.2c0.5,13.9,11.2,13.9,22.5,13.9h0.8c0.3,0,0.7,0,1,0h28.7c2.5,0,4.6-0.1,6.5-0.4
		c9-1.5,15-3.2,17-13.5c0.1-0.3,0.1-0.6,0.2-0.9l0.9-9.1h-54.8l0.8-10h67.1l-2,22.1c-0.3,3-0.9,6-1.9,9c-1.6,4.7-3.6,7.9-5.9,9.4
		c-2.2,1.3-4.6,2.2-7.2,2.7c-3.3,0.7-6.7,1.1-10.1,1.2c-3,0.2-6.6,0.3-11.6,0.3h-36.5l-0.8,0h-0.1c-10.5-0.1-17.5-1.5-21.9-4.5
		c-3.3-2.2-5.5-6.7-6.2-12.7c-0.3-3.1-0.3-6.3,0.1-9.4l2.9-26.3l0.1-0.3v-0.1c0.7-6.2,2.1-11,4.5-14.9c3.1-5,7.2-8.2,12.7-9.9
		c4.8-1.5,11-2.2,18.9-2.2h40.4c2.1,0,4.1,0.1,6.6,0.2c2.8,0.2,5.3,0.5,7.4,1c2,0.4,3.8,1,5.4,1.7c1.6,0.6,3,1.6,4.2,2.9
		c1.5,1.6,2.4,4.7,2.6,8.5L318,168L318,168L318,168z M475,138.2c-6.6-6.5-13.8-12.3-21.7-17.2c-7.6-4.8-15.5-8.9-23.7-12.5
		c-6.8-2.9-13.7-5.5-20.7-7.7c-17.5-5.4-35.5-9.1-53.7-10.8c-9.7-0.9-19.3-1.4-29-1.4h-0.6c-9.7,0-19.4,0.5-29,1.5
		c-16.5,1.6-32.8,4.8-48.7,9.4c-7,2.1-13.8,4.4-20.1,7c-7,2.8-13.8,6-20.4,9.6c-7.9,4.3-15.4,9.4-22.3,15.1
		c-7.3,6.1-13.5,12.8-18.3,19.8c-5.9,8.6-9.7,17.7-11.4,27c-0.5,2.5-0.7,5.1-0.8,7.7c0,0.5-0.1,1.7-0.1,3.6H193l-0.8,10h-36.7
		c0.4,1.9,0.9,4.1,1.5,6.5l0.4,1.2c2.6,8.1,7,16.1,13,23.6c5.2,6.5,11.5,12.6,18.8,18.1c6.5,5,13.9,9.6,21.9,13.8
		c6.3,3.3,13,6.3,19.9,8.9c6.3,2.4,13,4.6,19.9,6.6c5.7,1.6,11.5,3.1,17.2,4.2c10.7,2.2,21.6,3.8,32.5,4.7
		c8.5,0.7,17.1,1.1,25.7,1.1l4,0l1.2,0c5.5-0.1,11-0.3,16.4-0.7c18.1-1.3,36-4.3,53.5-9.1c7.6-2.2,15.1-4.7,22.2-7.5
		c8-3.2,15.5-6.7,22.4-10.6c8.9-5,17-10.6,23.9-16.7l0.2-0.2l9.2-9.2H365.4c-3.6,0-7-0.1-10.1-0.5c-3.8-0.3-7.5-1.2-10.9-2.7
		c-6.3-3-9.2-9.9-8.5-20.7l0-0.6l0.1-2l2.9-26.4v-0.1l0.1-0.5l0-0.1c0.3-2.7,0.8-5.3,1.6-7.9c2-6.5,5.2-10.9,10.2-13.7
		c4.3-2.4,8.2-3.8,12.4-4.3c3.4-0.5,7.3-0.7,11.9-0.7h40.4c9.3,0,15.9,1.1,20.2,3.3c3.9,2,5.7,5.4,6,11.2c-1.2-0.5-2.5-0.9-3.7-1.3
		c-7.4-2.1-17.4-3.2-30-3.2h-33.2c-7,0-14.2,0.6-18.9,7.8c-1.9,3-3.1,6.3-3.7,9.7c-0.4,1.9-0.6,3.8-0.9,6.1l-1.2,11l-0.1,1.4l0,0.6
		c-0.2,2-0.2,4-0.1,6.1c0,0.9,0.1,1.7,0,2.4c-0.1,4.5,1.1,8,3.4,10.4c3.6,3.7,9.1,4.2,14,4.2c1.2,0,2.4,0,3.6-0.1c1,0,2-0.1,2.9-0.1
		h109.9l3.6,0l1.7-2.9c5.2-9.1,8.2-18.7,8.8-28.4l0-0.4c0.1-1,0.1-2,0.1-3.2c0-8.3-1.8-16.7-5.3-24.8
		C488.4,154.1,482.4,145.5,475,138.2z M492,191.1v0.5c-0.6,8.8-3.3,17.5-8.1,25.8H373.8c-1,0-2,0.1-3.1,0.1c-1.1,0-2.3,0.1-3.4,0.1
		c-3.5,0-7.7-0.3-9.8-2.4c-1.2-1.3-1.9-3.3-1.8-6.2c0-0.9,0-1.8-0.1-2.7c0-1.6-0.1-3.3,0.1-5.3l0-0.6l0.1-1.3l1.2-11
		c0.2-2.1,0.5-3.9,0.8-5.6c0.7-3.2,1.6-5.7,2.9-7.6c2.9-4.4,7-5.2,14.1-5.2h2l2.1,0H408c12,0,21.6,1,28.4,3c2.4,0.7,4.4,1.5,6.1,2.4
		l4.8,2.6l0.2-5.5l0-1c0.2-6.2-0.6-15-9.2-19.4c-5.1-2.6-12.6-3.9-22.9-3.9h-40.4c-4.8,0-9,0.2-12.6,0.7c-5.1,0.7-10,2.5-14.5,5
		c-6.4,3.6-10.5,9-13,17.1c-0.6,1.9-1,3.9-1.4,5.9c-0.1,0.7-0.3,1.9-0.4,3v0.1l-0.1,0.3l-0.1,0.4l-2.8,26.4
		c-0.1,0.8-0.2,1.6-0.2,2.4l-0.1,0.6c-1,16.7,5.9,23.6,11.9,26.4c3.4,1.6,7.6,2.7,12.8,3.2c3.2,0.4,6.9,0.5,10.7,0.5h99.4
		c-6.8,5.8-14.1,10.8-21.9,15.1c-7,3.9-14.2,7.3-21.7,10.2c-13,5.1-26.4,9-40.1,11.7c-5.9,1.2-12,2.2-18.1,2.9
		c-5.2,0.7-10.5,1.2-15.7,1.6c-5.3,0.4-10.7,0.6-16.1,0.7H330c-20.4,0.4-40.9-1.5-60.9-5.6c-12.3-2.5-24.4-6-36.1-10.5
		c-6.6-2.5-13-5.4-19.3-8.6c-7.4-3.8-14.4-8.2-21.1-13.3c-6.6-5-12.6-10.7-17.8-17.2c-5.3-6.4-9.3-13.8-12-21.7h34.7l1.7-21.7h-38.9
		c0.1-1.5,0.3-3,0.6-4.4c1.5-8.4,5-16.7,10.4-24.6c4.5-6.6,10.3-12.9,17.2-18.6c6.7-5.5,13.8-10.3,21.4-14.5
		c6.4-3.5,13-6.6,19.7-9.4c11.8-4.7,23.9-8.4,36.4-11.1c10.2-2.2,20.5-3.9,30.9-4.9c4.9-0.5,9.9-0.9,14.8-1.1
		c4.9-0.2,9.4-0.4,13.7-0.4l0.2,0h0.3c4.4,0,9.1,0.1,14.2,0.4c15.9,0.7,31.7,2.8,47.3,6.3c6.6,1.5,13.2,3.3,19.6,5.3
		c7,2.2,13.8,4.7,20.1,7.5c8.3,3.6,16,7.6,22.9,12c7.9,5,14.8,10.5,20.7,16.4c7.3,7.4,12.8,15.3,16.4,23.4
		c3.2,7.4,4.8,14.9,4.8,22.5C492.1,189.2,492.1,190.1,492,191.1z M508.3,163.1c-1.6-4.2-3.5-8.3-5.7-12.3c-3-5.3-6.5-10.2-10.4-14.9
		c-6.3-7.4-13.3-14.1-21.1-19.9c-7.7-5.8-16-11-24.6-15.5c-7-3.7-14.6-7.1-22.6-10.1c-7.2-2.8-14.9-5.2-22.7-7.4
		c-13-3.5-26.2-6.1-39.5-7.6h-0.2c-11.7-1.4-23.5-2.1-35.4-2.1h-0.1c-5.4,0-11.1,0.1-16.9,0.5c-5.9,0.3-12,0.9-18.2,1.6
		c-5.9,0.7-11.8,1.5-17.6,2.6c-13.5,2.4-26.7,5.9-39.6,10.4c-8,2.8-15.5,5.9-22.5,9.3c-7.7,3.8-15,7.9-21.7,12.4
		c-8.1,5.3-15.6,11.4-22.4,18.1c-6.7,6.6-12.5,14.1-17.2,22.2l-0.2,0.4l-0.2,0.3c-4.9,8.5-8.1,17.8-9.5,27.5
		c-1.3,9.2-0.9,18.6,1.4,27.7c2.3,9.3,6.4,18.4,12.2,27c4.9,7.3,11,14.2,18.2,20.7c6.6,6,14.2,11.7,22.6,16.8
		c11,6.7,22.6,12.3,34.6,16.7c2.8,1.1,6,2.3,9.3,3.4c19,6.2,38.6,10.3,58.5,12.1c9.7,1,19.5,1.5,29.3,1.4c9.2-0.1,18.4-0.5,27.6-1.3
		c13.8-1.2,27.4-3.5,40.8-6.8c15.9-3.8,31.4-9.2,46.1-16.2c8.5-4.1,16.5-8.6,23.6-13.4c8.6-5.8,16.5-12.5,23.6-20
		c7.2-7.7,13-15.9,17.1-24.3c4.8-9.7,7.4-19.9,7.9-30.3c0-0.3,0-0.7,0.1-1C513.2,181.5,511.6,172,508.3,163.1L508.3,163.1z
		 M507.1,190.7l0,1.1c-0.5,9.7-3,19.2-7.3,28c-3.9,7.9-9.3,15.6-16.1,22.9c-6.5,6.9-14.1,13.3-22.6,19.2c-7.3,4.9-14.9,9.3-22.8,13
		c-7.7,3.7-15.7,7-23.8,9.7c-6.6,2.3-13.8,4.3-21.1,6.1c-13.2,3.2-26.5,5.4-40,6.6c-6.3,0.6-12.9,1-19.3,1.1
		c-5.9,0.2-11.7,0.2-17.6,0c-12.3-0.4-24.7-1.6-36.9-3.5c-13.3-2.2-26.5-5.4-39.3-9.5c-3-1-6.1-2.1-9.1-3.3
		c-11.7-4.3-23-9.7-33.7-16.2c-7.7-4.7-15-10.1-21.7-16.2c-6.5-5.8-12.3-12.4-17.2-19.6c-5.3-7.6-9.1-16.2-11.4-25.2
		c-2-8.3-2.4-16.9-1.2-25.4c1.3-8.7,4.2-17.2,8.8-25.4l0.1-0.1l0.3-0.5c4.2-7.3,9.6-14.3,16.3-20.9c6.6-6.5,13.8-12.3,21.5-17.4
		c6.7-4.4,13.8-8.4,21-11.9c6.8-3.3,14.1-6.3,21.9-9c18.1-6.4,36.9-10.6,56-12.8c6.1-0.7,12.1-1.2,17.9-1.5
		c5.6-0.3,11.2-0.5,16.5-0.5h0.1c5.7,0,11.7,0.2,17.8,0.6c5.5,0.3,11.2,0.8,17,1.5l0.2,0c13,1.6,26,4.1,38.7,7.5
		c7.7,2.1,15.1,4.5,22.2,7.2c7.7,2.9,15.1,6.3,22,9.8c8.6,4.5,16.6,9.6,23.7,15c7.7,5.9,14.5,12.3,20.1,19c3.8,4.6,7.1,9.3,9.7,14
		c2.1,3.6,3.8,7.5,5.3,11.4c2.9,7.8,4.4,15.8,4.4,23.7C507.2,189.4,507.1,190,507.1,190.7L507.1,190.7z"/>
	<path class="st1" d="M54,328.1C51.8,300.9,37.4,293,25.2,293c-17.4,0-26.9,11.4-26.9,31.2c0,54.1,109.6,80,109.6,166.1
		c0,52.3-34.8,81.3-85.2,81.3c-50,0-78.7-40.4-80.9-87.9l51.3-7.5C-4.7,508.2,7.9,524,25.2,524c18.7,0,31.3-10.1,31.3-29
		C56.6,432.2-53,415.5-53,324.6c0-50.5,30.4-79.1,83.5-79.1c20.9,0,37.4,7.5,50,19.8c13.9,13.6,22.2,33.4,24.8,57.1
		C105.2,322.4,54,328.1,54,328.1z M294.2,460.5l-0.4,26.7c0,54.5-31.3,84.4-82.6,84.4s-82.6-29.9-82.6-84.4l1.1-202.4l53,22
		l-0.2,182.5c0,23.3,9.1,34.7,28.7,34.7s28.7-11.4,28.7-34.7l0.5-167.3l54.3,9.5c0.4,0.9,40.4,4.3,40.4,4.3v9.9
		c-28.7,1.3-41.4-0.7-41.4,38L294.2,460.5L294.2,460.5z M508.5,489.3l-0.4,36.9c0,29,17.4,29.8,47.8,31.2v11c0,0-46.1,0-47.8-1.3
		h-47L392.5,382l-0.9,4.4v180.7h-48.7V335.2l79.1-14.5l36.5,110.6h0.9V307.7l48.7-18L508.5,489.3L508.5,489.3z"/>
	<path class="st1" d="M646.3,328.1c-2.2-27.2-16.5-35.1-28.7-35.1c-17.4,0-26.9,11.4-26.9,31.2c0,54.1,109.5,80,109.5,166.1
		c0,52.3-34.8,81.3-85.2,81.3c-50,0-78.7-40.4-80.9-87.9l51.3-7.5c2.2,32,14.8,47.9,32.2,47.9c18.7,0,31.3-10.1,31.3-29
		c0-62.8-109.5-79.5-109.5-170.5c0-50.5,30.4-79.1,83.4-79.1c20.9,0,37.4,7.5,50,19.8c13.9,13.6,22.2,33.4,24.8,57.1
		C697.6,322.4,646.3,328.1,646.3,328.1z"/>
</g>
</svg>
