<?xml version="1.0" encoding="utf-8"?>
<!-- Generator: Adobe Illustrator 19.2.1, SVG Export Plug-In . SVG Version: 6.00 Build 0)  -->
<svg version="1.1" id="layer" xmlns="http://www.w3.org/2000/svg" xmlns:xlink="http://www.w3.org/1999/xlink" x="0px" y="0px"
	 viewBox="0 0 652 652" style="enable-background:new 0 0 652 652;" xml:space="preserve">
<style type="text/css">
	.st0{fill:#FFFFFF;}
	.st1{fill:#EE1E31;}
</style>
<g>
	<path class="st0" d="M116.3,141.6h153.4l51.3,100.1l50.5-100h154.1L320.5,571.3L116.3,141.6z"/>
	<path class="st0" d="M266.3,147.2l54.8,106.9L375,147.3h141.8l-196.4,411c-9.4-19.8-188.2-396.1-195.3-411.1L266.3,147.2
		L266.3,147.2z"/>
	<path class="st1" d="M269.7,141.8l51.3,100l50.5-100h154.1L407.9,387.9c-8.5-44,10.9-67.7,10.9-67.7s-27-4-49.8,17.6
		c-4.2-7.4-20.5-47.9-84.9-55.1c13.9,16.3,16.7,37.3,15.7,51.8C288,324,271,315.8,256.4,315.4c7.4,10.2,7.6,37.4,7.4,37.2
		c-16.1-15.2-37.4-19.2-37.4-19.2c2.3,13.9,6.3,29.7,2.4,44.2c-12.7-25.6-112.4-236-112.4-236S269.7,141.8,269.7,141.8z"/>
	<path class="st1" d="M321.1,446.7c-21.3,23.8-30.9,41.1-17.8,45c21.1,6.3,24-78.1,104.6-104.1l-87.4,183.6l-34.9-74.2
		c1.8-16.2,17.2-34.7,33.1-52c27-29.3,23.6-61.1,4-77.7c-17.8-15.1-56.4-9.7-64.5,12.1c1.8,3,4.4-3.9,7-2.5c4.7,2.5-7.3,10.1,0,14
		c3,1.4,3.2,2.6,5.6,3.1c10.6,2.2,10.1-11,23-11.3c6.9-0.2,15.8,4,18.4,16.1c2.4,11.3-2,24.4-18.8,37.6c-4.4,3.4-15.3,8.9-24.8,25.6
		l-1.4-3.6c10-21.8,47.6-29.5,41.9-59.2c-2.2-11.3-12.7-15.7-19.8-12.7c-8.1,3.3-6.7,11.4-18.4,9.8c-8,7.5-16.4,16.9-25.6,23.1
		c-1.5,0.2-0.4-4.7-0.3-5.9c2.8-8.8,5.5-16.1,8.6-24.8c2.3,3.1,1.4,8.1,1,13.4c2.4-2,6.4-9.3,6-10.6c-4.7-4.2-8-4.9-6.7-9.2
		c9.8-32.3,56.9-31.3,71.3-16.9C351.6,391.9,342.5,422.9,321.1,446.7"/>
	<path d="M279.2,71.8v8.9H270v9.4h7.7v8.5h-8v10h9.1v8.7h-18.6V71.8L279.2,71.8z"/>
	<path d="M279.2,71.8v8.9H270v9.4h7.7v8.5h-8v10h9.1v8.7h-18.6V71.8L279.2,71.8z M191.7,109.3V80.7c4.7-0.1,8.4,5.5,8.4,14.5
		C200.1,106.9,194.4,109.6,191.7,109.3 M183.2,72l-0.7-0.1l-0.1,45.5c10.4,0.1,26.7,3.1,26.9-22.3C209.4,72.8,195.3,71.2,183.2,72"
		/>
	<path d="M191.7,109.3V80.7c4.7-0.1,8.4,5.5,8.4,14.5C200.1,106.9,194.4,109.6,191.7,109.3 M183.2,72l-0.7-0.1l-0.1,45.5
		c10.4,0.1,26.7,3.1,26.9-22.3C209.4,72.8,195.3,71.2,183.2,72 M158.6,86.5l5.4-14.7h9.8l-10.5,23.4l-0.2,22.1h-8.9V95.2l-10.8-23.4
		h9.9L158.6,86.5z"/>
	<path d="M158.6,86.5l5.4-14.7h9.8l-10.5,23.4l-0.2,22.1h-8.9V95.2l-10.8-23.4h9.9L158.6,86.5z M239.3,96.4V72.3h9.4v45.3h-8.6
		l-10.5-25.2v25.2h-9.1V72.3h8.7L239.3,96.4z"/>
	<path d="M239.3,96.4V72.3h9.4v45.3h-8.6l-10.5-25.2v25.2h-9.1V72.3h8.7L239.3,96.4z M134.3,73.5c-2.4-1.4-5.1-2.2-7.9-2.2
		c-7.7,0-12.1,6.1-12.1,13.3c0,6.6,3.4,10,8.6,13.5c2.5,1.8,5.2,3.5,5.2,7c0,3-2.3,4.2-5.2,4.2c-2.6,0-4.5-0.6-6.6-2v8.5
		c2,1.5,5.2,2.3,7.7,2.3c8.4,0,13-6.1,13-14.1c0-12.2-13.6-12.6-13.6-20.1c0-2.8,1.5-4.1,4.3-4.1c2.5,0,4.9,1,6.7,2.5V73.5z"/>
	<path d="M134.3,73.5c-2.4-1.4-5.1-2.2-7.9-2.2c-7.7,0-12.1,6.1-12.1,13.3c0,6.6,3.4,10,8.6,13.5c2.5,1.8,5.2,3.5,5.2,7
		c0,3-2.3,4.2-5.2,4.2c-2.6,0-4.5-0.6-6.6-2v8.5c2,1.5,5.2,2.3,7.7,2.3c8.4,0,13-6.1,13-14.1c0-12.2-13.6-12.6-13.6-20.1
		c0-2.8,1.5-4.1,4.3-4.1c2.5,0,4.9,1,6.7,2.5V73.5z M525,73.5c-2.4-1.4-5.1-2.2-7.9-2.2c-7.7,0-12,6.1-12,13.3
		c0,6.6,3.4,10,8.6,13.5c2.5,1.8,5.2,3.5,5.2,7c0,3-2.3,4.2-5.2,4.2c-2.6,0-4.5-0.6-6.6-2v8.5c2,1.5,5.2,2.3,7.7,2.3
		c8.4,0,13-6.1,13-14.1c0-12.2-13.6-12.6-13.6-20.1c0-2.8,1.6-4.1,4.3-4.1c2.5,0,4.9,1,6.7,2.5C525,82.2,525,73.5,525,73.5z"/>
	<path d="M525,73.5c-2.4-1.4-5.1-2.2-7.9-2.2c-7.7,0-12.1,6.1-12.1,13.3c0,6.6,3.4,10,8.6,13.5c2.5,1.8,5.2,3.5,5.2,7
		c0,3-2.3,4.2-5.2,4.2c-2.6,0-4.5-0.6-6.6-2v8.5c2,1.5,5.2,2.3,7.7,2.3c8.4,0,13-6.1,13-14.1c0-12.2-13.6-12.6-13.6-20.1
		c0-2.8,1.6-4.1,4.3-4.1c2.5,0,4.9,1,6.7,2.5L525,73.5L525,73.5z M365.2,73.5c-2.4-1.4-5.1-2.2-7.9-2.2c-7.7,0-12.1,6.1-12.1,13.3
		c0,6.6,3.4,10,8.6,13.5c2.5,1.8,5.2,3.5,5.2,7c0,3-2.3,4.2-5.2,4.2c-2.6,0-4.5-0.6-6.6-2v8.5c2,1.5,5.2,2.3,7.7,2.3
		c8.4,0,13-6.1,13-14.1c0-12.2-13.6-12.6-13.6-20.1c0-2.8,1.5-4.1,4.3-4.1c2.4,0,4.8,1,6.6,2.5C365.2,82.2,365.2,73.5,365.2,73.5z"
		/>
	<path d="M365.2,73.5c-2.4-1.4-5.1-2.2-7.9-2.2c-7.7,0-12.1,6.1-12.1,13.3c0,6.6,3.4,10,8.6,13.5c2.5,1.8,5.2,3.5,5.2,7
		c0,3-2.3,4.2-5.2,4.2c-2.6,0-4.5-0.6-6.6-2v8.5c2,1.5,5.2,2.3,7.7,2.3c8.4,0,13-6.1,13-14.1c0-12.2-13.6-12.6-13.6-20.1
		c0-2.8,1.5-4.1,4.3-4.1c2.4,0,4.8,1,6.6,2.5C365.2,82.2,365.2,73.5,365.2,73.5z M438.7,102.4l2.4-16.6l2.7,16.6H438.7L438.7,102.4z
		 M446.4,72.3h-9.8l-10.5,45.3h9.5l1.8-7.7h8.2l1.9,7.7h9.7L446.4,72.3L446.4,72.3z"/>
	<path d="M438.7,102.4l2.4-16.6l2.7,16.6H438.7L438.7,102.4z M446.4,72.3h-9.8l-10.5,45.3h9.5l1.8-7.7h8.2l1.9,7.7h9.7L446.4,72.3
		L446.4,72.3z M485.2,96.4V72.3h9.5v45.3h-8.6l-10.5-25.2v25.2h-9.1V72.3h8.8L485.2,96.4z"/>
	<path d="M485.2,96.4V72.3h9.5v45.3h-8.6l-10.5-25.2v25.2h-9.1V72.3h8.8L485.2,96.4z M385.2,72.3l4.9,28.9l4.8-28.9h8l5.6,28.9
		l3.9-28.9h9.9l-9.5,45.3h-8l-5.6-30.1l-6.3,30.1h-8.2l-8.9-45.3L385.2,72.3z"/>
	<path d="M385.2,72.3l4.9,28.9l4.8-28.9h8l5.6,28.9l3.9-28.9h9.9l-9.5,45.3h-8l-5.6-30.1l-6.3,30.1h-8.2l-8.9-45.3L385.2,72.3z
		 M301.9,86.5l5.4-14.7h9.8l-10.5,23.4l-0.2,22.1h-8.9V95.2l-10.8-23.4h9.9L301.9,86.5z"/>
	<path d="M301.9,86.5l5.4-14.7h9.8l-10.5,23.4l-0.2,22.1h-8.9V95.2l-10.8-23.4h9.9L301.9,86.5z"/>
</g>
</svg>
