<?xml version="1.0" encoding="UTF-8" standalone="no"?>
<svg version="1.1" id="Layer_1" xmlns="http://www.w3.org/2000/svg" xmlns:xlink="http://www.w3.org/1999/xlink" x="0px" y="0px"
	 width="100%" viewBox="0 0 96 96" enable-background="new 0 0 96 96" xml:space="preserve">
<path fill="#E0DDDD" opacity="1.000000" stroke="none" 
	d="
M65.000000,97.000000 
	C43.333336,97.000000 22.166674,97.000000 1.000009,97.000000 
	C1.000006,65.000008 1.000006,33.000019 1.000003,1.000021 
	C32.999985,1.000014 64.999969,1.000014 96.999969,1.000007 
	C96.999977,32.999981 96.999977,64.999962 96.999985,96.999969 
	C86.500000,97.000000 76.000000,97.000000 65.000000,97.000000 
M91.309906,10.185494 
	C90.451035,5.829231 87.096558,5.723013 83.691124,5.722108 
	C68.062149,5.717953 52.433170,5.718003 36.804195,5.718468 
	C28.989716,5.718701 21.174820,5.676568 13.360948,5.746676 
	C9.859276,5.778094 6.604174,6.350286 6.243880,11.730688 
	C6.148770,35.842388 6.034338,59.954037 5.971730,84.065819 
	C5.955469,90.328369 7.688936,92.018845 14.004171,92.024628 
	C37.294056,92.045967 60.583981,92.044884 83.873863,92.025703 
	C90.397095,92.020332 92.019485,90.350227 92.024178,83.677803 
	C92.040062,61.053341 92.046738,38.428825 91.996490,15.804459 
	C91.992928,14.200669 91.499435,12.597969 91.309906,10.185494 
z"/>
<path fill="#FEFDFD" opacity="1.000000" stroke="none" 
	d="
M91.233757,10.994763 
	C91.499435,12.597969 91.992928,14.200669 91.996490,15.804459 
	C92.046738,38.428825 92.040062,61.053341 92.024178,83.677803 
	C92.019485,90.350227 90.397095,92.020332 83.873863,92.025703 
	C60.583981,92.044884 37.294056,92.045967 14.004171,92.024628 
	C7.688936,92.018845 5.955469,90.328369 5.971730,84.065819 
	C6.034338,59.954037 6.148770,35.842388 6.641657,11.664121 
	C14.115549,23.769070 21.191664,35.940586 28.267778,48.112103 
	C28.528654,47.998951 28.789528,47.885796 29.050404,47.772644 
	C29.050404,45.737328 29.050404,43.702011 29.050404,41.209064 
	C31.536364,42.277195 33.571312,43.151543 35.723354,44.076199 
	C35.837540,43.356110 36.022186,42.866554 35.967995,42.405041 
	C35.814407,41.096992 35.563137,39.800415 35.586838,38.317501 
	C35.969261,38.000546 36.115173,37.865410 36.626068,37.717690 
	C39.200706,38.594322 41.410370,39.483536 44.377106,40.677418 
	C43.352043,37.078476 42.495750,34.072086 41.565922,30.807507 
	C49.436249,31.149837 54.589737,35.437889 58.340626,40.997837 
	C61.775558,39.853989 64.807480,38.844341 67.910194,37.811119 
	C67.232033,42.836815 66.656570,47.101345 66.081116,51.365875 
	C66.564384,51.476151 67.047653,51.586426 67.530914,51.696705 
	C75.431862,38.129391 83.332809,24.562077 91.233757,10.994763 
z"/>
<path fill="#E61533" opacity="1.000000" stroke="none" 
	d="
M35.350334,38.499317 
	C35.563137,39.800415 35.814407,41.096992 35.967995,42.405041 
	C36.022186,42.866554 35.837540,43.356110 35.723354,44.076199 
	C33.571312,43.151543 31.536364,42.277195 29.050404,41.209064 
	C29.050404,43.702011 29.050404,45.737328 29.050404,47.772644 
	C28.789528,47.885796 28.528654,47.998951 28.267778,48.112103 
	C21.191664,35.940586 14.115549,23.769070 6.832108,11.299702 
	C6.604174,6.350286 9.859276,5.778094 13.360948,5.746676 
	C21.174820,5.676568 28.989716,5.718701 36.804195,5.718468 
	C52.433170,5.718003 68.062149,5.717953 83.691124,5.722108 
	C87.096558,5.723013 90.451035,5.829231 91.271835,10.590130 
	C83.332809,24.562077 75.431862,38.129391 67.530914,51.696705 
	C67.047653,51.586426 66.564384,51.476151 66.081116,51.365875 
	C66.656570,47.101345 67.232033,42.836815 67.910194,37.811119 
	C64.807480,38.844341 61.775558,39.853989 58.340626,40.997837 
	C54.589737,35.437889 49.436249,31.149837 41.565922,30.807507 
	C42.495750,34.072086 43.352043,37.078476 44.377106,40.677418 
	C41.410370,39.483536 39.200706,38.594322 36.483658,37.541924 
	C35.767628,37.752270 35.558983,38.125793 35.350334,38.499317 
z"/>
<path fill="#FEFDFD" opacity="1.000000" stroke="none" 
	d="
M35.586838,38.317501 
	C35.558983,38.125793 35.767628,37.752270 36.118679,37.554512 
	C36.115173,37.865410 35.969261,38.000546 35.586838,38.317501 
z"/>
</svg>
