<?xml version="1.0" encoding="utf-8"?>
<!-- Generator: Adobe Illustrator 19.2.1, SVG Export Plug-In . SVG Version: 6.00 Build 0)  -->
<svg version="1.1" id="layer" xmlns="http://www.w3.org/2000/svg" xmlns:xlink="http://www.w3.org/1999/xlink" x="0px" y="0px"
	 viewBox="0 0 652 652" style="enable-background:new 0 0 652 652;" xml:space="preserve">
<style type="text/css">
	.st0{fill:#FFD300;}
	.st1{fill:#FFFFFF;}
	.st2{fill:#D52B1E;}
	.st3{fill:#7E5300;}
</style>
<g>
	<path d="M488.8,147.5c0,0-20.1-10-71.3-16.5c5.2-5.8,10.4-15.1,12.6-31.7c1-7.2-3.5-10.1-11.3-10.1c-19.1,0-30.6-1-45.9-3.2
		c-25.5-15.6-50.6-6.3-50.6-6.3c-30.7-8.2-58.2,5.9-58.2,5.9c-14.3,0.1-30.6-0.7-41.7-2.3c-5-0.8-8.2-1.5-12.4-0.9
		c-7.1,1-7.6,23.5,1,36.7c1.9,3.2,6,8.1,10.3,12.5c-48.5,6.5-67.6,16-67.6,16c-29.5,124,18.1,230.8,103.2,291.4
		c20.7,15.5,42.2,29.9,64.4,43c22.2-13.1,43.7-27.5,64.4-43C470.8,378.3,518.3,271.5,488.8,147.5 M389.1,272.6
		C389.1,272.6,389.1,272.6,389.1,272.6"/>
	<path class="st0" d="M295.8,290.8c3.7-4.5,8-8.6,12.7-11.9c-2.1-1.6-3.9-3.5-5.5-5.6c-4.6,2.2-8.9,3.8-13.8,7.7
		c3.7-5.3,6.3-7,11.9-10.7c-0.1-0.2-0.5-0.7-0.7-1c-7.7,2.8-13.9,6.1-18.1,9.8l-0.2-0.2l-0.1,0.1c-2.2-2.2-4.9-5.8-7.3-9.5
		c-1.5,3.3-3,6.9-4.2,10.8c-0.9,3.2-1.5,5.9-1.7,7.1c0,0.1,0,0.1-0.1,0.2c-0.1,0.5-0.2,1.1-0.3,1.6c-1.7-0.3-3.4-0.7-5-1.2
		c0.3,6.6,1.7,13.5,4,20.9c-0.3-4.2-0.5-6.6,0-9.8c1.5,7,2.4,9.6,7,16c14.8-13.8,30.2-21.6,48.1-26.2c-0.6-0.9-1.2-1.8-1.7-2.7
		c-4-1.8-7.4-3.6-9.9-5.5C306.5,283.1,301.6,286.3,295.8,290.8"/>
	<path class="st1" d="M286.3,459.8c-10.6-31-6.2-50,11.5-92.5c-13,12.9-23.1,18.4-29.3,39.2c0.3-5.1,1.3-9.9,2.3-12.4
		c-7.1-8.5-12.1-18.6-14.6-33.3c-1.6,2.6-3.1,5.4-4.4,9.2c0.2-6.1,1.1-9.1,3.5-14.7c-0.1-0.6-0.2-1.2-0.2-1.8c-1.5,2.5-3,5-3.6,7.1
		c-6.1-17.7-8.9-45.4-3.1-65.8c1.5,30.3,10.3,48.9,25.1,64.6c1.3-2,2.8-3.8,4.5-5.5c-1.3,2-2.3,4.2-3.2,6.4
		c-1.2,2.5-1.8,4.6-3.1,9.1c2.9-4.6,4.4-7.1,6.1-9.6c14.6-20.3,35.3-26.9,49.2-40.7c0,0-7.9,3.1-14.4,8c9.9-9.4,20.7-12.3,29.6-25.6
		c0.8-1.1,1.7-2.5,2.6-4c-0.6,0.1-1.1,0.1-1.7,0.1c-1.8,2.8-5.3,7.2-8.6,9.8c2.8-3.9,4.3-7.3,5.2-9.9c-3.9-0.7-11.5-1.5-14.2-4.8
		c-2.9,1.4-6.8,2.9-10.7,4.9c-7.2,3.8-12.1,7.1-19.5,12.5c6.1-2.7,9.3-3.9,14.8-5.4c-13.4,6.4-29,19-36.7,30.4
		c-5.2-5.4-8-11.9-10.4-22.3c-0.4,3.7-0.3,6.3,0.2,11.2c-5.1-13.8-6.5-27.6-5.3-38.2c-3.1-1.5-6.1-3.4-8.7-5.6
		c-8.9,17.2-17.8,45.8-17.4,64.9c1.5-6,3.5-10.4,3.5-10.4c-2.5,27.4,1.8,62.2,19.5,90.8C263,438.6,273.1,448.8,286.3,459.8"/>
	<path class="st1" d="M351.8,398.8c33.5-35,40.8-64.8,28-98.5c0.3,27.5-60.4,68.1-69.7,83.2c3.2-2.4,14.3-9.3,16.6-10.8
		c-8.4,6.7-13,11-18.8,19.5c5.7-5.6,11-8.5,15.6-11.6c-23.1,20-29.5,53.4-22.1,89c6.8,4.3,13.3,8.3,19.8,12.2
		C317,447.5,333.1,418.3,351.8,398.8 M215.9,233.2c1.2,7.6,3.4,14.7,6.7,20.8c2.6-5.6,7.4-10,10.8-12.3c0.2,0.6,0.3,1,0.5,1.6
		c-3,3.1-5.5,6.6-7.7,10.6c2.9-3.5,5.8-5.6,8.7-7.9c4.5,11.4,12.7,18.6,21.6,23.5c2.1-10.8,6-20.2,10.7-24.8
		c0.2,0.4,0.5,0.9,0.7,1.3c-3.4,5.4-4.5,8.3-5.9,13.9c2.9-4.9,5.1-7.9,7.9-10.9c2.5,3.5,5,5.9,7.2,8.1c8.1-8,25-8.4,34.2-9.2
		c-10.7-8.5-50.6-1-66.7-23.8c1-1.8,2.2-3.5,4.2-5.6c-4,2.4-11,8.6-15.2,13.6c1-2.6,2-4.7,3.1-6.5c-6.6-12.5-5.5-28.4-4.2-40.3
		c1.9-1.4,3.8-2.6,6-3.7c-5.9,1.4-10.2,3.4-15.8,7.2c-2.1-15.6,4.5-32.6,9.8-44.2c-2.4,0.4-4.2,1.3-6.4,2.7
		c2.7-12.9,7.5-23.9,16.9-34.1c-12,10.2-20.7,23.7-25,38.9c2.6-1.3,3.7-1.7,5.7-2.2c-0.2,0.3-0.5,0.9-0.7,1.2c-3.8,2-6,3.7-9.4,7.4
		c3.3-2.1,5.3-3.2,7.5-4c-8.4,14.9-16,30.8-12.4,54.2c2.3-2.8,5.9-5.6,7.8-6.5l-0.2,1.3c-3.6,3.4-6.5,7.5-8.5,12.1
		c2.3-3,4.6-5.4,7.8-7.4C214.6,216.4,214.6,224.9,215.9,233.2"/>
	<path class="st0" d="M387.1,213c-0.4,2.3-0.5,4.6-0.4,7c4.7,1.2,10.2-6,12.6-16.7c2.1,1.8,4.1,3.7,6.4,6.3
		c-1.7-4.3-3.2-6.6-5.9-9.5c0.1-0.5,0.4-1.2,0.4-1.8c0,0,2,1.4,3.5,3.5c1.2-3.3,2.1-10.8,2.6-21.1c-1.8,3.5-5,6.1-8.1,7.6
		C395.5,202.4,390.8,210.5,387.1,213 M407.2,149.9c0-3.2-0.2-5.6-1-8.4c0.8,0.2,1.9,0.8,2.5,1.1c-0.5-6.7,0-10.3-2.7-16.4
		c-0.1,3.5-0.2,8-2.4,9.9c-1.8,1.6-3.7,2.8-5.5,3.7C401.2,142.1,404.9,145.6,407.2,149.9 M244.5,208.5c2.1-1.8,4.2-2.8,6.6-3.6
		l0.4,0.7c-4,2.6-6.4,4.9-9.8,9.3c3.6-2.6,7.4-4.8,11.5-6.6c7.4,10.6,23.4,19.1,41.1,21.4c-2.4-5-11.5-11.3-14.8-16.3
		c-6.2-9.4-2.5-20.5,2.8-27.2c-12.8,5.6-16.2,9.6-17.9,18.3c-15.5-15.1-17.4-52.9-14.7-73.9c-8.6,15.5-15.5,26.7-15.5,48.6
		c2.5-1.1,5.2-2.1,8.2-2.5C240.9,185.1,241.2,198.5,244.5,208.5"/>
	<path class="st1" d="M287.9,120c5.1,4.2,7.6,7.3,18,9.5c1.8,0.4,4.2,0.4,6.3,0.2c-4.1,3-9.8,4.3-15.7,5c-7.7,0.9-19.6-5-28.3-6.6
		c-3.2-3.4-3.8-6.8-2.3-9.1c0.6-1,1.5-3.2,3.5-5.1c0.4,0,0.9,0,1.3,0c2.8,0.2,5.5,0.6,8.2,1.2C282,115.8,285.5,118.1,287.9,120
		 M296.2,152.6c8.1,0.5,15,2.5,20.9,4c0.9,0.2,1.9,0.5,2.8,0.7c10.6,2.9,20.7,6.2,29.5,9.4c3.3,2.1-12.4-1.8-29.4-6.4
		c0.3,1.5,1.1,2.9,2.6,4.2c1.6,1.4,2.7,2.7,3.6,4c-4.6-1.3-9.3-2.3-14-3.1c-5.9-0.9-11.6-1.3-16.8-0.7c6.7,0.4,15.1,1.5,23.7,3.7
		l0.5,0.1l0.6,0.1c10.9,2.2,21.3,4.7,30.4,7.4c3,1.7-8.1,0-22.3-2.6c1.1,4.4,0.5,7.7,8.4,10.1c9.7,2.9,24.7,1.4,30.7-1.2
		c4-1.7,8.2-5.4,8.9-7c0.3-0.6,0.5-1.1,0.7-1.6c-5.5-1.7-3.6-8.2-9.8-12c-4.4-2.7-4.5-5.4-6.8-9.8c-1.1-2-2.4-3.9-3.8-5.6
		c-6.4-7.5-9-8.6-15.3-8c-4.2,0.4-10.8,1.9-15.8,8.2c-1.5-0.6-3.1-1.2-4.6-1.8c-8.2-3-16.5-5.1-24.8-5.3c8.5,1.1,14.3,2.9,24.8,6.7
		c11,3.6,21.3,7.5,30.2,11.4c2.9,2.2-11.8-2.1-28.2-7.4c-1.2,1.8-2.2,3.9-2.8,6c-2.3-0.7-4.6-1.3-7-1.8
		C307.5,152.9,301.7,152.2,296.2,152.6 M328.7,117.8c-0.5-0.3-0.9-0.5-1.4-0.8c-0.1,0.5-0.2,1-0.4,1.4c-4.8,0.3-11.2-6.4-14.3-9.1
		c-4.5-4.1-9.3-5.1-16-5.7c-3.1,0.2-3.6-0.8,0.2-1.8c3.9-0.6,7.8-0.5,11.6,0.4c-2.4-2-4.9-3.8-7.9-4.9c-2.3-0.8-4.8-1.8-7.3-1.9
		c-1.5-0.1-3.4,0.4-5,0.9c-2.8,0.9-6.2,2.4-8.4,3.6c0.1,3.1-1.1,6.1-0.6,9.2c0.2,1.6-0.1,2.7,1.3,3.6c0.8,0.5,1.7,1.4,2.5,1.8
		c0.9,0.5,2.8,0.2,4.2,0.1c3.4-0.6,6.1-1.8,9-2c7.7-0.5,15,0.6,20,4.1c4.9,3.7,10.9,7.5,12.4,8.3c0.6,0.3,1.3,1,2.2,0.9
		c0.6-0.3,1.1-0.7,1.7-1c0-0.3,0-0.6,0-0.8C332.6,122.6,331.8,119.3,328.7,117.8 M396.2,111.7c-0.3-1.7-1-4.5-1.6-5.6
		c-1.2-2-2.6-3.8-4.1-5.4c-2.8-1.7-6.3-3-11.1-4.4c-2.3-0.6-6.9-1.1-7.7-0.9c-1.4,0.3-2.1,1.2-2.6,2.2c-0.7,1.4,2.3,4.9,4.5,8.2
		c1.7-2.4,4-3.5,8.4-3.8c3.1,0.1,3.2,1,0.8,1.4c-1.4,0.2-3.9,1.8-5.6,5.9c-1.1,2.8-1.2,7.1-5.6,8.3c-0.4-0.4-0.7-0.9-0.9-1.4
		c-0.6,1-1.7,2.8-0.8,4.6l1.1,1c0.4,0.2,0.8,0.4,1.2,0.7c-0.3-3.3,4.3-6.1,6.1-7.9c3.9-3.8,9.4-2.5,11.9-1.6c1.8,0.7,3.3,2.3,4.9,3
		c1.5,0.3,1.5-1.4,1.8-2.1C396.9,113.2,396.3,112.4,396.2,111.7 M329.3,260c-0.1,2.3,0.9,4.9,2.3,7.4c1.5,2.5,3.5,4.6,5.9,5.3
		c0.5,1.8,0.6,3.5,0.5,5.4c3.3,0.8,5.6,0,8.5-1.4c0.7,1.4,0.9,3.3,0.6,5.9c2.7-0.2,4.5-0.7,6.6-2.3c0.1,1.2,0,3.1-0.4,4.6
		c1.4-2,2-3.4,2.3-5.2c0.3-0.1,0.6-0.2,0.8-0.3c0.3,2.1,0.4,4-0.2,7.5c2.1-3.8,2.8-5.9,3.2-9.4c0.3-0.2,0.3-0.1,0.6-0.3
		c0.5,1.9,1,3.6,0.9,6.3c5.7-1.1,8.6-4,10.7-8.8c0.9,0.9,2.1,2.4,2.9,3.8c4.8-2.3,6.7-8,7.6-11.7c0.5-2,0.9-5.7,0.5-7.1
		c0.5,0.2,1,0.4,1.4,0.7c1.9-4,0.9-9.6,3.3-13c1.9-2.7,0.5-5.4-0.4-8.5c-0.8,16.4-7,9.2-8.5,8.4c-5.5-2.8-24.7-2.6-32.5-0.5
		c-3.2,0.9-5.6,1.4-7.4,3.1c-5.6,5.3-7.4,3.2-8.4-1.6c-0.1-1.8-0.4-3.5-0.8-5.2c0-0.3-0.1-0.6-0.1-1c0,0.2,0,0.4,0,0.6
		c0.1,4.2-4.6,4.3-4.8,8.2c0,0.6,0,1.3,0.2,1.9C325.1,254.5,329.5,257.6,329.3,260"/>
	<path class="st1" d="M310.6,120.3c-1.5-0.3-2.6-1.1-2.5-1.9c0.1-0.8,1.5-1.2,3-1c1.5,0.3,2.6,1.1,2.5,1.9
		C313.4,120.2,312.1,120.6,310.6,120.3 M386.6,116.9c0.2,0.7-0.7,1.6-2,2c-1.3,0.4-2.6,0.1-2.8-0.6c-0.2-0.7,0.7-1.6,2-2
		C385.2,116,386.4,116.2,386.6,116.9 M399,132c0.5-1.7,1.8-3.7,2-5.3c0.2-1.7-0.6-4.5-1.4-7.4h0c-3.9-0.9-4.9,0.2-6.3,2
		c-2.8,3.5-3.3,4.3-6.5,5.9c-2.3,1.2-4.5,1.1-6.6,0.7c2.7,2.3,6.1,3.8,9.3,4.2C392.7,132.4,396.1,133.6,399,132"/>
	<path class="st0" d="M401.1,114.4c0,1.9,1.8,4.1,1.1,5c-0.6,0.2-1.7,0.1-2.7-0.1c0.8,2.9,1.5,5.7,1.4,7.4c-0.2,1.6-1.5,3.6-2,5.3
		l0.1-0.1c0.4-0.3,0.8-0.6,1.2-1c3.5-3.8,5-5.7,4.5-9.9c-0.3-1.1,2.6,0.3,4.7,3.8c-1.9-4-3.8-7.5-5.6-10.4l-1.7-2.7
		C401.4,111.2,401.1,113,401.1,114.4"/>
	<path class="st2" d="M342.3,240.5c-3.5,2-2.5-0.9-3.3-2.9c-1.4-3.5-4.1-6.5-4.7-14.2c-0.4-3.3-0.6-8.8,2.8-9.9
		c5.4-1.6,13.3,3.6,17.9,3.6c4.5,0,9-4.7,13.5-3.8c3.1,0.6,4.3,4.4,5.2,8.1c1.1,4.1,0.7,7,1.1,9.8c0.3,1.8,0.5,2.4,1.1,3.2l-1.2,1.5
		c0-0.1-0.1-0.1,0,0c-0.4-0.4-1-0.6-1.6-0.6c-0.6,0-1.3,0.3-1.7,0.7c-0.4,0.4-0.7,0.8-0.9,1.2c-0.3-0.2-0.6-0.2-1-0.2
		c-0.6,0-1.1,0.2-1.5,0.6v0c-0.4-0.3-0.8-0.4-1.3-0.4c-0.5,0-1,0.2-1.4,0.5c-0.4-0.3-0.9-0.5-1.4-0.5c-0.5,0-0.9,0.1-1.3,0.4
		c0,0,0,0,0,0c-0.4-0.4-0.9-0.6-1.5-0.6c-0.4,0-0.7,0.1-1.1,0.3c-0.3-0.5-0.7-0.9-1.1-1.4c-0.4-0.4-1-0.7-1.6-0.7
		c-0.6,0-1.3,0.3-1.7,0.7c-0.2,0.2-0.4,0.4-0.5,0.6c-1.2-3.7-1.8-6.4-2.5-9c-0.2-0.9-0.4-1.8-0.7-2.7c-0.5-2.2-1.3-4.2-3.3-4.2
		c-2.3,0-3.1,2.7-3.6,4.3C343.7,229.1,342.6,236.2,342.3,240.5"/>
	<path class="st1" d="M372.5,237c0.3-0.3,0.6-0.3,0.9-0.1c1.3,1.2,1.7,2.5,1.7,3.4c0,0.5-1.2,0.9-2,0.9c-0.8,0-1.9-0.4-1.9-0.8
		C371.1,239.7,371.7,237.8,372.5,237 M359.2,240.4c0,0.5-1.2,0.9-2,0.9c-0.8,0-1.9-0.4-1.9-0.8c0-0.8,0.6-2.7,1.4-3.4
		c0.3-0.3,0.7-0.3,0.9-0.1C358.5,237.8,359.1,239.1,359.2,240.4 M362.2,240.7c0,0.3-0.8,0.6-1.2,0.6c-0.5,0-1.2-0.3-1.2-0.5
		c0.1-0.8,0.4-1.5,0.9-2.1c0.2-0.2,0.4-0.2,0.6-0.1C362,239.4,362.2,240.2,362.2,240.7 M364,238.8c0.8,0.8,1,1.6,1,2.1
		c0,0.3-0.8,0.5-1.2,0.5c-0.5,0-1.2-0.3-1.2-0.5c0.1-0.8,0.4-1.5,0.9-2.1C363.7,238.7,363.9,238.7,364,238.8 M367.8,241
		c0,0.3-0.8,0.5-1.3,0.5c-0.5,0-1.2-0.3-1.2-0.5c0-0.5,0.4-1.6,0.9-2.1c0.2-0.2,0.4-0.2,0.5,0C367.6,239.6,367.8,240.4,367.8,241
		 M370.7,240.7c0,0.3-0.8,0.6-1.3,0.6c-0.5,0-1.2-0.3-1.2-0.5c0.1-0.8,0.4-1.5,0.9-2.1c0.2-0.2,0.4-0.2,0.6-0.1
		C370.4,239.4,370.6,240.2,370.7,240.7 M374.6,187.3c0-0.3,0.8-0.6,1.4-0.6c0.6,0,1.4,0.3,1.5,0.7c-0.1,0.9-0.5,1.8-1.2,2.5
		c-0.2,0.2-0.4,0.2-0.7-0.1C375.1,189,374.7,188.2,374.6,187.3 M380.3,186.7c0.9,0,2.3,0.5,2.4,1c0,1-0.5,2.5-1.9,4
		c-0.3,0.3-0.7,0.2-1-0.1c-0.9-0.9-1.6-3.1-1.6-4C378,187.2,379.4,186.7,380.3,186.7 M375.6,239.5c3.8-6.6,5.1-10.4,6.6-14.2
		c1.1-2.9,2.2-3.6,2.5,1c0.3,3.6,0.4,7.7-1,13.2c-0.5,1.3-3.1,2.1-4.5,2.1C377.8,241.6,375.1,240.6,375.6,239.5 M354.1,239.5
		c0.3,1.4-2.5,2.2-3.8,2.2s-4.5-0.6-4.7-1.8c-0.1-7.2,0.7-11.2,1.5-14.6c0.8-3.9,2-4.1,3.1-0.1C351.2,229.4,351.9,233,354.1,239.5
		 M394.6,189.9c-1.3,5.5-3.4,10.9-6.3,15.7c-3.3,5.5-4.3,4.6-4,1.2c0.4-4.5,1.2-9.1,0.3-17c0-1.4,3.1-2.7,5-2.7
		S394.8,188.4,394.6,189.9 M371.4,187c0-0.3,0.8-0.6,1.4-0.6c0.6,0,1.4,0.3,1.5,0.7c-0.1,0.9-0.5,1.8-1.2,2.5
		c-0.2,0.2-0.4,0.2-0.6-0.1C371.8,188.8,371.4,187.9,371.4,187 M368.1,187c0-0.3,0.8-0.6,1.4-0.6c0.6,0,1.5,0.3,1.5,0.7
		c-0.1,0.9-0.5,1.8-1.2,2.5c-0.2,0.2-0.4,0.2-0.7-0.1C368.5,188.8,368.2,187.9,368.1,187 M364.8,187.3c0-0.3,0.8-0.6,1.4-0.6
		c0.6,0,1.5,0.3,1.5,0.7c-0.1,0.9-0.5,1.8-1.2,2.5c-0.2,0.2-0.4,0.2-0.6-0.1C365.2,189,364.9,188.2,364.8,187.3 M359.5,187.7
		c0-0.5,1.3-1,2.3-1c0.9,0,2.3,0.5,2.4,1c0,1-0.5,2.5-1.9,4c-0.3,0.3-0.7,0.2-1-0.1C360.2,190.8,359.5,188.6,359.5,187.7
		 M345.3,189.6c0-1.5,4.1-2.5,5.9-2.5c1.8,0,5.5,1.2,5.3,2.9c-1.8,7.8-2,12.2-2.7,17.3c-0.6,4.9-2.4,4.7-4.2-0.1
		C348.1,203.1,346.5,198.3,345.3,189.6"/>
	<path class="st0" d="M433.5,300.7c5.2,4.7,15.6,13.7,19,19.5c0.7,1.2,0.4,0.7,0.4,0.7c1.2-5.1,1.9-11.2,2.9-16.3
		c-6.3-6.7-13.1-15.3-16.1-20.7c-5.9-10.3-8.6-18.9-17.1-27.4c-1.5-1.5-4-3.8-6.4-6.6c-1.7,2.5-3.3,4.5-5.9,7.1
		c0.1,1.1,0.4,4.5,0.5,6.4C411.3,279.8,421.4,289.9,433.5,300.7 M458.2,290.7c0.5-3.4,1.1-7.1,1.5-10.5
		c-7.2-3.6-16.7-11.4-24.3-18.1C439.2,269.4,450.1,283.1,458.2,290.7"/>
	<path class="st1" d="M419.8,243.1c7.1-10.7,6.5-30,4.4-44.9c1.5,0.8,3,1.8,4.5,3.2c-1.2-2.5-2.9-4.8-5.1-6.6
		c-0.1-0.5-0.2-1.2-0.3-1.8c1.3,0.9,2.3,1.7,3.2,2.7c1.1-13,0.7-23.1-3.5-34.8c0,0,1.3-0.2,2.5,0.3c-0.3-0.8-0.7-2.1-1.2-3.5
		c-1.9,1-3.8,1.9-6,2.7c0.4,2.2,0.8,4.5,1.1,6.7c-3.7,0-7.7,0.9-11.9,2.3l0-0.5c0.1-1.9,0-3.6,0-5.1c-7.9,2.5-14.9,4.2-13.1,2.6
		c3.2-1.6,6.7-3,10.3-4.4c0.2-0.1,0.5-0.2,0.7-0.3c0.6-0.2,1.2-0.4,1.7-0.6c6.2-2.2,12.6-3.7,19-4.7c-0.8-0.2-1.6-0.2-2.5-0.3
		c-0.9-2.4-1.9-5.2-3-8c-1.6,0.9-3.2,1.8-4.8,2.6c0.5,1.8,1.1,3.8,1.6,5.9c-3.6,0.8-7.1,2-10.5,3.5c-0.3-1.7-0.9-3.3-1.6-4.8
		c-5.8,2.3-10.1,3.6-8.8,2.2c9-5.2,16.4-9.1,27.2-11.9c0.2-0.1,0.5-0.1,0.7-0.2c-1.6-0.1-3.2,0-4.7,0.2l-1.1-2.7
		c-0.1-0.3-0.9-2.2-1-2.6l1,0.1c-4.7-13.1-11.9-26.3-22-36.5c3.5,4.7,4.5,6.5,6.9,10.2c4.9,7.6,10.7,20.4,13.6,32
		c-4.4,1.3-8.6,3.7-13.2,6.6c-0.3-0.6-0.7-1.1-1-1.7c-0.8-1.3-3.7-3.7-5.9-4.9c0.8,1.6,1.1,4,0.2,6.7c-1.5,4.9-3.8,7.7-6.6,11
		c-2.4,2.9-5.2,9.4-10.5,9.9c0,0.5,0,1,0,1.3c0,3.2,3.6,7.5,5.6,8.4c3.8,1.8,4.5,1.9,9.1,0.9c4.5-1,7.1-4,8.6-5.9
		c1.2-1.5,2.3-3.2,3-5.1c-8.1,2.1-15.4,3.5-13.5,1.9c3.7-1.6,7.5-2.9,11.4-4.1c6.5-1.9,13.4-3.3,20-3.8c-1.5,0.8-3,1.5-4.7,2.1
		c0.4,4.5,0.4,8.7-0.1,12.2c1.6,1.4,2.8,3.1,4.3,5.6c-1.1-0.9-2.2-1.7-3.3-2.5c-3.8-2.8-6.5-4.1-10.8-4.9c2.4,1.1,4.5,2.6,6.4,4.2
		c-0.3,11.4-1.8,27.6-5.5,35.8c-1.2-1.8-2.8-3.3-4.6-4.5c0,0.2-0.3,0.7-0.4,0.9c2.8,3.3,4.3,5.7,6,10.3c-2.7-3.1-4.9-5.4-6.9-7.3
		c-4,11.3-9.3,13.6-13.7,13.9c0,0,4.2,8.7,0.4,17.2c-0.3,0.8-0.5,1.7-0.5,2.5c1.1,2.3,0.8,3.7,1.7,6.4c7.1-2.9,15.3-11.5,20.2-18.3
		c2.1,1.9,4.2,4,6.9,7.1c-1.6-4.1-3-6.5-5.4-9.3c0.3-0.4,0.5-0.5,0.7-0.9C417.1,239.7,418.2,240.8,419.8,243.1"/>
	<path class="st0" d="M348.1,109.3c-4.9-5-10.9-8.4-22.7-10.3c6.4-1.1,15.3,0.3,19.6,2.9c4.6-3.6,9.3-4.5,14.9-3.7
		C354.5,99.8,347,104.2,348.1,109.3 M304.1,87.3c10.3-2,24.5-0.5,29.6,3.4c4-2.8,11.1-4.7,23-2.7c-9.9,0.7-12.7,1.3-15,3
		c2.9-0.7,6.1-0.8,11.7,0.5c-6.6,0.5-14.7,2.3-14.7,6c-4.4-3.2-13.8-5.9-22.3-5.9c4.3-1.3,7.5-1.2,10.1-0.6
		C321.2,88.6,316.6,87.5,304.1,87.3 M383.4,150.6c2.6,0.1,6.6,0,9-1.1c0.1,1.7-6.3,4.6-7.6,4.7c-1.5,0.1-3.2-1.1-4.6-1.4
		c-1.7-0.4-3.3-0.8-5-1.1c-1-0.1-2.3-0.6-2.4-1.9C376.3,150,379.8,150.5,383.4,150.6 M297.9,147.2c-4.1,3-10.4,5.5-16.4,4.3
		c-0.8,2.5-0.5,6.9,1.4,12c-10.2-4.5-16.4-12.2-17.1-17.9C272.5,142.4,286.4,147,297.9,147.2 M422.9,100c-6.8,0.8-14.4,0.1-20.4-3.2
		c5.1,0.2,8.9-0.7,18.1-3.5c-2.8,0.2-31,1.1-47.4-3.1c-7.2-3.2-30.5-12.4-44.5-4.8c-22.9-7.5-51.8,0.3-60.3,6.6
		c-15.4,0-31.6-1.1-40.8-4.1c7.5,5.2,13.4,6.1,17.8,7c-11.3,0.5-19.4-1.2-31.5-3.8c4,3.9,6.9,5.5,13,7.3c-3.6,0.3-7.2,0.1-11.1-0.6
		c4.6,3.8,16.4,10.1,26.3,5.7c2.9-1.3,12.1-6.1,19.9-7c-4.3,2.3-11.1,8.4-15,12.9c-0.1,0.2-0.3,0.4-0.4,0.7
		c3.6-2.5,7.7-4.5,11.9-5.3c-6.2,4.6-8.9,9.4-9.2,14.4c2.2-2.3,3.8-4.7,6.3-5.5c0.6-0.2,1.1,0.4,1.6,1.5c0.9,1.3,1.5,4.2,2.7,6.9
		c1.3,2.7,3.1,5.1,6,5.4c0.7,0.1,1.4,0.2,2.1,0.3c-3.2-3.4-3.8-6.8-2.3-9.1c0.6-1,1.5-3.2,3.5-5.1c-1.3,0-2.5,0-3.3-1.1
		c-0.7-1-1.1-2.1-1.4-3.2c-0.3-1.1-1.4-3.1-1.1-4.1c2.7,0,5.3,0.8,7.9,0c4.1-1.2,3-5.3,7.9-8.7c0.4,1,0.5,2,0.6,3
		c2.1-1.2,5.5-2.7,8.4-3.6c1.6-0.5,3.5-1,5-0.9c2.4,0.1,5,1.1,7.3,1.9c3,1.1,5.5,2.9,7.9,4.9c7,1.7,12.2,6.2,17.2,11.1
		c1.2,1.2,1.8,2.2,1.6,3.8c0.5,0.3,0.9,0.6,1.4,0.8c3,1.5,3.8,4.8,3.8,6.3c0,0.3,0,0.6,0,0.8c7.7-4.4,14.1-7,22-3.5
		c-7.3-0.6-14.4,3.2-20.4,8.2c-4,3.4-12.2,10.8-18.3,11.1c-0.6-2.7,0.4-4,2.3-5.9c2.6-2,5.2-4,7.8-5.8c-1.5-0.3-3.1-0.3-4.7-0.1
		c-2.2,3-5.5,4.7-7.5,5.7c-7.2,3.3-10.9,4.8-24.6,3.7c-8.7-0.7-15.1,0.7-19.6,0.7c-4.6,0-6.9-1-9.5-3.3c-2.6-2.3-3.8-5.6-5.1-9.5
		c-0.3,11.6,3,40.5,14.9,47.1c1.9-1.3,5.6-2.3,8.7-2.3c-4.7,2.2-9.7,6.7-12.5,12.2c10.8-9.4,19.1-11.8,32.6-11.8
		c-5.6,9.6-6.8,17.8-6.6,25.9c0.1,5.1,0.8,9,1.9,12.2c2.1,6.7,5.7,13.6,10.2,18.7c-1.1-2.5-2-4.9-2.8-7.4c3.2,3.4,7,6.9,11,12.4
		c5.1,7,8.6,8,12.2,17.7c0.3-3.9,4.9-4,4.8-8.2c-0.7-2.7-1.8-5.4-3.8-9.2c-3.7-7.3-16.3-32.5-16.8-47.9c-0.2-5.3,3.3-8.4,4.5-10.7
		c0.7-1.4,0.9-3,0.5-4.5c-6.5-1.5-13.8-3.7-18.5-5.7c5.2-0.6,11-0.2,16.8,0.7c-0.7-2.1-1.1-4.4-0.5-7.1l0.1-0.3
		c-5.3-1.6-10.5-3.4-15.6-5.4c5.5-0.3,11.3,0.4,17,1.6c1.1-2,2.5-4,4.3-6c-9.7-3.4-16.9-6.6-21.4-8.8c8.2,0.2,16.6,2.3,24.8,5.3
		c1.8-1.8,4-3.6,6.4-5.4c2.1-1.7,4.4-4,6.6-5.5c6.6-4.6,15.6-10.4,23.4-5.5c-1.3,0.1-2.6,0.2-4,0.3c-4.6,0.5-1.9,7.1,3.3,12.4
		c2.8,2.9,5.5,7,8.7,11.6c2.1,3,2.4,4,4.7,4.7c4,1.2,8.4,3.2,7.4,5.6c-0.7,1.8-3.6,1-3,3.2c1.3,4.6,4.6,5.5,7.4,5l1.4-0.4
		c0.4-0.2,0.8-0.3,1.2-0.6c1.4-0.9,1.9-2.3,3.4-4.6c0.6-1.4-0.4-1.3-0.4-2.5c0-0.8,1.6-2.8,3.7-4.5c2.6-2.2,4.2-6.6,4.2-8.4
		c0-2.4,0.1-4-1-5.6c-4-5.7-14.7-12.1-16-13.1c-3.6-2.7-7-3.1-10.9-3.4c2-1.8,3.7-1.7,5.2-1.2c-1.2-1.2-1.8-1.8-2.7-2.4
		c-3.3-2.2-7-3-11.6-3.3c5.1-2.4,8-2.2,12.4,0.7l-1.1-1c-0.9-1.8,0.2-3.6,0.8-4.6c-0.6-1.2-0.6-2.6-0.2-3.8c1.1-2.9,2-5.1,3.1-6.6
		c-2.2-3.3-5.2-6.8-4.5-8.2c0.5-0.9,1.2-1.9,2.6-2.1c0.9-0.2,5.5,0.3,7.7,0.9c4.9,1.4,8.4,2.6,11.1,4.4c-0.3-0.3-0.7-0.6-1-0.9
		c-2.7-2.1-6-4.3-10-6.5c5,2.2,10.9,4.9,14.3,6.6c6.6,3.3,11.7,8.4,23.1,7.7c-3-0.6-7.7-2.8-12.2-6
		C406.6,101.5,412.5,103.2,422.9,100 M243.3,274.5c-2.7-3-5.2-6.2-7.4-9.6c-5.6,9.8-13.3,23.7-17.3,38.6c2.8-5,6.2-10.3,6.2-10.3
		c-3,9.5-6.2,21.9-8.2,36.6c-1.9,14.6-2.5,33.6-0.6,52.8c0.3,2.6,0.7,6.1,1.3,10.5c-7-10.6-13-21.9-17.9-33.6
		c-9.5-22.7-25-66.5-25-103.1c-2.8-45.8,2.1-83.7,8.4-118.1c-3.1,0.7-6,1.5-8.6,2.1c-21.7,96.8-7.5,184.4,38.1,249.6
		c7.5,10.8,19.2,24.7,27,31.4C219.6,377.9,219.6,316.4,243.3,274.5"/>
	<path class="st1" d="M417.5,131c5.2-5.8,10.4-15.1,12.6-31.7c1-7.2-3.5-10.1-11.3-10.1c-19.1,0-30.7-1-45.9-3.2
		c-25.5-15.6-50.6-6.3-50.6-6.3c-30.7-8.2-58.2,5.9-58.2,5.9c-14.3,0.1-30.6-0.7-41.7-2.3c-5-0.8-8.2-1.5-12.4-0.9
		c-7.1,1-7.6,23.5,1,36.7c1.8,3.2,6,8.1,10.3,12.5c-9.9,1.3-19.8,3-29.6,5c-8.1,40.1-10.5,74.5-10.5,103.1
		c0,51.8,11.6,107.9,36.2,153.6c-7-10.6-13-21.9-17.9-33.6c-9.5-22.7-25-66.5-25-103.1v0c-2.8-45.8,2.1-83.7,8.4-118.1
		c-20.5,4.8-29.2,9.1-29.2,9.1c-16.1,67.6-9.3,130,14,182.7c-27.2-52.7-36-116.6-18.6-187.9c0,0,18.8-9.1,66.1-15.6
		c-3.4-3.6-6.4-7.5-9-11.6c-9.6-14.6-7.4-36.9,0-38c4.4-0.6,7.6-0.2,12.8,0.6c11.4,1.6,24.9,3.5,39.7,3.4c0,0,27-15.5,62-6.8
		c0,0,26.8-10.5,54,7.7c15.7,2.2,27.5,1.5,47.3,1.5c8.1,0,13.2,3.7,12.7,11c-0.8,12.6-5.7,22.9-12.3,31.5
		c50.8,6.5,70.8,16.2,70.8,16.2c17.4,71.3,8.7,135.3-18.6,187.9c23.3-52.7,30.1-115.1,14-182.7c0,0-8.7-4.3-29.2-9.1
		c6.2,34.4,11.2,72.3,8.4,118.1c0,36.5-15.4,80.3-24.9,103.1c-4.9,11.7-10.9,23-17.9,33.6c24.5-45.7,36.1-101.8,36.1-153.6
		c0-28.6-2.4-63-10.5-103.1"/>
	<path class="st0" d="M468.2,140.5c-2.8-0.8-5.7-1.5-8.5-2.1c6.2,34.4,11.1,72.3,8.4,118.1v0c0,35.9-14.8,78.7-24.4,101.8l-0.5,1.3
		c-6.9,16.3-5.9,10.5,0.7-8.6c-0.1-3.2-1.4-7.2-2.1-9.4c-3.6-10.6-9.4-20.3-17.1-28.4c-2.7-2.8-5.5-5.4-8.4-7.9
		c-11.7-10-18-15.5-16.7-32.9l0.1-1.2c0.2-2.2,0.7-4.1,1.4-5.7c-3.7,2.8-7.8,5.3-11.9,7.2c-0.4,1.8-2,7.4-5.3,11.3
		c3.7,12.5,13.1,25.7,18,31.6c-2.6-5.2-3.3-8.3-5.4-14c7.6,9.8,16.5,23.6,17.3,37.9c-4.8-5-9.8-9.2-13.3-11
		c6.6,14.9,5.9,24.5,1.8,38.8c-8.2,28.6-22.4,33.1-40.2,63.7c4.1-4.5,7.8-7.9,12-10.5c-8.4,9.3-16.3,24.3-16.3,38.5
		c7.2-4.9,14.3-9.8,21.3-15c10.1-8.2,19.6-17,28.6-26.4c7.3-7.4,16.5-18.4,22.6-27.3C475.7,325,489.9,237.4,468.2,140.5"/>
	<path class="st1" d="M459.7,138.4c6.2,34.4,11.2,72.3,8.4,118.1c0,36.5-15.4,80.3-24.9,103.1c-4.9,11.7-10.9,23-17.9,33.6
		c24.5-45.7,36.1-101.8,36.1-153.6c0-28.6-2.4-63-10.5-103.1C450.9,136.5,459.7,138.4,459.7,138.4z"/>
	<path d="M264.1,555.7c0.8,0,2.4,0.1,3.5,0.1h4.7c0.9,0,2.2,0,3-0.1c0,0,0.1,0.1,0.1,0.1c-0.2,0.7-0.3,2.3-0.4,3.6
		c-0.1,0.1-0.6,0.1-0.7,0.1c-0.1-0.7-0.2-1.3-0.5-1.9c-0.2-0.4-0.6-0.6-0.9-0.6c-1.1-0.1-2.2-0.1-3.3,0c-0.1,0-0.2,0.3-0.2,0.4
		c0,1.6,0,3.3,0,4.9c0,0.1,0.1,0.2,0.1,0.2c0.6,0,2.5,0,3.2,0c0.5,0,0.8-0.3,1-1c0.1-0.3,0.1-0.5,0.2-0.8c0.1-0.1,0.6-0.1,0.7,0
		c0,0.6-0.1,1.5-0.1,2.3c0,0.6,0,1.6,0.1,2.3c-0.1,0.1-0.6,0.1-0.7,0c-0.2-0.7-0.2-0.6-0.2-0.9c-0.1-0.3-0.3-0.7-0.9-0.7
		c-0.4,0-2.4,0-3.2,0c-0.1,0-0.1,0.1-0.1,0.2v4.6c0,0.4,0.2,0.7,0.5,0.8c0.5,0.1,1.6,0.1,2.8,0.1c1.3,0,1.6-0.1,2.1-0.6
		c0.6-0.7,1-1.5,1.3-2.3c0.2,0,0.5,0.1,0.7,0.2c-0.2,1.2-0.6,2.4-1,3.5c-0.1,0.3-0.3,0.4-1.3,0.4c-2.1,0-4.4-0.1-6.7-0.1
		c-1.3,0-2.9,0.1-4.2,0.1c-0.1-0.2-0.1-0.4,0-0.7c0.8-0.1,1.4-0.2,1.7-0.3c0.5-0.1,0.7-0.4,0.7-1.2c0.1-1.4,0.1-3.4,0.1-6
		c0-1.8,0-3.8-0.1-4.6c0-0.7-0.1-0.9-0.7-1c-0.4-0.1-0.8-0.2-1.2-0.2C264,556.3,264,555.8,264.1,555.7 M284.1,569.3
		c0.6,0.4,1.5,0.6,2.2,0.6c1.2,0,2.1-0.7,2.1-2c0-1.2-0.5-2-2.6-3.3c-2.3-1.5-3.7-2.6-3.7-5c0-2.8,2.3-4.3,5.1-4.3
		c1.8,0,2.8,0.3,3.9,0.4c-0.2,0.9-0.3,2-0.4,3.5c-0.1,0.1-0.6,0.1-0.7,0c-0.2-1.4-0.5-2.2-1.1-2.6c-0.5-0.4-1.2-0.6-1.9-0.5
		c-1.1-0.1-2.1,0.8-2.1,1.9c0,0.1,0,0.1,0,0.2c0,1,0.5,1.7,1.5,2.4c1,0.7,1.6,1,2.7,1.7c1.7,1.1,2.6,2.2,2.6,3.9
		c0,2.6-2.1,4.5-5.7,4.5c-1.2,0-2.5-0.2-3.6-0.8c-0.2-0.4-0.7-2.9-0.7-3.7c0.1-0.1,0.6-0.2,0.7-0.2
		C282.6,567.8,283.2,568.6,284.1,569.3 M306.4,570.4c-0.9,0-2.1-0.1-3.7-0.1c-2.3,0-3.4,0.1-4.2,0.1c-0.1-0.1-0.1-0.6,0-0.7
		c0.5-0.1,1.2-0.1,1.5-0.2c0.6-0.1,0.8-0.4,0.8-1.5c0.1-2.4,0.1-7.3,0.1-11c0,0-0.1-0.2-0.1-0.2c-0.8-0.1-1.6-0.1-2.4,0
		c-0.6,0-0.9,0.3-1.2,0.8c-0.3,0.6-0.7,1.3-0.9,2.1c-0.1,0.1-0.7,0-0.7-0.2c0.2-1,0.4-3,0.4-3.9c0,0,0.1-0.2,0.2-0.1
		c0.8,0.3,1.6,0.3,2.2,0.3h8.6c1.2,0,1.9-0.1,2.6-0.3c0.1,0,0.1,0.1,0.2,0.1c-0.2,0.9-0.5,2.5-0.6,4.1c-0.1,0.1-0.7,0.1-0.7,0
		c-0.1-0.7-0.3-1.4-0.5-2.1c-0.2-0.6-0.5-0.7-1-0.8c-0.9,0-1.8,0-2.6,0c0,0-0.1,0.1-0.1,0.2c0,3.4,0,9.7,0.1,11.3
		c0,0.6,0.2,1,0.7,1.2c0.4,0.1,0.6,0.1,1.4,0.2C306.5,569.8,306.5,570.3,306.4,570.4 M330,570.4c-0.9,0-2.4-0.1-3.9-0.1
		c-1.7,0-2.7,0.1-3.4,0.1c-0.1-0.1-0.1-0.6,0-0.7l1.2-0.2c0.7-0.2,0.8-0.8,0.8-1.6c0.1-1,0.1-2.4,0.1-4.7c0-2,0-3.8-0.1-4.4
		c0-0.4-0.2-0.8-0.6-0.9c-0.4-0.1-0.7-0.1-1.1-0.2c-0.1-0.1,0-0.6,0.1-0.7c2-0.1,3.8-0.7,4.8-1.2c0.1,0,0.3,0.1,0.3,0.1
		c-0.1,1-0.1,1.8-0.1,3.8c0,1.9,0,6,0.1,8c0,0.9,0.1,1.5,0.8,1.7c0.5,0.1,0.9,0.1,1.2,0.2C330.1,569.8,330.1,570.3,330,570.4
		 M338.2,558.6c0,1.3,0.7,2,3.2,3.4c0,0,0.1,0,0.1,0c0.5-0.7,0.8-1.5,0.8-2.4c0-1.6-0.8-2.9-2.3-2.9
		C338.9,556.7,338.2,557.6,338.2,558.6 M342.3,567.9c0-1.3-0.8-2.2-3.5-3.8c0,0-0.1,0-0.1,0c-0.7,0.7-1,1.5-1.1,2.4
		c0,1.5,1.2,3.2,2.8,3.2C341.5,569.8,342.3,569.1,342.3,567.9 M344.4,559.5c0,0.9-0.5,1.8-2.4,2.9c0,0.1,0,0.1,0,0.1
		c1.9,1.2,3,2.2,3,3.9c0,2.1-2,4.2-5.2,4.2c-3.4,0-4.7-2-4.7-3.6c0-1,0.7-1.9,2.9-3.2c0,0,0-0.1,0-0.1c-1.3-0.9-2.4-2-2.4-3.7
		c0-1.2,0.6-2.3,1.5-3c0.9-0.7,2.1-1.1,3.2-1C342.7,556,344.4,557.3,344.4,559.5 M353.1,558.6c0,1.3,0.7,2,3.1,3.4c0,0,0.1,0,0.1,0
		c0.5-0.7,0.8-1.5,0.8-2.4c0-1.6-0.8-2.9-2.3-2.9C353.8,556.7,353.1,557.6,353.1,558.6 M357.2,567.9c0-1.3-0.8-2.2-3.5-3.8
		c0,0-0.1,0-0.1,0c-0.7,0.7-1,1.5-1.1,2.4c0,1.5,1.2,3.2,2.8,3.2C356.5,569.8,357.2,569.1,357.2,567.9 M359.3,559.5
		c0,0.9-0.5,1.8-2.4,2.9c0,0.1,0,0.1,0,0.1c1.9,1.2,3,2.2,3,3.9c0,2.1-2,4.2-5.2,4.2c-3.4,0-4.7-2-4.7-3.6c0-1,0.7-1.9,2.9-3.2
		c0,0,0-0.1,0-0.1c-1.3-0.9-2.4-2-2.4-3.7c0-1.2,0.6-2.3,1.5-3c0.9-0.7,2.1-1.1,3.2-1C357.6,556,359.3,557.3,359.3,559.5
		 M373.1,556.1c-0.2,0.9-0.6,1.7-1.2,2.3c-0.3,0.3-0.7,0.5-1.2,0.6c-1.6,0-2.6-0.2-3-0.2c0,0-0.2,0-0.2,0.1
		c-0.2,0.4-0.3,0.8-0.5,1.1c0,0,0.1,0.2,0.2,0.2c0.7,0.3,3.4,1.4,4.4,2c1.5,0.8,2.5,1.8,2.5,3.7c0,3.2-3.4,5.2-6.3,5.2
		c-1.2,0.1-2.3-0.4-3.1-1.1c-0.2-0.2-0.4-0.5-0.4-0.8c0-0.4,0.4-1.2,0.7-1.5c0.1-0.1,0.2-0.1,0.3-0.2c1,1.4,2.4,2.5,4.1,2.5
		c1.2,0,2-0.9,2-2.1c0-1-0.4-2.1-1.9-3c-1.3-0.8-3.6-1.8-4.2-2.1c0-0.1-0.1-0.6,0-0.8c0.4-1.4,1.7-4.7,2.4-5.6
		c0.3-0.3,0.5-0.4,0.7-0.4c0.4,0,1.6,0.1,2.9,0.1c0.8,0,1-0.1,1.4-0.4C372.9,555.9,373.1,556,373.1,556.1 M243.3,530.4
		c-1.8,2.9-4.2,5.8-5.9,7.2c-2.1,1.7-4.2,1.9-5.9,1.9c-11.7,0-15.6-10.9-15.6-18.8c0-12.1,4.8-17.8,12.2-17.8c2.9,0,5.5,0.5,7.8,1.8
		c2.8,1.6,3.3,3.9,4.2,8.4c0.1,0.5,3.2,0.2,3.5-0.4c0-3.8,0.6-9.8,0.9-12.2c-2.7-0.1-8.1-1.3-14.9-1.3c-5.8,0-10.3,1-14.2,2.9
		c-7.9,3.7-12,11.2-12,19.2c0,15.3,9.8,23,25.9,23c5.2,0,8.2-1.1,10.5-1.8c2.1-1.2,5.3-7,6.4-10
		C245.5,531.5,244.5,530.8,243.3,530.4"/>
	<path d="M161.3,520.6c-1.1,0.6-4.6,0.8-7.5,0.8c-0.4,0-0.5-0.4-0.5-0.7c0-5.1,0-12.9,0.1-15.1c0-0.3,0.3-0.8,0.5-1.1
		c0.3-0.2,1.6-0.3,2.3-0.3c5.1,0,8.6,3.4,8.6,9.3C164.8,517.8,163.3,519.7,161.3,520.6 M199.1,539.1c-1.8-0.6-2-2-2.1-3.2
		c-0.1-2.7-0.1-9.8-0.1-16.2c0-6-0.1-9.6,0.1-11.9c0.1-1.3,0.1-2.7,1.7-3.2c1.4-0.4,2.8-0.6,4.2-0.8c0.4-0.4,0.3-2.9,0-3.4
		c-1.8,0-4.2,0.2-11.7,0.2c-5.2,0-8.7-0.2-11.1-0.2c-0.4,0.5-0.4,2.9-0.1,3.4c1.5,0.2,2.7,0.3,4.3,0.8c1.2,0.4,1.8,1.3,1.8,2.8
		c0.2,2.8,0.2,5.2,0.2,12.8c0,3.4,0,13.9-0.2,15.6c-0.2,2.7-0.6,3.2-2.7,3.7c-0.5,0.1-1.1,0.1-1.6,0c-1.6-0.4-2.2-1.1-3.8-2.6
		c-3.1-3.1-9.3-11-10.8-13.9c-0.1-0.2-0.1-0.5,0.1-0.6c4.7-2,8.3-5.1,8.3-10.7c0-6.2-5.1-11.3-14.2-11.3c-2.4,0-6.6,0.2-13.9,0.2
		c-2.8,0-8.8-0.2-10.6-0.2c-0.5,0.3-0.8,2.8-0.3,3.4c1.6,0.3,3.2,0.6,4,0.8c1.3,0.3,1.8,1.1,2,2.7c0.2,2.5,0.2,7.4,0.2,14.3
		c0,4.4-0.1,12.3-0.2,14.5c-0.1,1.9-0.6,2.9-2.1,3.2c-1.2,0.3-2.4,0.5-3.7,0.6c-0.6,0.4-0.3,3.1,0.1,3.4c2.1,0,5.8-0.2,11.5-0.2
		c5.9,0,9.8,0.2,11,0.2c0.5,0,0.6-3.3,0.2-3.4c-1.9-0.3-2.6-0.3-4.2-0.8c-1.4-0.4-1.8-1.5-1.8-3c-0.1-2.2-0.1-5.5-0.1-9.8
		c0-0.1,0.2-0.5,0.3-0.5c0.2,0,1.4,0,2.1,0.1c1,0.1,1.5,0.2,2.1,1c2.3,3.7,4.9,8,7.8,11.7c0.4,0.7,1.7,2.1,3.7,3.2
		c3.5,1.8,10.6,1.7,14.6,1.4c1.9-0.1,4.3-0.1,7.8-0.1c6.2,0,9.3,0.1,11.5,0.2c0.5-0.3,0.9-2.8,0.6-3.4
		C202.2,539.7,200,539.3,199.1,539.1 M356.8,539c-1.8-0.5-2.3-2-2.4-3.7c-0.6-9.1-0.9-18.1-0.9-27.2c0-1.5,0.2-2.8,1.8-3.4
		c1-0.3,2.7-0.6,4.7-1c0.5-0.4,0.4-3.2,0-3.4c-3.5,0-6.6,0.2-17,0.2c-0.1,1.3-0.7,2.8-1.3,4.4c-3,6.9-6.3,13.8-9.8,20.5
		c-0.1,0.1-0.3,0.2-0.6,0c-3.4-6.6-6.6-13.3-9.6-20.1c-0.8-1.5-1.3-3.2-1.6-4.9c-5.3,0-12.9-0.2-18.4-0.2c-0.2,0.2-0.5,2.9-0.3,3.4
		c2.3,0.4,4.4,0.8,5.6,1.3c1.4,0.6,1.9,2,1.8,3.2c-0.2,5.1-1.7,21.4-2.3,26.8c-0.3,2.6-1.1,3.7-3.1,4.3c-0.7,0.2-2,0.4-3.1,0.6
		c-0.7,0.1-1.4,0.1-2.1,0c-2-0.3-3.2-0.5-4.1-0.9c-1.3-0.6-1.5-2-1.6-3.2c-0.1-3.2-0.1-8.9-0.1-13.6c0-5.8-0.1-9.3,0.1-13.8
		c0.1-2.3,0.3-3.2,1.6-3.7c0.8-0.4,2.4-0.7,3.9-0.8c0.5-0.5,0.5-2.9,0-3.4c-2.6,0-4.7,0.2-10.9,0.2c-5.8,0-7.6-0.2-11.2-0.2
		c-0.5,0.4-0.6,3-0.1,3.4c2.3,0.3,3.6,0.4,4.6,0.9c1,0.4,1.2,1.6,1.3,2.5c0.1,4,0.1,7.7,0.1,11.1c0,0.1-0.3,0.3-0.5,0.4
		c-0.7,0.1-2.5,0.1-7.6,0.1c-6.9,0-8,0-8.6-0.1c-0.1-0.2-0.2-0.2-0.4-0.6c0-3.9,0-7.5,0.1-10.4c0-1.7,0.2-2.7,1.6-3.3
		c0.7-0.3,2.3-0.6,3.7-0.7c0.4-0.4,0.4-3,0.1-3.4c-1.6,0-5.2,0.2-11.2,0.2c-6.7,0-9-0.2-10.8-0.2c-0.4,0.3-0.5,3.1-0.2,3.4
		c1.3,0.1,2.7,0.3,4.1,0.8c1.5,0.4,1.7,1.3,1.8,3.5c0.1,2.1,0.1,6.2,0.1,13.1c0,6.3,0,12.9-0.1,13.9c-0.1,2.5-0.6,3.7-2.5,4.1
		c-1,0.3-1.9,0.5-3.5,0.8c-0.5,0.5-0.3,3,0,3.4c1.2,0,4.8-0.2,10.7-0.2c7.6,0,11,0.2,12.2,0.2c0.4-0.3,0.8-2.8,0.3-3.4
		c-1.6-0.3-3.5-0.6-4.5-1c-1.6-0.6-1.8-1.8-1.8-3.5c-0.1-2.5-0.1-6.2-0.1-10.7c0-0.1,0.1-0.3,0.1-0.4c0.3-0.1,1-0.2,8.6-0.2
		c3.2,0,6.7,0,8.1,0.1c0.2,0,0.4,0.3,0.4,0.4c0,4.6,0.1,8.3-0.1,11.7c-0.1,1.6-0.6,2.5-1.6,2.9c-1.3,0.4-2.7,0.6-4,0.8
		c-0.5,0.6-0.4,2.9,0.1,3.4c1.4,0,5.2-0.2,11.2-0.2c6.3,0,9.8,0.2,11.5,0.2h0.6c2.7,0,5.9-0.2,8.8-0.2c5.9,0,9.5,0.2,11.2,0.2
		c0.4-0.4,0.6-3,0.2-3.4c-1.7-0.2-3.3-0.5-4.9-1c-2.3-0.7-2.5-1.7-2.5-3.8c0-4.9,0.4-14.8,0.9-22.1c0.1-0.1,0.4-0.2,0.5-0.1
		c4.5,10,10.3,23.6,12.2,29.5c0.3,0.1,3.5,0.2,3.7,0c2.1-5.4,10.1-22.8,13.2-29.9c0.1-0.1,0.3-0.1,0.4,0c-0.1,8.3,0,17.2-0.1,22.9
		c-0.1,2.7-0.4,3.2-1.6,3.7c-1,0.3-2.3,0.5-4,0.8c-0.3,0.5-0.3,2.9,0,3.4c3.9,0,6.8-0.2,10.8-0.2c6.9,0,10.4,0.2,12.9,0.2
		c0.5-0.4,0.6-2.8,0.3-3.4C359.9,539.7,358.4,539.4,356.8,539"/>
	<path d="M391.3,538.3c-1.4,1.2-3.2,1.9-5.1,1.9c-2.9,0-4.9-1-6.9-2.5c-4.8-4.1-6.6-11.9-6.6-17.9c0-6.5,1.2-12.4,5.2-15
		c1.3-1,3.2-1.4,5-1.4c2.7,0,4.5,0.8,6.4,2.4c4.2,3.6,6.1,10.6,6.1,18C395.5,529.7,394.5,535.3,391.3,538.3 M385.1,499.3
		c-6.6,0-12,2-16.1,4.8c-6.6,4.7-8.5,11.9-8.5,17.8c0,5.4,1.5,11.6,6,16.2c3.9,3.9,9.1,6.4,17.7,6.4c7.1,0,14.2-2.7,19.2-8.9
		c3-3.9,4.4-9.1,4.4-14.3C407.7,509.5,399.9,499.3,385.1,499.3"/>
	<path d="M489.9,535.5c-2.3,2.9-4.7,4.1-8,4.1c-1.3,0-4.2-0.5-5.5-1.7c-0.6-0.6-1.1-1.4-1.2-2.3c-0.2-2-0.2-6.8-0.2-13.5
		c0-6.3,0-14.5,0.1-16.9c0-0.1,0.3-0.7,0.6-0.8c0.7-0.2,1.4-0.3,2.1-0.3c2.9,0,6.5,0.6,9.1,2.5c4.6,3.2,7,9.1,7,15.2
		C493.8,528.7,492.2,532.5,489.9,535.5 M497.9,504.8c-3.9-3.1-8.8-4.4-15.3-4.4c-5.7,0-7.1,0.2-13.2,0.2c-2,0-9.4-0.2-11-0.2
		c-1.7,0-4.1,0.2-9.2,0.2c-5.4,0-8.6-0.2-10.1-0.2c-0.2,0.2-0.3,3.1,0,3.4c1.6,0.2,3,0.4,4.6,0.8c2.4,0.5,3.1,1.7,3.3,4.1
		c0.3,5.4,0.3,10.9,0.4,19.9c-0.1,0-0.3,0.1-0.4,0.1c-4.4-4.8-13.7-16.6-19.7-23.9c-1.5-1.8-2.3-3-2.8-4.2c-1.4,0.1-4.1,0.1-6.4,0.1
		c-5.5,0-8.3-0.2-10.7-0.2c-0.2,0.3-0.3,3.2,0,3.5c2.1,0.2,3.6,0.7,4.9,1.2c1.8,0.6,2.4,2.7,2.4,4.3c0,7.4-0.2,21.6-0.6,25.5
		c-0.1,1.9-0.8,3.4-2.4,4.1c-1.6,0.6-2.8,0.8-4.5,1c-0.2,0.3-0.4,2.9,0,3.4c3,0,7.1-0.2,10.1-0.2c3.3,0,6.6,0.2,9.8,0.2
		c0.4-0.6,0.5-3,0.1-3.4c-2-0.4-3.3-0.6-4.5-0.8c-1.9-0.5-3.1-1.6-3.2-4.8c-0.2-7.3-0.3-14.7-0.2-22.1c0-0.1,0.2-0.4,0.4-0.1
		c6.3,7.7,19.2,24.7,24.5,31.6c1-0.2,6.7-0.3,7.8-0.1c-0.1-3.3-0.1-6.6-0.1-10c-0.1-9.3,0.1-19.4,0.6-24.9c0.3-3.5,1.4-3.9,3.3-4.4
		c0.4-0.1,0.9-0.2,1.2-0.3c0.6-0.1,2.2-0.1,2.9,0c0.7,0.2,1.6,0.3,2,0.4c1.9,0.6,2,1.4,2.3,3.4c0.1,3.3,0.1,6.6,0.1,14.3
		c0,5.6-0.1,12.5-0.1,13.8c-0.1,1.9-1,3-2.7,3.3c-1.5,0.3-2.3,0.5-4.2,0.7c-0.4,0.1-0.4,2.7,0,3.4h3.3c6.4,0.1,12.9,0.3,16.8,0.3
		c7.4,0,14.3-1.1,20.1-5.7c4.4-3.4,7.9-8.9,7.9-17.3C505.3,514.1,502.5,508.4,497.9,504.8"/>
	<path class="st3" d="M388.3,116.9c-0.1-0.2-0.1-0.4-0.2-0.6c-0.3,0-0.6,0-0.9,0c0.6,2.9-1.2,5.7-4,6.5c-3,0.9-6.2-0.7-7.1-3.6
		l0-0.1c-0.6,0.6-1.1,1.2-1.5,1.9c1.3,3.7,5.4,5.7,9.1,4.3C387.1,124.1,389.1,120.5,388.3,116.9 M316,118.8
		c-0.7,3.7-4.4,6.2-8.3,5.5c-3.9-0.7-6.6-4.3-5.9-8c0-0.2,0.1-0.3,0.1-0.5c-0.9,0-1.8,0.1-2.5,0.2c-1.6,4.7,0.8,9.8,5.5,11.5
		c0.5,0.2,1,0.3,1.5,0.4c4.9,0.9,9.6-2.4,10.4-7.3c0.1-0.3,0.1-0.7,0.1-1C316.6,119.2,316.3,119,316,118.8"/>
</g>
</svg>
