<?xml version="1.0" encoding="UTF-8" standalone="no"?>
<svg version="1.1" id="Layer_1" xmlns="http://www.w3.org/2000/svg" xmlns:xlink="http://www.w3.org/1999/xlink" x="0px" y="0px"
	 viewBox="0 0 235 235" style="enable-background:new 0 0 235 235;" xml:space="preserve">
<rect x="0.212" y="-0.17" style="fill:#0E1E2D;" width="235.667" height="235.667"/>
<g>
	<g id="XMLID_1_">
		<g>
			<path style="fill:#FFFFFF;" d="M138.413,167.222c-5.883,0.611-11.646,0.391-17.273-0.696c-4.104-0.798-8.123-2.055-12.074-3.788
				c-5.079-2.225-9.611-5.248-13.733-8.951c-4.464-3.992-7.901-8.73-11.116-13.724c-4.515-6.998-6.943-14.539-7.2-22.777
				c-0.291-8.781,2.052-17.019,6.225-24.629c2.052-3.737,4.703-7.27,7.679-10.344c3.147-3.261,6.978-5.86,10.518-8.747
				c0.154-0.102,0.359-0.153,0.787-0.323c0,0.73,0,1.308,0,1.868c-0.051,5.486-0.154,10.973-0.103,16.442
				c0,1.783-0.274,3.329-1.385,4.756c-2.377,2.989-3.489,6.556-4.293,10.174c-2.172,9.835-1.779,19.567,2.839,28.671
				c3.66,7.253,9.218,13.028,16.606,16.714c1.283,0.645,2.582,1.189,3.882,1.614c6.225,2.14,12.707,2.14,19.308,0.815
				c6.037-1.223,11.715-3.363,17.068-6.353c2.36-1.325,4.669-2.769,6.943-4.263c2.257-1.495,4.515-1.461,6.447,0.272
				c1.881,1.699,2.155,3.805,0.65,6.2c-2.326,3.72-5.627,6.539-9.201,8.968C154.198,163.774,146.587,166.373,138.413,167.222z"/>
			<path style="fill:#FFFFFF;" d="M144.142,84.333c-5.695-2.888-11.954-3.074-18.213-2.565c-0.684,0.051-1.368,0.136-2.086,0.187
				c0-4.994,0-9.767,0-14.828c2.719,0.272,5.199,0.442,7.679,0.781c5.746,0.798,11.219,2.463,16.572,4.773
				c2.89,1.274,6.14,1.834,9.269,2.446c4.464,0.883,7.61,3.448,9.406,7.389c2.086,4.586,3.933,9.308,5.455,14.098
				c0.599,1.851,0.291,4.127-0.086,6.115c-0.428,2.225-2.292,2.854-4.173,1.546c-1.248-0.866-2.48-1.885-3.403-3.091
				C159.089,93.981,152.18,88.41,144.142,84.333z"/>
			<path style="fill:#FFFFFF;" d="M104.106,185.583c0.103-6.522,0.239-13.028,0.342-19.55c0.017-0.527,0.068-1.053,0.103-1.665
				c2.993,1.019,5.746,2.055,8.551,2.904c2.343,0.696,4.737,1.308,7.149,1.749c0.137,0.017,0.274,0.051,0.393,0.085
				c0.906,0.255,1.146,0.713,1.095,1.766c-0.325,7.287-0.581,14.573-0.855,21.86c-0.051,1.274-0.017,2.548-0.051,3.839
				c-0.086,2.871,1.385,4.79,3.814,6.132c2.018,1.121,3.249,2.752,3.147,5.147c-0.051,1.393-0.068,2.786-0.291,4.127
				c-0.564,3.312-2.069,4.569-5.473,4.586c-5.421,0.017-10.825,0-16.247-0.017c-1.334,0-2.685,0.068-4.019-0.051
				c-2.428-0.204-3.78-1.24-4.224-3.618c-0.376-1.919-0.462-3.907-0.462-5.86c0-1.936,1.248-3.261,2.856-4.144
				c2.634-1.478,4.036-3.516,4.053-6.675C104.004,192.666,104.055,189.116,104.106,185.583z"/>
			<path style="fill:#FFFFFF;" d="M143.509,36.978c-4.429-0.425-8.876-0.628-13.322-0.713c-1.95-0.051-3.951,0.255-5.866,0.662
				c-1.779,0.391-3.386,1.189-3.437,3.125c-5.575,0.849-11.014,1.665-16.657,2.531c0-1.563-0.086-3.397,0.034-5.215
				c0.068-1.24-0.393-1.987-1.437-2.582c-3.882-2.242-4.173-4.467-3.403-8.798c0.393-2.225,2.275-3.703,4.566-3.686
				c15.853,0.136,31.724,0.289,47.577,0.476c1.231,0.017,2.463,0.17,3.677,0.357c2.788,0.442,4.925,1.783,6.413,4.28
				c2.993,5.011,6.122,9.936,9.184,14.913c0.77,1.24,1.573,2.565,0.581,4.009c-0.958,1.393-2.497,1.749-4.122,1.699
				c-2.377-0.068-4.207-1.308-6.02-2.701c-2.411-1.834-4.891-3.584-7.422-5.265C150.743,38.014,147.134,37.301,143.509,36.978z"/>
			<path style="fill:#FFFFFF;" d="M156.797,65.921c-9.423-4.28-19.257-5.996-29.535-5.384c-5.455,0.323-10.774,1.206-15.939,2.684
				c-3.437,0.968-6.789,2.208-10.09,3.72c-6.225,2.854-11.817,6.522-16.845,11.21c-3.044,2.837-5.353,6.149-7.764,9.461
				c-8.996,12.433-11.202,38.081-2.052,54.846c4.156,7.592,9.782,14.064,16.76,19.227c2.924,2.174,6.259,3.788,9.389,5.69
				c0.274,0.17,0.599,0.527,0.599,0.798c0.034,5.69,0.034,11.363,0.034,17.359c-1.556-0.238-2.719-0.204-3.711-0.594
				c-4.036-1.529-8.123-2.989-12.005-4.841c-6.704-3.176-12.672-7.491-17.786-12.892c-1.847-1.97-3.728-3.941-5.455-5.996
				c-4.823-5.724-8.055-12.314-11.065-19.109c-5.165-11.771-6.293-24.017-4.891-36.535c0.581-5.215,1.933-10.531,3.951-15.389
				c2.104-5.028,5.25-9.699,8.311-14.285c1.984-2.972,4.549-5.605,7.012-8.255c5.609-6.03,12.416-10.48,19.684-14.336
				c17.358-9.189,35.657-12.263,55.034-8.34c8.123,1.648,15.785,4.467,23.053,8.544c3.215,1.817,6.807,3.074,10.347,4.263
				c5.541,1.851,9.492,5.011,10.945,10.922c1.471,5.928,3.113,11.822,4.908,17.665c0.718,2.344,1.659,4.552,1.505,7.066
				c-0.086,1.546-0.325,3.023-1.95,3.669c-1.59,0.645-3.198,0.289-4.275-0.951c-1.488-1.716-2.873-3.533-4.036-5.469
				c-2.001-3.38-3.437-7.151-5.746-10.293C170.461,73.904,164.151,69.267,156.797,65.921z"/>
			<path style="fill:#FFFFFF;" d="M174.497,174.61c-13.117,10.752-28.218,15.66-45.303,14.132c-1.693-0.153-3.403-0.272-5.319-0.408
				c0.239-5.045,0.462-9.851,0.684-14.624c3.386,0.221,6.345,0.51,9.338,0.611c11.27,0.442,21.788-2.038,31.211-8.408
				c1.881-1.274,3.745-2.633,5.524-4.06c4.395-3.55,7.969-7.83,10.911-12.637c0.599-0.985,1.283-1.919,1.933-2.871
				c1.334-1.936,3.574-2.548,5.798-1.597c2.976,1.291,4.275,3.431,3.369,6.302c-0.547,1.733-1.608,3.329-2.582,4.875
				c-1.693,2.701-3.284,5.537-5.336,7.949C181.526,167.629,178.294,171.502,174.497,174.61z"/>
			<path style="fill:#0E1E2D;" d="M129.195,188.742c17.085,1.529,32.186-3.38,45.303-14.132c3.797-3.108,7.029-6.981,10.227-10.735
				c2.052-2.412,3.643-5.248,5.336-7.949c0.975-1.546,2.035-3.142,2.582-4.875c0.906-2.871-0.393-5.011-3.369-6.302
				c-2.223-0.951-4.464-0.34-5.798,1.597c-0.65,0.951-1.334,1.885-1.933,2.871c-2.942,4.807-6.516,9.087-10.911,12.637
				c-1.779,1.427-3.643,2.786-5.524,4.06c-9.423,6.369-19.941,8.849-31.211,8.408c-2.993-0.102-5.951-0.391-9.338-0.611
				c-0.222,4.773-0.445,9.58-0.684,14.624C125.791,188.471,127.502,188.589,129.195,188.742z M130.187,36.265
				c4.446,0.085,8.893,0.289,13.322,0.713c3.626,0.323,7.234,1.036,10.347,3.091c2.531,1.682,5.011,3.431,7.422,5.265
				c1.813,1.393,3.643,2.633,6.02,2.701c1.625,0.051,3.164-0.306,4.122-1.699c0.992-1.444,0.188-2.769-0.581-4.009
				c-3.061-4.977-6.191-9.902-9.184-14.913c-1.488-2.497-3.626-3.839-6.413-4.28c-1.214-0.187-2.446-0.34-3.677-0.357
				c-15.853-0.187-31.724-0.34-47.577-0.476c-2.292-0.017-4.173,1.461-4.566,3.686c-0.77,4.331-0.479,6.556,3.403,8.798
				c1.043,0.594,1.505,1.342,1.437,2.582c-0.12,1.817-0.034,3.652-0.034,5.215c5.644-0.866,11.082-1.682,16.657-2.531
				c0.051-1.936,1.659-2.735,3.437-3.125C126.236,36.52,128.237,36.214,130.187,36.265z M144.723,6.625
				c5.302,6.437,12.484,11.227,21.035,12.977c0.222,0.034,0.462,0.102,0.701,0.153c0.53,0.374,1.043,0.73,1.505,1.087
				c4.104,3.652,7.918,7.677,11.766,11.584c5.421,5.503,11.356,10.174,17.444,14.845c-0.735,5.452-0.616,11.125,0.291,16.832
				c1.437,9.053,3.557,17.954,5.575,26.905c0.838,3.652,1.556,7.321,2.223,11.007c0.239,2.667,0.308,5.333,0.359,7.983
				c0.154,8.272,0.77,16.493,1.231,24.731c0.205,3.754,0.274,7.508,0.257,11.278c-0.034,1.597-0.103,3.21-0.205,4.807
				c-0.017,0.119-0.051,0.204-0.068,0.323c-0.239,1.036-0.513,2.072-0.821,3.091c-1.419,2.344-5.575,7.966-5.575,8.17
				c-4.532,5.435-9.252,10.718-13.699,16.221c-2.035,2.514-4.036,5.045-6.003,7.609c-3.403,1.885-6.55,4.212-9.338,6.981
				c-1.112,1.104-2.155,2.276-3.13,3.499c-13.596,3.448-24.712,13.911-29.569,26.905c-2.582,1.444-4.994,3.176-7.2,5.096
				c-3.455-0.934-7.097-1.478-10.825-1.512c-4.139-0.034-8.243-0.204-12.365-0.527c3.352,0.136-8.842-1.885-11.749-2.701
				c-2.292-0.645-4.532-1.444-6.772-2.259c-0.205-0.102-0.41-0.204-0.65-0.306c-3.198-1.495-6.345-3.159-9.423-4.909
				c-3.626-4.433-8.106-8.153-13.186-10.871c-0.616-1.24-1.248-2.497-1.864-3.737c-6.755-13.707-15.528-26.022-29.005-34.005
				c0,0-0.017,0-0.017-0.017l-0.855-6.302c-0.787-2.769-1.813-5.384-3.078-7.864c0.017-0.594,0.034-1.206,0.034-1.8
				c0-4.195-0.633-8.272-1.83-12.128c0.086-1.036,0.12-2.089,0.12-3.159c0-2.989-0.325-5.928-0.941-8.764
				c0.171-0.357,0.325-0.713,0.479-1.087c0.599-0.204,1.146-0.51,1.573-0.917c1.385-1.308,1.761-3.414,0.923-5.147
				c-0.103-0.204-0.205-0.391-0.308-0.578c0.735-3.074,1.129-6.268,1.129-9.546c0-0.051,0-0.119,0-0.17
				c3.985-6.437,6.276-13.945,6.276-21.911c0-2.667-0.274-5.282-0.77-7.83c1.864-2.972,3.369-6.149,4.464-9.529
				c12.501-5.656,21.942-17.172,24.61-30.828c8.671-6.488,14.861-16.136,16.708-27.092c1.915-0.374,3.831-0.713,5.729-1.053
				c0.239-0.034,0.479-0.085,0.718-0.119c0.154-0.017,0.291-0.034,0.462-0.068c1.419-0.187,3.232-0.442,4.156-0.544
				c4.652-0.527,9.32-0.934,13.989-1.342c8.961-0.798,17.906-1.512,26.833-2.565C138.943,7.186,141.833,6.897,144.723,6.625z
				 M140.431,44.961c-19.376-3.924-37.675-0.849-55.034,8.34c-7.268,3.856-14.075,8.306-19.684,14.336
				c-2.463,2.65-5.028,5.282-7.012,8.255c-3.061,4.586-6.208,9.257-8.311,14.285c-2.018,4.858-3.369,10.174-3.951,15.389
				c-1.402,12.518-0.274,24.765,4.891,36.535c3.01,6.794,6.242,13.384,11.065,19.109c1.727,2.055,3.608,4.026,5.455,5.996
				c5.113,5.401,11.082,9.716,17.786,12.892c3.882,1.851,7.969,3.312,12.005,4.841c0.992,0.391,2.155,0.357,3.711,0.594l2.753,0.051
				c-0.051,3.533-0.103,7.083-0.12,10.616c-0.017,3.159-1.419,5.198-4.053,6.675c-1.608,0.883-2.856,2.208-2.856,4.144
				c0,1.953,0.086,3.941,0.462,5.86c0.445,2.378,1.796,3.414,4.224,3.618c1.334,0.119,2.685,0.051,4.019,0.051
				c5.421,0.017,10.825,0.034,16.247,0.017c3.403-0.017,4.908-1.274,5.473-4.586c0.222-1.342,0.239-2.735,0.291-4.127
				c0.103-2.395-1.129-4.026-3.147-5.147c-2.428-1.342-3.899-3.261-3.814-6.132c0.034-1.291,0-2.565,0.051-3.839
				c0.274-7.287,0.53-14.573,0.855-21.86c0.051-1.053-0.188-1.512-1.095-1.766l0.496-2.582c5.627,1.087,11.39,1.308,17.273,0.696
				c8.175-0.849,15.785-3.448,22.574-8.102c3.574-2.429,6.875-5.248,9.201-8.968c1.505-2.395,1.231-4.501-0.65-6.2
				c-1.933-1.733-4.19-1.766-6.447-0.272c-2.275,1.495-4.583,2.938-6.943,4.263c-5.353,2.989-11.031,5.13-17.068,6.353
				c-6.601,1.325-13.083,1.325-19.308-0.815l0.958-2.955c0.308,0.136,0.667,0.136,1.129,0.221c0-0.561,0-0.968,0-1.393
				c-0.103-7.406-0.205-14.811-0.308-22.2c-0.034-1.597,0.479-3.006,2.138-3.329c3.061-0.577,6.208-0.951,8.79,1.444
				c1.266,1.172,2.309,2.616,3.557,3.839c1.129,1.121,2.257,2.344,3.626,3.074c2.599,1.376,5.302,1.189,7.713-0.611
				c2.223-1.682,1.847-3.992,1.3-6.285c-0.034-0.153-0.086-0.306-0.137-0.459c-2.086-6.76-4.122-13.537-6.362-20.247
				c-0.376-1.121-1.488-2.191-2.531-2.871c-3.13-1.97-7.576,0.153-8.329,3.703c-0.188,0.9-0.752,1.953-1.471,2.497
				c-3.266,2.395-8.038,0.187-8.414-3.805c-0.051-0.476-0.017-0.951-0.017-1.427c-0.051-11.992-0.103-23.966-0.137-35.941
				c-0.017-0.628,0-1.257,0-2.072c-3.266-0.068-6.293,0.323-9.201,1.155l-0.752-2.599c5.165-1.478,10.483-2.361,15.939-2.684
				c10.278-0.611,20.112,1.104,29.535,5.384c7.354,3.346,13.664,7.983,18.384,14.455c2.309,3.142,3.745,6.913,5.746,10.293
				c1.163,1.936,2.548,3.754,4.036,5.469c1.077,1.24,2.685,1.597,4.275,0.951c1.625-0.645,1.864-2.123,1.95-3.669
				c0.154-2.514-0.787-4.722-1.505-7.066c-1.796-5.843-3.437-11.737-4.908-17.665c-1.454-5.911-5.404-9.07-10.945-10.922
				c-3.54-1.189-7.131-2.446-10.347-4.263C156.216,49.428,148.554,46.609,140.431,44.961z M125.928,81.769
				c6.259-0.51,12.519-0.323,18.213,2.565c8.038,4.076,14.947,9.648,20.42,16.849c0.924,1.206,2.155,2.225,3.403,3.091
				c1.881,1.308,3.745,0.679,4.173-1.546c0.376-1.987,0.684-4.263,0.086-6.115c-1.522-4.79-3.369-9.512-5.455-14.098
				c-1.796-3.941-4.942-6.505-9.406-7.389c-3.13-0.611-6.379-1.172-9.269-2.446c-5.353-2.31-10.825-3.975-16.572-4.773
				c-2.48-0.34-4.96-0.51-7.679-0.781c0,5.062,0,9.835,0,14.828C124.56,81.904,125.244,81.82,125.928,81.769z"/>
			<path style="fill:#0E1E2D;" d="M115.889,151.867c-7.388-3.686-12.946-9.461-16.606-16.714
				c-4.618-9.104-5.011-18.837-2.839-28.671c0.804-3.618,1.915-7.185,4.293-10.174c1.112-1.427,1.385-2.972,1.385-4.756
				c-0.051-5.469,0.051-10.956,0.103-16.442h2.873c-0.017,19.618-0.068,39.253-0.308,58.888c-0.051,3.176,1.18,5.384,3.113,7.491
				c1.18,1.291,2.548,2.412,3.814,3.601c2.617,2.463,5.763,4.043,9.013,5.435l-0.958,2.955
				C118.472,153.056,117.172,152.513,115.889,151.867z"/>
			<path style="fill:#0E1E2D;" d="M102.225,73.242c-0.428,0.17-0.633,0.221-0.787,0.323c-3.54,2.888-7.371,5.486-10.518,8.747
				c-2.976,3.074-5.627,6.607-7.679,10.344c-4.173,7.609-6.516,15.847-6.225,24.629c0.257,8.238,2.685,15.779,7.2,22.777
				c3.215,4.994,6.653,9.733,11.116,13.724c4.122,3.703,8.654,6.726,13.733,8.951c3.951,1.733,7.969,2.989,12.074,3.788
				l-0.496,2.582c-0.12-0.034-0.257-0.068-0.393-0.085c-2.411-0.442-4.806-1.053-7.149-1.749c-2.805-0.849-5.558-1.885-8.551-2.904
				c-0.034,0.611-0.086,1.138-0.103,1.665c-0.103,6.522-0.239,13.028-0.342,19.55l-2.753-0.051c0-5.996,0-11.669-0.034-17.359
				c0-0.272-0.325-0.628-0.599-0.798c-3.13-1.902-6.464-3.516-9.389-5.69c-6.978-5.164-12.604-11.635-16.76-19.227
				c-9.149-16.765-6.943-42.412,2.052-54.846c2.411-3.312,4.72-6.624,7.764-9.461c5.028-4.688,10.62-8.357,16.845-11.21
				c3.301-1.512,6.653-2.752,10.09-3.72l0.752,2.599c-1.608,0.459-3.181,1.07-4.72,1.8c-1.676,0.815-2.257,1.987-2.257,3.924
				c0,1.189,0,2.378,0,3.567h-2.873C102.225,74.55,102.225,73.972,102.225,73.242z"/>
			<path style="fill:#FFFFFF;" d="M131.315,105.412c0.752-3.55,5.199-5.673,8.329-3.703c1.043,0.679,2.155,1.749,2.531,2.871
				c2.24,6.709,4.275,13.486,6.362,20.247c0.051,0.153,0.103,0.306,0.137,0.459c0.547,2.293,0.924,4.603-1.3,6.285
				c-2.411,1.8-5.113,1.987-7.713,0.611c-1.368-0.73-2.497-1.953-3.626-3.074c-1.248-1.223-2.292-2.667-3.557-3.839
				c-2.582-2.395-5.729-2.021-8.79-1.444c-1.659,0.323-2.172,1.733-2.138,3.329c0.103,7.389,0.205,14.794,0.308,22.2
				c0,0.425,0,0.832,0,1.393c-0.462-0.085-0.821-0.085-1.129-0.221c-3.249-1.393-6.396-2.972-9.013-5.435
				c-1.266-1.189-2.634-2.31-3.814-3.601c-1.933-2.106-3.164-4.314-3.113-7.491c0.239-19.635,0.291-39.27,0.308-58.888
				c0-1.189,0-2.378,0-3.567c0-1.936,0.581-3.108,2.257-3.924c1.539-0.73,3.113-1.342,4.72-1.8c2.907-0.832,5.934-1.223,9.201-1.155
				c0,0.815-0.017,1.444,0,2.072c0.034,11.975,0.086,23.949,0.137,35.941c0,0.476-0.034,0.951,0.017,1.427
				c0.376,3.992,5.148,6.2,8.414,3.805C130.563,107.365,131.127,106.312,131.315,105.412z"/>
		</g>
		<g>
		</g>
	</g>
</g>
</svg>
