<?xml version="1.0" encoding="UTF-8" standalone="no"?>
<svg version="1.1" id="Layer_1" xmlns="http://www.w3.org/2000/svg" xmlns:xlink="http://www.w3.org/1999/xlink" x="0px" y="0px"
	 width="100%" viewBox="0 0 96 96" enable-background="new 0 0 96 96" xml:space="preserve">
<path fill="#D6D3D3" opacity="1.000000" stroke="none" 
	d="
M51.000000,97.000000 
	C34.000004,97.000000 17.500006,97.000000 1.000007,97.000000 
	C1.000004,65.000008 1.000004,33.000019 1.000002,1.000020 
	C32.999985,1.000013 64.999969,1.000013 96.999969,1.000006 
	C96.999977,32.999981 96.999977,64.999962 96.999985,96.999969 
	C81.833336,97.000000 66.666664,97.000000 51.000000,97.000000 
M5.782659,70.409203 
	C5.762585,75.187843 5.633877,79.969185 5.752111,84.744400 
	C5.877563,89.811127 8.043151,92.055023 12.955886,92.157433 
	C17.396112,92.250000 21.842583,92.043121 27.164406,92.153221 
	C46.109539,92.171608 65.054710,92.218498 83.999786,92.190887 
	C89.623749,92.182693 92.120598,90.128479 92.127991,85.122238 
	C92.156944,65.518379 92.021812,45.914276 92.123871,25.350801 
	C92.137177,21.194353 92.198624,17.037355 92.150986,12.881605 
	C92.097527,8.218084 89.616943,5.813701 85.004677,5.792408 
	C79.857651,5.768648 74.709808,5.922497 68.558891,5.800838 
	C50.415180,5.786335 32.271420,5.744216 14.127779,5.773431 
	C8.360538,5.782718 5.806801,7.704899 5.791252,12.658468 
	C5.731717,31.625648 5.896401,50.593536 5.782659,70.409203 
z"/>
<path fill="#EA072A" opacity="1.000000" stroke="none" 
	d="
M26.286301,91.968292 
	C21.842583,92.043121 17.396112,92.250000 12.955886,92.157433 
	C8.043151,92.055023 5.877563,89.811127 5.752111,84.744400 
	C5.633877,79.969185 5.762585,75.187843 6.195866,69.806671 
	C13.088436,62.759335 19.597118,56.343689 26.041206,49.863804 
	C40.565224,35.259098 55.057262,20.622601 69.562317,5.999042 
	C74.709808,5.922497 79.857651,5.768648 85.004677,5.792408 
	C89.616943,5.813701 92.097527,8.218084 92.150986,12.881605 
	C92.198624,17.037355 92.137177,21.194353 91.761154,25.980167 
	C86.093132,31.885254 80.763481,37.136749 75.487061,42.441193 
	C59.075958,58.939438 42.685047,75.457764 26.286301,91.968292 
z"/>
<path fill="#261F20" opacity="1.000000" stroke="none" 
	d="
M26.725353,92.060760 
	C42.685047,75.457764 59.075958,58.939438 75.487061,42.441193 
	C80.763481,37.136749 86.093132,31.885254 91.673035,26.459900 
	C92.021812,45.914276 92.156944,65.518379 92.127991,85.122238 
	C92.120598,90.128479 89.623749,92.182693 83.999786,92.190887 
	C65.054710,92.218498 46.109539,92.171608 26.725353,92.060760 
z"/>
<path fill="#231F20" opacity="1.000000" stroke="none" 
	d="
M69.060608,5.899940 
	C55.057262,20.622601 40.565224,35.259098 26.041206,49.863804 
	C19.597118,56.343689 13.088436,62.759335 6.293232,69.382645 
	C5.896401,50.593536 5.731717,31.625648 5.791252,12.658468 
	C5.806801,7.704899 8.360538,5.782718 14.127779,5.773431 
	C32.271420,5.744216 50.415180,5.786335 69.060608,5.899940 
z"/>
</svg>
