<?xml version="1.0" encoding="UTF-8" standalone="no"?>
<svg version="1.1" id="Layer_1" xmlns="http://www.w3.org/2000/svg" xmlns:xlink="http://www.w3.org/1999/xlink" x="0px" y="0px"
	 width="100%" viewBox="0 0 96 96" enable-background="new 0 0 96 96" xml:space="preserve">
<path fill="#D3D3D3" opacity="1.000000" stroke="none" 
	d="
M97.000000,30.000000 
	C97.000000,52.666660 97.000000,74.833321 97.000000,96.999985 
	C65.000015,96.999985 33.000031,96.999985 1.000036,96.999992 
	C1.000024,65.000023 1.000024,33.000050 1.000012,1.000058 
	C32.999966,1.000039 64.999931,1.000039 96.999947,1.000019 
	C97.000000,10.499999 97.000000,19.999998 97.000000,30.000000 
M84.833740,6.003981 
	C80.457581,6.024472 76.081429,6.044964 70.823006,5.883316 
	C65.882042,5.922223 60.941082,5.961130 55.072693,5.932245 
	C50.714836,5.954896 46.356976,5.977548 41.091557,5.770586 
	C36.149826,5.867217 31.208097,5.963848 25.310768,5.959242 
	C20.946955,5.962457 16.583141,5.965672 11.432579,5.890800 
	C7.465170,6.533725 5.742677,9.088632 5.738854,12.879097 
	C5.714487,37.041561 5.694355,61.204216 5.782502,85.366417 
	C5.797156,89.383194 7.834069,91.957909 13.111171,91.990311 
	C17.502838,91.972237 21.894505,91.954163 27.175055,92.079308 
	C32.111519,92.051804 37.047981,92.024300 42.914124,92.063202 
	C47.281010,92.041130 51.647896,92.019058 56.928822,92.181328 
	C61.848129,92.097717 66.767441,92.014114 72.647873,92.033218 
	C77.015594,92.033600 81.383324,92.033974 86.540237,92.091171 
	C90.440636,91.359337 92.163857,88.879509 92.164543,85.044952 
	C92.168800,61.068810 92.175888,37.092663 92.159622,13.116534 
	C92.156731,8.856215 90.356331,6.118745 84.833740,6.003981 
z"/>
<path fill="#282425" opacity="1.000000" stroke="none" 
	d="
M41.984447,91.996796 
	C37.047981,92.024300 32.111519,92.051804 26.723675,91.543221 
	C26.270319,62.691582 26.268343,34.376030 26.266369,6.060480 
	C31.208097,5.963848 36.149826,5.867217 41.551140,6.354004 
	C42.001968,35.290546 41.993210,63.643673 41.984447,91.996796 
z"/>
<path fill="#282526" opacity="1.000000" stroke="none" 
	d="
M71.686745,91.930511 
	C66.767441,92.014114 61.848129,92.097717 56.459297,91.620834 
	C55.993221,62.706909 55.996670,34.353474 56.000118,6.000036 
	C60.941082,5.961130 65.882042,5.922223 71.260574,6.438811 
	C71.694351,35.306370 71.690544,63.618439 71.686745,91.930511 
z"/>
<path fill="#FFFFFF" opacity="1.000000" stroke="none" 
	d="
M25.788568,6.009861 
	C26.268343,34.376030 26.270319,62.691582 26.279234,91.471611 
	C21.894505,91.954163 17.502838,91.972237 12.696815,91.541046 
	C12.261416,62.717487 12.240373,34.343189 12.219329,5.968887 
	C16.583141,5.965672 20.946955,5.962457 25.788568,6.009861 
z"/>
<path fill="#FFFFFF" opacity="1.000000" stroke="none" 
	d="
M55.536407,5.966141 
	C55.996670,34.353474 55.993221,62.706909 56.002281,91.528671 
	C51.647896,92.019058 47.281010,92.041130 42.449287,92.029999 
	C41.993210,63.643673 42.001968,35.290546 42.004921,6.468811 
	C46.356976,5.977548 50.714836,5.954896 55.536407,5.966141 
z"/>
<path fill="#FFFFFF" opacity="1.000000" stroke="none" 
	d="
M72.167313,91.981857 
	C71.690544,63.618439 71.694351,35.306370 71.701706,6.529881 
	C76.081429,6.044964 80.457581,6.024472 85.248726,6.454215 
	C85.692825,35.281086 85.721939,63.657719 85.751045,92.034355 
	C81.383324,92.033974 77.015594,92.033600 72.167313,91.981857 
z"/>
<path fill="#231F20" opacity="1.000000" stroke="none" 
	d="
M11.825954,5.929843 
	C12.240373,34.343189 12.261416,62.717487 12.243240,91.561020 
	C7.834069,91.957909 5.797156,89.383194 5.782502,85.366417 
	C5.694355,61.204216 5.714487,37.041561 5.738854,12.879097 
	C5.742677,9.088632 7.465170,6.533725 11.825954,5.929843 
z"/>
<path fill="#242021" opacity="1.000000" stroke="none" 
	d="
M86.145645,92.062759 
	C85.721939,63.657719 85.692825,35.281086 85.698364,6.434572 
	C90.356331,6.118745 92.156731,8.856215 92.159622,13.116534 
	C92.175888,37.092663 92.168800,61.068810 92.164543,85.044952 
	C92.163857,88.879509 90.440636,91.359337 86.145645,92.062759 
z"/>
</svg>
