<?xml version="1.0" encoding="UTF-8" standalone="no"?>
<svg
   viewBox="0 0 100 100"
   xml:space="preserve"
   fill-rule="evenodd"
   clip-rule="evenodd"
   stroke-linejoin="round"
   stroke-miterlimit="2"
   version="1.1"
   id="svg1"
   sodipodi:docname="badge-light-9.svg"
   inkscape:version="1.3.2 (091e20e, 2023-11-25)"
   xmlns:inkscape="http://www.inkscape.org/namespaces/inkscape"
   xmlns:sodipodi="http://sodipodi.sourceforge.net/DTD/sodipodi-0.dtd"
   xmlns="http://www.w3.org/2000/svg"
   xmlns:svg="http://www.w3.org/2000/svg"><defs
     id="defs1" /><sodipodi:namedview
     id="namedview1"
     pagecolor="#ffffff"
     bordercolor="#000000"
     borderopacity="0.25"
     inkscape:showpageshadow="2"
     inkscape:pageopacity="0.0"
     inkscape:pagecheckerboard="0"
     inkscape:deskcolor="#d1d1d1"
     inkscape:zoom="2.36"
     inkscape:cx="49.788136"
     inkscape:cy="50"
     inkscape:window-width="1712"
     inkscape:window-height="1069"
     inkscape:window-x="0"
     inkscape:window-y="38"
     inkscape:window-maximized="0"
     inkscape:current-layer="layer16" /><g
     inkscape:groupmode="layer"
     id="layer16"
     inkscape:label="back"><rect
       style="fill:#e82c2a;fill-rule:evenodd;stroke:#000000"
       id="rect1"
       width="158.47458"
       height="142.37288"
       x="-21.61017"
       y="-13.135593" /></g><g
     inkscape:groupmode="layer"
     id="layer15"
     inkscape:label="fore"><path
       d="M82.7 62.121c-5.212-17.44-7.435-21.194-15.488-30.606-3.7-4.324-5.499-6.153-6.694-8.595-1.186-2.422.6-3.932 3.68-5.065.355-.13.497-.562.375-.919-.406-1.187-3.023-2.356-3.961-2.66-3.924-1.428-7.459.235-10.789 2.165a2.7 2.7 0 0 1-1.472.361c-1.578-.069-3.082-.599-4.67-.943-11.709-2.732-26.906-2.029-35.963 6.735-2.061 1.994-3.426 4.608-3.819 7.449a12.136 12.136 0 0 0 .058 3.75 1.016 1.016 0 0 1 0 .364 1.247 1.247 0 0 1-.169.436C2.452 36.781-1.514 39.008.617 41.74c.736-1.034 2.44-1.135 3.752-1.356 6.344-1.085 4.049-9.165 10.471-9.212-.791.172-2.026.493-2.915 1.678-1.176 1.568-2.482 7.604-7.21 8.225-1.497.243-2.273.322-2.816.643-.407.24-.632.537-.732.68l.01.017c.184.32.466.56.749.784 2.366 2.022 6.085 1.14 8.273-.592 5.681-4.496 10.77-1.31 13.601-4.36-1.419 2.433-1.683 11.829 1.116 13.232.161.08.353.079.511-.008a1.091 1.091 0 0 0 .446-.495c2.08-4.521 3.997-6.702 7.324-7.751 1.63-.494 2.248-2.347 1.944-3.72.87.198 1.775.135 2.646.286 2.226 2.292 4.68 4.37 7.043 6.519 1.556 1.153 11.195 11.936 12.953 9.234a1.13 1.13 0 0 0 .124-.944c-.145-.483-.467-.902-.77-1.306-2.176-2.72-4.154-7.673-4.283-9.29 7.827 3.312 15.176 9.14 18.912 12.896l1.7 1.8c1.544 1.698 3.976 4.547 4.922 6.53 1.416 2.97-4.266 3.982-7.675 4.946-3.17.896-8.512 4.062-8.637 9.097.014.388.171.635.492.62a.632.632 0 0 0 .323-.115c7.945-5.438 11.639.07 17.679-3.275 3.445 7.443 13.439 3.694 18.113 9.435.092.113.21.204.345.259.462.188.743-.177.877-.607.076-.243.091-.501.062-.755-.963-8.237-14.856-14.647-17.267-22.713zM38.78 15.83c5.533 1.038 7.51 2.87 10.788 2.05 1.581-.394 3.447-2.022 4.916-2.642 2.865-1.21 6.137-.68 9.155 1.81a6.154 6.154 0 0 0-.802.187c-.455.14-1.066.226-1.659.004-1.26-.473-2.417-.649-3.602-.417a6.967 6.967 0 0 0-2.166.825c-5.652 3.288-6.376 2.61-14.469.338-8.336-2.34-19.89-1.165-19.89-1.165 5.972-1.45 13.466-1.79 17.728-.99zM13.483 28.798c-2.49 4.591-5.742 1.803-8.781 4.894 1.73-3.222 4.35-1.659 6.706-3.535 1.32-1.289 2.694-4.35 4.348-5.04.814-.367 2.348-.637 2.802.352.061.133.093.277.102.423.037.607-.145 1.06-.631 1.374-.886.564-1.922.758-2.438.033a.553.553 0 0 1-.106-.355c.014-.201.134-.337.313-.408.116-.046.501-.133.501-.135-.15-.124-.395-.222-.764-.091-.843.298-1.56 1.795-2.052 2.488zM28.23 40.054c-1.298 1.578-.902 3.627-.795 5.532a1.29 1.29 0 0 1-.255.84c-.904 1.216-1.54 2.62-2.125 4.007-1.754-3.883-1.351-9.853-.019-12.141.19-.324.54-.52.914-.516 1.268.01 2.798.382 3.42.532.716.173 1.506.445 2 .593-1.137.247-2.542.411-3.14 1.153zm-4.321-3.167c-1.07.621-2.129 1.492-3.334 1.742-2.11.439-4.104.16-6.163.625-.29.066-.57.165-.837.293-4.133 2-6.613 5.287-11.008 3.454 6.074-.24 6.048-2.242 8.374-4.99 2.572-3.11 6.538-1.257 10.078-2.445 2.034-.818 2.98-2.922 5.386-3.187 2.914-.32 6.743 1.804 9.256 1.89a11.19 11.19 0 0 0 1.437 4.423c-3.843-.136-10.245-3.348-13.19-1.805zM56.15 54.089c.039.03.004.093-.043.075-1.033-.395-2.625-1.648-3.792-2.615-3.038-2.52-4.856-4.434-7.389-6.916-2.483-2.433-6.592-6.003-7.432-8.424-1.1-3.167.249-5.462 1.759-6.57.098-.072.218.055.142.15-1.583 1.968-1.545 4.324-.394 6.642 1.239 2.494 5.123 6.237 8.819 9.955 3.86 3.885 4.666 4.787 8.33 7.703zm-3.475-11.214c-.367-3.78-3.645-4.937-7.03-7.26 3.618 1.089 9.536 4.2 9.536 4.2 11.536 5.805 20.006 17.767 23.406 23.648.037.064.274.45.318.539-6.339-9.51-15.677-16.914-26.23-21.127zm28.512 32.684c-.136-.279-.468-.34-.736-.23-5.258 3.606-9.662-1.883-17.38 3.21 2.105-8.225 11.326-6.278 15.842-10.463-2.038 3.558-6.215 3.308-9.204 5.459 4.887-.061 5.969 2.79 11.236-.487.633-.171.89.47 1.143.92.999 1.731 2.202 3.41 3.836 4.59 2.01 1.225 4.206 2.07 6.53 2.445 1.696.373 3.588.742 5.241 1.663a2.598 2.598 0 0 1 1.287 1.852c.008.051.017.103.028.154-4.999-5.052-14.595-1.894-17.823-9.113z"
       fill="white"
       fill-rule="nonzero"
       id="path1" /></g></svg>
