<?xml version="1.0" encoding="UTF-8" standalone="no"?>
<svg
   width="100"
   height="100"
   fill-rule="evenodd"
   stroke-linejoin="round"
   stroke-miterlimit="2"
   clip-rule="evenodd"
   viewBox="0 0 100 100"
   xml:space="preserve"
   version="1.1"
   id="svg8"
   sodipodi:docname="badge-light-8.svg"
   inkscape:version="1.3.2 (091e20e, 2023-11-25)"
   xmlns:inkscape="http://www.inkscape.org/namespaces/inkscape"
   xmlns:sodipodi="http://sodipodi.sourceforge.net/DTD/sodipodi-0.dtd"
   xmlns="http://www.w3.org/2000/svg"
   xmlns:svg="http://www.w3.org/2000/svg"><defs
     id="defs8" /><sodipodi:namedview
     id="namedview8"
     pagecolor="#ffffff"
     bordercolor="#000000"
     borderopacity="0.25"
     inkscape:showpageshadow="2"
     inkscape:pageopacity="0.0"
     inkscape:pagecheckerboard="0"
     inkscape:deskcolor="#d1d1d1"
     inkscape:zoom="2.36"
     inkscape:cx="49.788136"
     inkscape:cy="50"
     inkscape:window-width="1536"
     inkscape:window-height="1005"
     inkscape:window-x="0"
     inkscape:window-y="39"
     inkscape:window-maximized="0"
     inkscape:current-layer="layer12" /><g
     inkscape:groupmode="layer"
     id="layer12"
     inkscape:label="back"><rect
       style="fill:#122040;fill-rule:evenodd;stroke:#000000;fill-opacity:1"
       id="rect8"
       width="162.28813"
       height="143.64407"
       x="-25.423729"
       y="-10.593221" /></g><g
     inkscape:groupmode="layer"
     id="layer11"
     inkscape:label="fore"><path
       fill="#fff"
       fill-rule="nonzero"
       d="M36.65 36.234 3.748 39.596s24.056 21.51 24.644 22.064c-.163.784-6.985 32.348-6.985 32.348S49.315 77.786 50 77.361c.685.391 28.593 16.647 28.593 16.647s-6.822-31.531-6.985-32.348c.588-.522 24.644-22.064 24.644-22.064s-32.118-3.265-32.901-3.33C63.023 35.515 50 6.008 50 6.008L36.65 36.234Z"
       id="path1" /><path
       fill="#ffd100"
       fill-rule="nonzero"
       d="m37.304 37.685.389-.032S48.834 12.423 50 9.8c1.166 2.623 12.307 27.853 12.307 27.853s27.432 2.785 30.282 3.077c-2.138 1.91-22.703 20.306-22.703 20.306s5.829 26.946 6.445 29.764A59083.92 59083.92 0 0 0 50 75.481S26.163 89.343 23.669 90.8c.616-2.818 6.445-29.764 6.445-29.764S9.581 42.673 7.411 40.73c2.882-.292 29.893-3.045 29.893-3.045Z"
       id="path2" /><path
       fill="#fff"
       d="m31.949 39.693-.293.457c-.033.033-.065.065-.098.131H19.252c-.652 0-3.525-1.502-4.308-4.081-1.469-4.798.229-8.257 1.24-10.346l-.653-.457c-3.46 3.297-8.356 8.03-8.356 14.721 0 1.371.196 2.742.588 4.08 1.207 4.211 6.724 7.409 15.929 9.303 0 0 .065 0 .097.032 0 .033-.032.065-.032.098 0 .294.326.686 2.122 1.958 1.109.784 2.382 1.6 2.937 1.959a30.396 30.396 0 0 0 8.062 3.46l.751.195-.261-.717a2.012 2.012 0 0 0-.228-.457c2.088 1.109 4.308 1.958 6.626 2.578l.816.196-.36-.783a7.882 7.882 0 0 1-.228-.555c1.436.881 6.006 3.59 6.006 3.59s4.57-2.741 6.006-3.59a7.892 7.892 0 0 1-.229.555l-.359.783.816-.196a32.806 32.806 0 0 0 6.626-2.578c-.098.13-.163.294-.228.457l-.261.717.751-.195a30.396 30.396 0 0 0 8.062-3.46 50.114 50.114 0 0 0 2.937-1.959c1.796-1.24 2.122-1.664 2.122-1.958v-.098a.313.313 0 0 0 .098-.032c9.205-1.894 14.721-5.093 15.928-9.303a14.45 14.45 0 0 0 .588-4.08c0-6.659-4.929-11.392-8.388-14.721l-.653.457c1.011 2.089 2.709 5.548 1.24 10.346-.783 2.579-3.656 4.081-4.308 4.081H68.409a.25.25 0 0 1-.065-.131l-.293-.457H31.949Z"
       id="path3" /><path
       fill="#0c2340"
       d="M67.528 40.477c.033.065.229.62.229.62h12.892c.914 0 4.146-1.632 5.092-4.635.392-1.273.621-2.612.621-3.949 0-1.731-.359-3.428-1.012-5.027 1.861 1.86 3.623 3.884 4.897 6.169a13.478 13.478 0 0 1 1.729 6.463c0 1.305-.196 2.611-.587 3.884-1.11 3.852-6.528 6.952-15.309 8.748a2.716 2.716 0 0 0-.555.131h-.033c-.064.032-.13.065-.163.13a.257.257 0 0 0-.066.13v.099c0 .13.034.228.066.358-.424.49-3.003 2.253-4.635 3.298a28.61 28.61 0 0 1-6.92 3.099c.163-.292.36-.62.457-.88l.588-1.24-1.175.75c-2.415 1.567-5.451 2.578-6.855 3.003.163-.457.327-.914.359-.979l.163-.882s-6.952 4.178-7.343 4.407c-.393-.229-7.345-4.407-7.345-4.407l.163.882c0 .065.163.522.36.979-1.404-.425-4.44-1.436-6.855-3.003l-1.175-.75.588 1.24c.13.26.293.588.456.88a30.67 30.67 0 0 1-6.919-3.099c-1.665-1.013-4.244-2.776-4.635-3.298.032-.13.065-.228.065-.358v-.099a.255.255 0 0 0-.065-.13c-.034-.065-.098-.098-.163-.13h-.034a3.281 3.281 0 0 0-.554-.131c-8.781-1.796-14.199-4.896-15.309-8.748a14.142 14.142 0 0 1-.555-3.884 13.68 13.68 0 0 1 1.73-6.463c1.24-2.285 3.036-4.309 4.896-6.169a13.968 13.968 0 0 0-1.012 5.027c0 1.337.197 2.676.62 3.949.948 3.036 4.179 4.635 5.092 4.635h12.894s.195-.555.228-.62h35.089Z"
       id="path4" /><path
       fill="#fff"
       fill-rule="nonzero"
       d="M33.092 45.47c-1.567 2.482-2.971 5.42-5.516 7.998h-2.024a39.52 39.52 0 0 0 7.507-11.914h33.816a39.162 39.162 0 0 0 7.508 11.914h-2.024c-2.546-2.546-3.95-5.484-5.516-7.998H33.092Zm53.923-14.851c2.056 2.416 3.46 5.288 3.46 7.703 0 2.677-1.404 5.158-4.734 6.79-.599.3-1.236.519-1.893.652H69.911a26.888 26.888 0 0 1-1.86-3.786h13.284c1.045 0 3.003-1.403 4.015-2.872 1.11-1.664 1.567-3.656 1.698-5.516.064-1.012.032-1.991-.033-2.971Zm-74.127 0c-2.057 2.416-3.461 5.288-3.461 7.703 0 2.677 1.371 5.158 4.733 6.79.6.3 1.236.519 1.893.652h13.938a27.108 27.108 0 0 0 1.86-3.786H18.534c-1.011 0-3.003-1.403-3.982-2.872-1.11-1.664-1.567-3.656-1.697-5.516-.066-1.012-.033-1.991.033-2.971Z"
       id="path5" /><path
       fill="#ffd100"
       fill-rule="nonzero"
       d="M49.935 61.922c-.62 0-11.294-7.475-12.241-8.127.163.652.751 2.741 1.176 3.884v.097a45.45 45.45 0 0 1-8.356-5.483l.914 3.427s-3.918-2.252-3.885-2.252H25.52c2.48 1.828 5.711 3.917 8.421 4.993-.033-.129-.685-2.382-.751-2.578a59.87 59.87 0 0 0 8.094 4.57c-.162-.522-.979-2.578-1.142-3.199 1.013.718 9.467 6.267 9.793 6.267.326 0 8.78-5.582 9.792-6.267-.196.621-1.012 2.677-1.142 3.199a59.808 59.808 0 0 0 8.094-4.57c-.064.163-.718 2.449-.75 2.578 2.709-1.076 5.941-3.165 8.421-4.993h-2.024c.033 0-3.884 2.252-3.884 2.252l.914-3.427A45.517 45.517 0 0 1 61 57.776v-.097c.424-1.143 1.044-3.232 1.175-3.885-.914.653-11.587 8.128-12.24 8.128Z"
       id="path6" /><path
       fill="#0c2340"
       fill-rule="nonzero"
       d="M16.576 75.239h-4.015v1.437c0 1.403-.587 1.567-1.012 1.567-.751 0-1.11-1.013-1.11-3.004 0-1.925.065-3.101.196-3.492.066-.196.261-.49.946-.49.491 0 1.111.164 1.111 1.73v.49h3.753v-6.691h-3.786v.554c-.685-.588-1.535-.848-2.415-.816-1.698-.032-2.841.555-3.427 1.73C6.261 69.364 6 71.551 6 74.945c0 3.493.326 5.647.98 6.659.685 1.012 2.187 1.502 4.601 1.502 3.006 0 4.73-1.257 5.173-3.752.173 1.094.474 1.891.899 2.413.75.882 2.187 1.339 4.276 1.339 2.057 0 3.493-.457 4.276-1.404.783-.914 1.142-2.578 1.142-5.026v-3.461c0-2.676-.359-4.406-1.044-5.32-.718-.947-2.122-1.403-4.211-1.403-2.252 0-3.688.424-4.439 1.338-.718.881-1.077 2.643-1.077 5.353v2.056Zm42.726-7.409c-.717.881-1.077 2.643-1.077 5.353v3.493c0 2.545.36 4.21 1.077 5.091.751.882 2.187 1.339 4.277 1.339 2.056 0 3.493-.457 4.276-1.404.783-.914 1.142-2.578 1.142-5.026v-3.461c0-2.676-.359-4.406-1.045-5.32-.717-.947-2.121-1.403-4.21-1.403-2.253 0-3.689.424-4.44 1.338Zm22.686.995v-2.073h-5.81v4.44h1.044c-.261.424-1.011 1.632-1.273 2.056-.228-.424-.881-1.632-1.077-2.056h.882v-4.44h-6.365v4.44h1.11c.13.163 3.101 4.439 3.165 4.57v2.481h-1.435v4.601h6.886v-4.601H77.81v-2.481c.065-.098 2.774-4.375 2.905-4.57h.985c.081 1.775 1.121 3.069 3.062 3.851l1.959.784c.881.359 1.338.849 1.338 1.502 0 .391-.13.881-1.077.881-.816 0-1.175-.424-1.175-1.339v-.457h-3.753v6.398h3.753v-.816a4.258 4.258 0 0 0 2.938 1.077c2.579 0 3.884-1.502 3.884-4.439 0-1.599-.294-2.677-.882-3.329-.554-.654-1.828-1.339-3.884-2.09-1.174-.424-1.762-.914-1.762-1.403 0-.294.097-.588.881-.588.327 0 .718.098.816.882l.098.62h3.95v-5.94h-3.754v.75a3.52 3.52 0 0 0-2.611-1.012c-1.816-.047-2.984.74-3.493 2.301Zm-31.106-2.073h-5.288v4.44h1.305v7.051h-1.305v4.601h5.646c2.481 0 4.08-.294 4.897-.914.848-.619 1.273-1.893 1.273-3.753 0-1.436-.229-2.35-.653-2.807-.326-.327-.947-.62-1.893-.848a3.317 3.317 0 0 0 1.599-.751c.457-.491.718-1.371.718-2.677 0-1.763-.424-2.938-1.273-3.525-.816-.555-2.481-.817-5.026-.817Zm-5.549 0h-5.158v4.44h.849c-.065.391-.685 3.427-.947 4.765-.261-1.338-.881-4.374-.979-4.765h.881v-4.44h-5.843v4.44h.882c-.065.391-.751 3.59-1.045 4.961-.26-1.371-.914-4.57-.979-4.961h.816v-4.44h-6.071v4.44h1.339a4951 4951 0 0 0 2.676 11.652h3.721s.914-4.21 1.208-5.679c.294 1.469 1.109 5.679 1.109 5.679h3.656s2.514-11.326 2.578-11.652h1.307v-4.44ZM20.95 76.153v-2.905c0-2.024.783-2.024 1.044-2.024.621 0 .947.229.979.784l.066 1.143v2.97c0 2.089-.751 2.089-1.012 2.089-.294.033-1.077.033-1.077-2.057Zm41.616 0v-2.905c0-2.024.785-2.024 1.045-2.024.62 0 .947.229.979.784l.066 1.143v2.97c0 2.089-.751 2.089-1.012 2.089-.261.033-1.078.033-1.078-2.057Zm-11.163-.555c1.502 0 1.698.653 1.698 1.175 0 .979-.522 1.436-1.665 1.436h-.391v-2.611h.358Zm.033-4.439c1.274 0 1.437.653 1.437 1.142 0 .784-.425 1.176-1.339 1.176h-.489v-2.285h.391v-.033Zm39.006-34.077v.62c.033.196.033.425.033.62 0 2.677-1.404 5.158-4.734 6.79-.599.3-1.236.519-1.893.652H69.943a31.534 31.534 0 0 0 3.558 4.995c.294.359 1.045 1.273 1.273 1.273.229 0 6.855-2.024 10.674-3.82 4.211-1.957 5.81-4.732 5.81-7.702-.033-1.208-.326-2.351-.816-3.428Z"
       id="path7" /><path
       fill="#fff"
       fill-rule="nonzero"
       d="M7.306 81.343c-.588-.881-.914-3.068-.914-6.398 0-3.264.261-5.451.783-6.495.49-1.012 1.502-1.534 3.035-1.534 1.111 0 1.927.359 2.481 1.077l.392.523v-1.307h2.905v5.843h-2.905v-.065c0-1.763-.848-2.154-1.534-2.154-.882 0-1.208.424-1.339.783-.129.457-.195 1.632-.195 3.623 0 2.318.489 3.427 1.534 3.427.653 0 1.436-.359 1.436-1.99v-1.012h3.265c.097.75.163 1.534.163 2.317 0 3.166-1.6 4.733-4.864 4.733-2.219-.065-3.623-.489-4.243-1.371Zm81.145-3.982c0-.849-.522-1.502-1.6-1.893l-1.958-.784c-1.894-.75-2.808-1.958-2.808-3.688 0-2.742 1.111-4.048 3.363-4.048a3.21 3.21 0 0 1 2.644 1.274l.391.489v-1.502h2.906v5.092h-3.166c-.033-.13-.033-.228-.033-.228-.098-1.044-.718-1.24-1.241-1.24-1.142 0-1.305.653-1.305 1.011 0 .719.653 1.307 2.024 1.828 1.958.719 3.198 1.371 3.688 1.959.522.555.784 1.599.784 3.035 0 2.71-1.143 4.015-3.461 4.015a3.683 3.683 0 0 1-3.003-1.305l-.359-.425v1.47h-2.904v-5.517h2.904v.032c0 1.47.881 1.764 1.6 1.764 1.306-.034 1.534-.751 1.534-1.339ZM17.98 81.474c-.653-.783-.98-2.416-.98-4.798v-3.493c0-2.579.327-4.276.98-5.092.652-.783 2.023-1.208 4.079-1.208 1.927 0 3.232.425 3.884 1.24.654.816.98 2.547.98 5.06v3.46c0 2.317-.359 3.917-1.044 4.765-.686.817-1.992 1.241-3.95 1.241-1.958 0-3.264-.392-3.949-1.175Zm41.649 0c-.653-.783-.979-2.416-.979-4.798v-3.493c0-2.579.326-4.276.979-5.092.653-.783 2.023-1.208 4.08-1.208 1.926 0 3.232.425 3.885 1.24.652.816.978 2.547.978 5.06v3.46c0 2.317-.358 3.917-1.044 4.765-.685.817-2.024 1.241-3.949 1.241-1.959 0-3.297-.392-3.95-1.175Zm-8.813-14.297c2.448 0 4.048.261 4.798.751.718.489 1.11 1.534 1.11 3.166 0 1.175-.196 1.991-.587 2.383-.392.392-1.208.685-2.514.816v.424c1.861.294 2.546.685 2.808.947.358.358.554 1.207.554 2.513 0 1.697-.359 2.84-1.11 3.394-.751.556-2.317.85-4.635.85h-5.222v-3.755h1.306v-7.899h-1.306v-3.59h4.798Zm30.747 0v3.59h-1.077l-3.101 4.864v3.035h1.307v3.755h-6.039v-3.755h1.436v-3.035l-3.395-4.864h-.914v-3.59h5.517v3.59h-1.143l1.763 3.33 2.089-3.33h-1.404v-3.59h4.961Zm-36.655 0v3.59H43.7s-2.513 11.327-2.578 11.654h-2.971l-1.24-6.333h-.424s-1.274 6.039-1.371 6.333H32.08c-.065-.327-2.676-11.654-2.676-11.654h-1.24v-3.59h5.255v3.59h-.914l1.273 6.496h.424l1.371-6.496h-.98v-3.59h4.962v3.59h-.979l1.272 6.333h.425l1.273-6.333h-.947v-3.59h4.309Zm-24.415 6.071v2.905c0 1.665.489 2.513 1.501 2.513.947 0 1.436-.848 1.436-2.513v-3.002l-.065-1.143c-.033-.555-.326-1.175-1.403-1.175-.947-.032-1.469.783-1.469 2.415Zm41.649 0v2.905c0 1.665.523 2.513 1.502 2.513.946 0 1.436-.848 1.436-2.513v-3.002l-.065-1.143c-.033-.555-.327-1.207-1.404-1.207-.979 0-1.469.815-1.469 2.447Zm-10.771 1.926h-.783v3.46h.815c1.73 0 2.09-1.012 2.09-1.861 0-.717-.36-1.599-2.122-1.599Zm-.555-4.439h-.228v3.133h.914c1.436 0 1.762-.848 1.762-1.599 0-.718-.326-1.567-1.861-1.567h-.587v.033Z"
       id="path8" /></g></svg>
