<?xml version="1.0" encoding="UTF-8" standalone="no"?>
<svg
   clip-rule="evenodd"
   fill-rule="evenodd"
   stroke-linejoin="round"
   stroke-miterlimit="1.414"
   viewBox="0 0 100 100"
   version="1.1"
   id="svg52"
   sodipodi:docname="badge-4.svg"
   inkscape:version="1.3.2 (091e20e, 2023-11-25)"
   xmlns:inkscape="http://www.inkscape.org/namespaces/inkscape"
   xmlns:sodipodi="http://sodipodi.sourceforge.net/DTD/sodipodi-0.dtd"
   xmlns="http://www.w3.org/2000/svg"
   xmlns:svg="http://www.w3.org/2000/svg">
  <defs
     id="defs52" />
  <sodipodi:namedview
     id="namedview52"
     pagecolor="#ffffff"
     bordercolor="#000000"
     borderopacity="0.25"
     inkscape:showpageshadow="2"
     inkscape:pageopacity="0.0"
     inkscape:pagecheckerboard="0"
     inkscape:deskcolor="#d1d1d1"
     inkscape:zoom="2.36"
     inkscape:cx="50.211864"
     inkscape:cy="86.864407"
     inkscape:window-width="1712"
     inkscape:window-height="1069"
     inkscape:window-x="0"
     inkscape:window-y="38"
     inkscape:window-maximized="0"
     inkscape:current-layer="layer8" />
  <g
     inkscape:groupmode="layer"
     id="layer8"
     inkscape:label="back" />
  <g
     inkscape:groupmode="layer"
     id="layer7"
     inkscape:label="fore">
    <circle
       cx="50.211864"
       cy="49.788136"
       fill="#ffffff"
       r="48.177967"
       id="circle1"
       style="stroke-width:1.07062" />
    <circle
       cx="50.211864"
       cy="49.788136"
       fill="#043674"
       r="46.546341"
       id="circle2"
       style="stroke-width:1.07062" />
    <path
       d="m 39.57524,68.406243 -0.03212,0.0032 c -0.01071,0.001 -0.999961,0.07816 -2.37678,0.07816 -5.271741,0 -8.473969,-1.045998 -8.593878,-2.800746 0.01392,-0.05139 0.02676,-0.346882 0.199135,-0.519252 l 0.969983,1.043857 1.025655,-1.370396 0.38007,0.453943 0.623102,0.746224 0.626314,-0.743012 0.393989,-0.46679 0.170229,0.211982 0.577065,0.717317 0.642373,-0.658432 0.437884,-0.44752 0.353305,0.316904 0.556723,0.700186 c 0,0 6.658195,0.347953 12.199732,-0.732305 -2.794322,-1.823268 -15.044374,-3.77287 -15.044374,-3.77287 A 491.07265,491.07265 0 0 1 30.90963,60.884044 c -1.972085,-0.323328 -2.301836,-1.044927 -2.34252,-1.161625 -0.0064,-0.402554 0.101711,-2.673342 3.338198,-3.454896 0,0 1.931401,-0.505333 2.435664,1.582379 0.503192,2.086641 2.339308,1.151989 4.030889,0.43146 0,0 0.467862,2.37571 3.454896,2.37571 2.987034,0 3.742893,-3.131569 3.275031,-4.355289 0,0 4.713946,1.58452 11.33574,-2.409969 0,0 -4.965542,1.186248 -7.449384,-0.360799 0,0 6.946193,-0.323328 11.048814,-2.194774 4.102621,-1.871446 20.261511,-5.650741 25.407989,10.328285 2.075935,9.518896 -2.205481,21.356757 -19.773308,27.999963 L 64.232723,78.291291 c 2.423887,-0.892898 8.300528,-3.358539 10.193387,-8.005036 0.870415,-2.136961 0.609184,-4.37349 -0.664856,-6.603594 l -0.02141,-0.0364 -0.02463,-0.03533 c -0.08351,-0.114557 -2.06844,-2.809312 -5.941948,-2.809312 -1.461399,0 -3.002023,0.390778 -4.580119,1.161625 -2.73865,1.338277 -4.383125,2.854277 -5.835958,4.190413 -1.957096,1.803997 -3.372458,3.108013 -6.661406,3.334985 a 22.87918,22.87918 0 0 1 -1.534201,0.05567 c -1.782585,0 -2.975257,-0.252667 -4.23752,-0.521393 -1.43035,-0.302986 -2.91102,-0.616678 -5.316706,-0.616678 z M 87.326029,49.906975 h -1.450693 v -1.245134 h -2.918514 v -0.995677 l 2.320036,-3.7718 h 2.049171 v 3.572664 h 0.72588 v 1.194813 h -0.72588 z m 3.023434,0 h -1.714064 l 2.742932,-4.688252 h -2.511679 v -1.324359 h 4.935566 z M 10.357981,49.885566 H 8.7948728 v -4.68718 H 7.9330226 v -1.32436 h 2.4249584 z m 4.052302,0 h -1.778302 l 1.714064,-2.024545 -0.01605,-0.01606 a 1.9806497,1.9806497 0 0 1 -0.84472,0.183077 c -1.180896,0 -1.930331,-1.011737 -1.930331,-2.11983 0,-1.475318 1.211943,-2.27293 2.584481,-2.27293 0.581347,0 1.251556,0.143463 1.714064,0.518181 0.486063,0.390777 0.805108,1.028867 0.805108,1.659463 0,0.868275 -0.446449,1.7055 -0.96463,2.390698 z M 85.875336,45.15449 h -0.01605 l -1.403585,2.312542 h 1.419644 z m -72.693057,0.70554 c 0,0.549229 0.414332,0.988183 0.96463,0.988183 0.5503,0 0.996749,-0.438954 0.996749,-0.988183 a 0.99032485,0.99032485 0 0 0 -0.996749,-0.989259 c -0.550298,0 -0.96463,0.438955 -0.96463,0.989255 z"
       fill="#fdb71b"
       fill-rule="nonzero"
       id="path2"
       style="stroke-width:1.07062" />
    <path
       d="m 34.760655,56.074825 c 1.727983,-1.679806 1.882153,-1.976368 2.571633,-2.676554 0.260161,-0.264444 0.505334,-0.514968 0.789048,-0.737658 0.162735,-0.128474 0.331893,-0.270867 0.513899,-0.421825 0.476426,-0.399342 1.017089,-0.851144 1.711923,-1.281533 0,0 -0.751576,1.529918 -0.679844,2.537372 0,0 3.994488,-2.662635 7.521115,-2.734367 3.527698,-0.0728 6.478331,0.143463 12.380667,-1.799715 5.902336,-1.943178 25.551452,-6.333796 28.358621,15.007972 0,0 -3.457036,-15.443715 -17.346209,-15.692099 -8.061779,-0.143463 -11.228678,2.375709 -16.267022,3.239701 -5.038345,0.863991 -7.233119,0.684127 -8.386179,1.043856 0,0 0.540665,0 2.052382,2.086641 0,0 -3.239701,-1.151989 -5.865935,0.43146 -2.627305,1.58345 -2.303977,2.447441 -5.362742,2.520243 0,0 0.324398,-1.223721 0.611324,-2.231175 z"
       fill="#83c441"
       fill-rule="nonzero"
       id="path3"
       style="stroke-width:1.07062" />
    <g
       fill="#043674"
       id="g51"
       transform="matrix(1.0706215,0,0,1.0706215,-3.319209,-3.7429378)">
      <circle
         cx="70.394997"
         cy="78.109001"
         r="1.618"
         id="circle3" />
      <circle
         cx="72.820999"
         cy="74.833"
         r="1.618"
         id="circle4" />
      <circle
         cx="74.251999"
         cy="70.706001"
         r="1.618"
         id="circle5" />
      <circle
         cx="75.237"
         cy="65.916"
         r="1.5140001"
         id="circle6" />
      <circle
         cx="74.936996"
         cy="62.318001"
         r="1.5140001"
         id="circle7" />
      <circle
         cx="73.361"
         cy="58.616001"
         r="1.5140001"
         id="circle8" />
      <circle
         cx="69.990997"
         cy="56.636002"
         r="1.5140001"
         id="circle9" />
      <circle
         cx="65.957001"
         cy="56.023998"
         r="1.5140001"
         id="circle10" />
      <circle
         cx="61.924"
         cy="56.771"
         r="1.2130001"
         id="circle11" />
      <circle
         cx="57.620998"
         cy="57.735001"
         r="1.0779999"
         id="circle12" />
      <circle
         cx="60.243999"
         cy="59.394001"
         r="1.068"
         id="circle13" />
      <circle
         cx="55.423"
         cy="55.848"
         r="1.068"
         id="circle14" />
      <circle
         cx="53.09"
         cy="56.884998"
         r="0.653"
         id="circle15" />
      <circle
         cx="55.174"
         cy="58.471001"
         r="0.94400001"
         id="circle16" />
      <circle
         cx="57.682999"
         cy="60.606998"
         r="0.94400001"
         id="circle17" />
      <circle
         cx="55.962002"
         cy="62.525002"
         r="0.94400001"
         id="circle18" />
      <circle
         cx="54.199001"
         cy="60.783001"
         r="0.94400001"
         id="circle19" />
      <circle
         cx="52.603001"
         cy="59.030998"
         r="0.94400001"
         id="circle20" />
      <circle
         cx="51.597"
         cy="61.074001"
         r="0.94400001"
         id="circle21" />
      <circle
         cx="53.588001"
         cy="63.084999"
         r="0.94400001"
         id="circle22" />
      <circle
         cx="54.707001"
         cy="65.646004"
         r="0.94400001"
         id="circle23" />
      <circle
         cx="57.153999"
         cy="64.505997"
         r="0.94400001"
         id="circle24" />
      <circle
         cx="59.104"
         cy="62.773998"
         r="0.94400001"
         id="circle25" />
      <circle
         cx="61.425999"
         cy="61.342999"
         r="0.94400001"
         id="circle26" />
      <circle
         cx="51.700001"
         cy="65.014"
         r="0.85000002"
         id="circle27" />
      <circle
         cx="63.334"
         cy="59.403999"
         r="1.2130001"
         id="circle28" />
      <circle
         cx="66.528"
         cy="59.228001"
         r="1.2130001"
         id="circle29" />
      <circle
         cx="70.063004"
         cy="59.891998"
         r="1.2130001"
         id="circle30" />
      <circle
         cx="71.847"
         cy="62.214001"
         r="0.97500002"
         id="circle31" />
      <circle
         cx="72.810997"
         cy="67.906998"
         r="1.1720001"
         id="circle32" />
      <circle
         cx="70.758003"
         cy="72.334"
         r="1.182"
         id="circle33" />
      <circle
         cx="68.072998"
         cy="75.392998"
         r="1.441"
         id="circle34" />
      <circle
         cx="64.008003"
         cy="77.600998"
         r="1.618"
         id="circle35" />
      <circle
         cx="64.795998"
         cy="77.259003"
         r="1.618"
         id="circle36" />
      <circle
         cx="68.021004"
         cy="84.641998"
         r="1.887"
         id="circle37" />
      <circle
         cx="72.655998"
         cy="81.250999"
         r="1.752"
         id="circle38" />
      <circle
         cx="62.939999"
         cy="83.232002"
         r="1.918"
         id="circle39" />
      <circle
         cx="63.521"
         cy="80.038002"
         r="1.877"
         id="circle40" />
      <circle
         cx="63.666"
         cy="86.612"
         r="1.586"
         id="circle41" />
      <circle
         cx="75.682999"
         cy="77.705002"
         r="1.929"
         id="circle42" />
      <circle
         cx="78.109001"
         cy="72.998001"
         r="2.24"
         id="circle43" />
      <circle
         cx="79.228996"
         cy="67.657997"
         r="2.24"
         id="circle44" />
      <circle
         cx="79.094002"
         cy="62.058998"
         r="2.24"
         id="circle45" />
      <circle
         cx="77.434998"
         cy="56.905998"
         r="2.24"
         id="circle46" />
      <circle
         cx="73.620003"
         cy="53.816002"
         r="1.887"
         id="circle47" />
      <circle
         cx="68.517998"
         cy="52.374001"
         r="1.659"
         id="circle48" />
      <circle
         cx="63.137001"
         cy="53.048"
         r="1.659"
         id="circle49" />
      <circle
         cx="58.513"
         cy="54.438"
         r="1.524"
         id="circle50" />
      <circle
         cx="67.440002"
         cy="80.390999"
         r="1.535"
         id="circle51" />
      <path
         d="m 33.099,58.191 c 0,0 -0.498,-0.653 -1.524,-0.145 -1.027,0.508 -0.415,2.001 0.674,1.037 0.383,-0.384 0.124,-0.695 0.829,-0.892 z"
         id="path51" />
    </g>
    <path
       d="m 46.584599,85.009441 -0.146675,1.517071 2.660494,0.256948 -0.192712,1.99778 -2.659423,-0.256949 -0.150958,1.566319 2.805028,0.269796 -0.192712,1.997781 -5.164678,-0.497839 0.874698,-9.075659 5.164678,0.497839 -0.192712,1.99778 z m 6.775963,5.166819 2.833935,-0.207701 0.146675,2.002062 -5.197867,0.380071 -0.665927,-9.091717 2.363933,-0.173441 z M 40.3675,83.809274 l -0.415401,1.465681 2.570562,0.728023 -0.547088,1.931401 -2.570562,-0.728023 -0.428248,1.512788 2.710813,0.767636 -0.547087,1.930331 -4.991238,-1.413221 2.484913,-8.770531 4.990167,1.41322 -0.547088,1.931401 z m 20.843929,0.06209 c -0.512827,-0.24196 -1.111305,-0.336176 -1.673381,-0.19057 -0.421825,0.109203 -0.919664,0.50105 -0.79226,0.993536 0.134898,0.513899 0.806178,0.552441 1.237639,0.577065 l 0.630595,0.02356 c 1.323289,0.04389 2.432453,0.418613 2.803958,1.845751 0.226972,0.87791 0.250526,1.833975 -0.296562,2.613387 -0.538522,0.764424 -1.399303,1.250486 -2.287918,1.481741 -1.112376,0.289067 -2.298625,0.196994 -3.363892,-0.201277 l 0.503191,-2.104842 c 0.70447,0.354376 1.489235,0.587771 2.27293,0.384352 0.538522,-0.140251 1.042785,-0.557793 0.881122,-1.178754 -0.167018,-0.643443 -1.125224,-0.631666 -1.654111,-0.644514 -1.545977,-0.03533 -2.590904,-0.163805 -3.035212,-1.872517 -0.46465,-1.79115 0.507475,-3.292161 2.274,-3.751457 0.889686,-0.231255 2.051311,-0.232325 2.950633,0.0086 z M 27.754509,59.817717 c 0,0 0.09636,1.391809 3.023434,1.871446 2.92708,0.479639 6.610017,1.595227 7.809113,2.242953 -0.98283,0.02463 -2.938856,0.15631 -2.938856,0.15631 l -1.067409,-0.744082 -0.983902,1.18839 -0.792259,-0.984971 -1.031009,1.22372 -1.10381,-1.320076 -0.983901,1.58452 -0.719458,-0.983901 c -1.247274,0.624172 -1.211943,1.607002 -1.211943,1.607002 0.144534,4.499823 11.85285,3.5641 11.85285,3.5641 5.038344,0 5.925889,1.438914 11.145169,1.079186 6.149649,-0.423967 6.512591,-4.534083 12.799279,-7.605695 6.285619,-3.071613 9.235182,1.336136 9.317619,1.487092 3.283597,6.041518 -7.40763,11.944924 -10.802571,13.631153 a 30.330706,30.330706 0 0 1 -11.854991,2.396051 c -15.00476,0 -27.471075,-10.862526 -29.966694,-25.15318 v 10e-4 l -0.001,-0.0064 0.001,0.0054 c -0.386495,-10.283319 7.939728,-12.527343 14.772435,-12.907413 3.034141,-0.168087 5.773861,0.02997 7.325191,0.05567 5.661446,0.09636 15.834492,-1.34256 18.137399,-11.610891 1.062057,-4.731076 -0.423966,-8.014671 -2.333955,-10.18161 12.164401,3.277173 21.311791,13.907374 22.381342,26.830845 -7.949365,-5.189302 -18.049607,-2.264365 -20.670489,-1.102741 -3.791071,1.679806 -8.925771,1.966733 -13.964115,2.351085 -5.038345,0.384354 -6.909792,2.447441 -8.276975,3.526628 -1.368255,1.080257 -1.727983,2.447441 -5.902336,3.454895 -4.175425,1.007455 -3.959158,4.343511 -3.959158,4.34351 z m 15.715652,-2.639081 a 1.8232683,1.8232683 0 0 1 -3.417424,0.884333 4.4366554,4.4366554 0 0 1 -0.688409,0.342599 2.590904,2.590904 0 1 0 4.399183,-2.719379 4.4655621,4.4655621 0 0 0 -0.746223,0.29228 c 0.280503,0.320115 0.452873,0.739799 0.452873,1.200167 z m 38.027404,-23.593286 -1.716206,0.09315 -1.062057,-2.303978 9.831517,-0.637019 1.092034,2.369285 -6.901226,6.99437 -1.066339,-2.314683 1.201238,-1.210873 z M 9.6492292,35.762994 11.105274,32.406596 c 0.784766,-1.813633 2.168009,-2.70332 4.103692,-1.863951 1.991356,0.863991 2.398192,2.315754 1.569531,4.230024 l -0.538522,1.240851 2.797533,1.213014 -0.950711,2.192632 z m 4.8220788,-0.514969 0.160594,-0.369364 c 0.34474,-0.795472 0.684126,-1.578096 -0.345811,-2.024545 -1.063127,-0.460367 -1.389667,0.262302 -1.757961,1.112376 l -0.159523,0.369364 z m 72.04533,-2.135889 -0.01071,-0.02248 -3.071613,0.327611 0.831873,1.806138 z m -65.726523,-2.701178 0.917523,1.452833 -1.493516,2.05024 -5.350967,-8.274833 1.537413,-2.109125 9.472859,2.616599 -1.501011,2.059876 -1.643405,-0.458225 z m 56.920662,0.04604 -1.444269,-1.904635 5.713907,-4.334947 -1.194814,-1.573813 1.613427,-1.22372 3.833896,5.053333 -1.613427,1.223721 -1.194814,-1.574885 z m -50.754952,-0.27515 0.105992,-0.130617 c 0.254807,-0.308338 0.779412,-0.915381 1.521352,-1.65518 l 10e-4,-0.0022 h 0.001 c 0.217336,-0.220548 0.444308,-0.431461 0.668067,-0.644514 2.248305,-2.093065 5.886276,-4.756771 9.982475,-4.935565 6.807011,-0.299774 6.11753,5.878783 -2.344661,5.673223 -8.462192,-0.203418 -10.008169,1.784726 -10.008169,1.784726 z m -9.02641,-3.922757 -0.01392,0.01927 1.783656,2.522384 1.170189,-1.607003 z m 14.586147,-5.344543 -2.320037,1.865023 -3.975217,-1.342559 -0.01927,0.01499 2.217258,2.756851 -1.863952,1.498869 -5.763156,-7.16781 2.785758,-2.240811 c 1.416431,-1.13807 3.03307,-1.32757 4.263214,0.203419 0.795472,0.989254 0.932511,2.287917 0.05996,3.285737 z m 40.961978,4.61652 -1.782585,-1.593084 4.779254,-5.347755 -1.473175,-1.315794 1.348983,-1.509576 4.728935,4.225742 -1.348983,1.510648 -1.473176,-1.316864 z m -7.444032,-7.223484 -1.337206,1.080258 -2.210833,-1.245133 7.59713,-6.275983 2.274,1.280463 -1.496729,9.713749 -2.221539,-1.251556 0.263372,-1.685159 z m -25.929381,-0.847931 -2.70439,1.24085 -3.525556,-2.272929 -0.02248,0.01071 1.475316,3.214005 -2.172291,0.99782 -3.836037,-8.358342 3.248266,-1.490305 c 1.650898,-0.758 3.264325,-0.546017 4.084421,1.238709 0.528887,1.15306 0.34367,2.445299 -0.746223,3.200088 z m -14.865578,2.795393 0.179863,-0.145605 c 0.608114,-0.489275 1.201238,-1.15413 0.574924,-1.933542 -0.627384,-0.779413 -1.403584,-0.34367 -2.011698,0.145604 l -0.180934,0.145605 z m 44.58603,-5.271741 -0.02141,-0.01177 -2.297553,2.065228 1.732264,0.975337 z m -15.892305,-8.0285901 2.314684,0.4293192 0.937864,5.1743139 2.840359,-4.4719862 2.338238,0.4336017 -0.311552,9.2972765 -2.351085,-0.436813 0.307269,-5.327412 -0.02356,-0.0043 -3.137991,4.801738 -0.935723,-0.173441 -1.108094,-5.590786 -0.02356,-0.0042 -1.722629,5.06511 -2.339308,-0.434672 z m -10.597012,8.2791161 -0.390776,1.674452 -2.508466,0.375788 2.13696,-9.6195341 2.581269,-0.3864943 4.787819,8.5831714 -2.521314,0.376859 -0.82759,-1.491375 z m -10.123796,-0.192712 0.209841,-0.09636 C 34.13113,14.61929 34.867718,14.12038 34.450175,13.211423 34.033704,12.302465 33.173994,12.53479 32.465243,12.86133 l -0.210912,0.09636 z m 11.072367,-4.758913 -0.02356,0.0032 -0.543876,3.041636 1.966731,-0.294422 z"
       fill="#ffffff"
       fill-rule="nonzero"
       id="path52"
       style="stroke-width:1.07062" />
  </g>
</svg>
