<?xml version="1.0" encoding="UTF-8" standalone="no"?>
<svg
   width="100"
   height="100"
   viewBox="0 0 100 100"
   fill="none"
   version="1.1"
   id="svg2"
   sodipodi:docname="logo.svg"
   inkscape:version="1.3.2 (091e20e, 2023-11-25)"
   xmlns:inkscape="http://www.inkscape.org/namespaces/inkscape"
   xmlns:sodipodi="http://sodipodi.sourceforge.net/DTD/sodipodi-0.dtd"
   xmlns="http://www.w3.org/2000/svg"
   xmlns:svg="http://www.w3.org/2000/svg">
  <sodipodi:namedview
     id="namedview2"
     pagecolor="#ffffff"
     bordercolor="#000000"
     borderopacity="0.25"
     inkscape:showpageshadow="2"
     inkscape:pageopacity="0.0"
     inkscape:pagecheckerboard="0"
     inkscape:deskcolor="#d1d1d1"
     inkscape:zoom="4.72"
     inkscape:cx="43.538136"
     inkscape:cy="47.457627"
     inkscape:window-width="1464"
     inkscape:window-height="805"
     inkscape:window-x="0"
     inkscape:window-y="39"
     inkscape:window-maximized="0"
     inkscape:current-layer="svg2" />
  <g
     clip-path="url(#clip0_388_21073)"
     id="g2"
     transform="matrix(1.0129733,0,0,1.0381356,0.42372886,20.762712)">
    <path
       d="m 12.016,39.9292 c -1.1498,0.1106 4.5765,-1.2174 4.599,-1.2395 4.0129,-0.9739 1.1498,-0.9739 -0.5185,-1.3502 -1.6457,-0.3762 -2.2544,-0.5976 -3.2464,-0.9296 -0.3381,-0.1328 -1.7133,-0.4205 -2.2544,-0.0442 -0.63125,0.4205 -2.97585,0.4648 -5.07247,1.2837 -1.82609,0.7083 -4.644121,2.2355 -4.17069,3.6963 0.47343,1.4166 3.49436,0.8854 5.77134,-0.5312 0.49597,-0.3099 3.29142,-0.7304 4.89212,-0.8853 z m 64.2963,3.9398 c -1.5105,-0.4427 -4.0805,-0.996 -6.3801,-1.815 -2.2995,-0.8189 -3.9227,-2.2798 -4.9822,-3.0987 -1.0371,-0.819 -2.8857,-1.0846 -4.1482,-1.5051 -1.2625,-0.4205 -1.037,-0.6197 -1.8712,0 -0.8341,0.6197 -1.2624,0.8853 -2.2995,1.5051 2.6828,0.7304 3.5395,0.3984 5.3881,0.6861 1.3752,0.1992 4.0354,3.7849 7.5974,5.2678 3.6522,1.5494 2.9984,1.5051 7.0789,1.5051 3.2915,-0.0221 1.8036,-1.9256 -0.3832,-2.5453 z m 14.4509,0 C 89.2978,42.8287 87.2913,37.4059 86.2994,36.1 85.2398,34.7056 83.7293,35.6352 81.272,32.8464 79.3332,30.633 78.5216,27.3572 77.4395,25.4095 75.9741,22.7092 73.6746,22.3108 74.396,21.5803 c 3.0886,1.7929 4.2834,1.3281 6.2222,-0.2656 0.8116,-0.664 1.5781,-4.9358 -1.1046,-6.1531 -3.9904,-1.815 -6.087,2.4125 -6.1772,2.4347 -5.095,-4.3161 -16.322,-3.3865 -21.5298,-1.66 -1.2624,0.4205 -0.1127,0.5533 0.9469,0.664 0.6989,0.0664 1.7585,1.1731 -2.0966,0.6197 -1.5105,-0.2213 -8.4767,-1.5936 -12.467,-1.5936 -3.4267,0 -5.9742,0.2656 -7.6425,1.1067 -1.6007,0.7746 -5.3656,2.0141 -6.8084,2.4789 -0.8792,0.2878 -1.1497,-0.4648 -0.2029,-0.7746 14.744,-4.8916 15.0145,-8.58791 21.3044,-11.90796 -2.0967,0 -10.0097,0.50907 -11.678,0.50907 C 27.5039,7.74679 23.739,10.7127 22.0707,12.8375 21.6198,13.413 20.921,12.9039 21.4395,12.2178 24.1223,8.5436 29.3525,6.26383 34.5152,5.95396 35.1464,5.73263 39.768,1.54936 42.3831,0 33.5909,0.265604 31.4942,0.265604 26.8727,2.12483 22.2736,3.98406 19.388,8.4772 17.0884,10.757 c -2.2995,2.2797 -5.1851,1.5493 -8.99512,5.2678 -1.69082,1.66 -2.99839,5.135 -4.30596,6.618 -1.30757,1.5051 -4.283412,4.8694 -3.7198051,6.5737 0.4283411,1.2395 0.4283411,0.7746 1.4653751,0.9738 -0.31562,0.3985 0.02255,1.5273 0.2029,2.0585 0.54106,1.5715 2.7504,1.8149 2.66023,1.7043 1.30757,1.7707 4.93719,1.0845 7.39448,1.3944 1.9839,0.2656 4.2835,1.4608 8.7923,1.4608 3.3366,0 5.1627,-2.5454 5.7037,-3.8291 0.5185,-1.2395 0.7214,-1.151 -0.1578,1.1952 -0.9694,2.5233 -3.8325,3.7849 -5.9066,3.3643 -0.4509,1.1953 -3.4944,1.5273 -6.3349,2.5897 -2.0967,0.7747 -5.90664,3.2536 -6.96622,4.4931 -1.0145,1.1952 -2.20934,1.8592 -1.51047,3.1651 0.45088,0.8632 4.93719,-0.7525 6.40259,-1.66 1.6683,-1.0403 2.2093,-0.3541 3.6522,-0.9739 1.4653,-0.6197 2.2995,-1.2837 4.8019,-2.324 4.8245,0 7.2367,-0.4206 11.6328,-0.4206 3.6071,0 5.2303,-1.2837 6.7633,-3.8291 1.6458,-2.7446 1.5105,-0.6419 0.9469,0.6862 5.6586,1.5715 16.7955,-1.2838 17.4267,-1.7043 1.1949,-0.7968 2.4799,-0.6198 0.2029,-2.1249 -1.2625,-0.841 -1.3977,-2.3461 0,-1.1952 1.5781,1.3059 2.5024,1.7043 4.1932,2.5454 0.8342,0.4205 4.0806,1.1288 4.5991,1.7043 2.4348,2.6339 7.9581,4.139 11.1143,4.5595 3.1562,0.4206 3.9903,0.1992 5.4332,1.8592 1.5104,1.7043 6.4702,4.2497 8.3865,4.7588 2.2995,0.6197 7.2367,0.6197 7.0112,-1.66 -0.1127,-1.4609 -4.5765,-2.2798 -7.2141,-4.139 z M 14.4057,19.6326 c 0.0676,0.1328 0.0902,0.1771 0.1352,0.2877 0.4284,0.8854 0.0677,2.0142 -0.6537,2.5233 -1.1273,0.7968 -2.4348,0.1328 -2.6377,-0.6198 -0.5185,0.1771 -0.8116,0.5976 -1.2174,1.2174 -0.18037,0.2877 -0.33818,0.2434 -0.42835,0.177 -0.24799,-0.177 -0.18036,-0.3984 0.02254,-0.9074 0.2029,-0.5091 1.64571,-2.8553 4.57651,-3.4972 0.248,-0.0664 0.5636,-0.0664 0.6538,0.1328 0.248,0.5312 -0.4735,0.5755 -0.4509,0.6862 z m -1.1272,0.4427 c -0.3382,0 -0.6087,0.2656 -0.6087,0.5754 0,0.332 0.2705,0.5976 0.6087,0.5976 0.3156,0 0.6087,-0.2656 0.6087,-0.5976 -0.0226,-0.3098 -0.2931,-0.5754 -0.6087,-0.5754 z"
       fill="#000000"
       id="path1" />
    <path
       d="m 92.4541,48.318 c -0.9694,0 -1.9839,-0.1107 -2.7279,-0.3099 C 87.8776,47.5212 83.2109,45.1307 81.8583,43.6478 80.4831,42.1205 79.4686,42.0099 77.4396,41.7885 77.0338,41.7443 76.5829,41.7 76.0644,41.6336 73.066,41.2573 67.8357,39.8186 65.6264,37.4725 65.2206,37.0298 64.161,36.6978 62.5153,36.2108 61.8615,36.0116 61.1626,35.8124 60.9146,35.6796 l -0.4283,-0.2213 c -1.3527,-0.664 -2.1868,-1.0624 -3.5169,-2.1248 -0.4734,-0.3763 -0.8567,-0.5534 -1.2174,-0.5534 -0.4058,0 -0.7665,0.2435 -0.8792,0.6198 -0.2029,0.6418 0.3381,1.5936 1.2399,2.1912 0.2931,0.1992 0.496,0.332 0.6312,0.4427 -0.2479,0.1106 -0.541,0.2656 -0.8341,0.4427 -0.5861,0.2877 -7.1916,1.9699 -12.5797,1.9699 -1.2174,0 -2.277,-0.0886 -3.1787,-0.2657 0.1578,-0.5754 0.2705,-1.328 -0.0226,-1.7485 -0.1578,-0.2435 -0.4283,-0.3763 -0.7214,-0.3763 -0.5411,0 -1.0145,0.4427 -1.7359,1.6158 -1.3076,2.1691 -2.6602,3.3422 -5.9968,3.3422 -2.1192,0 -3.7423,0.0885 -5.4557,0.1992 -1.7359,0.1106 -3.5395,0.1992 -5.9292,0.1992 -0.0901,0 -0.1803,0.0221 -0.2705,0.0442 -1.4654,0.5976 -2.3446,1.0624 -3.1336,1.4609 -0.5411,0.2877 -1.0145,0.5312 -1.5781,0.7746 -0.496,0.1992 -0.8567,0.2214 -1.2625,0.2435 -0.6313,0.0443 -1.3301,0.0885 -2.4348,0.7304 -1.0596,0.6419 -3.99034,1.7264 -5.18519,1.7264 -0.04509,0 -0.09018,0 -0.11272,0 -0.15781,-0.3984 0.04509,-0.664 0.7665,-1.3944 0.22545,-0.2213 0.47343,-0.4648 0.69888,-0.7304 0.9694,-1.1067 4.62153,-3.4307 6.53783,-4.1169 0.8792,-0.332 1.781,-0.5754 2.6377,-0.7968 1.6457,-0.4426 2.9984,-0.8189 3.6747,-1.5715 0.1353,0.0222 0.2931,0.0222 0.4509,0.0222 2.0966,0 4.7117,-1.2838 5.6586,-3.7406 0.7891,-2.0142 0.7214,-2.2355 0.496,-2.5233 -0.1353,-0.177 -0.3607,-0.3098 -0.6087,-0.3098 -0.5411,0 -0.7665,0.4426 -1.0821,1.1731 -0.5186,1.1952 -2.1417,3.2536 -4.9147,3.2536 -2.9082,0 -4.847,-0.5091 -6.4026,-0.9075 -0.789,-0.1992 -1.4428,-0.3762 -2.1191,-0.4648 C 11.3623,34.1967 10.5282,34.1745 9.71657,34.1745 7.91303,34.1524 6.0644,34.1524 5.36553,33.2228 5.23026,33.0457 5.00482,32.9351 4.77938,32.9351 c -0.04509,0 -0.09018,0 -0.13527,0.0221 C 4.30595,32.9129 3.15619,32.6252 2.86311,31.762 2.57004,30.9873 2.54749,30.5004 2.57004,30.3676 2.72785,30.1684 2.75039,29.947 2.66021,29.7257 2.57004,29.5043 2.36714,29.3715 2.11915,29.3273 1.80353,29.2609 1.55554,29.2609 1.37519,29.2609 1.35264,29.1723 1.28501,29.0617 1.21738,28.8625 0.789037,27.6451 3.67471,24.3915 4.62157,23.329 l 0.09017,-0.1106 c 0.6087,-0.6862 1.17231,-1.7043 1.781,-2.7667 0.74396,-1.3281 1.53301,-2.7003 2.3897,-3.5414 1.98386,-1.9035 3.71976,-2.5233 5.23026,-3.0987 1.285,-0.4648 2.4799,-0.9075 3.5846,-1.9699 0.5861,-0.5755 1.2173,-1.2838 1.8711,-2.0142 C 21.4621,7.68053 23.8518,4.98022 27.0531,3.7186 30.9984,2.14711 32.9146,1.99217 39.5878,1.79297 38.4605,2.61192 37.2657,3.5858 36.2287,4.40474 35.372,5.09089 34.4251,5.84343 34.0869,6.04264 28.6538,6.39678 23.4911,8.85361 20.876,12.3286 c -0.3382,0.4427 -0.4058,0.9518 -0.2029,1.3723 0.1804,0.3541 0.5636,0.5755 0.9694,0.5755 0.3833,0 0.744,-0.1771 0.9919,-0.5091 1.736,-2.1691 5.3881,-4.69235 10.393,-5.28996 0.0225,0 0.0225,0 0.0451,0 0.7665,0 2.8405,-0.11067 5.0724,-0.22134 1.2174,-0.0664 2.4573,-0.1328 3.5395,-0.17706 -0.9694,0.66401 -1.8261,1.32802 -2.7053,2.01416 -2.9083,2.2798 -6.1997,4.8694 -15.6909,7.9681 -0.8792,0.2878 -1.1272,0.8854 -1.0595,1.328 0.0901,0.5091 0.541,0.8411 1.1497,0.8411 0.1804,0 0.3833,-0.0221 0.5636,-0.0885 l 0.1353,-0.0443 c 1.5105,-0.4869 5.0499,-1.6379 6.628,-2.3683 1.3977,-0.6861 3.6071,-0.9739 7.1691,-0.9739 3.0435,0 7.9356,0.8411 10.5733,1.2838 0.6988,0.1107 1.2399,0.1992 1.5555,0.2435 0.744,0.1106 1.3527,0.1549 1.8261,0.1549 1.1047,0 1.6908,-0.3099 1.7134,-0.9517 0.0225,-0.3985 -0.2255,-0.7083 -0.5411,-0.9075 2.3897,-0.5755 5.343,-0.9075 8.0709,-0.9075 4.7793,0 8.6344,0.996 10.8212,2.7888 0.1353,0.1107 0.2931,0.155 0.4734,0.155 0.0451,0 0.0902,0 0.1353,-0.0222 0.3156,-0.0664 0.4509,-0.2656 0.5862,-0.4648 1.0145,-1.5272 2.1642,-2.3019 3.4267,-2.3019 0.5185,0 1.037,0.1328 1.6006,0.3763 0.7214,0.3099 1.1723,0.9517 1.3301,1.9035 0.248,1.3723 -0.2254,2.656 -0.4283,2.8552 -0.9469,0.7747 -1.6457,1.1953 -2.4573,1.1953 -0.6989,0 -1.6007,-0.332 -2.8181,-1.0182 -0.1127,-0.0664 -0.2479,-0.0885 -0.3607,-0.0885 -0.1803,0 -0.3607,0.0664 -0.5185,0.1992 -0.3156,0.2877 -0.3607,0.5976 -0.3381,0.7968 0.0225,0.5312 0.4508,0.8632 1.0144,1.2837 0.6313,0.487 1.5105,1.1731 2.1868,2.3905 0.3382,0.5976 0.6538,1.3723 0.992,2.1912 0.6989,1.6822 1.4879,3.6078 2.8406,5.0908 1.533,1.7043 2.7504,2.1027 3.6521,2.3904 0.6313,0.1992 0.9469,0.3099 1.24,0.6861 0.3381,0.4206 0.8341,1.483 1.3977,2.5897 1.2174,2.5011 2.1643,4.3382 3.1337,5.0022 1.1723,0.7968 2.6377,1.3944 3.9452,1.9256 0.9694,0.3984 2.7955,1.151 2.8406,1.5273 0.0225,0.177 -0.0225,0.332 -0.1578,0.4648 -0.496,0.4426 -1.6683,0.7304 -3.1562,0.7304 z M 14.6087,18.349 c -0.1353,0 -0.2931,0.0221 -0.4509,0.0442 -3.066,0.6419 -4.68921,3.0102 -5.00483,3.7849 -0.2029,0.4648 -0.49598,1.1952 0.22544,1.6822 0.18035,0.1106 0.36071,0.177 0.56361,0.177 0.20288,0 0.58618,-0.0664 0.90178,-0.5533 0.1578,-0.2214 0.2705,-0.4206 0.3832,-0.5534 0.4284,0.3984 1.0371,0.6419 1.6909,0.6419 0.5185,0 1.037,-0.1771 1.4879,-0.4869 0.9468,-0.664 1.3526,-1.9478 0.9694,-3.0102 0.4734,-0.4427 0.2931,-0.996 0.2254,-1.1731 -0.1803,-0.3763 -0.541,-0.5533 -0.9919,-0.5533 z m 60.351,26.494 c -2.7955,0 -2.7955,0 -4.9372,-0.9075 l -1.1272,-0.4869 c -1.8486,-0.7526 -3.4718,-2.147 -4.7794,-3.2537 -1.1723,-0.996 -2.029,-1.7264 -2.8406,-1.8592 -0.6988,-0.1107 -1.285,-0.1328 -1.826,-0.155 -0.5411,-0.0221 -1.0596,-0.0442 -1.7134,-0.1328 0.248,-0.1549 0.496,-0.3541 0.8116,-0.5754 0.0676,-0.0443 0.2254,-0.155 0.3156,-0.2214 0.0451,0.0222 0.1127,0.0443 0.1804,0.0664 0.1803,0.0664 0.4058,0.155 0.6988,0.2435 0.3608,0.1107 0.7891,0.2213 1.24,0.3541 0.9243,0.2435 1.9839,0.5091 2.5926,0.9739 l 0.3381,0.2656 c 1.0371,0.819 2.6152,2.0806 4.7343,2.8331 1.6007,0.5534 3.314,0.9961 4.7118,1.3281 0.6087,0.1549 1.1498,0.2877 1.6006,0.4205 0.9243,0.2656 1.488,0.7083 1.6683,0.9517 -0.1578,0.0665 -0.4734,0.1329 -1.1272,0.1329 z M 3.314,40.7925 c -0.24799,0 -0.8116,-0.0221 -0.90177,-0.3099 -0.22545,-0.6197 1.42029,-1.837 3.65217,-2.7003 1.05958,-0.4205 2.23188,-0.6197 3.1562,-0.7746 0.9018,-0.155 1.5556,-0.2656 1.9388,-0.5312 0,0 0.0902,-0.0443 0.3833,-0.0443 0.4734,0 1.037,0.1328 1.1723,0.1771 l 0.1352,0.0442 c 0.9018,0.3099 1.533,0.5312 3.1337,0.8632 0.0451,0 0.0902,0.0222 0.1353,0.0222 -2.5476,0.5976 -3.7875,0.8853 -4.3511,1.1288 -0.9694,0.1107 -4.08051,0.4869 -4.77938,0.9296 -1.19485,0.7304 -2.63769,1.1952 -3.67472,1.1952 z"
       fill="#000000"
       id="path2" />
  </g>
  <defs
     id="defs2">
    <clipPath
       id="clip0_388_21073">
      <rect
         width="98"
         height="50"
         fill="#ffffff"
         id="rect2"
         x="0"
         y="0" />
    </clipPath>
  </defs>
</svg>
