<?xml version="1.0" encoding="UTF-8" standalone="no"?>
<svg
   clip-rule="evenodd"
   fill-rule="evenodd"
   stroke-linejoin="round"
   stroke-miterlimit="1.414"
   viewBox="0 0 100 100"
   version="1.1"
   id="svg8"
   sodipodi:docname="badge-5.svg"
   inkscape:version="1.3.2 (091e20e, 2023-11-25)"
   xmlns:inkscape="http://www.inkscape.org/namespaces/inkscape"
   xmlns:sodipodi="http://sodipodi.sourceforge.net/DTD/sodipodi-0.dtd"
   xmlns="http://www.w3.org/2000/svg"
   xmlns:svg="http://www.w3.org/2000/svg">
  <defs
     id="defs8" />
  <sodipodi:namedview
     id="namedview8"
     pagecolor="#ffffff"
     bordercolor="#000000"
     borderopacity="0.25"
     inkscape:showpageshadow="2"
     inkscape:pageopacity="0.0"
     inkscape:pagecheckerboard="0"
     inkscape:deskcolor="#d1d1d1"
     inkscape:zoom="2.36"
     inkscape:cx="49.788136"
     inkscape:cy="50.211864"
     inkscape:window-width="1584"
     inkscape:window-height="924"
     inkscape:window-x="0"
     inkscape:window-y="39"
     inkscape:window-maximized="0"
     inkscape:current-layer="layer13" />
  <g
     inkscape:groupmode="layer"
     id="layer14"
     inkscape:label="back">
    <rect
       style="fill:#e82c2a;fill-rule:evenodd;stroke:#000000;fill-opacity:1"
       id="rect8"
       width="143.64407"
       height="116.94915"
       x="-28.813559"
       y="-2.9661016" />
  </g>
  <g
     inkscape:groupmode="layer"
     id="layer13"
     inkscape:label="fore"
     style="display:inline">
    <path
       d="m 49.518364,97.550304 c -0.751167,-0.964913 -5.428147,-2.938507 -7.251101,-3.722245 l -1.995986,-0.85804 A 56.807754,56.807754 0 0 1 24.50288,82.532057 24.799701,24.799701 0 0 1 18.924093,74.733358 22.747733,22.747733 0 0 1 16.865,65.326469 V 2.0360847 H 84.317337 V 65.326469 a 22.616432,22.616432 0 0 1 -2.059093,9.406889 24.74372,24.74372 0 0 1 -5.578787,7.798699 56.623525,56.623525 0 0 1 -15.704272,10.437962 l -1.973594,0.85804 c -1.877917,0.815291 -6.436828,2.757332 -7.294868,3.754816 L 50.633918,98.731 Z"
       fill="#e82c2a"
       id="path1"
       style="stroke-width:1.01784" />
    <path
       d="M 82.772254,3.5801499 V 65.282702 a 21.201632,21.201632 0 0 1 -1.930845,8.753434 23.035782,23.035782 0 0 1 -5.223561,7.294868 55.134423,55.134423 0 0 1 -15.264564,10.147877 l -1.930845,0.85804 c -3.00365,1.28757 -6.651592,2.854027 -7.798699,4.076455 -1.137947,-1.212249 -4.806247,-2.788885 -7.788521,-4.076455 l -1.930845,-0.85804 A 55.242314,55.242314 0 0 1 25.59706,81.331004 23.019497,23.019497 0 0 1 20.362302,74.036136 21.092723,21.092723 0 0 1 18.410083,65.282702 V 3.6015245 Z"
       fill="#ffffff"
       id="path2"
       style="stroke-width:1.01784" />
    <path
       d="m 50.591169,82.018047 c 0.568973,-0.859058 1.963415,-1.630581 6.43581,-3.583819 a 43.897456,43.897456 0 0 0 12.658891,-8.4206 14.01262,14.01262 0 0 0 4.504965,-10.008433 V 22.117074 H 26.991502 v 37.888121 a 13.954603,13.954603 0 0 0 4.547715,10.051182 43.801779,43.801779 0 0 0 12.616142,8.367673 c 4.472394,1.963416 5.866836,2.734939 6.43581,3.593997 z"
       fill="#e82c2a"
       id="path3"
       style="stroke-width:1.01784" />
    <path
       d="m 31.753981,41.694232 c -0.579151,-0.611723 -1.072804,-1.158303 -1.319122,-1.502334 -0.246318,-0.343012 -0.450904,-0.58933 -0.687043,-0.643275 a 1.685545,1.685545 0 0 0 -0.964913,0.106873 c -0.321638,0.15064 -0.493653,0.515028 -0.675847,0.998502 a 9.3193541,9.3193541 0 0 1 -0.944556,1.737455 7.3182783,7.3182783 0 0 1 0,3.110523 1.012752,1.012752 0 0 1 0.375583,1.20207 0.90587868,0.90587868 0 0 1 0.375583,0.515028 c 0.03155,0.359298 -0.06005,0.717578 -0.257513,1.018859 -0.160819,0.364387 -0.503832,1.072805 -0.728775,1.394443 -0.225961,0.321637 -0.408154,0.643275 -0.751167,0.66465 -0.343012,0.02137 -0.450903,-0.246318 -0.621901,-0.58933 a 12.969333,12.969333 0 0 1 -0.601544,-1.341515 c -0.364387,0 -0.407136,-0.267692 -0.492635,-0.472278 A 1.2193738,1.2193738 0 0 1 24.35224,47.293376 c 0.09161,-0.278888 0.210693,-0.547598 0.354209,-0.804094 0.0855,-0.182194 -0.106874,-0.429529 -0.246318,-0.536402 a 1.8097217,1.8097217 0 0 1 -0.515028,-0.751167 4.051008,4.051008 0 0 1 -0.05394,-1.287569 c 0,-0.471261 0.15064,-0.610705 0.536402,-1.158304 0.385762,-0.54658 1.394443,-2.413301 1.963416,-3.50748 a 6.3442043,6.3442043 0 0 0 0.728774,-2.14561 c 0.06514,-0.375583 0.214765,-0.450903 0.38678,-0.493653 0.218836,-0.0458 0.4336,-0.106873 0.643276,-0.182193 0.309423,-0.164891 0.649382,-0.263621 0.997484,-0.289067 0.557777,0 0.665668,0.289067 0.965931,0.47126 l 1.855525,1.072805 c 0.721649,0.403065 1.39546,0.889593 2.006165,1.448388 0.257514,-0.139444 0.600526,-0.290085 0.964913,-0.450904 0.343013,-0.147587 0.650401,-0.36744 0.901808,-0.643275 0.211711,-0.403066 0.322655,-0.852951 0.321637,-1.308944 a 9.3366574,9.3366574 0 0 1 0.536403,-2.316607 c 0.300263,-0.644293 0.986288,-1.148125 1.98479,-2.038736 a 3.5146057,3.5146057 0 0 0 1.179678,-2.628066 c -0.644293,0 -2.145609,0.107891 -2.596513,0.107891 l -2.38073,0.106874 c -0.408155,0 -0.751167,0.106873 -0.890612,-0.128248 -0.139444,-0.236139 -0.05394,-0.483475 0.06412,-0.911986 0.130284,-0.416297 0.152677,-0.859058 0.06412,-1.287569 a 2.4672471,2.4672471 0 0 1 -1.018859,0.290085 0.81020161,0.81020161 0 0 1 -0.782719,-0.278889 2.1405201,2.1405201 0 0 1 -0.375584,-0.859058 0.55981267,0.55981267 0 0 1 0.106873,-0.536402 c 0.09568,0.162854 0.2738,0.256496 0.4621,0.247335 0.182194,0 0.213747,-0.257514 0.267693,-0.472278 0.05394,-0.214765 0.15064,-0.214765 0.364387,-0.214765 0.214764,0 0.214764,-0.160818 0.129266,-0.278888 a 1.2010526,1.2010526 0 0 0 -0.461083,-0.343013 0.43360036,0.43360036 0 0 0 -0.493652,0.106874 5.1909902,5.1909902 0 0 1 -0.375584,0.504849 c -0.129266,0.149623 -0.290085,0.321638 -0.429529,0.321638 a 2.1395022,2.1395022 0 0 1 -0.643276,-0.214765 1.2366771,1.2366771 0 0 0 -0.396958,0 c -0.06412,0 -0.149622,0 -0.172015,-0.0855 a 1.8545067,1.8545067 0 0 1 -0.106873,-0.503832 9.0852507,9.0852507 0 0 1 0,-0.911985 0.60052632,0.60052632 0 0 0 -0.106873,-0.408155 0.29720963,0.29720963 0 0 1 0,-0.428511 5.3864157,5.3864157 0 0 1 1.286551,-0.901807 c 0.601544,-0.364387 1.394442,-0.85804 1.90947,-1.212249 a 13.282828,13.282828 0 0 1 1.20207,-0.85804 c 0.226979,-0.111963 0.47635,-0.178122 0.728775,-0.192372 0.129266,0 0.08652,-0.139444 0.129266,-0.365405 0.04275,-0.224943 0.536402,-0.536403 1.072804,-0.728775 a 19.227021,19.227021 0 0 0 1.90947,-0.859058 0.49670651,0.49670651 0 0 0 0.267693,-0.557777 1.0605905,1.0605905 0 0 1 0,-0.492635 c 0.105855,-0.169979 0.243264,-0.31553 0.408154,-0.429529 0.0855,0.07532 0.213747,0.160819 0.385762,0.321638 0.224943,0.161837 0.409172,0.375584 0.536402,0.622919 a 2.9028831,2.9028831 0 0 0 1.287569,-1.469763 c 0.604598,0.505867 0.904861,1.290623 0.793916,2.070289 a 3.442339,3.442339 0 0 1 1.286552,-0.354208 c 0.365405,0 0.987306,0.160818 1.266194,0.160818 -0.106873,0.267693 -0.354209,0.375584 -0.590348,0.536403 0.77356,-0.03054 1.532869,0.213746 2.145609,0.686025 0.317567,0.393904 0.72165,0.709435 1.179678,0.923182 0.375584,0.160819 0.933361,0.289067 1.180696,0.375583 0.214765,0.109927 0.41019,0.256496 0.579152,0.428511 0.169979,0.177105 0.321638,0.371512 0.450904,0.579152 0.161836,0.174051 0.279906,0.383726 0.343012,0.611723 a 0.56083051,0.56083051 0 0 0 -0.536402,-0.160819 0.88755754,0.88755754 0 0 1 0.19339,0.408154 2.2270366,2.2270366 0 0 0 -1.212249,-0.247335 c -0.183212,0 -0.214765,0.0855 -0.107892,0.160818 0.107892,0.07532 0.354209,0.365405 0.568974,0.611723 0.214764,0.246318 0.472278,0.66465 0.751167,0.964913 0.278888,0.301281 0.503831,0.161837 0.675846,0.139445 0.227997,-0.03257 0.453957,-0.08346 0.674829,-0.149623 a 3.6438715,3.6438715 0 0 1 -0.922164,1.072805 l 0.107891,0.214764 h -0.08652 c -0.0855,-0.107891 -0.193389,-0.172015 -0.354208,-0.322655 -0.160819,-0.149623 -0.300264,-0.0855 -0.300264,0.07532 0,0.493653 0.321638,1.287569 0.729793,1.351693 0.407136,0.06412 1.233623,-0.58933 1.930844,-1.072805 a 2.7807422,2.7807422 0 0 1 0,-0.675846 c 0.38678,-0.239193 0.806131,-0.419351 1.24482,-0.536403 a 2.8499554,2.8499554 0 0 1 0.964914,0.06514 c 0.214764,0 0.429529,0 0.429529,-0.161837 0,-0.160818 -0.300263,-0.39594 -0.751167,-0.621901 a 3.2143426,3.2143426 0 0 1 -1.502334,-1.373067 8.0796236,8.0796236 0 0 1 0.890611,-1.716081 l 0.257514,0.07532 c 0.408154,-0.300263 0.236139,-0.675847 0.643276,-1.148125 a 2.2260187,2.2260187 0 0 1 1.695723,-0.729792 l 0.106874,-0.536403 c -1.609207,0.160819 -1.501316,-0.997484 -1.501316,-1.458566 0,-0.461082 0.256496,-1.243802 0.943539,-1.243802 0.687042,0 1.233623,0.567955 1.930844,0.51401 a 7.8730018,7.8730018 0 0 1 1.576636,-0.139445 2.583281,2.583281 0 0 1 1.566458,0.933361 c 0.429529,0.472278 1.072805,1.469763 1.855525,2.145609 a 3.7924764,3.7924764 0 0 0 2.317624,0.793916 5.3579161,5.3579161 0 0 1 1.662135,0.321638 c 0.548616,0.366423 1.015805,0.839719 1.373067,1.394443 0.260568,0.426475 0.308406,0.950663 0.129266,1.415817 a 2.1527342,2.1527342 0 0 1 1.072805,1.802596 5.0515459,5.0515459 0 0 1 -0.26871,1.394443 c -0.260567,0.284995 -0.556759,0.53742 -0.879415,0.751167 a 3.6275861,3.6275861 0 0 1 -1.072805,0.600526 3.0280776,3.0280776 0 0 1 -1.072804,-0.172015 c -0.354209,-0.0855 -0.751167,-0.257514 -0.911986,-0.278889 -0.160819,-0.02137 -0.407136,0.107892 -0.515028,0 A 2.5954951,2.5954951 0 0 1 63.69994,26.032704 0.7358992,0.7358992 0 0 0 63.43123,25.81794 c -0.0743,0 -0.170998,-0.107891 -0.170998,-0.214765 0,-0.106873 0.149623,-0.19339 0.482457,-0.19339 0.332834,0 0.385762,-0.139444 0.482457,-0.396958 0.0967,-0.256496 -0.07532,-0.47126 -0.321638,-0.621901 a 1.0086806,1.0086806 0 0 1 -0.482457,-0.515027 1.2315879,1.2315879 0 0 0 -0.536402,-0.482457 c -0.214765,-0.106873 -0.643276,0 -1.072805,-0.106873 a 1.076876,1.076876 0 0 1 -0.815291,-0.858041 0.80918376,0.80918376 0 0 1 0.493653,-0.859058 0.56286619,0.56286619 0 0 0 -0.290084,-0.536402 c -0.149623,0 -0.449886,0.07532 -0.804095,0.07532 -0.354209,0 -0.644293,-0.364387 -0.805112,-0.718595 a 4.2790045,4.2790045 0 0 0 -0.58933,-1.716081 3.0972908,3.0972908 0 0 0 -2.724761,-0.965931 v 1.072805 a 2.346124,2.346124 0 0 1 2.145609,2.145609 2.4733541,2.4733541 0 0 1 -0.783738,2.145609 c -0.120105,0.402047 -0.02748,0.839719 0.247336,1.158303 0.289066,0.321638 0.750149,0.214765 1.072804,0.19339 0,0.106874 -0.07532,0.170998 -0.172015,0.246318 0.279906,0.226978 0.532331,0.486528 0.751167,0.772541 0.122141,0.124177 0.122141,0.325709 0,0.450904 a 13.900657,13.900657 0 0 1 1.822953,2.659619 c 0.214765,0 0.429529,0 0.50485,0.19339 0.0743,0.19339 0.428511,0.708417 0.58933,1.072805 a 0.98730598,0.98730598 0 0 1 -0.106874,0.965931 3.0158635,3.0158635 0 0 1 -0.729792,0.922164 c -0.192372,0.106873 -0.321638,0 -0.449886,-0.139444 a 11.684817,11.684817 0 0 1 -1.137946,1.072804 c -0.128248,0.106874 0,0.321638 0,0.472279 a 0.32265566,0.32265566 0 0 1 -0.182194,0.321637 c -0.128248,0.06412 -1.425995,0.858041 -2.306428,1.340497 0,0.643276 -0.407136,0.90079 -0.825469,1.179678 a 1.6997948,1.6997948 0 0 1 -0.257514,1.802597 c 0.922164,0.116034 1.811758,0.415279 2.61687,0.879415 0.356244,0.176086 0.53742,0.584241 0.429529,0.965931 0.582205,0.30637 1.193928,0.558795 1.823971,0.750149 0.461082,-0.213746 0.343013,-0.610705 0.213747,-0.922164 a 3.3313943,3.3313943 0 0 0 -1.071787,-1.072805 3.6469251,3.6469251 0 0 1 2.144592,0.557777 c 0.60358,0.360316 1.251944,0.635133 1.930844,0.815291 a 5.1848831,5.1848831 0 0 0 2.617888,-0.461082 c 0.473296,-0.139444 0.911986,-0.376601 1.287569,-0.697221 a 8.3361195,8.3361195 0 0 1 -1.072804,1.823971 8.5854906,8.5854906 0 0 1 -3.647943,2.595495 11.25936,11.25936 0 0 1 2.735957,4.140579 c 0.529277,-0.264639 1.002573,-0.628008 1.394442,-1.072805 a 1.9033631,1.9033631 0 0 1 1.201053,-0.643276 c 0.536402,0 0.644293,0.172015 0.890611,0.643276 a 2.0651998,2.0651998 0 0 0 -1.533887,0.708417 3.0779518,3.0779518 0 0 0 -0.718596,2.14561 8.832826,8.832826 0 0 1 4.558911,3.217396 6.7554121,6.7554121 0 0 1 1.502334,4.151774 10.596745,10.596745 0 0 1 -0.429529,2.821456 5.942157,5.942157 0 0 0 -0.321638,1.973594 c -0.0061,0.631062 0.180158,1.248891 0.536402,1.770026 -1.845346,-0.278889 -1.072804,-3.00365 -0.900789,-3.86169 0.163872,-0.849897 0.270746,-1.709973 0.321638,-2.57412 a 2.5761561,2.5761561 0 0 0 -0.344031,-1.427014 c 0.09161,0.81122 0.06616,1.630582 -0.0743,2.434677 -0.139444,0.85804 -0.622919,2.575138 -0.751167,3.593997 a 4.7207475,4.7207475 0 0 0 0.697221,3.325287 c 0.439708,0.661597 1.234642,0.99952 2.016344,0.85804 -0.718596,1.179678 -1.855525,0.621901 -2.788885,0.129266 0.06514,0.449886 0.211711,0.88654 0.429529,1.286552 -1.072805,-0.385762 -2.896776,-1.307926 -3.433179,-2.971079 a 12.0889,12.0889 0 0 1 0,-6.597647 C 68.183532,55.971486 67.64713,55.725168 67.164673,55.725168 h -0.0081 a 1.0819652,1.0819652 0 0 0 -1.064662,1.212249 c -0.02952,0.496706 0.09466,0.991377 0.354209,1.415817 0.369477,0.451922 0.686025,0.945575 0.943539,1.469763 a 1.8809706,1.8809706 0 0 1 -0.213747,1.823971 c 0.106874,0.353191 0.353191,1.072805 0.51401,1.501316 0.137409,0.307388 0.137409,0.658543 0,0.965931 a 11.79678,11.79678 0 0 0 -0.47126,3.540052 c 0.120105,1.638724 0.382708,3.265235 0.78272,4.859174 0.139444,0.78272 -0.267693,1.072805 -0.664651,1.469763 0.321638,0.900789 0.106874,1.286551 -0.129266,1.587832 -0.290084,0.315531 -0.661596,0.545563 -1.072804,0.66465 a 3.2978055,3.2978055 0 0 1 -0.214765,0.922164 c -0.106873,0.268711 -0.321638,0.729793 -0.492635,1.212249 a 8.9885558,8.9885558 0 0 1 -2.038736,0.472279 c -0.78272,0.07532 -1.254998,0 -1.469763,-0.290085 -0.213746,-0.289067 -0.0743,-0.836666 0.268711,-1.608189 a 2.5751383,2.5751383 0 0 1 1.351693,-1.502334 5.2418822,5.2418822 0 0 1 1.565439,-2.145609 3.2265566,3.2265566 0 0 1 0.257514,-2.917133 22.636789,22.636789 0 0 0 -0.815291,-4.934494 c -0.449885,-1.39546 -0.782719,-1.502334 -1.3293,-1.759848 a 1.9298269,1.9298269 0 0 1 -1.254998,1.179678 12.712837,12.712837 0 0 1 -1.587833,0.375584 3.0433452,3.0433452 0 0 0 -1.394442,0.665668 c -0.322656,0.246317 -0.472278,0.643276 -0.751167,0.825469 a 6.6465031,6.6465031 0 0 1 -0.772541,0.321638 c -0.23614,0.15064 -0.182194,0.408154 -0.407137,0.644293 -0.225961,0.23614 -0.322656,0.182194 -0.590348,0.214765 -0.26871,0.03155 -0.236139,0.267692 -0.236139,0.579152 0,0.310441 0,0.536402 -0.19339,0.66465 -0.332834,0.176086 -0.697221,0.284995 -1.072804,0.321638 a 0.95066369,0.95066369 0 0 0 -0.139445,0.644293 c 0,0.321638 0.214765,0.482457 0.644294,0.793916 a 1.2214095,1.2214095 0 0 1 -1.459584,-0.214764 c -0.274818,-0.450904 -0.407137,-0.975092 -0.374566,-1.502334 -0.427493,0.194408 -0.714525,0.606634 -0.751167,1.072805 -0.07532,0.386779 -0.247335,0.365405 -0.697221,0.365405 a 7.7966637,7.7966637 0 0 1 -1.072805,-0.172015 c -0.26871,0 -0.536402,-0.160819 -0.793916,0.106873 -0.257514,0.26871 0,0.611723 -0.290085,0.890611 -0.289067,0.278889 -0.675846,0.257514 -1.458566,0.300263 A 2.666744,2.666744 0 0 1 46.053671,70.882859 C 45.892853,70.507276 46.160545,70.239584 46.590074,69.864 a 4.051008,4.051008 0 0 1 1.201052,-0.793916 c 0.214765,-0.826487 1.533887,-0.826487 2.14561,-0.751167 0.442761,0.133338 0.925217,0.04071 1.287569,-0.246317 0.25446,-0.267692 0.386779,-0.629026 0.364387,-0.997485 0,-0.290084 0.07532,-0.408154 0.214764,-0.493653 a 1.698777,1.698777 0 0 1 -1.212248,-0.890611 2.2148225,2.2148225 0 0 0 -0.997485,0.257514 c -0.503831,0.214765 -0.375583,0.697221 -0.375583,1.201053 a 1.134893,1.134893 0 0 1 -0.85804,-0.515028 1.4819768,1.4819768 0 0 1 0.472278,-1.56544 3.2163782,3.2163782 0 0 1 2.359356,-0.493653 c 0.242246,-0.220871 0.562866,-0.336905 0.890611,-0.321637 0.879415,0 0.718596,0.321637 1.651956,0.321637 a 2.1496806,2.1496806 0 0 0 1.845346,-1.072804 c -0.515027,0 -1.254998,0.450903 -2.038736,0.375583 a 0.83055843,0.83055843 0 0 1 -0.643275,-0.429529 7.3742596,7.3742596 0 0 0 -0.343013,-0.697221 1.1827315,1.1827315 0 0 1 -0.322655,-0.804095 4.8774951,4.8774951 0 0 1 0.911985,-1.995986 c -0.567955,-0.535385 -1.330318,0 -1.662134,0.19339 -0.332834,0.193389 -0.590348,0.214764 -0.815291,0.08652 a 0.47126048,0.47126048 0 0 0 -0.579152,0.0743 1.8219358,1.8219358 0 0 1 -0.880432,0.321637 5.4200045,5.4200045 0 0 1 -0.997485,-0.160819 0.37761909,0.37761909 0 0 0 -0.461082,0.322656 2.3919269,2.3919269 0 0 1 0.93336,1.844328 c 0.02036,0.467189 -0.132319,0.926236 -0.429529,1.28757 a 2.6748867,2.6748867 0 0 0 -0.567955,-1.266195 1.2275165,1.2275165 0 0 0 -0.815291,-0.428511 c -0.236139,0 -0.590348,-0.07532 -0.611722,0 -0.02137,0.07532 0.19339,0.214764 0.472278,0.321638 0.278889,0.106873 0.257514,0.343012 0.160819,0.643275 a 2.1557877,2.1557877 0 0 1 0.804095,2.509997 8.1834434,8.1834434 0 0 0 -0.922165,-1.071787 1.0565192,1.0565192 0 0 0 -0.450903,-0.278888 3.2377529,3.2377529 0 0 0 -0.58933,-0.268711 c -0.321638,-0.128248 -0.300264,0.160819 -0.214765,0.364388 0.0855,0.204586 0.160819,0.322655 0.07532,0.493653 a 2.3898912,2.3898912 0 0 0 1.286552,1.32014 c -0.335888,0.152676 -0.702311,0.233085 -1.071787,0.235121 a 2.038736,2.038736 0 0 1 -1.556279,-0.825469 h -0.246318 c 0.09161,0.190336 0.232068,0.354208 0.407137,0.472278 -0.4906,0.0855 -0.997485,0.02952 -1.458567,-0.160819 a 1.9705406,1.9705406 0 0 1 -0.964913,-1.416835 c -0.375584,-0.321638 -0.107892,-1.254998 0,-1.586814 a 10.125484,10.125484 0 0 1 1.072804,-1.717098 2.0743604,2.0743604 0 0 1 -0.07532,-1.254999 c -1.072805,-0.93336 -0.965931,-1.072804 -0.965931,-1.544065 -0.214765,-0.214764 -0.600527,-0.429529 -0.697221,-0.590348 a 3.1318974,3.1318974 0 0 1 -0.182194,-0.890611 0.87636128,0.87636128 0 0 1 -0.429529,0 c -0.106873,0.611723 -0.343013,0.85804 -0.697221,0.944557 a 2.1568055,2.1568055 0 0 1 -2.198537,1.394442 c 0.182193,-0.214764 0.78272,-0.944556 0.943538,-1.180695 a 0.60154416,0.60154416 0 0 0 0,-0.718596 2.4906574,2.4906574 0 0 1 -2.295231,0.321638 0.84887957,0.84887957 0 0 0 0.214764,0.429528 c -0.651418,0.101785 -1.309962,-0.156747 -1.717098,-0.675846 a 4.282058,4.282058 0 0 1 -0.503831,1.737455 c 0.450903,0.429529 0.214764,1.287569 0,1.781222 0.197461,0.246318 0.276852,0.569991 0.214764,0.879415 a 0.77355932,0.77355932 0 0 1 0.536402,0.503831 c 0.106874,0.472279 0,0.697221 -0.568973,1.502334 a 5.1451873,5.1451873 0 0 1 -1.212249,1.254998 0.5903479,0.5903479 0 0 1 -0.697221,0.04275 5.7528385,5.7528385 0 0 1 -0.536402,-1.479941 0.89570027,0.89570027 0 0 1 0.322655,-0.965931 c 0.182194,-0.214765 0,-0.536402 -0.139444,-0.836666 -0.140462,-0.300263 -0.601544,-0.385761 -0.698239,-1.018859 -0.128248,-0.85804 0,-1.479941 0.557777,-1.748651 -0.535384,-1.233623 0.396958,-2.145609 0.729792,-3.003649 a 4.1385424,4.1385424 0 0 0 0.236139,-2.037718 c -0.160819,0.149622 -0.472278,0.407136 -0.590348,0.364387 -0.118069,-0.04275 -0.321637,-0.214765 -0.321637,-0.643276 0,-1.072804 1.115554,-0.665668 1.115554,-2.145609 A 2.3776771,2.3776771 0 0 0 32.826786,49.96521 2.8173845,2.8173845 0 0 0 31.539217,49.127526 7.8322881,7.8322881 0 0 1 30.338164,48.72039 1.9990401,1.9990401 0 0 0 29.26536,48.366181 c 0.103819,-0.322656 0.355226,-0.577116 0.675846,-0.686025 a 4.1863809,4.1863809 0 0 1 1.502334,0 c 0.600526,0.106873 1.243802,-0.429529 1.243802,-1.43821 A 2.1496806,2.1496806 0 0 0 31.850676,44.471921 C 31.582984,44.311102 31.035385,43.882591 30.93869,43.571131 30.842,43.26069 30.445037,42.94923 30.026705,42.627592 a 1.2682302,1.2682302 0 0 1 1.974612,0.128248 c 0.28296,0.479404 0.856004,0.713507 1.394442,0.568974 C 32.96623,42.94923 32.322955,42.28458 31.722428,41.672857 Z m 2.746136,-14.321026 c 0.331816,0.69315 0.362351,1.493173 0.08652,2.209733 a 14.850303,14.850303 0 0 0 2.402106,-0.214764 c 0.644293,-0.106873 2.145609,-0.321638 3.11154,-0.353191 0.07328,-0.290085 0.131302,-0.584241 0.170998,-0.880433 a 21.020457,21.020457 0 0 1 -3.282538,0.697222 3.7059599,3.7059599 0 0 1 -1.716081,-0.06412 c -0.321637,-0.160819 -0.289067,-0.214765 -0.149622,-0.428512 0.117051,-0.239192 0.161836,-0.507902 0.128248,-0.772541 a 1.2336236,1.2336236 0 0 0 -0.19339,-0.557777 z m 0.965931,-0.600526 c 0.156748,0.393904 0.246318,0.811219 0.267692,1.233623 0,0.160819 -0.06412,0.567956 0.247336,0.536403 0.310441,-0.03257 1.136928,-0.321638 1.555261,-0.408155 0.418333,-0.0855 2.059093,-0.482456 2.81026,-0.610704 0.116034,-0.446833 0.116034,-0.916058 0,-1.36289 a 0.43054683,0.43054683 0 0 0 -0.643276,0 1.2122489,1.2122489 0 0 1 -1.180696,0.321638 5.2459536,5.2459536 0 0 0 -1.501315,-0.289067 2.7491891,2.7491891 0 0 0 -1.523709,0.536402 z m 14.395328,5.759963 c 0.195426,0.310442 0.4906,0.545563 0.836666,0.665668 a 3.6693176,3.6693176 0 0 1 1.362889,-2.017361 10.259839,10.259839 0 0 1 -0.429529,-2.938508 2.7247609,2.7247609 0 0 1 -1.458566,0.536403 8.4297609,8.4297609 0 0 1 -0.278889,3.753798 z m 6.82259,-1.179678 c 0.177104,0.369477 0.275835,0.771524 0.290085,1.179678 a 8.0368742,8.0368742 0 0 0 1.373068,-1.747633 c 0.190336,0.125194 0.415279,0.191354 0.643275,0.192372 v -0.214765 c 0.312478,-0.19339 0.525206,-0.515027 0.579152,-0.879415 0,-0.214764 -0.139444,-0.289066 -0.321638,-0.354208 a 3.8535468,3.8535468 0 0 1 -0.943539,-0.78272 29.971352,29.971352 0 0 1 -1.609207,2.617887 z"
       fill="#231f20"
       id="path4"
       style="stroke-width:1.01784" />
    <path
       d="m 36.517478,52.496581 c 0.390851,0.147587 0.71656,0.434618 0.910968,0.804094 a 4.1019001,4.1019001 0 0 1 2.017361,-1.136928 5.4535932,5.4535932 0 0 1 2.381749,0.0855 2.2250009,2.2250009 0 0 0 -0.214765,1.287569 c -0.198479,0.217818 -0.313495,0.498743 -0.321638,0.793917 l -0.34403,-0.07532 C 40.84025,53.858452 40.710984,53.548011 39.874318,53.643688 a 1.506405,1.506405 0 0 0 -1.254998,-0.664651 2.7919384,2.7919384 0 0 0 -1.254998,0.826488 1.6875807,1.6875807 0 0 0 -1.072805,0.289066 c -0.289067,0.23614 -0.449885,0.493653 -0.772541,0.611723 a 3.5522658,3.5522658 0 0 1 1.008681,-2.22093 z m 14.449274,-0.826487 c 0.708417,-0.08652 1.424978,0.06514 2.037718,0.429529 a 2.2290723,2.2290723 0 0 1 -2.037718,0.407136 3.3934826,3.3934826 0 0 1 0,-0.825469 z m 17.946576,3.787387 c -0.375583,-0.611723 -1.287569,-0.708418 -1.630581,-1.630582 a 1.9155772,1.9155772 0 0 1 0.0855,-1.717098 0.94659233,0.94659233 0 0 1 0.911986,-0.482457 c 0.461082,0.85804 0.675847,1.394443 0.621901,3.818941 z"
       fill="#e82c2a"
       id="path5"
       style="stroke-width:1.01784" />
    <path
       d="m 46.471965,43.818467 c -0.04784,0.503831 -0.0041,1.011734 0.128248,1.501315 a 1.6621347,1.6621347 0 0 1 -0.997484,-1.00868 h -0.213747 v -0.557777 a 2.0672355,2.0672355 0 0 0 -0.08652,-0.579152 1.570529,1.570529 0 0 0 -0.697222,-0.536402 1.9237199,1.9237199 0 0 0 -0.772541,0.06514 c -0.139444,-0.611723 0.890611,-1.502334 1.427013,-1.502334 a 1.6590812,1.6590812 0 0 0 0.85804,-0.246318 c 0.181176,0.142498 0.419351,0.19339 0.644294,0.139445 0.364387,-0.07532 0.600526,-0.50485 0.771524,-0.793917 0.185247,-0.309423 0.468207,-0.547598 0.805112,-0.675846 a 1.5298153,1.5298153 0 0 1 1.179678,0 4.647463,4.647463 0 0 1 -0.911986,0.439707 0.86211151,0.86211151 0 0 0 -0.600526,0.515028 c -0.11807,0.224943 -0.236139,0.461082 -0.289067,0.567955 -0.05395,0.107892 -0.140462,0.19339 -0.05395,0.19339 0.515028,-0.106873 0.515028,-0.503831 0.728775,-0.825469 0.173033,-0.224943 0.428511,-0.370494 0.708417,-0.408154 0.344031,-0.123159 0.680936,-0.266675 1.008681,-0.429529 a 3.2855914,3.2855914 0 0 0 1.179678,-0.922164 c 0.149622,-0.337924 0.222907,-0.703329 0.214764,-1.072805 A 1.1674639,1.1674639 0 0 0 51.28839,37.038626 c 0,-0.129266 -0.139444,-0.214764 0,-0.236139 0.139444,-0.02137 0.450903,0.106873 0.804094,0.106873 0.232068,0.0092 0.464136,-0.03461 0.675847,-0.128248 0.07532,0 0.247335,-0.15064 0.247335,0 0.0173,0.19339 0.0173,0.385762 0,0.579152 -0.02137,0.375583 0.203569,0.536402 0.449886,0.85804 -0.463118,0.346066 -0.640222,0.963896 -0.428511,1.502334 -0.643276,0.482457 -0.429529,0.750149 -0.429529,1.072804 -0.203568,0.03155 -0.47126,0.01018 -0.600526,0.246318 -0.128248,0.236139 0.172015,0.364387 0.429529,0.611723 0.229014,0.189318 0.423422,0.416297 0.57508,0.671775 a 0.46311775,0.46311775 0 0 1 0.389833,0.519099 0.58016949,0.58016949 0 0 0 0,-0.483475 1.3995317,1.3995317 0 0 0 -0.503831,-0.567955 c -0.290085,-0.19339 -0.429529,-0.429529 -0.364387,-0.600526 a 0.23410348,0.23410348 0 0 1 0.321637,-0.107892 c 0.07532,0.05395 0.07532,0 0,-0.106873 -0.07532,-0.107891 -0.107891,-0.182194 -0.107891,-0.751167 l -0.01018,-0.0112 a 2.9181508,2.9181508 0 0 1 2.57412,2.918151 6.9966405,6.9966405 0 0 1 -1.822953,4.806246 c -0.880433,1.072805 -3.036221,2.144591 -2.918151,4.537536 a 5.7874451,5.7874451 0 0 0 -2.724761,-0.172015 2.8530089,2.8530089 0 0 0 -0.93336,0.429529 c -0.128248,0.106873 -0.172016,0.213747 0.05394,0 a 3.2204496,3.2204496 0 0 1 1.286551,-0.365405 c 0.323674,0 0.64633,0.02137 0.965932,0.06514 0.354209,0 1.136928,0.213746 1.479941,0.278888 0.477367,0.133337 0.982217,0.133337 1.459584,0 0.516046,-0.118069 0.987306,-0.377619 1.361872,-0.751167 a 0.71248885,0.71248885 0 0 0 0.107891,-0.729792 1.6081891,1.6081891 0 0 1 0,-0.964913 1.2173381,1.2173381 0 0 1 1.254998,-0.4621 c 0.643276,0 2.820438,0 4.290201,-0.139444 a 12.3342,12.3342 0 0 0 3.218414,-0.536403 16.147033,16.147033 0 0 0 3.62555,-1.479941 c 0.429529,-0.300263 0.923182,-0.643275 1.233624,-0.85804 0.311459,-0.214764 0.751167,-0.697221 1.00868,-0.879415 a 1.211231,1.211231 0 0 1 0.815291,-0.321638 0.5333488,0.5333488 0 0 1 0.482457,0.278889 2.3104996,2.3104996 0 0 0 -1.351693,0.675846 2.6565656,2.6565656 0 0 0 -0.664651,1.662135 4.9914933,4.9914933 0 0 0 0,1.566458 0.69722123,0.69722123 0 0 0 0.396959,0.557777 c 0.184229,0.106873 0.401029,0.144533 0.611722,0.106873 a 0.89061106,0.89061106 0 0 1 0.750149,0.483475 3.1481829,3.1481829 0 0 0 -1.855524,0.643275 1.7873292,1.7873292 0 0 0 -0.536403,1.866721 c 0.172015,0.889593 0.429529,1.147107 0.90079,1.415817 0.472278,0.267692 1.072804,0.590348 1.072804,1.501316 a 3.9461704,3.9461704 0 0 0 -1.673331,-0.922164 1.7914005,1.7914005 0 0 0 -1.212248,0.579152 c -0.240211,0.335887 -0.354209,0.746077 -0.321638,1.158303 0.07532,0.475332 0.266674,0.925218 0.557777,1.308944 0.312477,0.492635 0.599508,1.000538 0.85804,1.523708 0.107891,0.321638 0.321638,0.536402 -0.214765,1.479941 A 2.7603854,2.7603854 0 0 0 66.124443,59.9085 c 0,-0.236139 -0.107891,-0.428511 -0.483474,-0.889593 A 12.342343,12.342343 0 0 0 62.294307,56.55166 34.003021,34.003021 0 0 0 57.68145,54.588244 3.2021285,3.2021285 0 0 1 56.501773,53.70883 c -0.0855,-0.160819 -0.139445,-0.08652 -0.0855,0 0.258532,0.509938 0.709435,0.896718 1.254998,1.072804 0.85804,0.385762 2.359356,0.889593 3.110523,1.233624 1.007663,0.473296 1.976647,1.025984 2.896776,1.651956 0.773559,0.425458 1.435156,1.02802 1.930845,1.75883 a 3.718174,3.718174 0 0 0 -2.14561,0.19339 3.1532721,3.1532721 0 0 0 -1.361871,1.330318 7.2541543,7.2541543 0 0 0 -0.408154,1.458566 c -0.02545,0.448868 -0.244282,0.86313 -0.600527,1.136929 A 6.0520839,6.0520839 0 0 0 60.91106,62.633261 c 0.04784,-0.246317 0.111962,-0.490599 0.192372,-0.728774 A 3.1298617,3.1298617 0 0 0 60.845919,60.456099 2.1425558,2.1425558 0 0 0 59.82706,59.383294 3.9899376,3.9899376 0 0 0 58.207674,58.932391 c -0.403065,0.04886 -0.799005,0.142497 -1.180695,0.278888 A 2.6769224,2.6769224 0 0 0 56.86616,57.441253 1.8840241,1.8840241 0 0 0 55.171454,56.797978 1.9338983,1.9338983 0 0 0 53.830957,57.33438 c -0.270746,0.350137 -0.443779,0.763381 -0.504849,1.201053 -0.03562,0.32978 0.01629,0.662614 0.15064,0.965931 -0.375583,0 -0.686025,-0.150641 -0.772541,-0.503831 -0.0855,-0.354209 -0.106873,-0.911986 -0.214765,-1.28757 a 2.5181392,2.5181392 0 0 0 -0.804094,-1.287569 1.8931847,1.8931847 0 0 0 -1.287569,-0.354208 1.2549982,1.2549982 0 0 0 -1.394443,1.480959 c -0.214764,0 -0.643275,-0.214765 -0.58933,-0.590348 0.05395,-0.306371 0.170998,-0.598491 0.343013,-0.858041 a 1.2346414,1.2346414 0 0 0 -0.107891,-1.072804 1.4514416,1.4514416 0 0 0 -1.373068,-0.793916 1.4432988,1.4432988 0 0 1 1.394442,-0.675847 2.4479081,2.4479081 0 0 1 1.866721,0.85804 c 0.214765,0.278889 0.644294,0.644294 0.890611,0.911986 a 3.4382676,3.4382676 0 0 1 1.24482,-1.555261 4.0754362,4.0754362 0 0 1 2.895758,-0.182194 C 55.2254,53.129678 54.95669,52.785648 55.074759,52.517955 c 0.11807,-0.26871 0.493653,-0.450903 1.427014,-0.214764 0,-0.428511 -0.106874,-0.85804 0.429529,-1.072805 a 11.518909,11.518909 0 0 1 3.400607,0.160819 c 1.459584,0.158783 2.930365,0.208658 4.398092,0.150641 a 9.4384416,9.4384416 0 0 0 2.144591,-0.408155 c 0.214765,-0.0743 0,-0.0855 -0.06412,-0.06412 a 26.823169,26.823169 0 0 1 -3.218414,0.257514 24.084159,24.084159 0 0 1 -3.496284,-0.300263 9.5717788,9.5717788 0 0 0 -3.046399,-0.160819 1.0035914,1.0035914 0 0 0 -0.793916,0.964914 c -0.568973,-0.0855 -0.987306,-0.0743 -1.287569,0.290084 a 0.96898483,0.96898483 0 0 0 -0.172015,0.890611 5.4383256,5.4383256 0 0 0 -2.273858,0.449886 2.256554,2.256554 0 0 0 -1.158303,1.394443 3.6072293,3.6072293 0 0 0 -2.714582,-1.608189 1.7710437,1.7710437 0 0 0 -1.8769,1.211231 c 0.600527,0 1.24482,0.107891 1.479941,0.536402 0.175069,0.232068 0.269728,0.51401 0.268711,0.805112 a 4.2067377,4.2067377 0 0 1 -0.246318,0.686025 c -0.172015,0.317567 -0.172015,0.702311 0,1.019877 -0.214764,0.213747 -0.644293,0.471261 -0.729792,0.58933 a 3.0229884,3.0229884 0 0 0 -1.072805,-0.07532 2.1578234,2.1578234 0 0 0 -0.751167,0.751167 c -0.192372,0.300263 -0.182193,0.450903 0,0.493653 0.182194,0.04275 0.450904,0 0.450904,0.236139 0,0.236139 -0.107891,0.289067 -0.364387,0.472278 0.41019,-0.0112 0.82038,0.04682 1.211231,0.170998 0.153694,0.07125 0.270746,0.203568 0.322656,0.365405 0,0.0855 0.0855,0.170997 -0.07532,0.246317 -0.197461,0.126212 -0.349119,0.315531 -0.429529,0.536402 a 2.0560393,2.0560393 0 0 0 0,0.697222 c -0.515027,0 -0.964913,-0.06412 -0.997484,0.214764 -0.03155,0.278889 0.160819,0.428511 0.354209,0.58933 0.124176,0.12723 0.257514,0.2453 0.396958,0.354209 a 1.0738225,1.0738225 0 0 0 -0.590348,0.644294 c 0,0.128248 -0.139444,0.0743 -0.214765,0 -0.0743,-0.07532 -0.407136,-0.183212 -0.58933,0 -0.182193,0.182193 -0.08652,0.643275 0,0.814272 a 2.0458608,2.0458608 0 0 0 -0.965931,0.472279 1.1633925,1.1633925 0 0 1 -0.750149,-1.072805 c 0.04173,-0.482457 0.128248,-0.959824 0.256496,-1.425995 a 1.6020821,1.6020821 0 0 0 0,-0.826487 c -0.152676,0.250389 -0.26871,0.521134 -0.343012,0.805112 v 1.018859 c -0.03054,0.160819 -0.07328,0.318584 -0.128248,0.471261 -0.375584,0 -0.675847,0 -0.836666,0.290084 a 0.79696967,0.79696967 0 0 1 -0.129266,-0.997484 c 0.359298,-0.710453 0.771524,-1.391389 1.233624,-2.038736 -0.160819,-0.503831 -0.278889,-0.750149 -0.04275,-1.211231 a 1.4728162,1.4728162 0 0 1 0,-1.212249 c 0.139445,-0.421386 0.248354,-0.850915 0.321638,-1.287569 a 8.8022908,8.8022908 0 0 1 1.202071,-2.252483 c 0.05293,-0.08652 0,-0.129266 0,-0.26871 0,-0.139444 -0.107891,-0.385762 0.321638,-0.697221 a 6.8704282,6.8704282 0 0 0 -1.630582,0.19339 3.8392971,3.8392971 0 0 0 -1.855525,0.879415 2.0031115,2.0031115 0 0 1 0.149623,-1.651957 3.1451293,3.1451293 0 0 1 1.105376,-0.729792 3.531909,3.531909 0 0 1 1.286551,-0.300263 c 0.446832,0.05395 0.84379,0.311459 1.072805,0.697221 0.07634,0.150641 0.120105,0.314513 0.129265,0.483475 0,0.170997 0.07532,0.170997 0.05293,0 a 5.6866789,5.6866789 0 0 1 0,-1.566458 4.9090482,4.9090482 0 0 1 0.536402,-1.587832 c 0.290085,-0.429529 0.675847,-0.85804 3.326306,-2.424498 a 18.84533,18.84533 0 0 0 2.520174,-1.609207 c 0.675847,-0.536402 1.502334,-1.394442 1.502334,-2.037718 a 1.2142846,1.2142846 0 0 0 -0.557777,-0.85804 0.51909902,0.51909902 0 0 0 0.170997,-0.214765 c -0.289067,-0.128248 -0.58933,-0.193389 -0.567955,-0.590348 a 0.46006423,0.46006423 0 0 1 -0.02646,-0.514009 0.69009634,0.69009634 0 0 0 -0.273799,0.353191 c -0.07532,0.300263 0.05293,0.482456 0.375583,0.772541 a 0.3877975,0.3877975 0 0 1 -0.429529,0.246318 c -0.482457,-0.09568 -0.600526,-0.567956 -0.85804,-0.910968 a 2.9731142,2.9731142 0 0 0 -0.836665,-0.805113 0.69009634,0.69009634 0 0 0 -0.858041,-0.06412 1.0778938,1.0778938 0 0 0 -0.675846,0.911986 c 0.03257,0.345048 0.123159,0.681954 0.267692,0.997484 0.107891,0.364388 0,0.472279 -0.19339,0.793917 -0.192372,0.321637 -0.331816,0.536402 -0.51401,0.536402 0.05089,-0.266674 0.08652,-0.534367 0.106874,-0.805112 a 2.7094933,2.7094933 0 0 0 -0.429529,-0.889594 1.4494059,1.4494059 0 0 0 -0.461082,-0.472278 0.81020161,0.81020161 0 0 0 -0.718596,0 c -0.128248,0.11807 -0.128248,0.203568 -0.128248,0.472278 0.314513,-0.134355 0.653454,-0.207639 0.997484,-0.214764 0.04784,0.08652 0.09059,0.176086 0.128248,0.267692 a 6.4408992,6.4408992 0 0 0 -1.469762,0.429529 0.44988582,0.44988582 0 0 1 0.139444,-0.343012 z M 36.409587,42.09119 c 0.06819,0.317566 0.104838,0.640222 0.107891,0.964913 0.06005,0.550653 0.189319,1.091126 0.385762,1.609207 a 7.3376173,7.3376173 0 0 0 1.502334,2.467248 9.5249581,9.5249581 0 0 0 2.552745,1.781222 c 0.795952,0.374565 1.620404,0.683989 2.467247,0.922164 -0.180157,0.120105 -0.341994,0.264639 -0.482456,0.429529 A 24.465849,24.465849 0 0 1 38.276308,48.709194 16.270192,16.270192 0 0 1 33.82427,45.5661 c -0.85804,-0.879415 -1.158303,-1.383246 -1.201052,-1.286551 -0.04275,0.09669 0.278888,0.503831 0.493653,0.793916 a 12.318932,12.318932 0 0 0 2.209733,2.145609 15.235047,15.235047 0 0 0 3.968563,2.144591 c 1.122679,0.453958 2.282,0.812238 3.464731,1.072805 a 1.2936762,1.2936762 0 0 0 0,0.579152 1.179678,1.179678 0 0 0 -0.385762,0.322655 30.765269,30.765269 0 0 0 -4.591481,-0.890611 20.404663,20.404663 0 0 1 -3.218414,-0.536402 8.2954059,8.2954059 0 0 1 -1.822954,-0.879415 c -0.311459,-0.118069 -0.85804,-0.19339 -0.568973,-0.06514 a 5.6999108,5.6999108 0 0 1 0.718596,0.290085 c 0.259549,0.201533 0.536402,0.380673 0.826487,0.536402 a 8.3768332,8.3768332 0 0 0 1.823971,0.536403 c 0.960843,0.16489 1.926774,0.297209 2.895759,0.396958 1.294694,0.15064 2.575138,0.402047 3.830136,0.751167 -0.06514,0.128248 -0.19339,0.289067 -0.257514,0.428511 a 7.6887725,7.6887725 0 0 0 -2.9609,0.214764 4.5151436,4.5151436 0 0 0 -1.609207,0.836666 1.852471,1.852471 0 0 0 -1.823971,-0.697221 3.704942,3.704942 0 0 0 -1.737455,1.072804 c -0.257514,0.278889 -0.547599,0.846844 -0.793916,0.364387 a 1.1939277,1.1939277 0 0 1 -0.450904,0.375584 0.57406244,0.57406244 0 0 1 0.172015,-0.78272 c 0.364387,-0.354209 0.536403,-0.472278 0.643276,-0.751167 a 3.5726227,3.5726227 0 0 0 0,-1.71608 2.6290839,2.6290839 0 0 0 -1.286551,-1.587833 c -0.729793,-0.321637 -1.341515,-0.439707 -1.630582,-0.568973 -0.290085,-0.128248 -0.611723,-0.47126 -0.901807,-0.47126 0.08652,-0.278889 0.4621,-0.332834 0.837683,-0.278889 0.448868,0.09975 0.913004,0.09975 1.361872,0 0.507902,-0.168961 0.876361,-0.616812 0.943538,-1.148125 A 2.1445914,2.1445914 0 0 0 32.172314,44.622561 C 31.829302,44.279549 31.593162,44.128908 31.292899,43.871394 30.992636,43.61388 30.907137,43.249493 30.799246,43.14262 30.692373,43.034729 30.477608,42.842357 30.370735,42.713091 a 0.89468243,0.89468243 0 0 1 1.072805,0 c 0.278888,0.203568 0.525206,0.654472 0.922164,0.815291 0.448868,0.168961 0.945574,0.168961 1.394442,0 0.751167,-0.160819 1.651957,-0.568973 1.823972,-1.233624 a 1.5471186,1.5471186 0 0 0 -0.214765,-1.308944 1.2448198,1.2448198 0 0 1 0,-1.243802 c 0.321638,0.664651 0.600527,1.361872 1.566458,1.201053 a 3.2143426,3.2143426 0 0 0 1.822953,-1.136929 c 0.254461,-0.390851 0.553706,-0.751166 0.890612,-1.072804 a 8.7147565,8.7147565 0 0 1 1.651956,-0.933361 4.647463,4.647463 0 0 0 1.609207,-1.254998 1.6774023,1.6774023 0 0 1 -0.643276,1.545083 10.695475,10.695475 0 0 0 -2.145609,2.595495 5.7334996,5.7334996 0 0 0 -0.568973,3.646925 5.9726922,5.9726922 0 0 0 4.570107,4.763497 c -0.107891,0.139444 -0.321638,0.354209 -0.429529,0.482457 a 11.577944,11.577944 0 0 1 -4.71973,-2.337981 6.634289,6.634289 0 0 1 -2.145609,-3.787387 c -0.106874,-0.567956 0,-1.01886 -0.396958,-1.361872 z m 12.250737,4.569089 c -0.07532,-0.235121 -0.385762,-0.428511 -0.729792,-0.05293 z m -7.852645,-5.019993 c 0.50892,-0.06209 1.014788,0.140462 1.341515,0.536403 0.364387,0.429529 0.300263,0.687042 0.718595,1.254998 0.244282,0.389833 0.532331,0.749131 0.858041,1.072805 -0.223925,0.08244 -0.459047,0.130283 -0.697222,0.139444 -0.172015,0 -0.590348,0.247335 -0.590348,0.590348 0,0.343012 0.268711,0.772541 1.072805,0.836665 a 4.2912186,4.2912186 0 0 0 2.145609,-1.072804 c 0.102802,0.108909 0.199497,0.223925 0.290085,0.343012 a 6.7126628,6.7126628 0 0 1 -1.609207,0.965931 1.8015789,1.8015789 0 0 1 -1.32014,0.139445 1.5094585,1.5094585 0 0 1 -1.072805,-1.448388 V 43.26069 A 1.2814621,1.2814621 0 0 0 41.62297,42.424024 c -0.203569,-0.232068 -0.05293,0 0,0.106873 0.100766,0.227997 0.166926,0.471261 0.19339,0.718596 v 0.965932 a 3.4810169,3.4810169 0 0 0 0.106873,1.555261 2.8438483,2.8438483 0 0 0 -0.428511,0.750149 2.8021169,2.8021169 0 0 1 -0.557777,-1.533887 c 0,-0.600526 0.321638,-1.651956 0.321638,-2.144591 a 2.4061766,2.4061766 0 0 0 -0.450904,-1.202071 z m 7.531007,3.175665 -0.02138,0.03155 a 3.1553078,3.1553078 0 0 1 0,0.783738 0.64531133,0.64531133 0 0 0 0.675847,-0.182194 c 0.276853,-0.281942 0.479403,-0.629026 0.58933,-1.00868 0.172015,-0.107892 0.483475,-0.343013 0.675847,-0.472279 0.346066,-0.249371 0.704346,-0.482457 1.072804,-0.697221 0.139444,0.170997 0.258532,0.35828 0.354209,0.557777 a 0.89366459,0.89366459 0 0 0 -0.536402,0.805112 c -1.008681,-0.15064 -1.09418,0.492636 -1.222428,0.922164 a 1.0158055,1.0158055 0 0 0 -1.180696,0.643276 c -0.482456,-0.343012 -0.879414,0.07532 -1.072804,0.247336 -0.353191,-0.515028 -0.600526,-0.38678 -0.815291,-0.300264 a 1.2570339,1.2570339 0 0 1 0.408154,-0.93336 1.6947056,1.6947056 0 0 1 1.072805,-0.396958 z m -2.918151,-0.236139 c 0.03562,0.07634 0.07532,0.149622 0.120105,0.221889 l 0.0092,0.01425 0.01018,0.02137 c -0.139444,0.160819 -0.396958,0.289067 -0.590347,0.428511 -0.240211,0.183211 -0.503832,0.33487 -0.78272,0.450903 -0.276853,0.143516 -0.593402,0.19339 -0.90079,0.139445 -0.107891,-0.07532 -0.139444,-0.07532 0,-0.07532 0.264639,0.02239 0.529278,-0.0458 0.751167,-0.192372 a 8.7259527,8.7259527 0 0 0 1.307926,-1.00868 z m 1.136929,-0.129266 a 4.9955647,4.9955647 0 0 1 1.630581,-0.471261 c 0.135373,0.161837 0.203569,0.368459 0.19339,0.579152 a 3.7273345,3.7273345 0 0 0 -1.748651,0.428511 3.9756878,3.9756878 0 0 1 -0.0855,-0.536402 z m 2.724761,-0.728774 c 0,0.149622 0.107891,0.354208 0.129266,0.47126 0.192372,-0.106873 0.492635,-0.321638 0.515027,-0.428511 0.02137,-0.106873 -0.214764,-0.106873 -0.644293,-0.04275 z m -3.196022,-0.19339 0.01018,0.0112 a 1.0789117,1.0789117 0 0 1 0.396958,-0.644293 c 0.187283,-0.123159 0.384744,-0.23105 0.590348,-0.321638 0.160819,-0.06412 0.257514,-0.0855 0.267692,-0.19339 0.0112,-0.106873 -0.170997,-0.236139 -0.343012,-0.289067 a 0.68704282,0.68704282 0 0 0 -0.19339,-0.461082 0.96185995,0.96185995 0 0 0 -0.728775,-0.129266 c 0.131302,0.119088 0.253443,0.248353 0.364388,0.38678 a 0.67381088,0.67381088 0 0 0 -0.214765,0.106873 c 0.278889,0.04275 0.429529,0.160819 0.429529,0.321638 -0.305352,0.116034 -0.55167,0.347084 -0.687043,0.643276 -0.06412,0.332834 0,0.462099 0.107891,0.568973 z m 3.539034,-1.082983 a 0.66770384,0.66770384 0 0 1 0.880433,0 c 0.170997,0.139444 0.449886,0.449886 0.536402,0.51401 a 1.6875807,1.6875807 0 0 1 -0.579151,0.386779 C 50.31228,43.02455 49.969268,42.509523 49.625237,42.455577 Z m -5.330434,-0.08652 c 0.19339,10e-4 0.38678,0.01527 0.579152,0.04275 0.03868,-0.173033 0.103819,-0.338942 0.192371,-0.492636 A 0.64123996,0.64123996 0 0 0 44.4658,42.01587 c -0.166926,0.13639 -0.170997,0.210693 -0.170997,0.343012 z m 0,0 h -0.0112 l 0.0112,0.0112 z m 7.583935,-3.110522 c -0.101784,0.01629 -0.202551,0.04173 -0.300263,0.07532 -0.182194,0.05903 -0.346066,0.157765 -0.483475,0.289067 a 5.6245905,5.6245905 0 0 1 -0.536402,0.375583 c -0.232068,0.121123 -0.488564,0.187283 -0.750149,0.19339 -0.272782,0.03054 -0.54251,0.08448 -0.805113,0.160819 a 0.9211463,0.9211463 0 0 0 -0.375583,0.257514 c -0.07532,0.177104 -0.168962,0.346066 -0.278889,0.503831 A 1.1776423,1.1776423 0 0 1 47.62009,41.53341 c -0.05394,-0.07532 -0.107891,-0.04275 -0.06514,0 l -0.01018,0.02137 c 0.128248,0.160819 0.493653,0.06412 0.707399,0.128248 v 0.08652 c 0.137409,-0.07023 0.281943,-0.128248 0.429529,-0.172015 0.150641,-0.06412 0.503832,-0.214764 0.675847,-0.290085 0.222907,-0.05191 0.43869,-0.131301 0.643276,-0.235121 0.160819,-0.07532 0.160819,-0.129266 0.160819,-0.354209 a 0.72266726,0.72266726 0 0 1 0.15064,-0.365405 c 0.06412,-0.0855 0.214765,-0.128248 0.236139,-0.06412 0.02137,0.06412 0.07532,0 0.128248,0 l 0.247336,-0.354209 c 0.135373,-0.175068 0.298227,-0.326727 0.482456,-0.449885 0.14148,-0.09669 0.295174,-0.174051 0.455993,-0.23105 z m -3.090166,1.952219 0.0112,0.0112 a 0.4397074,0.4397074 0 0 0 0.214765,0.139444 0.2198537,0.2198537 0 0 1 -0.139445,0.06412 0.49467083,0.49467083 0 0 1 -0.321638,-0.15064 0.14860482,0.14860482 0 0 1 0,-0.214765 c 0.05293,-0.04275 0.111963,-0.199496 0.128248,-0.106873 a 0.66057895,0.66057895 0 0 0 0.106874,0.257514 z m 0.04377,-0.503831 a 0.21374665,0.21374665 0 0 1 0.267692,-0.150641 0.38677966,0.38677966 0 0 1 0.278889,0.290085 c 0,0.170997 0.05394,0.428511 -0.214765,0.493653 a 1.5461008,1.5461008 0 0 0 0,-0.375584 c 0,-0.107891 -0.128248,-0.139444 -0.170997,-0.183211 z m 2.64028,-0.502814 -0.01221,-0.02341 -0.0112,0.02137 0.02341,0.002 a 0.47431401,0.47431401 0 0 0 0.201533,0.191354 c 0.104837,0.05293 0.20255,0.117052 0.290084,0.19339 0.106874,0.106873 0.182194,0.02138 0.182194,0 v -0.278889 c 0,-0.107891 -0.128248,-0.107891 -0.214765,-0.107891 -0.152676,0.01425 -0.305352,0.01527 -0.459046,0.002 z M 49.229297,37.17807 v -0.0112 c 0.03155,-0.0743 0.03155,-0.106873 0.05293,-0.02137 0.02137,0.08652 0.07532,0.300263 0.129266,0.600526 0.05293,0.301281 0.428511,0.483474 0.836665,0.483474 a 7.4027591,7.4027591 0 0 0 -0.450904,1.072805 9.3967101,9.3967101 0 0 0 -1.266194,0.05293 1.2417663,1.2417663 0 0 0 -0.374566,-0.7074 c 0,-0.04275 -0.07532,-0.107891 0,-0.107891 a 2.1517163,2.1517163 0 0 0 1.072805,-1.361872 z m 2.349178,1.265177 0.01018,0.31146 c -0.06412,0 -0.03155,0.03257 0,0 0.03257,-0.03257 0.09669,-0.11807 0.160819,-0.172016 l 0.429529,-0.503831 c 0.151658,-0.162855 0.284995,-0.343013 0.396958,-0.536402 0,-0.106874 0.05293,-0.214765 0,-0.343013 -0.05395,-0.129266 -0.172015,-0.106873 -0.300263,0 a 1.4076744,1.4076744 0 0 0 -0.344031,0.450904 21.934478,21.934478 0 0 0 -0.35319,0.792898 z m 0.525206,0.107891 c -0.03257,0.07532 0.03257,0.02137 0.03257,0.02137 l 0.149622,-0.07532 a 3.7558341,3.7558341 0 0 0 0.429529,-0.214765 c 0.0855,-0.05293 0.214765,-0.106873 0.214765,-0.213746 0,-0.107892 -0.08652,-0.129266 -0.19339,-0.107892 -0.107891,0.02137 -0.247336,0.150641 -0.321638,0.23614 -0.07532,0.0855 -0.322656,0.278888 -0.322656,0.354208 z"
       fill="#ffffff"
       id="path6"
       style="stroke-width:1.01784" />
    <path
       d="m 53.809583,59.16853 c 0.411207,-0.439708 0.839719,-0.862112 1.286551,-1.265177 l 0.859058,-0.751167 a 1.8229536,1.8229536 0 0 0 -1.856543,0.396959 2.0397538,2.0397538 0 0 0 -0.289066,1.630581 z m -1.684528,-1.630582 c 0.343013,0.826487 0.106874,1.427014 0.515028,1.855525 a 3.5237663,3.5237663 0 0 0 -0.890611,0.290085 1.442281,1.442281 0 0 1 -0.66465,0.267692 0.47227832,0.47227832 0 0 1 -0.354209,-0.170998 5.7772667,5.7772667 0 0 0 1.394442,-2.252482 z m -1.823971,-1.201052 c 0.493653,0 1.266194,0.07532 1.480959,0.751166 0.09466,0.318585 0.07125,0.661597 -0.06412,0.964914 a 5.5971088,5.5971088 0 0 1 -1.212249,1.587832 1.8443283,1.8443283 0 0 1 -1.287569,0.697221 1.6977591,1.6977591 0 0 1 -0.729792,-0.106873 6.2953479,6.2953479 0 0 0 1.469762,-2.092681 c 0.223925,-0.571009 0.343013,-1.177643 0.354209,-1.791401 z m -3.571605,3.486106 c 0.385762,0.02239 0.731828,0.253442 0.90079,0.600526 0.44785,-0.238175 0.848879,-0.558795 1.179677,-0.943539 0.343013,-0.450903 0.631062,-0.941503 0.859058,-1.459584 a 4.9365299,4.9365299 0 0 0 0.321638,-1.630582 0.80714808,0.80714808 0 0 0 -0.751167,0.568974 1.3211579,1.3211579 0 0 0 0,0.611722 c 0.07227,0.0061 0.142498,0.0061 0.214765,0 a 0.74913113,0.74913113 0 0 1 -0.536402,0.170998 0.84887957,0.84887957 0 0 1 -0.450904,-0.106874 c -0.600526,0.408155 -0.85804,0.590348 -0.964913,0.804095 -0.107892,0.214764 -0.536403,0.911985 -0.783738,1.373068 z m 0.643276,-1.555262 a 1.8616316,1.8616316 0 0 0 -0.879415,0 1.788347,1.788347 0 0 0 -0.568973,0.579152 c -0.106874,0.150641 -0.139445,0.321638 0.07532,0.321638 0.214764,0 0.300263,0 0.365405,0.139444 0.06107,0.112981 0.09873,0.237157 0.106873,0.364387 0.224943,-0.233085 0.406119,-0.505867 0.536403,-0.804094 a 5.6999108,5.6999108 0 0 1 0.364387,-0.611723 z m 0.139444,2.670816 c 0.338941,0.222907 0.602562,0.544545 0.751167,0.922164 0.233085,0.421386 0.271763,0.922164 0.106873,1.373068 a 2.968025,2.968025 0 0 0 -0.7074,-1.071787 1.3537288,1.3537288 0 0 0 -0.375583,-0.183212 c -0.15064,0 -0.214764,0 -0.214764,-0.213746 a 0.81630865,0.81630865 0 0 1 0.429529,-0.815291 z m -0.750149,2.499818 a 0.83870116,0.83870116 0 0 0 -0.493653,0.579151 c 0.48551,0.281942 0.921146,0.645312 1.286551,1.072805 A 1.7964897,1.7964897 0 0 0 46.76205,63.427178 Z m -1.534905,1.469762 c 0.230033,0.558795 0.600527,1.049395 1.072805,1.425996 A 2.2005727,2.2005727 0 0 1 44.884133,65.99112 2.3898912,2.3898912 0 0 1 44.434247,65.261327 c 0.218836,-0.200514 0.497724,-0.324691 0.792898,-0.353191 z m -2.788885,0.06412 a 0.37660125,0.37660125 0 0 1 0,-0.450903 c 0.08652,-0.128248 0.214765,-0.214765 0.751167,-0.182194 0.09364,0.577116 0.313495,1.12675 0.643276,1.609207 A 1.6997948,1.6997948 0 0 1 42.43826,64.982439 Z m -7.36917,-8.871504 a 1.7964897,1.7964897 0 0 0 1.008681,1.75883 4.4428769,4.4428769 0 0 1 -0.150641,-1.072805 v -0.997484 a 1.0117342,1.0117342 0 0 0 -0.85804,0.321638 z m 0.825469,-0.525206 a 1.3557645,1.3557645 0 0 0 -0.825469,0.256496 0.75727386,0.75727386 0 0 1 0.739971,-0.879414 h 0.0112 c -0.01832,0.2168 0.0041,0.435636 0.06412,0.644293 z m 0.429529,0.353191 c 0,-0.236139 0,-0.257514 0.182194,-0.353191 a 0.775595,0.775595 0 0 1 0.944557,0.246318 c -0.216801,0.321638 -0.356245,0.689078 -0.408155,1.072805 0,0.354208 -0.128248,0.686025 -0.19339,0.686025 a 1.5807074,1.5807074 0 0 1 -0.407136,-0.836666 c -0.07532,-0.47126 -0.107891,-0.7074 -0.107891,-0.815291 z m 1.694706,-0.04275 c 0,0 -0.472278,0 -0.611723,0.450904 -0.101784,0.353191 -0.183211,0.711471 -0.246317,1.072804 0,0.214765 0,0.214765 0.15064,0 0.203569,-0.180158 0.383726,-0.386779 0.535385,-0.611722 0.161837,-0.150641 0.429529,-0.590348 0.19339,-0.90079 z m 0.236139,-0.06412 c 0.110945,0.365405 0.04275,0.763381 -0.182193,1.072805 a 3.5146057,3.5146057 0 0 1 -0.644294,0.707399 c 0.278889,0 0.4621,0 0.93336,-0.353191 0.357263,-0.256496 0.639205,-0.605615 0.815291,-1.00868 a 0.86211151,0.86211151 0 0 0 -0.93336,-0.429529 z m 0.815291,1.737455 c 0.02748,0.264639 -0.03664,0.529277 -0.182194,0.751167 -0.165908,0.264638 -0.352173,0.516045 -0.557777,0.751167 0.319602,0.02646 0.635133,-0.09262 0.85804,-0.321638 0.304335,-0.261585 0.522153,-0.609687 0.621901,-0.998502 A 1.3985138,1.3985138 0 0 0 39.059028,57.549145 Z M 38.93078,57.280434 a 0.7532025,0.7532025 0 0 1 0.354208,-0.750149 c 0.321638,-0.161836 0.493653,-0.161836 0.58933,-0.34403 0.09669,-0.182193 0,-0.493653 0,-0.643276 0,-0.15064 0.247336,-0.129265 0.290085,-0.429529 0.04275,-0.300263 -0.106873,-0.321637 -0.160819,-0.428511 -0.07125,0.508921 -0.296191,0.984253 -0.644293,1.361872 A 1.5002979,1.5002979 0 0 0 38.07274,55.467659 c 0.04987,-0.263621 0.172015,-0.50892 0.354208,-0.707399 0.149623,-0.183212 0.289067,-0.26871 0.321638,-0.472279 0.03155,-0.203568 0,-0.129266 -0.182193,0 a 8.6943996,8.6943996 0 0 0 -0.644294,0.697221 1.6244746,1.6244746 0 0 0 -0.214764,0.503832 1.416835,1.416835 0 0 0 -0.804095,-0.278889 1.333372,1.333372 0 0 0 -0.675847,0.214765 0.538438,0.538438 0 0 1 -0.106873,-0.66465 c 0.29212,-0.407137 0.755238,-0.659562 1.254998,-0.687043 0.204586,-0.287031 0.477368,-0.519099 0.793916,-0.675847 0.29721,-0.145551 0.64633,-0.145551 0.943539,0 0.300263,0.160819 0.557777,0.429529 0.536403,0.536403 0.314512,-0.01527 0.628008,0.05903 0.900789,0.214764 a 0.74913113,0.74913113 0 0 1 0.19339,0.515028 c 0.214764,0 0.343012,0.06412 0.515028,0.0855 -0.001,0.237157 0.03562,0.472279 0.106873,0.697222 0.04682,0.166926 0.06514,0.340976 0.05394,0.515027 a 0.95066369,0.95066369 0 0 1 -0.128248,0.428511 c -0.04377,0.129266 -0.15064,0.408155 -0.429529,0.365405 -0.07532,0 -0.05394,0 0,-0.278888 0.05395,-0.278889 0,-0.321638 -0.106873,-0.321638 -0.107891,0 -0.183211,0 -0.278888,0.182194 a 2.4183907,2.4183907 0 0 0 -0.23614,0.643275 c 0,0.19339 0,0.461082 -0.172015,0.600527 -0.172015,0.139444 -0.07532,0 -0.214764,-0.0743 a 2.538496,2.538496 0 0 0 -0.889593,-0.183211 z m 4.043883,2.22093 c 0.057,-0.362352 0.139444,-0.720632 0.247335,-1.072805 0.0855,-0.321638 0.246318,-0.965931 0.428511,-1.502333 A 1.2672123,1.2672123 0 0 0 42.82504,57.4097 c -0.276853,0.290085 -0.437672,0.671775 -0.450904,1.072805 -0.02036,0.430547 0.22189,0.833612 0.611723,1.018859 z m -0.836666,-1.427013 c 0.125195,-0.364388 0.33487,-0.696204 0.611723,-0.964914 0.290085,-0.250389 0.636151,-0.427493 1.008681,-0.515028 0.239192,-0.428511 0.49976,-0.844808 0.782719,-1.244819 a 0.90078947,0.90078947 0 0 1 0,-0.557777 3.4606601,3.4606601 0 0 0 -1.651956,0.247335 2.4519795,2.4519795 0 0 0 -1.179678,0.997484 c -0.203568,0.317567 -0.280924,0.701293 -0.214764,1.072805 0.05598,0.403065 0.293138,0.75931 0.643275,0.964914 z M 42.009749,53.32205 a 5.1808118,5.1808118 0 0 1 2.337982,-0.825469 c 0.377619,0 0.740988,0.14148 1.018859,0.396958 0,-0.365405 0.172015,-0.836666 0.15064,-0.965932 a 1.2712837,1.2712837 0 0 0 -0.536402,-0.751166 2.0082007,2.0082007 0 0 0 -1.609207,-0.05293 c -0.382708,0.09262 -0.722667,0.312477 -0.964914,0.621901 a 4.0459188,4.0459188 0 0 0 -0.396958,0.751167 2.3919269,2.3919269 0 0 0 0,0.825469 z m 1.072805,-2.391927 A 3.2204496,3.2204496 0 0 1 44.77726,50.82325 c 0.361333,0.101784 0.668721,0.340977 0.85804,0.66465 0.214764,-0.428511 0.428511,-0.879415 0.536402,-1.072805 a 0.44988582,0.44988582 0 0 0 0.04275,-0.515027 1.070769,1.070769 0 0 0 -0.557777,-0.643276 1.6417779,1.6417779 0 0 0 -1.136928,0 2.6962614,2.6962614 0 0 0 -0.933361,0.621901 c -0.298227,0.271764 -0.478385,0.649383 -0.503831,1.05143 z m 1.394442,-1.898274 a 2.2290723,2.2290723 0 0 1 1.609207,0.170998 c 0.396958,0.321637 0.471261,0.450903 0.492636,0.751166 a 9.7641508,9.7641508 0 0 1 1.480959,-1.072804 1.448388,1.448388 0 0 0 -0.751167,-0.729792 2.2809822,2.2809822 0 0 0 -1.361872,-0.139445 2.4957467,2.4957467 0 0 0 -1.12675,0.429529 1.076876,1.076876 0 0 0 -0.321638,0.590348 z m 1.716081,-1.469762 a 3.0026316,3.0026316 0 0 1 2.360373,1.072804 c 0.428512,-0.214764 1.071787,-0.601544 1.329301,-0.751167 A 0.83768332,0.83768332 0 0 0 49.669004,47.175307 1.5104764,1.5104764 0 0 0 48.745822,46.88624 c -0.434618,-0.08652 -0.877379,-0.115016 -1.319122,-0.08652 -0.325709,-10e-4 -0.640222,0.122141 -0.879415,0.344031 -0.138426,0.109927 -0.255478,0.244282 -0.34403,0.396958 z m 2.724761,-0.858041 a 1.8229536,1.8229536 0 0 1 1.501315,0.78272 11.682781,11.682781 0 0 0 1.523709,-1.00868 1.1460892,1.1460892 0 0 0 -0.729792,-0.82547 2.6636905,2.6636905 0 0 0 -0.964914,-0.321637 0.70841748,0.70841748 0 0 0 -0.107891,0.385761 c -0.428511,0 -0.7074,0 -0.910968,0.160819 a 0.96694915,0.96694915 0 0 0 -0.322656,0.450904 v 0.343012 z m 1.512512,-1.577653 c 0.428511,0.07328 0.841754,0.217818 1.222427,0.429528 0.242246,0.159802 0.434618,0.381691 0.557777,0.643276 0.250389,-0.108909 0.457011,-0.298227 0.590348,-0.536402 0.226978,-0.247336 0.387797,-0.550652 0.461082,-0.879415 0,-0.278888 -0.05293,-0.461082 -0.515028,-0.729792 -0.213746,0.139444 -0.449886,0.34403 -1.007663,0 A 0.64938269,0.64938269 0 0 0 51.385085,44.8587 c -0.515028,-0.02137 -0.879415,0.0855 -0.965932,0.278889 z m 13.741874,3.078969 a 5.3711481,5.3711481 0 0 0 -4.398092,-2.273857 c -1.180696,0 -3.508499,0.793916 -3.508499,2.509996 -0.02137,0.323674 0.03766,0.648365 0.172016,0.943539 0.134355,0.03155 0.269727,0.04987 0.407136,0.05395 a 1.2163202,1.2163202 0 0 1 0,-1.233624 1.1776423,1.1776423 0 0 0 -0.267692,0 0.72979215,0.72979215 0 0 1 0.364387,-0.321638 c 0.16489,-0.0967 0.347084,-0.158783 0.536402,-0.182193 -0.255478,0.225961 -0.44785,0.51401 -0.557777,0.836665 a 0.81732649,0.81732649 0 0 0 0.172015,0.879415 c 0.152677,0.01527 0.307388,0.01527 0.461082,0 -0.106873,-0.236139 -0.321637,-0.450904 -0.214764,-0.78272 0.107891,-0.332834 0.182194,-0.579151 0.751167,-0.85804 0.149622,-0.09161 0.318584,-0.15064 0.493653,-0.172015 0.106873,0 0.0855,0 0,0.06412 a 3.115612,3.115612 0 0 0 -0.536403,0.343012 1.3384612,1.3384612 0 0 0 -0.396958,0.665668 0.7532025,0.7532025 0 0 0 0.160819,0.729793 c 0.19339,0.01527 0.385762,0.01527 0.579152,0 a 1.3852819,1.3852819 0 0 1 -0.106873,-0.644294 0.84887957,0.84887957 0 0 1 0.343012,-0.428511 c 0.252425,-0.204586 0.529278,-0.373548 0.825469,-0.504849 a 0.9262355,0.9262355 0 0 1 0.4621,0.300263 0.63106155,0.63106155 0 0 0 -0.365405,-0.149623 1.7089554,1.7089554 0 0 0 -0.503831,0.278889 c -0.278889,0.19339 -0.493653,0.354209 -0.493653,0.557777 -0.001,0.181175 0.02036,0.361333 0.06412,0.536402 H 59.2591 c 0,-0.214764 0.106874,-0.429529 0.257514,-0.493653 0.149623,-0.06412 0.0855,0 0,0.07532 a 0.52927743,0.52927743 0 0 0 -0.05394,0.396958 c 0.359298,0.0092 0.719613,-0.02036 1.072804,-0.08652 a 0.85804014,0.85804014 0 0 0 -0.644293,-0.428511 c 0,-0.07532 0.107891,-0.139445 0.322655,-0.129266 a 0.77152364,0.77152364 0 0 1 0.643276,0.450904 7.9859822,7.9859822 0 0 0 2.091664,-0.536403 6.3258831,6.3258831 0 0 0 -1.630582,-1.469762 5.5146637,5.5146637 0 0 0 -2.734939,-0.643276 c 0.136391,-0.09059 0.289067,-0.151658 0.449886,-0.182194 a 2.5089786,2.5089786 0 0 1 1.072804,0 c 0.535385,0.172015 1.055502,0.38678 1.555262,0.643276 a 8.6129723,8.6129723 0 0 1 1.845346,1.523708 c 0.230032,-0.06921 0.451921,-0.158783 0.665668,-0.26871 z m 3.689674,-8.978377 a 6.2169741,6.2169741 0 0 1 -2.734939,0.751167 4.7869072,4.7869072 0 0 1 -2.2535,-0.751167 5.5930375,5.5930375 0 0 0 -1.770026,-0.675847 c 0.32062,0.234104 0.579151,0.54251 0.751166,0.90079 0.138427,0.335887 0.07634,0.722667 -0.160818,0.997484 0.542509,0.195426 1.109446,0.317567 1.684527,0.365405 0.515027,0.03155 1.029037,0.03155 1.544065,0 0.26871,0 0.290085,0 0,0.0743 a 4.9538332,4.9538332 0 0 1 -1.780204,0.15064 9.1402141,9.1402141 0 0 1 -2.413302,-0.600526 c -0.793916,-0.300263 -1.330318,-0.515028 -1.459584,-0.579152 -0.128248,-0.06514 -0.246318,-0.05395 -0.643276,0.0743 -0.450904,0.168962 -0.854986,0.440726 -1.179678,0.793917 a 1.5369402,1.5369402 0 0 0 -0.161837,1.577654 c 0.199497,0.397975 0.529278,0.715542 0.933361,0.900789 a 3.9644915,3.9644915 0 0 0 1.641778,0.257514 3.3486976,3.3486976 0 0 1 -1.437192,-0.772542 1.4779054,1.4779054 0 0 1 -0.4621,-1.136928 c 0.05395,-0.450904 0.290085,-0.793916 1.287569,-0.718596 0.997485,0.0743 2.273857,0.47126 2.338999,1.201052 0,0.408155 -0.472278,0.665669 -0.772541,0.836666 -0.300263,0.172015 -0.343013,0.172015 -0.107891,0.278888 0.341994,0.13232 0.710453,0.176087 1.072804,0.129266 a 6.954909,6.954909 0 0 0 2.306428,-0.675846 9.7834897,9.7834897 0 0 0 2.403124,-1.684528 5.1299197,5.1299197 0 0 0 1.362889,-1.663152 z m -10.083753,0.804094 c -0.536402,0.346066 -0.876361,0.929289 -0.911985,1.566458 0.08346,0.621901 0.416297,1.184767 0.923182,1.555261 a 2.7970277,2.7970277 0 0 0 1.86672,0.472279 c 1.072805,0 2.724761,-0.129266 3.6683,0.911985 0.943539,1.040234 1.072805,1.888096 0.354209,2.767511 a 6.4286851,6.4286851 0 0 0 -2.091664,-1.373068 c -0.15064,-0.321638 -0.386779,-0.590348 -1.180696,-0.697221 a 7.7040401,7.7040401 0 0 1 -3.056577,-0.85804 2.8173845,2.8173845 0 0 1 -1.533886,-2.445873 2.0540036,2.0540036 0 0 1 1.962397,-1.930845 z m -6.414435,24.83329 a 5.397612,5.397612 0 0 0 -1.609207,0 2.153752,2.153752 0 0 0 -0.987306,0.697222 0.96694915,0.96694915 0 0 0 0.107891,1.072804 c 0.07328,-0.308406 0.220872,-0.596455 0.428511,-0.836665 a 2.6311195,2.6311195 0 0 1 1.469763,-0.364387 c 0.150641,0.259549 0.359298,0.480421 0.611723,0.643275 0.175068,-0.386779 0.166926,-0.831576 -0.02137,-1.212249 z m 0.236139,1.308944 a 1.8870776,1.8870776 0 0 0 0,-1.501316 1.416835,1.416835 0 0 1 1.201053,0 c 0.375583,0.182194 0.66465,0.354209 1.072805,0.214765 0.324691,-0.158783 0.662614,-0.291103 1.00868,-0.396958 0.265657,0.03868 0.53742,0.01527 0.793916,-0.06514 0.357263,-0.126212 0.696204,-0.299245 1.007663,-0.515028 a 2.4428189,2.4428189 0 0 1 1.072805,-0.343012 c 0.238175,-0.0061 0.473296,-0.04987 0.697221,-0.128248 0.107891,0 0.129266,-0.150641 -0.0855,-0.107891 a 2.455033,2.455033 0 0 1 -0.675846,0.107891 H 56.78066 a 3.7171561,3.7171561 0 0 0 -0.964913,-0.19339 c -0.443779,0.01934 -0.883487,0.09161 -1.308944,0.214764 -0.300263,0.0855 -1.008681,0.343013 -1.158304,0.214765 -0.15064,-0.129266 -0.183211,-0.396958 -0.290084,-0.590348 -0.106874,-0.19339 -0.354209,-0.590348 -0.493653,-0.793916 -0.139445,-0.203568 0,-0.343013 0,-0.611723 0.111962,-0.364387 0.281942,-0.708417 0.504849,-1.018859 0.289067,-0.428511 0.750149,-0.987306 0.910968,-1.254998 0.325709,-0.421386 0.685007,-0.816309 1.072804,-1.179678 0.247336,-0.214764 0.836666,-0.729792 1.072805,-0.965931 0.371512,0.236139 0.610705,0.634115 0.644294,1.072804 0.05394,0.391869 -0.0051,0.789845 -0.172016,1.148125 a 5.6418938,5.6418938 0 0 1 1.630582,-0.321638 c 0.381691,-0.002 0.755238,0.109927 1.072805,0.321638 a 2.5669955,2.5669955 0 0 1 -1.202071,1.383247 2.7379929,2.7379929 0 0 1 -0.910968,0.322655 c -0.247335,0 -0.751166,0.106873 -1.072804,0.160819 a 4.7329616,4.7329616 0 0 0 -0.644294,0.192372 c -0.106873,0 -0.182193,0.150641 0,0.107891 0.254461,-0.07023 0.511974,-0.124176 0.772542,-0.160819 a 8.6211151,8.6211151 0 0 1 1.179678,-0.06514 c 0.366423,-0.02748 0.733863,0.03155 1.072804,0.172016 0.322656,0.182193 0.579152,0.472278 1.072805,0.493653 0.493653,0.02137 1.072805,-0.05395 1.12675,0.0855 0.122141,0.181176 0.122141,0.419351 0,0.600527 a 0.97000268,0.97000268 0 0 1 0.106873,0.718596 c -0.03969,0.265656 -0.162854,0.509938 -0.354208,0.697221 0.386779,-0.04173 0.742006,-0.234104 0.987306,-0.535385 0.269728,-0.324691 0.436654,-0.719613 0.482456,-1.137946 0.01629,-0.229014 0.09059,-0.449886 0.214765,-0.643276 0.107891,-0.0855 0.278888,-0.172015 0.364387,0 0.215782,0.400012 0.354209,0.836666 0.408154,1.287569 a 1.3985138,1.3985138 0 0 1 -0.590347,1.136929 3.147165,3.147165 0 0 1 -1.640761,0.675846 3.4891597,3.4891597 0 0 0 -1.641777,0.567956 c -0.385762,0.322656 -0.643276,0.708417 -0.90079,0.965931 -0.257514,0.257514 -0.643275,0.236139 -0.804094,0.364387 -0.160819,0.129266 -0.290085,0.515028 -0.450904,0.644294 -0.160819,0.128248 -0.568973,0.139444 -0.697221,0.278888 -0.129266,0.139445 0,0.321638 -0.214765,0.718596 -0.109927,0.185247 -0.264639,0.339959 -0.450903,0.449886 -0.0855,0 -0.170998,0 -0.235122,-0.106873 a 0.82648707,0.82648707 0 0 0 -0.708417,-0.267693 c 0.20255,0.2453 0.332834,0.54251 0.375583,0.858041 a 1.1328573,1.1328573 0 0 0 -0.321638,0.771523 c 0.05904,0.256496 0.176087,0.494671 0.343013,0.698239 A 0.70231044,0.70231044 0 0 1 54.238094,70.561227 1.5725647,1.5725647 0 0 1 53.916456,69.73474 1.0728046,1.0728046 0 0 1 54.163791,68.983573 2.5598707,2.5598707 0 0 1 53.949027,68.05123 c 0.124176,-0.224943 0.296192,-0.418333 0.503831,-0.568973 0.129266,-0.106873 0.343013,-0.214765 0.429529,-0.300263 0.111963,-0.163873 0.233086,-0.321638 0.364387,-0.472279 0.181176,-0.144533 0.389833,-0.25446 0.611723,-0.321637 0.321638,-0.106874 0.85804,-0.321638 1.007663,-0.364388 0.209675,-0.140462 0.401029,-0.30637 0.568973,-0.493653 0.142498,-0.138426 0.304334,-0.25446 0.482457,-0.343012 0.300263,-0.129266 0.129265,-0.172015 -0.05293,-0.129266 -0.227997,0.07939 -0.437672,0.199497 -0.622919,0.354209 a 3.7069777,3.7069777 0 0 1 -0.78272,0.536402 4.3309144,4.3309144 0 0 1 -0.890611,0.321638 0.83259411,0.83259411 0 0 0 -0.611722,0.321638 1.9440767,1.9440767 0 0 1 -0.600527,0.697221 c -0.300263,0.214765 -0.728774,0.429529 -0.686025,1.072805 -0.218836,0.0041 -0.435636,0.04071 -0.644293,0.107891 a 3.0993265,3.0993265 0 0 0 -0.428511,-0.675847 0.53945584,0.53945584 0 0 0 -0.278889,0 c -0.09161,0.02341 0,0.06412 0,0.139445 a 0.44581445,0.44581445 0 0 1 0.106873,0.385761 c 0,0.106874 -0.07532,0.150641 -0.170997,0.246318 A 3.4535352,3.4535352 0 0 0 51.545904,69.638045 1.2295522,1.2295522 0 0 1 51.28839,68.56524 c 0.138426,-0.397976 0.357262,-0.762363 0.643275,-1.071787 0,-0.375583 0,-0.536402 0.183212,-0.708417 0.188301,-0.208658 0.413243,-0.378637 0.66465,-0.503832 l 0.85804,-0.19339 a 0.7532025,0.7532025 0 0 0 0.675847,-0.386779 1.0789117,1.0789117 0 0 1 1.072805,-0.471261 2.4224621,2.4224621 0 0 0 1.212248,-0.214764 c 0.305353,-0.143516 0.587295,-0.331816 0.836666,-0.557777 0.106873,-0.106873 0,-0.129266 -0.106873,-0.05395 -0.287032,0.158783 -0.584241,0.295174 -0.890611,0.408155 a 2.0428073,2.0428073 0 0 1 -0.965932,0.160818 c -0.428511,0 -0.536402,-0.107891 -0.85804,0.106874 -0.25446,0.198479 -0.493653,0.413243 -0.718596,0.644293 a 2.147645,2.147645 0 0 1 -0.772541,0.289067 4.7217654,4.7217654 0 0 1 -1.501316,0.139444 z"
       fill="#ffffff"
       id="path7"
       style="stroke-width:1.01784" />
    <path
       d="m 48.081172,86.608511 c -0.172015,0.429529 -0.07532,0.214765 -0.321638,0.783738 l -1.072804,2.659619 -1.748651,-0.428511 -0.643276,-6.725895 1.844328,0.751167 0.160819,2.971078 c 0,0.321638 0,0.621901 0.06514,0.933361 0.106873,-0.321638 0.213747,-0.611723 0.321638,-0.890611 l 0.964913,-2.606692 1.630582,0.300264 0.214764,2.660636 c 0.02239,0.293139 0.03054,0.586277 0.02137,0.879415 0.129266,-0.375583 0.354209,-0.997484 0.536402,-1.609207 l 0.751167,-2.037718 1.930845,-0.15064 -2.435694,6.436828 -1.75883,-0.214765 -0.246317,-1.855524 z m 5.4597,-2.734939 2.006165,-0.429529 3.282538,5.642912 -1.566457,0.385761 -0.536403,-1.072804 -2.284035,0.472278 -0.107891,1.179678 -1.822954,0.322656 z m -12.024776,-2.199555 1.855525,0.880433 -0.450904,6.43581 -1.747633,-0.697222 0.192372,-1.12675 -2.145609,-0.964913 -0.78272,0.911985 -1.437192,-0.729792 z m 22.666306,4.827621 -1.609207,0.78272 -2.756314,-1.448388 1.072805,2.2535 -1.330318,0.643276 -2.682012,-5.57777 1.823971,-0.880433 c 1.340497,-0.643275 2.509997,-0.610704 3.089148,0.58017 A 1.7282944,1.7282944 0 0 1 61.1472,85.074624 Z m -8.045017,0.804094 -1.00868,-1.888095 c 0,-0.106873 -0.172015,-0.353191 -0.364387,-0.78272 v 0.85804 l -0.182194,2.145609 z m 13.043636,-3.871868 -1.533887,0.933361 -2.864205,-1.159321 1.287569,2.145609 -1.266195,0.751167 -3.217396,-5.277507 1.716081,-1.072805 c 1.287569,-0.783737 2.467247,-0.85804 3.143093,0.267693 a 1.7303301,1.7303301 0 0 1 -0.429529,2.274875 z m -32.159711,-4.419466 1.233623,0.85804 -2.682012,3.893243 1.673331,1.148125 -0.81529,1.179677 -2.895759,-1.983772 z m 4.494786,6.950838 0.321638,-2.14561 c 0,-0.106873 0.06412,-0.364387 0.160819,-0.825469 l -0.536402,0.643276 -1.427014,1.609207 z m 17.914006,-0.858041 0.172015,-0.107891 c 0.751167,-0.343012 1.179678,-0.771523 0.85804,-1.44737 -0.321638,-0.675847 -0.943539,-0.568973 -1.651956,-0.214765 l -0.182194,0.07532 z m -25.863346,-8.581419 1.212249,0.90079 -2.810259,3.81894 1.630581,1.179678 -0.85804,1.179678 -2.832652,-2.144592 z m 33.673241,0.567955 1.587833,-1.287569 5.502449,3.508499 -1.254998,1.072805 -0.93336,-0.665668 -1.822954,1.394442 0.461082,1.072805 -1.254998,1.072804 z m -2.91815,5.438326 0.172015,-0.106873 c 0.697221,-0.429529 1.072804,-0.890611 0.697221,-1.533887 -0.375583,-0.643276 -0.965931,-0.472278 -1.641778,-0.06412 l -0.170997,0.106873 z m -32.82538,-7.636863 1.159322,0.889594 -3.754817,4.902941 -1.179678,-0.901808 z m 39.626595,4.022509 -1.75883,-1.180696 -0.687043,-0.567955 c 0.214765,0.428511 0.321638,0.686025 0.354209,0.772541 l 0.85804,2.016344 z M 65.609416,59.747682 a 0.41019001,0.41019001 0 0 0 0.321638,0.408154 c 0.182193,0.06412 0.621901,0.449886 0.557777,1.437192 a 3.0026316,3.0026316 0 0 1 -2.14561,-1.866721 3.4403033,3.4403033 0 0 1 1.266195,0.02137 z M 69.707244,11.26078 v 0.172015 l 0.0031,0.137408 A 3.3578582,3.3578582 0 0 1 66.059348,14.897526 3.570587,3.570587 0 0 1 62.2628,11.496919 3.9756878,3.9756878 0 0 1 66.183524,8.0077591 c 1.241766,0 2.41432,0.5852587 3.158361,1.5796896 L 67.947397,10.187975 A 2.0458608,2.0458608 0 0 0 66.124443,9.1151704 h -0.001 c -1.23566,0 -2.253501,1.0178416 -2.253501,2.2535006 l 10e-4,0.0743 -10e-4,0.06616 c 0,1.212249 0.998502,2.209733 2.209733,2.209733 l 0.06616,-10e-4 a 1.7506869,1.7506869 0 0 0 1.822954,-1.469762 h -1.716081 v -1.072805 z m -25.445012,0 v 0.172015 l 0.0031,0.137408 a 3.3578582,3.3578582 0 0 1 -3.649978,3.327323 3.5726227,3.5726227 0 0 1 -3.808762,-3.400607 3.6265682,3.6265682 0 0 1 3.904439,-3.4545533 3.6336931,3.6336931 0 0 1 3.218414,1.5562793 l -1.39449,0.610705 A 2.0458608,2.0458608 0 0 0 40.710984,9.136545 h -0.001 c -1.235659,0 -2.252483,1.017841 -2.252483,2.2535 l 10e-4,0.0743 -10e-4,0.05395 c 0,1.218356 1.003592,2.22093 2.22093,2.22093 h 0.03257 A 1.7506869,1.7506869 0 0 0 42.55633,12.26946 H 40.7975 v -1.072804 z m 4.741104,0.193389 a 3.698835,3.698835 0 0 1 3.969581,-3.4331779 3.7090134,3.7090134 0 0 1 3.968563,3.4331779 3.6774603,3.6774603 0 0 1 -3.968563,3.432161 3.6774603,3.6774603 0 0 1 -3.969581,-3.432161 z m -11.928081,2.660637 a 0.97203836,0.97203836 0 0 1 -0.944557,0.762363 0.97102052,0.97102052 0 0 1 -0.943538,-0.762363 0.97102052,0.97102052 0 0 1 0.943538,-0.76338 c 0.453958,0 0.84888,0.319602 0.944557,0.76338 z M 30.477608,9.6515727 A 1.5583149,1.5583149 0 0 0 29.276556,9.1151704 c -0.493653,0 -0.965932,0.301281 -0.965932,0.7196137 0,1.0717869 3.218414,0.6432759 3.218414,2.8204379 0,1.287569 -1.00868,2.22093 -2.64944,2.22093 a 2.9222221,2.9222221 0 0 1 -2.467247,-1.287569 l 1.007662,-0.78272 c 0.256496,0.564901 0.817327,0.93336 1.43821,0.943538 a 0.97610972,0.97610972 0 0 0 1.072805,-0.943538 c 0,-0.665669 -0.772542,-0.858041 -1.395461,-1.072805 -1.071786,-0.343013 -1.780204,-0.772541 -1.780204,-1.7812221 a 2.1629126,2.1629126 0 0 1 2.338999,-1.9522195 3.7772087,3.7772087 0 0 1 2.144592,0.7297922 z M 36.23859,9.3513095 h -1.609207 l -0.02137,5.3640235 H 33.062925 V 9.3513095 H 31.453718 V 8.2785049 H 36.23859 Z M 58.883521,14.715333 H 57.274314 V 8.2143809 h 2.145609 c 1.587833,0 2.682012,0.5689732 2.682012,1.9522191 0.0112,0.933361 -0.701293,1.73033 -1.630582,1.823972 l 2.241287,2.724761 H 60.814366 L 58.883521,12.087267 Z M 48.724448,14.651209 H 44.58387 V 8.2143809 h 4.140578 v 1.0728046 l -2.574121,0.032571 v 1.4371915 h 2.467247 v 1.072805 h -2.467247 v 1.748651 h 2.574121 z m 25.466387,0 H 70.028882 V 8.2143809 h 4.161953 v 1.0728046 l -2.595495,0.032571 v 1.4371915 h 2.488622 v 1.072805 H 71.59534 v 1.748651 h 2.595495 z m -23.578292,-3.19704 a 2.3776771,2.3776771 0 0 0 2.349178,2.134414 2.3776771,2.3776771 0 0 0 2.349177,-2.134414 A 2.3776771,2.3776771 0 0 0 52.96681,9.3686128 2.3766592,2.3766592 0 0 0 50.62374,11.454169 Z M 59.04434,9.2546146 h -0.214765 l 0.02137,1.9532374 h 0.19339 c 0.85804,0 1.458566,-0.19339 1.458566,-0.987306 0,-0.7939162 -0.621901,-0.9659314 -1.458566,-0.9659314 z"
       fill="#e82c2a"
       id="path8"
       style="stroke-width:1.01784" />
  </g>
</svg>
