<?xml version="1.0" encoding="UTF-8" standalone="no"?>
<svg
   xml:space="preserve"
   width="100"
   height="100"
   fill-rule="evenodd"
   stroke-linejoin="round"
   stroke-miterlimit="2"
   clip-rule="evenodd"
   viewBox="0 0 100 100"
   version="1.1"
   id="svg13"
   sodipodi:docname="badge-6.svg"
   inkscape:version="1.3.2 (091e20e, 2023-11-25)"
   xmlns:inkscape="http://www.inkscape.org/namespaces/inkscape"
   xmlns:sodipodi="http://sodipodi.sourceforge.net/DTD/sodipodi-0.dtd"
   xmlns="http://www.w3.org/2000/svg"
   xmlns:svg="http://www.w3.org/2000/svg"><defs
     id="defs13" /><sodipodi:namedview
     id="namedview13"
     pagecolor="#ffffff"
     bordercolor="#000000"
     borderopacity="0.25"
     inkscape:showpageshadow="2"
     inkscape:pageopacity="0.0"
     inkscape:pagecheckerboard="0"
     inkscape:deskcolor="#d1d1d1"
     inkscape:zoom="2.36"
     inkscape:cx="49.788136"
     inkscape:cy="50.211864"
     inkscape:window-width="1592"
     inkscape:window-height="878"
     inkscape:window-x="0"
     inkscape:window-y="39"
     inkscape:window-maximized="0"
     inkscape:current-layer="layer20" /><g
     inkscape:groupmode="layer"
     id="layer20"
     inkscape:label="back"><rect
       style="fill:#231f20;fill-rule:evenodd;stroke:#000000;fill-opacity:1"
       id="rect13"
       width="168.64407"
       height="144.91525"
       x="-40.677967"
       y="-19.067797" /></g><g
     inkscape:groupmode="layer"
     id="layer19"
     inkscape:label="fore"><path
       fill="#231f20"
       fill-rule="nonzero"
       d="M12.247 88.303c.359-1.005.733-2.016 1.113-3.02-.652-.828-1.31-1.662-1.961-2.476l-2.965-3.698 4.681-.74c1.127-.183 2.267-.353 3.413-.516l-.814-6.228 2.728-.36A242.775 242.775 0 0 1 50 69.195c10.524 0 21.136.699 31.558 2.07l2.728.36-.36 2.727c-.156 1.167-.305 2.334-.461 3.495 1.139.162 2.286.332 3.406.515l4.682.74-2.966 3.698a208.1 208.1 0 0 0-1.961 2.476c.38 1.025.754 2.036 1.113 3.02l1.574 4.376-4.593-.732a224.241 224.241 0 0 0-13.469-1.717l-2.734-.265.61-6.357c-6.33-.53-12.763-.801-19.127-.801a230.2 230.2 0 0 0-19.128.801c.048.474.15 1.574.15 1.574.067.685.128 1.364.196 2.049l.258 2.734-2.734.265a218.704 218.704 0 0 0-13.469 1.717l-4.6.732 1.594-4.369h-.02Z"
       id="path1" /><path
       fill="#fff"
       fill-rule="nonzero"
       d="M49.986 70.152c10.477 0 21.055.692 31.436 2.056l1.167.156.625.082-.082.624-.156 1.167c-.19 1.472-.387 2.951-.583 4.424 1.445.203 2.89.414 4.315.644l2.002.319 1.072.17-.679.848-1.269 1.588c-.76.95-1.533 1.92-2.293 2.897.448 1.188.882 2.361 1.289 3.501l.672 1.873.359 1.004-1.051-.169-1.968-.312a221.026 221.026 0 0 0-13.523-1.717l-1.174-.115-.624-.062.061-.624.509-5.279c.013-.156.027-.312.047-.461a231.776 231.776 0 0 0-20.159-.882c-6.717 0-13.495.298-20.158.882.013.156.027.305.047.461.061.652.129 1.296.19 1.948l.014.115c.067.685.129 1.364.196 2.049l.116 1.174.061.624-.624.061-1.174.116a225.997 225.997 0 0 0-13.523 1.716l-1.968.312-1.052.17.36-1.004.678-1.873c.421-1.167.855-2.341 1.29-3.501-.76-.977-1.534-1.947-2.287-2.897l-1.269-1.588-.678-.848 1.072-.17 2.001-.319c1.425-.224 2.877-.441 4.323-.644l-.136-1.045c-.149-1.127-.292-2.253-.441-3.373l-.156-1.167-.082-.624.625-.081 1.167-.156a242.276 242.276 0 0 1 31.436-2.056m0-1.887c-10.558 0-21.218.699-31.681 2.077l-1.167.156-2.497.325.326 2.497.156 1.168c.115.861.224 1.716.339 2.571-.841.129-1.676.251-2.503.38l-2.002.319-1.072.17-3.21.509 2.036 2.537.679.848 1.268 1.588c.543.672 1.079 1.357 1.629 2.049-.312.842-.624 1.697-.93 2.531l-.678 1.873-.36 1.004-1.085 2.999 3.155-.502 1.051-.17 1.968-.312c4.431-.699 8.95-1.275 13.414-1.703l1.174-.115.625-.061 1.879-.183-.183-1.88-.061-.624-.116-1.174c-.067-.685-.128-1.364-.196-2.049l-.014-.116c-.013-.169-.034-.332-.047-.508A230.03 230.03 0 0 1 50 83.763c6.018 0 12.098.245 18.096.72l-.366 3.84-.061.624-.184 1.88 1.88.183.624.061 1.174.115c4.465.428 8.977 1.005 13.414 1.703l1.968.313 1.052.169 3.155.502-1.079-2.999-.36-1.004-.671-1.873c-.299-.827-.611-1.676-.93-2.531.543-.692 1.086-1.377 1.629-2.049l1.268-1.587.679-.849 2.036-2.537-3.21-.509-1.072-.17-2.002-.319c-.827-.129-1.662-.258-2.497-.38.116-.861.224-1.716.34-2.571l.156-1.167.325-2.497-2.497-.326-1.167-.156a245.267 245.267 0 0 0-31.7-2.07h.007Zm37.753-46.98-3.02-.76s-.041-.007-.054-.014l-34.055-8.604-.509-.129-.509.129-33.974 8.563h-.013l-.082.027a.092.092 0 0 0-.04.014h-.014l-2.273.577-1.506.38-.075 1.554c-.251 5.557.109 11.88 1.072 18.795.787 5.638 1.988 11.82 3.583 18.367a42.31 42.31 0 0 0 2.32 6.88 44.051 44.051 0 0 0 3.257 6.094 50.629 50.629 0 0 0 3.936 5.34 57.69 57.69 0 0 0 4.363 4.634c2.639 2.531 5.597 4.933 9.044 7.362 2.918 2.056 5.673 3.759 7.885 5.13l1.9 1.173 1.099.686 1.099-.686 1.9-1.18c2.212-1.371 4.967-3.074 7.884-5.13 3.447-2.429 6.399-4.831 9.045-7.362a60.16 60.16 0 0 0 4.363-4.634 50.838 50.838 0 0 0 3.935-5.34 44.285 44.285 0 0 0 3.257-6.093 42.26 42.26 0 0 0 2.321-6.881c1.33-5.489 2.538-11.623 3.474-17.756 1.058-6.901 1.73-13.49 1.934-19.04l.061-1.696-1.649-.421.041.021ZM50.115 95.04l-1.9-1.173C39.34 88.377 22.818 78.152 18.34 59.71c-2.782-11.461-5.13-24.78-4.594-36.573l2.273-.576s.028-.007.048-.014l.088-.02h.014l33.946-8.577 34.069 8.611h.027l3.033.766c-.434 11.834-2.877 26.185-5.354 36.376-4.478 18.435-21 28.661-29.875 34.15l-1.907 1.181.007.006Z"
       id="path2" /><path
       fill="#c4c4c4"
       fill-rule="nonzero"
       d="M86.43 81.09a237.174 237.174 0 0 0-14.134-1.798c-.129 1.364-.265 2.734-.393 4.105-.129 1.371-.265 2.734-.394 4.105 4.56.441 9.106 1.018 13.638 1.737a232.87 232.87 0 0 0-1.642-4.424c.957-1.248 1.934-2.49 2.925-3.725Zm-72.86 0c4.702-.74 9.411-1.343 14.134-1.798.128 1.364.264 2.734.393 4.105.129 1.364.265 2.734.394 4.105-4.56.441-9.106 1.018-13.639 1.737.53-1.472 1.079-2.952 1.642-4.424a210.23 210.23 0 0 0-2.924-3.725Z"
       id="path3" /><path
       fill="#231f20"
       fill-rule="nonzero"
       d="m84.17 22.547-34.068-8.61-33.947 8.576h-.013l-.089.02-.047.014-2.273.577c-.529 11.792 1.811 25.112 4.593 36.572 4.479 18.436 21.001 28.661 29.876 34.157l1.9 1.174 1.899-1.181c8.876-5.489 25.391-15.714 29.876-34.15 2.476-10.198 4.919-24.549 5.353-36.375l-3.033-.767h-.02l-.007-.007Zm-4.559 36.952c-4.329 17.825-20.485 27.684-29.516 33.268-9.025-5.591-25.18-15.45-29.516-33.268-5.367-22.079-4.756-34.272-4.756-34.272.4-.102.542-.136.556-.136 1.852-.468 9.126-2.306 33.716-8.515 30.079 7.599 34.543 8.726 34.571 8.739-.014-.006.312 12.119-5.055 34.191v-.007Z"
       id="path4" /><path
       fill="#fc671a"
       fill-rule="nonzero"
       d="M50.102 16.569c-24.597 6.216-31.864 8.054-33.716 8.522-.007 0-.149.041-.557.136 0 0-.61 12.193 4.757 34.272 4.329 17.825 20.484 27.684 29.516 33.268 9.024-5.591 25.18-15.45 29.515-33.268 5.367-22.079 5.042-34.197 5.055-34.197-.027-.007-4.491-1.133-34.57-8.74v.007Zm27.622 42.516C73.775 75.329 59.54 84.869 50.102 90.752c-9.439-5.883-23.674-15.429-27.623-31.667-4.03-16.569-4.777-27.771-4.892-32.467l32.515-8.217 32.521 8.217c-.115 4.682-.848 15.817-4.899 32.467Z"
       id="path5" /><path
       fill="#231f20"
       fill-rule="nonzero"
       d="M17.587 26.625c.115 4.695.862 15.891 4.892 32.46 3.949 16.244 18.184 25.784 27.623 31.667 9.438-5.883 23.673-15.429 27.622-31.667 4.044-16.65 4.784-27.785 4.899-32.46l-32.521-8.217-32.515 8.217Zm63.292 45.502c-10.652-1.398-20.43-2.056-30.757-2.056-10.327 0-19.48.577-29.713 1.92l-.712.095.645 2.375s-.048.007-.075.007l-.631.081.387 2.965c.135 1.065.278 2.131.42 3.196l.082.617.617-.081c.333-.041.672-.081 1.011-.129l.109.394c-.794.183-1.581.366-2.368.556a200.875 200.875 0 0 1 8.644 5.428c-.149-1.526-.292-3.046-.441-4.573 8.02-.916 14.86-1.316 21.686-1.276 6.71.041 13.665.509 22.113 1.52-.136 1.446-.278 2.891-.414 4.329a219.578 219.578 0 0 1 8.644-5.428c-.814-.197-1.642-.387-2.456-.577l.176-.4c.421.047.835.102 1.256.156l.617.081.082-.617.732-5.537.041-.325 1.14-2.62-.828-.101h-.007Zm-3.82 7.613a233.787 233.787 0 0 0-26.944-1.561c-8.97 0-18.082.529-27.039 1.574l-1.147-4.22a237.452 237.452 0 0 1 56.935.068l-1.805 4.139Z"
       id="path6" /><path
       fill="#fff"
       fill-rule="nonzero"
       d="m81.192 74.006-1.059 8.034a230.996 230.996 0 0 0-60.28 0l-1.058-8.034a239.498 239.498 0 0 1 62.397 0Z"
       id="path7" /><path
       fill="#231f20"
       fill-rule="nonzero"
       d="M31.619 77.107c.224-.271.38-.522.461-.753a1.78 1.78 0 0 0 .095-.692c-.02-.367-.292-.835-.645-.991-.515-.224-1.092-.21-1.635-.163a4.255 4.255 0 0 0-.685.122 4.2 4.2 0 0 0-.604.184c-.014.006-.027.013-.048.013.055.448.082.672.129 1.12.034-.014.048-.027.089-.041.142-.061.312-.122.502-.17.19-.047.38-.081.57-.101.271-.027.468-.014.59.04.115.048.17.136.183.258a.682.682 0 0 1-.074.36 3.12 3.12 0 0 1-.333.522l-1.181 1.507c.034.298.048.441.089.739 1.187-.115 2.375-.217 3.569-.312-.041-.461-.068-.692-.109-1.153-.495.04-.984.081-1.479.129.204-.238.312-.36.522-.611l-.006-.007Zm5.509-1.276c-.285-.095-.651-.142-1.092-.149v-.563c.57-.041 1.14-.081 1.703-.115a58.023 58.023 0 0 0-.075-1.1c-1.045.075-2.09.15-3.141.238l.04 2.639c.279-.006.421-.013.699-.013.367-.007.652 0 .848.027.184.027.313.061.38.115a.274.274 0 0 1 .102.204.28.28 0 0 1-.149.278c-.115.075-.319.115-.597.136a5.218 5.218 0 0 1-.638 0 8.254 8.254 0 0 1-.631-.061c-.034 0-.048-.007-.081-.014.033.421.054.631.088 1.052a5.079 5.079 0 0 0 1.404.081c.557-.047 1.127-.122 1.595-.468.359-.265.522-.699.488-1.133-.02-.285-.101-.529-.257-.719-.157-.204-.387-.346-.699-.441l.013.006Zm6.65-.76c-.339-.481-.679-.963-1.025-1.445-.563.027-1.133.048-1.696.082.651.875 1.303 1.75 1.94 2.639.021.624.048 1.249.068 1.873.523-.014 1.038-.027 1.561-.034-.014-.631-.034-1.269-.048-1.893.564-.93 1.134-1.859 1.704-2.782-.53.013-1.059.027-1.588.047-.312.502-.618 1.005-.923 1.513h.007Zm11.555-1.594a396.304 396.304 0 0 0-1.642 4.743c.509.013 1.018.027 1.52.047.136-.42.203-.631.346-1.058.509.013 1.018.034 1.52.054.102.434.156.651.264 1.093.509.02 1.025.047 1.534.074a420.375 420.375 0 0 0-1.276-4.899c-.753-.02-1.506-.04-2.259-.054h-.007Zm1.438 2.572c-.332-.014-.502-.014-.827-.028l.468-1.418c.129.475.244.957.366 1.446h-.007Zm13.897.746c-.272-.339-.672-.502-1.059-.665-.169-.061-.258-.095-.434-.149a1.401 1.401 0 0 1-.258-.116.249.249 0 0 1-.095-.088.166.166 0 0 1-.014-.102c.007-.081.075-.142.19-.183.136-.047.367-.061.686-.027.197.014.4.048.597.095.197.048.373.095.509.156l.081.034c.048-.427.102-.855.149-1.289-.02-.007-.027-.014-.047-.014-.387-.149-.848-.224-1.255-.258-.584-.054-1.262-.02-1.785.272-.421.237-.672.678-.719 1.16-.034.394.054.733.258.998.224.291.638.522.984.631.169.061.257.095.42.149.136.047.245.095.312.136.082.047.109.081.123.108.013.034.027.075.013.122-.007.082-.054.143-.149.183-.102.048-.278.055-.523.028a5.496 5.496 0 0 1-.732-.129 3.89 3.89 0 0 1-.686-.224.514.514 0 0 1-.081-.041l-.122 1.276a.745.745 0 0 1 .04.02c.204.088.435.163.686.224.251.061.515.102.773.136.367.04.815.027 1.167-.075.34-.102.618-.265.821-.489.204-.23.326-.515.367-.848.061-.414-.027-.753-.238-1.024l.021-.007Zm-21.075.176v-.624c.651 0 1.302 0 1.961.007 0-.4.006-.794.013-1.188h-1.968v-.529h2.328c0-.4.013-.794.013-1.194-.739 0-1.479 0-2.218.007-.781.007-1.561.02-2.341.034.258.224.386.339.644.57.007 1.364.021 2.734.027 4.098 1.29 0 2.572.014 3.854.034 0-.4.014-.794.014-1.194l-2.327-.021Zm14.554-.108c.265-.116.475-.278.638-.496.176-.23.278-.522.305-.848.048-.488-.102-1.017-.502-1.316-.482-.373-1.126-.482-1.73-.516-.828-.047-1.649-.081-2.477-.122.265.278.394.414.658.699-.088 1.425-.183 2.85-.271 4.275l1.533.102c.041-.537.075-1.073.116-1.609.081.007.129.014.217.021.326.556.645 1.119.957 1.683.563.04 1.133.088 1.696.135-.373-.672-.753-1.343-1.14-2.008Zm-.74-1.045c-.115.074-.298.102-.529.095a3.862 3.862 0 0 1-.373-.041c.027-.407.041-.611.075-1.024.129-.014.251-.014.373-.007.475.027.685.217.651.583-.013.19-.081.326-.19.401l-.007-.007Z"
       id="path8" /><path
       fill="#fff"
       fill-rule="nonzero"
       d="M41.62 52.042h-1.255l-2.708 5.15c-.135-1.716-.278-3.433-.413-5.15h-2.83c-.916 1.683-1.839 3.366-2.748 5.049-.115-1.683-.237-3.366-.359-5.049h-3.698c.386.34.78.679 1.167 1.025.19 2.002.38 3.996.576 5.998h3.318c.869-1.56 1.737-3.128 2.599-4.695.143 1.56.278 3.128.421 4.695h3.318c1.133-2.103 2.273-4.2 3.406-6.303l-.814-.713.02-.007Zm3.44 4.248h3.528c.123-.543.238-1.079.36-1.622H45.42c.088-.4.135-.597.224-1.004h4.152c.122-.543.245-1.086.36-1.628h-7.701c.325.291.495.434.821.719l-1.405 6.297h6.785c.122-.543.245-1.086.36-1.629h-4.214c.102-.455.156-.678.258-1.133Zm6.629-3.752c-.665.332-1.235.95-1.391 1.676-.101.461-.04.99.306 1.343.42.421 1.065.645 1.649.747l.753.156c.258.054.448.101.576.156a.497.497 0 0 1 .251.169c.041.061.048.136.028.224-.034.156-.156.278-.374.367-.217.088-.556.129-1.017.129-.462 0-.903-.034-1.337-.089a7.753 7.753 0 0 1-1.235-.237l-.366 1.649c.386.108.807.183 1.207.23.455.055.93.082 1.385.082.698 0 1.438-.075 2.11-.278.543-.163 1.079-.414 1.506-.794.36-.319.618-.747.733-1.215.108-.475.027-.997-.326-1.35-.468-.468-1.18-.624-1.791-.767-.305-.061-.455-.095-.76-.156a3.167 3.167 0 0 1-.468-.136.463.463 0 0 1-.204-.149c-.034-.054-.04-.122-.02-.203.034-.157.19-.292.448-.38.407-.136.875-.143 1.302-.136.36 0 .72.02 1.079.061.36.041.672.088.93.156l.366-1.649c-.719-.156-1.465-.203-2.178-.203-1.058 0-2.185.095-3.155.59m14.018-.495h-7.986l-.38 1.696h2.687l-1.18 5.32h2.612c.393-1.771.787-3.549 1.187-5.32h2.687c.116-.563.244-1.133.373-1.696Zm2.993 1.682c.414-.135.875-.142 1.302-.135.36 0 .72.013 1.079.061.36.04.672.088.93.156l.366-1.649c-.719-.156-1.465-.204-2.178-.204-1.051 0-2.185.095-3.155.591-.658.332-1.235.95-1.391 1.676-.102.461-.041.99.312 1.343.421.421 1.066.645 1.649.747l.753.156c.258.054.448.101.577.156.129.047.217.108.251.169a.303.303 0 0 1 .027.224c-.034.156-.156.278-.373.367-.217.088-.556.129-1.018.129-.461 0-.902-.034-1.336-.089a7.732 7.732 0 0 1-1.235-.237l-.367 1.649c.387.108.808.183 1.208.23.455.055.93.082 1.384.082.699 0 1.439-.075 2.11-.278.543-.163 1.079-.414 1.507-.794a2.4 2.4 0 0 0 .732-1.215c.109-.475.028-.997-.325-1.35-.468-.468-1.181-.624-1.792-.767-.305-.061-.454-.095-.759-.156a3.15 3.15 0 0 1-.469-.136.465.465 0 0 1-.203-.149.244.244 0 0 1-.021-.197c.034-.169.184-.291.448-.386m6.806-30.778 6.283-3.033-8.156-1.391 5.937-4.119-4.648-.081.292-.211-7.654-4.22-3.922-3.474-8.929-3.908-4.736 1.282-4.695-1.269-8.78 3.82-4.065 3.563-7.654 4.22.292.21-4.648.082 5.944 4.125-8.156 1.391 6.283 3.033-4.831 3.196 6.541 1.391-4.709 5.116 5.619.075.108.732 1.33.374-.522 1.248 9.933 5.517 5.537 8.352L50 47.673l6.534 1.269 5.537-8.353 9.933-5.516-.522-1.249 1.33-.373.108-.733 5.618-.075-4.708-5.116 6.541-1.391-4.832-3.195-.013-.007Zm-4.282 7.782-.183 1.195-2.246.631.706 1.676-8.828 4.966-5.061 7.661-5.646-1.092-5.584 1.105-5.069-7.66-8.827-4.967.706-1.676-2.246-.631-.184-1.194-2.931.068 2.728-2.524-.4-2.314-3.42-.74 4.376-2.68-4.505-1.764 4.539-.672-.21-.841 1.527-.611-4.065-2.483 5.076.346-3.061-2.185 5.13-2.836 3.935-3.474 7.939-3.447 4.567 1.235 4.552-1.106 7.987 3.331 3.901 3.447 5.137 2.837-3.061 2.184 5.076-.346-4.065 2.484 1.527.61-.21.842 4.539.672-4.505 1.764 4.376 2.68-3.42.739-.366 2.355 2.694 2.477-2.925-.062Zm.061-1.391-1.275-.882.543-3.318 2.592-.257-.204-.089-.563-.23-1.615-.672-1.662-2.151 2.381-.468.882-.17-3.521-.163.515-1.031-1.75-1.303 3.297-1.54-4.132.909-.42-1.201 3.195-1.961-4.091-2.592-4.315-3.385-7.132-2.83-3.738.916-.211.054-.061.014-.061-.014-3.949-.956-7.131 2.829-4.302 3.372-4.105 2.606 3.196 1.961-.421 1.194-4.132-.902 3.298 1.54-1.751 1.303.516 1.031-3.522.163.428.081 2.836.557-1.663 2.15-1.784.74-.421.17-.169.074 2.592.258.542 3.318-1.16.808-.468.325-.434.299 2.259-.434.115.705.068.387.041.224 2.728.76-.747 1.961 7.946 5.055 3.135 3.983 1.648 2.096.299.38h4.37l.583-.006h4.187l.135-.184 1.826-2.307 3.155-3.996 7.918-5.028-.746-1.961 2.727-.76.041-.224.054-.319.129-.78 2.26.427-.183-.128-.598-.414v.006Z"
       id="path9" /><path
       fill="#fc671a"
       fill-rule="nonzero"
       d="M36.911 60.979h-.943c.312.278.475.413.787.685-.475 2.137-.95 4.275-1.432 6.412h2.64c.529-2.368 1.058-4.736 1.581-7.104h-2.633v.007Zm8.013 3.65c-.135.617-.278 1.235-.413 1.859h-.177c-.617-.027-1.316-.047-1.791-.468-.394-.346-.4-.957-.299-1.432.082-.373.292-.855.563-1.146.299-.326.72-.509 1.113-.638.563-.183 1.222-.204 1.825-.211a9.633 9.633 0 0 1 1.751.15c.102-.455.149-.686.258-1.14-.305-.272-.461-.401-.767-.672a14.34 14.34 0 0 0-1.099-.047c-1.486.013-3.033.19-4.363.936a4.189 4.189 0 0 0-2.015 2.728c-.224.99-.095 2.076.753 2.727 1.086.828 2.619.896 3.915.903.808 0 1.629-.075 2.436-.17l.753-3.386h-2.443v.007Zm5.646.651h3.569l.366-1.642h-3.569c.095-.407.136-.61.224-1.017h4.207c.081-.38.129-.577.217-.957l-.794-.692h-6.724c.292.251.434.38.726.631-.482 2.158-.957 4.315-1.445 6.473h6.866l.367-1.649h-4.268c.088-.38.17-.767.258-1.153v.006Zm11.982-3.799c-.434-.272-.943-.414-1.445-.489h-3.386s-.067.007-.101.014h-1.792c.217.19.326.291.55.475-.489 2.205-.984 4.403-1.472 6.608h2.585c.176-.8.359-1.601.529-2.395.231 0 .346.007.577.014.481.794.97 1.588 1.452 2.388h2.85c-.577-.916-1.154-1.839-1.731-2.755a3.616 3.616 0 0 0 1.337-.814c.339-.332.577-.766.679-1.228.156-.672 0-1.445-.638-1.818m-1.826 1.811c-.074.319-.237.543-.495.686-.258.135-.617.203-1.072.203-.258 0-.522-.013-.794-.041.129-.563.251-1.126.38-1.689.272-.041.55-.048.808-.061.522-.014 1.377.17 1.18.896m6.48-.604c.421-.136.882-.143 1.316-.143.36 0 .733.021 1.093.061.36.041.678.095.936.156.129-.556.245-1.112.373-1.676-.726-.163-1.485-.203-2.212-.203-1.065 0-2.211.102-3.195.597-.665.339-1.249.957-1.412 1.696-.101.468-.04 1.004.312 1.364.428.427 1.079.651 1.676.753.306.068.455.095.76.163.258.054.455.109.584.156.129.054.217.109.251.17.041.061.047.135.027.224-.034.156-.163.285-.38.373-.217.088-.563.129-1.031.129-.468 0-.903-.041-1.357-.088a7.909 7.909 0 0 1-1.249-.238c-.129.556-.244 1.113-.373 1.669.394.109.821.183 1.221.238.462.054.944.081 1.405.081.706 0 1.466-.061 2.144-.278.55-.183 1.079-.407 1.527-.801a2.35 2.35 0 0 0 .739-1.228c.116-.475.027-1.011-.332-1.364-.468-.468-1.188-.631-1.819-.773-.305-.068-.461-.095-.773-.163a2.735 2.735 0 0 1-.475-.143c-.109-.047-.17-.095-.204-.149-.034-.054-.04-.122-.02-.203.027-.163.176-.292.441-.387m-31.226-.842a780.4 780.4 0 0 1-.997-.875h-6.894c-.129.577-.258 1.147-.38 1.717h2.721l-1.201 5.387h2.64c.4-1.791.8-3.596 1.201-5.387h2.72c.075-.339.116-.509.19-.848v.006ZM65.443 12.22l-4.315-3.386-7.132-2.829-4.01.983-4.01-.97-7.131 2.83-4.302 3.372-4.105 2.605 3.196 1.961 1.113-2.782 2.524-1.811.21-1.317 7.783-2.028a.115.115 0 0 1 .149.101l.692 6.297c0 .048-.02.095-.061.122l-3.216 1.724-2.443-.679-2.049-2.782-2.904 7.532a.71.71 0 0 0-.041.244l.095 2.287 3.033-6.813.462 2.301 3.508-.238 1.031.93 1.907-1.215-1.039-1.255c-.088-.109.048-.258.156-.177l3.244 2.178h4.363l3.243-2.178c.115-.081.251.075.163.177l-1.052 1.275 1.907 1.215 1.045-.936 3.508.237.461-2.3 3.033 6.812.075-2.286a.62.62 0 0 0-.041-.245l-2.904-7.531-2.049 2.782-2.443.678-3.216-1.723c-.041-.027-.068-.075-.061-.122l.692-6.297c.007-.075.081-.129.149-.102l7.783 2.029.21 1.316 2.524 1.812 1.134 2.768 3.195-1.961-4.078-2.605h.014Z"
       id="path10" /><path
       fill="#231f20"
       fill-rule="nonzero"
       d="m76.286 25.397-4.54-2.782 5.15-2.022-5.577-.828.19-.753-1.113-.441 4.777-2.918-5.292.36 2.429-1.737-5.646-3.115-3.915-3.46-8.169-3.406L50 5.408l-4.614-1.249-8.122 3.528-3.949 3.488-5.645 3.114 2.429 1.737-5.293-.359 4.777 2.911-1.113.441.19.753-5.577.828 5.15 2.022-4.546 2.788 4.125.889.319 1.839-3.345 3.087 3.63-.081.163 1.099 2.056.577-.665 1.588 9.051 5.089 5.164 7.803 5.767-1.14 5.829 1.133 5.157-7.803 9.051-5.089-.665-1.588 2.063-.577.163-1.099 3.63.082-3.318-3.047.292-1.88 4.132-.895Zm-26.3-18.409 4.01-.983 7.132 2.829 4.315 3.386 4.091 2.592-3.195 1.961.42 1.194 4.133-.909-3.298 1.54 1.751 1.303-.516 1.031 3.515.163-3.264.638 1.662 2.151 2.382.984-2.592.257-.543 3.318 2.056 1.432-2.253-.434-.224 1.323-2.727.76.746 1.961-7.918 5.028-5.116 6.486-9.14.014-5.082-6.453-7.946-5.048.747-1.961-2.728-.76-.224-1.323-2.253.434 2.056-1.431-.542-3.318-2.592-.258 2.381-.984 1.663-2.151-3.264-.638 3.515-.163-.509-1.038 1.75-1.303-3.297-1.54 4.132.909.421-1.194-3.196-1.961 4.105-2.605 4.302-3.373 7.131-2.829 4.003.97v-.007Zm0 11.196 3.196-1.608c.082-.041.041-.17-.054-.149-1.188.298-2.185.454-3.142.454-.963 0-1.967-.156-3.162-.461-.088-.02-.135.102-.054.142l3.223 1.615-.007.007ZM46.295 9.39l.258 5.49 1.812-.577-1.988-4.933c-.014-.047-.082-.027-.082.014m3.684.61 4.255-2.09 4.926 1.5c.088.027.136-.095.061-.136L54.607 6.88l-4.621 1.737-4.62-1.737-4.601 2.375c-.081.04-.027.169.061.135l4.913-1.492 4.24 2.09v.006Zm1.595 4.302 1.812.577.257-5.483c0-.047-.061-.061-.081-.013l-1.988 4.919ZM35.527 29.102l-2.755-3.977 2.585-8.922c.041-.149-.169-.231-.244-.095l-4.01 8.088.366 3.962 4.153 5.137 2.945 3.053 1.533-.644 3.121 3.779c.061.075.17 0 .136-.081l-3.243-7.776a.87.87 0 0 0-.401-.435l-4.179-2.103-.007.014Zm31.667-3.977-2.755 3.977-4.18 2.103a.83.83 0 0 0-.4.434l-3.244 7.776c-.034.082.075.149.136.082l3.115-3.773 1.526.645 2.959-3.067 4.139-5.13.366-3.963-4.01-8.088c-.075-.142-.278-.061-.244.095l2.592 8.923v-.014Zm-5.754-8.257-.462 2.3-3.508-.238-4.016 3.603s0 .082.04.062l4.058-1.982.814.509-4.682 2.273c-.041.014-.02.075.021.068l5.95-1.147 1.323.76-7.063 1.079c-.048.007-.041.075 0 .075l6.86.298-2.531 1.995-.292.129-6.765-2.11a.77.77 0 0 1-.543-.733v-.488l4.899-5.944c.089-.109-.047-.258-.162-.177l-3.244 2.178h-4.363L44.531 17.2c-.115-.081-.251.075-.156.177l4.899 5.944v.488a.77.77 0 0 1-.543.733l-6.765 2.11-.292-.129-2.531-1.995 6.86-.298c.041 0 .048-.068 0-.075l-6.995-1.031 1.255-.808 5.957 1.147a.036.036 0 0 0 .021-.068l-4.682-2.273.787-.522 4.105 2.008c.041.014.075-.027.041-.061l-4.031-3.623-3.508.237-.461-2.3-3.033 6.812 5.944 6.372 3.019 11.412.367 1.826a.28.28 0 0 0 .38.203l4.777-1.839 4.783 1.839a.281.281 0 0 0 .373-.203l.367-1.826 3.019-11.412 5.944-6.372-3.033-6.812.041.007Zm-12.397 4.553a.279.279 0 0 0-.149-.129l-.74-.265a.272.272 0 0 1-.129-.088l-.386-.495c-.082-.102-.007-.258.122-.258h4.43c.136 0 .211.156.129.264l-.386.489a.243.243 0 0 1-.129.088l-.74.265a.275.275 0 0 0-.149.129l-.787 1.377a.185.185 0 0 1-.319 0l-.78-1.377h.013Zm-1.167 4.478c.048-.014.102-.014.156-.014l1.839.211c.075.006.149.006.217 0l1.859-.211c.048 0 .102 0 .156.014l1.778.475s-.156 2.768-.271 2.999c-.34-.78-.76-1.418-1.337-1.934l-.448 1.059-.611-1.059-.529 1.093L50 27.473l-.685 1.072-.53-1.092-.617 1.058-.448-1.058c-.577.509-.997 1.153-1.337 1.934-.115-.238-.271-3-.271-3l1.778-.488h-.014Zm-2.667.916c-.902 3.121-.875 5.632-.861 8.624-1.133-2.192-1.561-4.865-1.893-7.674a.406.406 0 0 1 .278-.434l2.3-.699c.102-.027.204.068.17.176m9.37 14.602a.394.394 0 0 1-.482.36l-1.947-.591c-.618-.149-1.54-.488-2.158-.638l-2.049.625-2.056.597a.394.394 0 0 1-.482-.36c-.169-2.538-.19-4.078.611-5.537.326 1.629.441 2.993 1.188 4.56.122-.244.617-1.079.739-1.323l.685.848.726-.862.645.862.645-.862.726.862.685-.848.74 1.323c.807-1.628.854-2.89 1.187-4.56.794 1.459.773 2.999.597 5.537m1.045-5.978c.014-2.992.041-5.502-.862-8.624-.027-.101.068-.203.17-.169l2.3.699a.396.396 0 0 1 .278.434c-.332 2.802-.76 5.476-1.893 7.667M42.733 16.467l2.592-1.323s.027-.027.02-.047l-.719-5.096c-.007-.047-.075-.047-.082 0l-.685 2.945s-.027.041-.047.034l-6.216-1.398c-.04-.007-.067.041-.04.068l3.107 3.963.014.013 2.022.848s.02.014.034 0m11.826-1.323 2.694 1.33 2.049-.862 3.115-3.969s0-.081-.048-.075l-6.256 1.412-.699-3.006c-.006-.048-.074-.041-.081 0l-.787 5.163"
       id="path11" /><path
       fill="#fc671a"
       fill-rule="nonzero"
       d="M54.892 35.649a8.159 8.159 0 0 0-.753-1.825c-.177-.244-.224-.278-.489-.387-.984-.42-2.483-.495-2.877.041-.088.122-.122.21-.19.4-.291.808-.529 2.165-.576 2.911l-.021.177-.02-.177c-.048-.753-.292-2.103-.577-2.911-.068-.19-.095-.278-.19-.4-.393-.529-1.893-.455-2.877-.041-.258.109-.312.15-.482.387a7.88 7.88 0 0 0-.753 1.825c-.115.455-.183.93-.203 1.425.142-.8.407-1.615 1.194-2.585l.156-.204.176.876c.15.719.102.448.251 1.14.204.936.313 1.927.659 2.551l.509-.869.78.95.719-.902.651.929.652-.929.719.902.78-.95.509.869c.346-.624.455-1.615.658-2.551.15-.692.102-.421.251-1.14l.184-.876.156.204c.787.97 1.051 1.785 1.194 2.585a6.05 6.05 0 0 0-.204-1.425"
       id="path12" /><path
       fill="#fff"
       fill-rule="nonzero"
       d="M42.95 14.059a.688.688 0 0 1-.862.441.677.677 0 0 1-.454-.482.676.676 0 0 1 .074-.522l-.678-.306c-.136.258-.197.55-.15.869.143.76.889 1.255 1.676 1.126a1.427 1.427 0 0 0 1.052-.828l-.651-.292-.007-.006Zm14.1 0a.682.682 0 0 0 .719.468.694.694 0 0 0 .631-.753.623.623 0 0 0-.095-.285l.678-.306c.136.258.197.55.15.869-.143.76-.896 1.255-1.676 1.126a1.427 1.427 0 0 1-1.052-.828l.645-.291Z"
       id="path13" /></g></svg>
