<?xml version="1.0" encoding="utf-8"?>
<!-- Generator: Adobe Illustrator 23.0.2, SVG Export Plug-In . SVG Version: 6.00 Build 0)  -->
<svg version="1.1" id="Layer_1" xmlns="http://www.w3.org/2000/svg" xmlns:xlink="http://www.w3.org/1999/xlink" x="0px" y="0px"
	 viewBox="0 0 282 360" style="enable-background:new 0 0 282 360;" xml:space="preserve">
<style type="text/css">
	.st0{fill:#00D470;}
	.st1{fill:#FFFFFF;}
</style>
<path class="st0" d="M141,0C67.6,0,0,9,0,9v225c0,30,12,51.5,34.5,64.5L141,360l106.5-61.5C270,285.5,282,264,282,234V9
	C282,9,214.4,0,141,0z"/>
<path class="st1" d="M273,234l0,0.8v0.7c0,2.2-0.1,3.3-0.2,5.3c-1.6,22.7-11.6,39.4-29.8,49.9l-102,58.9L39,290.7
	c-18.4-10.6-28.2-26.9-29.8-49.8l0,0c-0.1-2.1-0.2-3.2-0.2-5.4V200l0,0v-25.9c0-0.5,0-1,0-1.5v-35.5l0,0V17c0,0,64-8,132-8
	s132,8,132,8V234z"/>
<path class="st0" d="M18.9,246.5c2.6,16.4,10.7,28.4,24.6,36.4l97.5,56.3l97.5-56.3c13.9-8,22-20,24.6-36.4L141,317L18.9,246.5z"/>
<polygon class="st0" points="18,183.1 18,205.2 141,276.2 264,205.2 264,183.1 141,254.1 "/>
<path class="st0" d="M18,25v117.3l123,71l123-71V25c0,0-61-7-123-7C77,18,18,25,18,25z"/>
<path class="st1" d="M64.6,48H47v73h17.8V80.6h0.3L90.7,121h17.5V63.4h39.5c7.3,0,10.9,3.3,10.9,10c0,6.2-3.7,9.8-9.8,9.8h-11.2
	V71.8h-18.7V121h18.7V99.2h9.1l17.7,21.8h23.1l-21.8-26.2c7.2-4.4,11-12.1,11-21.8c0-15.6-10.6-25-27.6-25H90v40.5h-0.4L64.6,48z"/>
<polygon class="st1" points="242,121 242,104.8 204.8,104.8 204.8,48 186,48 186,107 197.7,121 "/>
</svg>
