<?xml version="1.0" encoding="UTF-8" standalone="no"?>
<!-- Created with Inkscape (http://www.inkscape.org/) -->
<svg version="1.1" id="Layer_1" xmlns="http://www.w3.org/2000/svg" xmlns:xlink="http://www.w3.org/1999/xlink" x="0px" y="0px"
	 width="100%" viewBox="0 0 96 96" enable-background="new 0 0 96 96" xml:space="preserve">
<path fill="#000000" opacity="1.000000" stroke="none" 
	d="
M1.000000,49.000000 
	C1.000000,33.035427 1.000000,17.070852 1.000000,1.053139 
	C32.893650,1.053139 64.787407,1.053139 97.000000,1.053139 
	C97.000000,18.686283 97.000000,36.374485 96.753586,54.860222 
	C92.991104,52.286880 88.756561,49.399689 86.098381,45.451256 
	C79.103569,35.061241 71.612328,25.298908 60.545845,18.965393 
	C56.833134,16.840553 52.753174,15.367970 48.945217,13.396143 
	C44.780865,11.239772 40.737080,8.850562 36.640747,6.562832 
	C36.422985,6.889601 36.205227,7.216369 35.987469,7.543138 
	C36.541798,8.931297 37.096127,10.319457 37.372925,11.012618 
	C32.663078,12.953356 28.199072,14.692818 23.820751,16.626314 
	C19.804583,18.399881 15.879832,19.651119 14.062378,24.931690 
	C12.978487,28.080914 8.339360,30.006504 5.097608,32.645683 
	C6.981776,33.318665 8.999125,34.039219 11.157843,34.810261 
	C9.347875,40.860050 8.646215,47.382675 1.000000,49.000000 
z"/>
<path fill="#000000" opacity="1.000000" stroke="none" 
	d="
M97.000000,66.000000 
	C97.000000,76.307137 97.000000,86.614273 97.000000,96.960709 
	C65.107361,96.960709 33.214664,96.960709 1.000000,96.960709 
	C1.000000,81.980637 1.000000,66.958977 1.447314,51.474670 
	C4.813118,51.012028 7.731609,51.012028 10.823595,51.012028 
	C11.459668,57.002296 11.719851,63.337040 5.795282,68.382484 
	C8.490694,67.815292 11.186107,67.248100 13.923377,66.672104 
	C13.510878,73.838768 8.027195,76.809044 2.645977,79.954308 
	C15.869061,83.060883 28.595959,85.829086 41.183224,89.129784 
	C45.520203,90.267044 49.287319,90.512527 53.707516,89.181725 
	C61.268864,86.905212 69.146385,85.687073 76.877342,83.962692 
	C81.621788,82.904449 86.340591,81.731232 91.070908,80.609642 
	C85.445648,77.243271 79.636871,75.435280 74.149216,72.925217 
	C67.939896,70.085052 64.246643,65.092522 62.655499,58.209839 
	C66.709991,60.081226 71.793343,60.786690 73.552032,63.583076 
	C77.140053,69.288162 81.134109,72.238441 87.923073,72.674232 
	C90.973442,72.870041 92.357201,72.556847 93.654083,69.960854 
	C94.404678,68.458374 95.861183,67.308540 97.000000,66.000000 
z"/>
<path fill="#F9C634" opacity="1.000000" stroke="none" 
	d="
M97.000000,65.541931 
	C95.861183,67.308540 94.404678,68.458374 93.654083,69.960854 
	C92.357201,72.556847 90.973442,72.870041 87.923073,72.674232 
	C81.134109,72.238441 77.140053,69.288162 73.552032,63.583076 
	C71.793343,60.786690 66.709991,60.081226 62.655499,58.209839 
	C64.246643,65.092522 67.939896,70.085052 74.149216,72.925217 
	C79.636871,75.435280 85.445648,77.243271 91.070908,80.609642 
	C86.340591,81.731232 81.621788,82.904449 76.877342,83.962692 
	C69.146385,85.687073 61.268864,86.905212 53.707516,89.181725 
	C49.287319,90.512527 45.520203,90.267044 41.183224,89.129784 
	C28.595959,85.829086 15.869061,83.060883 2.645977,79.954308 
	C8.027195,76.809044 13.510878,73.838768 13.923377,66.672104 
	C11.186107,67.248100 8.490694,67.815292 5.795282,68.382484 
	C11.719851,63.337040 11.459668,57.002296 10.823595,51.012028 
	C7.731609,51.012028 4.813118,51.012028 1.447314,51.006012 
	C1.000000,50.555553 1.000000,50.111111 1.000000,49.333332 
	C8.646215,47.382675 9.347875,40.860050 11.157843,34.810261 
	C8.999125,34.039219 6.981776,33.318665 5.097608,32.645683 
	C8.339360,30.006504 12.978487,28.080914 14.062378,24.931690 
	C15.879832,19.651119 19.804583,18.399881 23.820751,16.626314 
	C28.199072,14.692818 32.663078,12.953356 37.372925,11.012618 
	C37.096127,10.319457 36.541798,8.931297 35.987469,7.543138 
	C36.205227,7.216369 36.422985,6.889601 36.640747,6.562832 
	C40.737080,8.850562 44.780865,11.239772 48.945217,13.396143 
	C52.753174,15.367970 56.833134,16.840553 60.545845,18.965393 
	C71.612328,25.298908 79.103569,35.061241 86.098381,45.451256 
	C88.756561,49.399689 92.991104,52.286880 96.753586,55.328880 
	C97.000000,58.361286 97.000000,61.722576 97.000000,65.541931 
M26.857903,19.674524 
	C18.957613,23.400738 14.940800,29.797832 15.067307,38.364464 
	C15.142677,43.468250 15.865382,48.681385 17.151989,53.622757 
	C19.568691,62.904404 20.567635,71.663956 12.031555,78.767746 
	C23.893749,82.156853 35.202091,85.424614 46.545872,88.564339 
	C47.540565,88.839645 48.794369,88.375557 49.882557,88.085243 
	C58.560535,85.770042 67.231544,83.428345 75.892159,81.049118 
	C76.815948,80.795334 77.659355,80.248940 79.298050,79.484856 
	C64.070801,76.413597 48.211800,79.189186 36.698700,66.886887 
	C46.814854,73.586647 58.209225,74.828896 69.701279,75.656868 
	C69.933189,75.215820 70.165100,74.774773 70.397011,74.333725 
	C66.629059,71.529602 62.861107,68.725471 59.375706,66.131615 
	C59.741215,65.981018 60.726360,65.575111 62.641937,64.785858 
	C60.097103,63.360626 58.342686,62.378071 56.588268,61.395512 
	C57.060234,61.389317 57.532204,61.383125 58.004173,61.376930 
	C58.041042,59.959435 58.620529,58.212086 58.001297,57.193432 
	C56.730495,55.102943 54.817398,53.402905 53.713257,51.170124 
	C53.886753,51.035503 54.060246,50.900883 54.854271,51.038651 
	C63.486687,57.998863 67.113457,58.851154 70.107216,55.312790 
	C71.458786,56.898163 72.883385,58.522053 74.254295,60.190075 
	C75.722046,61.975933 77.585709,63.606274 78.488846,65.652214 
	C80.602409,70.440269 84.896744,70.422653 88.582382,69.781258 
	C90.552612,69.438385 93.094055,66.367790 93.445045,64.213364 
	C93.910072,61.358982 92.484558,58.196606 91.871506,55.166588 
	C91.336754,55.255142 90.802010,55.343693 90.267265,55.432243 
	C90.112885,56.481403 89.958511,57.530563 89.583641,60.078228 
	C85.592613,48.229980 79.835541,39.152729 71.342583,31.849205 
	C67.953026,28.934355 64.631790,26.412994 59.880878,26.793526 
	C59.497345,26.824244 59.080059,26.433542 58.316780,26.063169 
	C59.485863,25.444443 60.318455,25.003801 60.623627,24.842291 
	C56.695244,22.494238 52.793606,20.044184 48.765751,17.823009 
	C47.474518,17.110956 45.849651,17.003916 44.377426,16.620071 
	C44.158775,19.766457 42.191635,17.570013 40.974438,17.783852 
	C39.367027,18.066246 37.670406,18.332939 36.241417,19.058163 
	C27.609968,23.438690 23.016615,30.421326 23.012653,40.231186 
	C23.011831,42.270958 23.012535,44.310734 23.012535,46.350506 
	C19.636953,36.591587 21.046431,27.815916 28.730152,19.974312 
	C28.321335,19.792665 27.912516,19.611019 26.857903,19.674524 
z"/>
<path fill="#680438" opacity="1.000000" stroke="none" 
	d="
M53.168705,51.542137 
	C54.817398,53.402905 56.730495,55.102943 58.001297,57.193432 
	C58.620529,58.212086 58.041042,59.959435 58.004173,61.376930 
	C57.532204,61.383125 57.060234,61.389317 56.588268,61.395512 
	C58.342686,62.378071 60.097103,63.360626 62.641937,64.785858 
	C60.726360,65.575111 59.741215,65.981018 59.375706,66.131615 
	C62.861107,68.725471 66.629059,71.529602 70.397011,74.333725 
	C70.165100,74.774773 69.933189,75.215820 69.701279,75.656868 
	C58.209225,74.828896 46.814854,73.586647 36.698700,66.886887 
	C48.211800,79.189186 64.070801,76.413597 79.298050,79.484856 
	C77.659355,80.248940 76.815948,80.795334 75.892159,81.049118 
	C67.231544,83.428345 58.560535,85.770042 49.882557,88.085243 
	C48.794369,88.375557 47.540565,88.839645 46.545872,88.564339 
	C35.202091,85.424614 23.893749,82.156853 12.031555,78.767746 
	C20.567635,71.663956 19.568691,62.904404 17.151989,53.622757 
	C15.865382,48.681385 15.142677,43.468250 15.067307,38.364464 
	C14.940800,29.797832 18.957613,23.400738 27.383121,19.781212 
	C28.049433,20.035027 28.190527,20.182154 28.331621,20.329283 
	C21.046431,27.815916 19.636953,36.591587 23.012535,46.350506 
	C23.012535,44.310734 23.011831,42.270958 23.012653,40.231186 
	C23.016615,30.421326 27.609968,23.438690 36.241417,19.058163 
	C37.670406,18.332939 39.367027,18.066246 40.974438,17.783852 
	C42.191635,17.570013 44.158775,19.766457 44.377426,16.620071 
	C45.849651,17.003916 47.474518,17.110956 48.765751,17.823009 
	C52.793606,20.044184 56.695244,22.494238 60.623627,24.842291 
	C60.318455,25.003801 59.485863,25.444443 58.316780,26.063169 
	C59.080059,26.433542 59.497345,26.824244 59.880878,26.793526 
	C64.631790,26.412994 67.953026,28.934355 71.342583,31.849205 
	C79.835541,39.152729 85.592613,48.229980 89.583641,60.078228 
	C89.958511,57.530563 90.112885,56.481403 90.267265,55.432243 
	C90.802010,55.343693 91.336754,55.255142 91.871506,55.166588 
	C92.484558,58.196606 93.910072,61.358982 93.445045,64.213364 
	C93.094055,66.367790 90.552612,69.438385 88.582382,69.781258 
	C84.896744,70.422653 80.602409,70.440269 78.488846,65.652214 
	C77.585709,63.606274 75.722046,61.975933 74.254295,60.190075 
	C72.883385,58.522053 71.458786,56.898163 70.107216,55.312790 
	C67.113457,58.851154 63.486687,57.998863 54.453865,50.668839 
	C53.778496,50.123409 53.503532,49.947784 53.142998,49.535553 
	C52.784176,49.119171 52.510921,48.939404 52.131855,48.472786 
	C51.459980,47.840733 50.893921,47.495525 50.327858,47.150318 
	C50.197731,47.326580 50.067604,47.502842 49.937477,47.679104 
	C50.438499,48.305977 50.939518,48.932846 51.574299,49.777706 
	C51.945000,50.239582 52.181938,50.483475 52.512543,50.889587 
	C52.761902,51.251743 52.949402,51.415184 53.168705,51.542137 
z"/>
<path fill="#680438" opacity="1.000000" stroke="none" 
	d="
M27.706018,19.658636 
	C27.912516,19.611019 28.321335,19.792665 28.530888,20.151798 
	C28.190527,20.182154 28.049433,20.035027 27.706018,19.658636 
z"/>
<path fill="#F9C634" opacity="1.000000" stroke="none" 
	d="
M51.440536,49.559719 
	C50.939518,48.932846 50.438499,48.305977 49.937477,47.679104 
	C50.067604,47.502842 50.197731,47.326580 50.327858,47.150318 
	C50.893921,47.495525 51.459980,47.840733 51.930779,48.671074 
	C51.703857,49.290710 51.572197,49.425217 51.440536,49.559719 
z"/>
<path fill="#F9C634" opacity="1.000000" stroke="none" 
	d="
M52.418877,50.727367 
	C52.181938,50.483475 51.945000,50.239582 51.574299,49.777706 
	C51.572197,49.425217 51.703857,49.290710 52.036591,48.957920 
	C52.510921,48.939404 52.784176,49.119171 52.936127,49.770584 
	C52.682838,50.403938 52.550858,50.565651 52.418877,50.727367 
z"/>
<path fill="#F9C634" opacity="1.000000" stroke="none" 
	d="
M53.021694,50.007195 
	C53.503532,49.947784 53.778496,50.123409 54.143600,50.532646 
	C54.060246,50.900883 53.886753,51.035503 53.440979,51.356133 
	C52.949402,51.415184 52.761902,51.251743 52.512543,50.889587 
	C52.550858,50.565651 52.682838,50.403938 53.021694,50.007195 
z"/>
</svg>
