<?xml version="1.0" encoding="UTF-8" standalone="no"?>
<svg version="1.1" id="Layer_1" xmlns="http://www.w3.org/2000/svg" xmlns:xlink="http://www.w3.org/1999/xlink" x="0px" y="0px"
	 width="100%" viewBox="0 0 96 96" enable-background="new 0 0 96 96" xml:space="preserve">
<path fill="#000000" opacity="1.000000" stroke="none" 
	d="
M97.000000,32.000000 
	C97.000000,53.624649 97.000000,75.249298 97.000000,96.936974 
	C65.104179,96.936974 33.208206,96.936974 1.000000,96.936974 
	C1.000000,75.646790 1.000000,54.292053 1.350756,32.464508 
	C7.275539,37.548542 12.849566,43.105385 18.580816,48.818966 
	C18.528883,48.876724 17.453995,49.610142 17.040812,50.615501 
	C15.612055,54.091980 12.376324,58.854733 13.589117,60.928459 
	C15.575986,64.325760 16.158566,67.788826 17.317823,71.238960 
	C17.475201,71.707336 18.249424,71.995186 18.772915,72.308311 
	C19.906385,72.986290 21.246437,73.433517 22.174618,74.318481 
	C24.900517,76.917480 27.526720,81.985535 30.082798,81.918587 
	C35.862122,81.767220 38.430466,86.433235 42.832054,87.820595 
	C45.709133,88.727417 49.048832,90.000450 51.729950,89.323036 
	C57.788597,87.792213 61.945744,82.108360 68.830650,81.340416 
	C71.322357,81.062485 73.340553,76.875053 75.657196,74.553772 
	C76.859268,73.349304 78.241096,72.324219 79.541710,71.218102 
	C81.220100,68.857361 82.054619,65.770302 82.994743,62.715752 
	C83.380676,61.461811 84.709961,60.020576 84.381203,59.106556 
	C82.917244,55.036293 81.008667,51.125954 79.588837,47.902573 
	C83.965485,44.164848 88.482658,40.393322 92.889084,36.496544 
	C94.401825,35.158760 95.637657,33.507851 97.000000,32.000000 
z"/>
<path fill="#062E59" opacity="1.000000" stroke="none" 
	d="
M97.000000,31.532059 
	C95.637657,33.507851 94.401825,35.158760 92.889084,36.496544 
	C88.482658,40.393322 83.965485,44.164848 79.588837,47.902573 
	C81.008667,51.125954 82.917244,55.036293 84.381203,59.106556 
	C84.709961,60.020576 83.380676,61.461811 82.994743,62.715752 
	C82.054619,65.770302 81.220100,68.857361 79.541710,71.218102 
	C78.241096,72.324219 76.859268,73.349304 75.657196,74.553772 
	C73.340553,76.875053 71.322357,81.062485 68.830650,81.340416 
	C61.945744,82.108360 57.788597,87.792213 51.729950,89.323036 
	C49.048832,90.000450 45.709133,88.727417 42.832054,87.820595 
	C38.430466,86.433235 35.862122,81.767220 30.082798,81.918587 
	C27.526720,81.985535 24.900517,76.917480 22.174618,74.318481 
	C21.246437,73.433517 19.906385,72.986290 18.772915,72.308311 
	C18.249424,71.995186 17.475201,71.707336 17.317823,71.238960 
	C16.158566,67.788826 15.575986,64.325760 13.589117,60.928459 
	C12.376324,58.854733 15.612055,54.091980 17.040812,50.615501 
	C17.453995,49.610142 18.528883,48.876724 18.580816,48.818966 
	C12.849566,43.105385 7.275539,37.548542 1.350756,31.995848 
	C1.000000,26.311958 1.000000,20.623919 1.353743,14.545397 
	C2.603271,14.731292 3.663309,15.155348 4.364858,15.911852 
	C6.719019,18.450422 8.556625,21.675493 11.323391,23.569057 
	C14.460773,25.716269 19.062393,28.725220 21.831339,27.795872 
	C27.928953,25.749313 34.313759,23.175003 38.432392,17.271090 
	C40.072155,14.920545 42.814926,13.286545 45.202572,11.525685 
	C47.544136,9.798811 49.945328,9.462093 52.409283,11.662143 
	C56.100864,14.958333 60.241047,17.796486 63.667469,21.335743 
	C70.188469,28.071497 78.503830,29.376825 85.954292,23.945940 
	C88.436852,22.136320 90.236664,19.415432 92.505630,17.277819 
	C93.844650,16.016327 95.491554,15.081653 97.000000,14.000001 
	C97.000000,19.688040 97.000000,25.376081 97.000000,31.532059 
M61.604321,77.664612 
	C62.376389,76.797791 63.267857,76.009697 63.900181,75.050728 
	C66.885590,70.523117 66.968918,64.933350 64.195740,60.943214 
	C61.179279,56.603043 57.176346,55.469467 50.999607,56.952206 
	C49.640984,57.278347 48.052696,57.215225 46.690781,56.863857 
	C40.123013,55.169369 35.103264,57.281307 32.684681,62.938530 
	C30.196941,68.757515 32.547462,75.257057 38.407154,78.630234 
	C39.007702,76.965912 39.605122,75.310242 40.182049,73.711372 
	C42.697140,77.179008 45.104248,80.497765 47.511356,83.816513 
	C47.934906,83.571732 48.358459,83.326950 48.782009,83.082169 
	C48.948860,79.654816 49.115711,76.227455 49.282562,72.800095 
	C49.654903,72.753532 50.027241,72.706970 50.399578,72.660408 
	C51.608120,74.723839 52.816662,76.787270 54.025200,78.850693 
	C54.511894,78.888496 54.998585,78.926292 55.485275,78.964096 
	C56.321648,75.420204 57.158020,71.876312 58.102665,67.873657 
	C49.856152,68.106239 42.557789,64.972908 36.051815,70.577728 
	C34.225201,66.608826 36.067501,63.472950 39.262882,62.487915 
	C43.865715,61.069016 49.051140,59.910725 53.694069,60.605358 
	C62.200851,61.878071 64.307175,66.424850 61.733234,74.662415 
	C61.393158,75.750793 61.268509,76.906494 60.798508,78.055870 
	C60.798508,78.055870 60.721497,78.344841 60.721497,78.344841 
	C60.721497,78.344841 60.984734,77.964592 61.604321,77.664612 
M62.918976,35.539227 
	C54.207809,34.771168 55.044769,28.108320 55.405273,21.708656 
	C56.782303,23.980736 58.159328,26.252815 59.055656,27.731743 
	C60.548248,27.425737 61.854183,27.157999 64.591057,26.596895 
	C59.313820,21.846947 54.718426,17.710714 50.123032,13.574484 
	C49.708244,13.903328 49.293453,14.232173 48.878666,14.561017 
	C48.878666,20.177372 48.878666,25.793728 48.878666,31.118759 
	C43.293507,32.956936 38.116161,34.673485 32.930092,36.363266 
	C29.515507,37.475842 28.988731,39.767170 30.214191,43.734814 
	C36.787453,38.693428 41.432091,43.807171 46.861523,46.210800 
	C46.346466,48.636940 45.841869,51.013790 45.119362,54.417110 
	C47.967579,54.255569 50.277653,54.124554 52.818604,53.980438 
	C52.101013,50.763237 51.601234,48.522572 51.118378,46.357761 
	C56.514282,43.099506 61.599140,39.558498 68.089714,43.375431 
	C68.297371,37.859646 68.297371,37.859646 62.918976,35.539227 
M5.165155,23.337914 
	C5.001900,23.311480 4.834547,23.251324 4.676835,23.270496 
	C4.572052,23.283236 4.394956,23.410698 4.396096,23.484560 
	C4.529488,32.130287 12.115370,41.080200 20.998280,42.786728 
	C20.998280,39.298397 20.998280,35.864937 20.998280,33.643196 
	C15.568697,30.108768 10.666517,26.917658 5.165155,23.337914 
M76.962936,36.142124 
	C76.962936,38.381180 76.962936,40.620239 76.962936,43.023716 
	C86.983681,40.070255 93.183662,32.282990 93.200264,23.200350 
	C90.919556,24.920153 88.814423,26.841043 86.404182,28.234035 
	C83.840851,29.715521 80.882339,30.514158 78.322762,32.000744 
	C77.484734,32.487469 77.355377,34.194374 76.962936,36.142124 
M78.727203,55.449684 
	C77.882355,51.354420 75.111633,49.153362 71.449852,47.632950 
	C68.043716,56.992275 68.043716,56.992275 70.734795,71.703278 
	C72.891472,68.353935 74.842079,65.324615 76.792694,62.295300 
	C77.035889,62.478699 77.279091,62.662094 77.522293,62.845490 
	C77.742638,60.545097 77.962990,58.244705 78.727203,55.449684 
M24.422100,67.004425 
	C25.338390,68.711037 26.254681,70.417648 27.170973,72.124252 
	C27.488466,63.718418 32.428982,55.349907 26.115292,47.890987 
	C17.320877,50.290432 20.957136,57.496807 20.349518,61.651447 
	C22.165421,63.861961 23.170218,65.085114 24.422100,67.004425 
M43.455975,22.333549 
	C43.639622,21.114605 43.823269,19.895658 44.006916,18.676714 
	C41.987297,19.751274 40.782757,21.231583 39.625629,22.748066 
	C38.851025,23.763231 38.359608,25.401150 37.369305,25.775274 
	C32.872932,27.473942 31.428680,29.296776 31.617008,34.155689 
	C36.709538,31.652897 44.482372,32.217857 43.455975,22.333549 
M27.278034,36.072445 
	C27.802231,33.877323 28.326426,31.682199 28.897396,29.291203 
	C24.171215,30.777706 22.499010,38.016373 26.215937,44.968014 
	C26.525812,42.283947 26.835688,39.599884 27.278034,36.072445 
M74.032089,38.604176 
	C73.487877,31.148357 73.086357,30.370127 69.266922,29.552494 
	C70.226982,34.760033 71.170845,39.879688 72.114700,44.999344 
	C72.763847,44.904713 73.412987,44.810081 74.062126,44.715450 
	C74.062126,42.972477 74.062126,41.229504 74.032089,38.604176 
M43.483337,49.327557 
	C40.953869,49.207409 38.424397,49.087265 35.518585,48.949242 
	C35.773502,50.564850 36.035755,52.226971 36.599583,55.800381 
	C39.567017,53.334656 41.505054,51.724289 43.483337,49.327557 
M56.780319,49.143559 
	C56.051643,49.550030 55.322968,49.956497 54.594292,50.362965 
	C56.594532,51.866268 58.594776,53.369576 61.634624,55.654213 
	C62.005863,52.028046 62.178917,50.337700 62.349766,48.668873 
	C60.476120,48.930717 59.012615,49.135242 56.780319,49.143559 
M33.867550,53.514946 
	C33.585888,50.824398 33.304226,48.133850 32.839039,43.690239 
	C31.397669,45.933811 29.831268,47.294384 30.052851,48.232750 
	C30.673372,50.860565 32.032494,53.313969 33.100189,55.836189 
	C33.395855,55.323952 33.691521,54.811710 33.867550,53.514946 
M66.718880,54.085175 
	C67.160927,52.344448 68.035797,50.571499 67.909363,48.873096 
	C67.806480,47.491093 66.504089,46.198395 65.733612,44.866093 
	C64.622719,48.282452 64.364975,50.841824 64.131996,53.403446 
	C63.930946,55.613934 63.943398,55.615067 66.718880,54.085175 
z"/>
<path fill="#000000" opacity="1.000000" stroke="none" 
	d="
M97.000000,13.523339 
	C95.491554,15.081653 93.844650,16.016327 92.505630,17.277819 
	C90.236664,19.415432 88.436852,22.136320 85.954292,23.945940 
	C78.503830,29.376825 70.188469,28.071497 63.667469,21.335743 
	C60.241047,17.796486 56.100864,14.958333 52.409283,11.662143 
	C49.945328,9.462093 47.544136,9.798811 45.202572,11.525685 
	C42.814926,13.286545 40.072155,14.920545 38.432392,17.271090 
	C34.313759,23.175003 27.928953,25.749313 21.831339,27.795872 
	C19.062393,28.725220 14.460773,25.716269 11.323391,23.569057 
	C8.556625,21.675493 6.719019,18.450422 4.364858,15.911852 
	C3.663309,15.155348 2.603271,14.731292 1.353743,14.077457 
	C1.000000,9.682835 1.000000,5.365669 1.000010,1.047114 
	C33.000027,1.045724 65.000031,1.045724 97.000000,1.045724 
	C97.000000,5.076524 97.000000,9.061601 97.000000,13.523339 
z"/>
<path fill="#9BB3C4" opacity="1.000000" stroke="none" 
	d="
M63.276649,35.693317 
	C68.297371,37.859646 68.297371,37.859646 68.089714,43.375431 
	C61.599140,39.558498 56.514282,43.099506 51.118378,46.357761 
	C51.601234,48.522572 52.101013,50.763237 52.818604,53.980438 
	C50.277653,54.124554 47.967579,54.255569 45.119362,54.417110 
	C45.841869,51.013790 46.346466,48.636940 46.861523,46.210800 
	C41.432091,43.807171 36.787453,38.693428 30.214191,43.734814 
	C28.988731,39.767170 29.515507,37.475842 32.930092,36.363266 
	C38.116161,34.673485 43.293507,32.956936 48.878666,31.118759 
	C48.878666,25.793728 48.878666,20.177372 48.878666,14.561017 
	C49.293453,14.232173 49.708244,13.903328 50.123032,13.574484 
	C54.718426,17.710714 59.313820,21.846947 64.591057,26.596895 
	C61.854183,27.157999 60.548248,27.425737 59.055656,27.731743 
	C58.159328,26.252815 56.782303,23.980736 55.405273,21.708656 
	C55.044769,28.108320 54.207809,34.771168 63.276649,35.693317 
M47.086601,42.419125 
	C50.206841,42.793995 53.216694,42.897957 54.937889,39.420910 
	C50.875618,39.420910 47.039948,39.420910 41.636627,39.420910 
	C44.024658,40.848740 45.176865,41.537659 47.086601,42.419125 
z"/>
<path fill="#33A62F" opacity="1.000000" stroke="none" 
	d="
M61.044090,78.031013 
	C61.268509,76.906494 61.393158,75.750793 61.733234,74.662415 
	C64.307175,66.424850 62.200851,61.878071 53.694069,60.605358 
	C49.051140,59.910725 43.865715,61.069016 39.262882,62.487915 
	C36.067501,63.472950 34.225201,66.608826 36.051815,70.577728 
	C42.557789,64.972908 49.856152,68.106239 58.102665,67.873657 
	C57.158020,71.876312 56.321648,75.420204 55.485275,78.964096 
	C54.998585,78.926292 54.511894,78.888496 54.025200,78.850693 
	C52.816662,76.787270 51.608120,74.723839 50.399578,72.660408 
	C50.027241,72.706970 49.654903,72.753532 49.282562,72.800095 
	C49.115711,76.227455 48.948860,79.654816 48.782009,83.082169 
	C48.358459,83.326950 47.934906,83.571732 47.511356,83.816513 
	C45.104248,80.497765 42.697140,77.179008 40.182049,73.711372 
	C39.605122,75.310242 39.007702,76.965912 38.407154,78.630234 
	C32.547462,75.257057 30.196941,68.757515 32.684681,62.938530 
	C35.103264,57.281307 40.123013,55.169369 46.690781,56.863857 
	C48.052696,57.215225 49.640984,57.278347 50.999607,56.952206 
	C57.176346,55.469467 61.179279,56.603043 64.195740,60.943214 
	C66.968918,64.933350 66.885590,70.523117 63.900181,75.050728 
	C63.267857,76.009697 62.376389,76.797791 61.307468,77.832840 
	C61.010616,78.001076 61.044090,78.031013 61.044090,78.031013 
z"/>
<path fill="#F3F5F7" opacity="1.000000" stroke="none" 
	d="
M5.464746,23.532230 
	C10.666517,26.917658 15.568697,30.108768 20.998280,33.643196 
	C20.998280,35.864937 20.998280,39.298397 20.998280,42.786728 
	C12.115370,41.080200 4.529488,32.130287 4.396096,23.484560 
	C4.394956,23.410698 4.572052,23.283236 4.676835,23.270496 
	C4.834547,23.251324 5.001900,23.311480 5.464746,23.532230 
z"/>
<path fill="#F3F5F7" opacity="1.000000" stroke="none" 
	d="
M76.932434,35.742699 
	C77.355377,34.194374 77.484734,32.487469 78.322762,32.000744 
	C80.882339,30.514158 83.840851,29.715521 86.404182,28.234035 
	C88.814423,26.841043 90.919556,24.920153 93.200264,23.200350 
	C93.183662,32.282990 86.983681,40.070255 76.962936,43.023716 
	C76.962936,40.620239 76.962936,38.381180 76.932434,35.742699 
z"/>
<path fill="#33A530" opacity="1.000000" stroke="none" 
	d="
M78.455276,55.696999 
	C77.962990,58.244705 77.742638,60.545097 77.522293,62.845490 
	C77.279091,62.662094 77.035889,62.478699 76.792694,62.295300 
	C74.842079,65.324615 72.891472,68.353935 70.734795,71.703278 
	C68.043716,56.992275 68.043716,56.992275 71.449852,47.632950 
	C75.111633,49.153362 77.882355,51.354420 78.455276,55.696999 
z"/>
<path fill="#33A52F" opacity="1.000000" stroke="none" 
	d="
M24.298557,66.656342 
	C23.170218,65.085114 22.165421,63.861961 20.349518,61.651447 
	C20.957136,57.496807 17.320877,50.290432 26.115292,47.890987 
	C32.428982,55.349907 27.488466,63.718418 27.170973,72.124252 
	C26.254681,70.417648 25.338390,68.711037 24.298557,66.656342 
z"/>
<path fill="#93ACBF" opacity="1.000000" stroke="none" 
	d="
M43.360451,22.726032 
	C44.482372,32.217857 36.709538,31.652897 31.617008,34.155689 
	C31.428680,29.296776 32.872932,27.473942 37.369305,25.775274 
	C38.359608,25.401150 38.851025,23.763231 39.625629,22.748066 
	C40.782757,21.231583 41.987297,19.751274 44.006916,18.676714 
	C43.823269,19.895658 43.639622,21.114605 43.360451,22.726032 
z"/>
<path fill="#92ACBE" opacity="1.000000" stroke="none" 
	d="
M27.211800,36.494133 
	C26.835688,39.599884 26.525812,42.283947 26.215937,44.968014 
	C22.499010,38.016373 24.171215,30.777706 28.897396,29.291203 
	C28.326426,31.682199 27.802231,33.877323 27.211800,36.494133 
z"/>
<path fill="#94ADC0" opacity="1.000000" stroke="none" 
	d="
M74.047104,39.045353 
	C74.062126,41.229504 74.062126,42.972477 74.062126,44.715450 
	C73.412987,44.810081 72.763847,44.904713 72.114700,44.999344 
	C71.170845,39.879688 70.226982,34.760033 69.266922,29.552494 
	C73.086357,30.370127 73.487877,31.148357 74.047104,39.045353 
z"/>
<path fill="#E8EBF0" opacity="1.000000" stroke="none" 
	d="
M43.463211,49.720741 
	C41.505054,51.724289 39.567017,53.334656 36.599583,55.800381 
	C36.035755,52.226971 35.773502,50.564850 35.518585,48.949242 
	C38.424397,49.087265 40.953869,49.207409 43.463211,49.720741 
z"/>
<path fill="#E8ECF0" opacity="1.000000" stroke="none" 
	d="
M57.164715,49.241665 
	C59.012615,49.135242 60.476120,48.930717 62.349766,48.668873 
	C62.178917,50.337700 62.005863,52.028046 61.634624,55.654213 
	C58.594776,53.369576 56.594532,51.866268 54.594292,50.362965 
	C55.322968,49.956497 56.051643,49.550030 57.164715,49.241665 
z"/>
<path fill="#91AABD" opacity="1.000000" stroke="none" 
	d="
M33.927368,53.907207 
	C33.691521,54.811710 33.395855,55.323952 33.100189,55.836189 
	C32.032494,53.313969 30.673372,50.860565 30.052851,48.232750 
	C29.831268,47.294384 31.397669,45.933811 32.839039,43.690239 
	C33.304226,48.133850 33.585888,50.824398 33.927368,53.907207 
z"/>
<path fill="#8EA8BC" opacity="1.000000" stroke="none" 
	d="
M66.534027,54.438255 
	C63.943398,55.615067 63.930946,55.613934 64.131996,53.403446 
	C64.364975,50.841824 64.622719,48.282452 65.733612,44.866093 
	C66.504089,46.198395 67.806480,47.491093 67.909363,48.873096 
	C68.035797,50.571499 67.160927,52.344448 66.534027,54.438255 
z"/>
<path fill="#33A62F" opacity="1.000000" stroke="none" 
	d="
M60.997673,77.982834 
	C60.984734,77.964592 60.721497,78.344841 60.721497,78.344841 
	C60.721497,78.344841 60.798508,78.055870 60.921299,78.043442 
	C61.044090,78.031013 61.010616,78.001076 60.997673,77.982834 
z"/>
<path fill="#193F68" opacity="1.000000" stroke="none" 
	d="
M46.707836,42.322849 
	C45.176865,41.537659 44.024658,40.848740 41.636627,39.420910 
	C47.039948,39.420910 50.875618,39.420910 54.937889,39.420910 
	C53.216694,42.897957 50.206841,42.793995 46.707836,42.322849 
z"/>
</svg>
