<?xml version="1.0" encoding="UTF-8" standalone="no"?>
<svg
   xml:space="preserve"
   width="100"
   height="100"
   fill-rule="evenodd"
   stroke-linejoin="round"
   stroke-miterlimit="2"
   clip-rule="evenodd"
   viewBox="0 0 100 100"
   version="1.1"
   id="svg5"
   sodipodi:docname="raiders.svg"
   inkscape:version="1.3.2 (091e20e, 2023-11-25)"
   xmlns:inkscape="http://www.inkscape.org/namespaces/inkscape"
   xmlns:sodipodi="http://sodipodi.sourceforge.net/DTD/sodipodi-0.dtd"
   xmlns="http://www.w3.org/2000/svg"
   xmlns:svg="http://www.w3.org/2000/svg"><defs
     id="defs5" /><sodipodi:namedview
     id="namedview5"
     pagecolor="#ffffff"
     bordercolor="#000000"
     borderopacity="0.25"
     inkscape:showpageshadow="2"
     inkscape:pageopacity="0.0"
     inkscape:pagecheckerboard="0"
     inkscape:deskcolor="#d1d1d1"
     inkscape:zoom="2.36"
     inkscape:cx="49.788136"
     inkscape:cy="50"
     inkscape:window-width="1712"
     inkscape:window-height="1069"
     inkscape:window-x="0"
     inkscape:window-y="38"
     inkscape:window-maximized="0"
     inkscape:current-layer="layer7" /><g
     inkscape:groupmode="layer"
     id="layer6"
     inkscape:label="background"
     style="display:inline"><rect
       style="fill:#062e59"
       id="rect5"
       width="152.11864"
       height="137.71187"
       x="-21.186441"
       y="-12.288136" /></g><g
     inkscape:groupmode="layer"
     id="layer7"
     inkscape:label="foreground"
     style="display:inline"><path
       fill="#002856"
       fill-rule="nonzero"
       d="M 95.301494,17.348763 C 91.986879,24.934386 84.167367,30.742468 76.177816,31.935097 75.875005,31.144952 75.525607,30.37761 75.129624,29.647894 L 66.90714,27.73239 C 61.945699,21.613039 56.619719,17.037493 50.641531,13.654576 44.655191,17.029512 39.336199,21.613039 34.374758,27.73239 l -8.222483,1.915504 C 25.756291,30.37761 25.406894,31.144952 25.104083,31.935097 17.106379,30.734487 9.2880324,24.927545 5.9804044,17.348763 0.41334077,27.98323 8.2549809,45.260392 23.947578,48.544113 c 0,0.03763 0.007,0.06841 0.01514,0.106037 -4.332526,3.162862 -7.267464,7.806819 -7.546981,14.548709 l 3.152728,-1.383039 c -0.559036,3.793382 0.04659,7.350746 1.374296,10.808915 l 2.429476,-2.340791 c 2.026504,5.320084 5.653248,9.38711 10.443485,12.564794 v -3.77856 c 5.077908,4.804723 10.653124,7.906015 16.832797,10.406432 6.180839,-2.500417 11.747902,-5.601709 16.833962,-10.406432 v 3.77856 c 4.790237,-3.169703 8.415817,-7.24471 10.442321,-12.564794 l 2.430641,2.340791 c 1.327709,-3.458169 1.933331,-7.015533 1.374296,-10.808915 l 3.152728,1.383039 c -0.287671,-6.74189 -3.214455,-11.385847 -7.546982,-14.548709 0,-0.03763 0.007,-0.06841 0.01514,-0.106037 C 93.042059,45.260392 100.88486,27.990071 95.3178,17.348763 Z"
       id="path2"
       style="stroke-width:1.15235" /><path
       fill="#ffffff"
       fill-rule="nonzero"
       d="m 93.981937,25.048404 c -0.02329,3.443347 -1.118071,7.160337 -3.214455,10.512469 -1.910038,3.055685 -4.527024,5.617671 -7.562122,7.411176 a 21.53452,21.081946 0 0 1 -5.427305,2.257558 c 0.294659,-3.427384 0.123454,-7.075963 -0.698794,-10.444057 6.382324,-1.078611 12.58529,-4.681583 16.910829,-9.737146 z m -86.697116,0 c 0.023293,3.443347 1.1180714,7.160337 3.214455,10.512469 1.910038,3.055685 4.527024,5.617671 7.562122,7.411176 a 21.53452,21.081946 0 0 0 5.427305,2.257558 C 23.194044,41.802223 23.365249,38.153644 24.187497,34.78555 17.805173,33.706939 11.602206,30.103967 7.2766684,25.048404 Z m 38.441855,25.129589 c -1.863452,0.555268 -3.726904,0.980555 -5.590357,1.270161 a 22.716648,22.23923 0 0 1 -2.244295,-2.364735 c -0.474016,2.211951 -0.201486,4.309884 0.637068,6.453424 1.910038,-0.638501 3.858511,-0.88136 5.838429,-0.767342 z m 15.396774,1.270161 c -1.863452,-0.296447 -3.719916,-0.714893 -5.590356,-1.270161 l 1.357991,4.591508 c 1.979918,-0.114018 3.921402,0.128841 5.839593,0.767342 0.838554,-2.14354 1.109919,-4.233492 0.635903,-6.453424 -0.635903,0.791286 -1.397589,1.57345 -2.243131,2.364735 z M 45.128042,63.024412 c -2.329315,2.39438 1.250842,2.660042 2.927949,2.280362 a 38.422057,37.61457 0 0 1 8.843246,-0.798127 C 55.027632,63.009589 51.46378,63.024412 51.46378,63.024412 h -6.342726 z"
       id="path3"
       style="stroke-width:1.15235" /><path
       fill="#36ad2d"
       fill-rule="nonzero"
       d="M 41.277684,49.487043 C 40.15146,48.39931 39.312906,47.289914 38.73873,46.149733 l 1.653814,0.486858 c 0.411124,0.576931 0.90028,1.140181 1.474457,1.70229 0.838553,-0.151644 1.653813,-0.334073 2.453933,-0.547287 l 1.715541,0.50168 c -1.537348,0.501679 -3.121283,0.904163 -4.775096,1.20061 z m 21.250344,-3.33731 -1.653814,0.486858 a 12.9277,12.656009 0 0 1 -1.474457,1.70229 c -0.838553,-0.151644 -1.653814,-0.334073 -2.453934,-0.547287 l -1.71554,0.50168 c 1.537348,0.501679 3.121282,0.904163 4.775096,1.20061 1.125059,-1.086592 1.963613,-2.195988 2.538954,-3.336169 z m -33.192744,2.584791 -0.37269,0.166466 c -3.820078,1.832271 -7.072966,5.427261 -8.392524,9.152233 l 3.827066,-1.428647 c -1.404578,2.83449 -1.878593,5.79896 -1.762128,8.870608 l 3.036263,-2.638379 c 0.768674,5.070385 2.289717,8.277714 5.334132,11.683434 C 29.38187,68.892923 29.89432,63.434877 32.822269,59.61185 30.764319,56.129737 29.599661,51.562172 29.335284,48.726542 Z m 51.361403,9.318699 C 79.37713,54.328251 76.124241,50.733261 72.304164,48.90099 a 6.0434086,5.916399 0 0 0 -0.37269,-0.166466 c -0.256225,2.827648 -1.429035,7.395213 -3.486985,10.884167 2.927949,3.824167 3.440398,9.281073 1.816866,14.92953 3.044415,-3.405721 4.55847,-6.61305 5.334132,-11.683435 l 3.036262,2.637239 c 0.116466,-3.070507 -0.35755,-6.034978 -1.762127,-8.870608 l 3.827065,1.429787 z m -17.321953,1.664664 a 9.6480241,9.4452591 0 0 0 -2.593693,-1.581431 c -1.420882,-0.584913 -3.121282,-1.101415 -4.938148,-0.82093 -1.816866,0.281624 -5.201362,1.619057 -5.201362,1.619057 0,0 -3.385659,-1.337433 -5.202525,-1.619057 -1.816866,-0.280485 -3.517267,0.236017 -4.938149,0.82093 -0.931726,0.38082 -1.808713,0.912145 -2.593693,1.581431 -0.37269,0.31925 -0.722087,0.661305 -1.055179,1.018181 -4.527025,4.941545 -4.465298,13.317314 4.036703,19.102592 -0.09317,-2.873256 0.535743,-5.313243 1.856464,-7.335924 1.016747,5.458046 4.114736,9.554716 7.896379,11.447417 V 72.02386 c 2.702006,1.824289 4.091443,4.804723 4.472286,8.217284 4.612044,-4.089829 4.735498,-10.991344 2.259436,-13.157688 l -0.7151,2.721612 c -1.482609,-1.185788 -3.687306,-2.120737 -6.016622,-2.166344 -2.329315,0.04561 -4.535177,0.980556 -6.017786,2.166344 L 43.90981,67.083456 c -0.116466,0.03763 -0.241084,0.08323 -0.35755,0.121999 -2.437628,0.896182 -4.317386,2.713631 -4.953289,5.122833 -2.322327,-3.010077 -1.390601,-6.385013 1.366144,-8.468124 1.7004,-1.283844 3.695458,-1.717112 5.45875,-2.310006 l 3.206303,-0.905304 2.003211,1.026163 2.003211,-1.026163 3.206303,0.905304 c 1.770279,0.592894 3.750197,1.040985 5.45875,2.310006 5.302686,3.938185 2.018352,11.577398 -0.916585,15.978496 8.502001,-5.792119 8.564892,-14.161047 4.037868,-19.102592 a 11.145774,10.911532 0 0 0 -1.056345,-1.018181 z"
       id="path4"
       style="stroke-width:1.15235" /><path
       fill="#a1b9c9"
       fill-rule="nonzero"
       d="m 31.687893,31.517791 c -1.948473,4.179904 -2.810319,9.972023 -2.569235,14.67755 -0.916586,0.395642 -1.607228,0.721734 -2.430641,1.140181 -0.737228,-4.423903 -0.450722,-10.808916 1.592087,-15.065211 l 3.400801,-0.75252 z m 41.291773,0.75252 -3.400801,-0.75252 c 1.948472,4.179904 2.810319,9.972023 2.569235,14.67755 0.916586,0.395642 1.607228,0.721734 2.430641,1.140181 0.737228,-4.423903 0.450722,-10.808916 -1.592087,-15.065211 z M 35.990138,46.682198 a 24.341345,23.829782 0 0 0 -4.076302,1.124218 c 0.201486,3.755756 1.187951,7.091926 2.725299,10.056396 l 1.823854,-1.314628 c -1.25783,-3.138918 -1.590922,-6.331425 -0.481004,-9.865986 z m 28.813631,9.865986 1.823854,1.314628 A 25.253272,24.722544 0 0 0 69.352922,47.806416 24.341345,23.829782 0 0 0 65.27662,46.682198 c 1.111083,3.52658 0.776826,6.727068 -0.481004,9.865986 z m 4.362807,-16.540605 c 0.241084,1.231395 0.412289,3.040862 0.412289,5.336046 -4.868269,-1.588272 -8.944571,-2.036363 -8.944571,-2.036363 a 14.504647,14.199814 0 0 1 -2.453933,2.029522 14.225129,13.92617 0 0 1 -5.753409,2.20397 l 1.98807,7.555979 c -1.304416,0.296447 -2.562247,0.744539 -3.773491,1.345414 -1.211244,-0.600875 -2.469074,-1.048967 -3.77349,-1.345414 l 1.986906,-7.555979 a 14.342759,14.041329 0 0 1 -8.206178,-4.233492 c 0,0 -4.076302,0.448091 -8.944571,2.036363 0,-2.295184 0.163052,-4.104651 0.411124,-5.336046 0.869999,-0.425288 9.535052,-4.560724 18.533197,-5.776157 v -17.07307 c 6.382324,2.64522 17.097175,12.998063 18.005608,20.120774 0,0 -1.645661,-3.96783 -7.267464,-9.090663 0.171205,1.132199 0.116466,3.329328 -0.61261,4.635976 -0.831565,-3.723832 -2.337468,-7.075964 -5.264252,-9.554717 1.171645,4.112633 1.404577,9.189859 1.404577,12.238702 6.413769,1.702291 11.608143,4.179904 12.268504,4.507136 z m -12.663322,1.498197 c 0,-0.426427 -0.171205,-0.828911 -0.481004,-1.20175 -0.901445,1.07177 -2.974536,1.824289 -5.397024,1.824289 -2.422488,0 -4.495578,-0.752519 -5.395859,-1.824289 -0.310963,0.364858 -0.481003,0.775323 -0.481003,1.20175 0,1.671506 2.632126,3.0249 5.876862,3.0249 3.245901,0 5.878028,-1.353394 5.878028,-3.0249 z M 45.485592,24.32667 a 35.149368,34.410661 0 0 1 1.41273,-4.515117 c 0,0 -4.231202,3.283721 -6.708428,8.368928 -0.550884,1.140181 -1.024899,2.371577 -1.334698,3.679364 a 7.3513192,7.1968222 0 0 1 -0.404136,-2.501557 10.465614,10.245666 0 0 1 0.582328,-3.238114 c -3.339073,3.671383 -5.954894,7.776035 -6.413769,11.158952 3.432246,-1.801486 7.493407,-3.200488 11.794488,-4.415921 0,0 0.131606,-4.705527 1.071485,-8.536535 z"
       id="path5"
       style="stroke-width:1.15235" /></g></svg>
