<?xml version="1.0" encoding="UTF-8" standalone="no"?>
<svg
   clip-rule="evenodd"
   fill-rule="evenodd"
   stroke-linejoin="round"
   stroke-miterlimit="1.414"
   viewBox="0 0 100 100"
   version="1.1"
   id="svg6"
   sodipodi:docname="badge-2.svg"
   inkscape:version="1.3.2 (091e20e, 2023-11-25)"
   xmlns:inkscape="http://www.inkscape.org/namespaces/inkscape"
   xmlns:sodipodi="http://sodipodi.sourceforge.net/DTD/sodipodi-0.dtd"
   xmlns="http://www.w3.org/2000/svg"
   xmlns:svg="http://www.w3.org/2000/svg">
  <defs
     id="defs6" />
  <sodipodi:namedview
     id="namedview6"
     pagecolor="#ffffff"
     bordercolor="#000000"
     borderopacity="0.25"
     inkscape:showpageshadow="2"
     inkscape:pageopacity="0.0"
     inkscape:pagecheckerboard="0"
     inkscape:deskcolor="#d1d1d1"
     inkscape:zoom="2.36"
     inkscape:cx="49.788136"
     inkscape:cy="50"
     inkscape:window-width="1232"
     inkscape:window-height="687"
     inkscape:window-x="0"
     inkscape:window-y="39"
     inkscape:window-maximized="0"
     inkscape:current-layer="layer1" />
  <g
     inkscape:groupmode="layer"
     id="layer1"
     inkscape:label="background">
    <rect
       style="fill:#00468b;fill-opacity:1"
       id="rect6"
       width="138.55933"
       height="126.69492"
       x="-20.762712"
       y="-11.016949"
       inkscape:label="rect6" />
  </g>
  <g
     inkscape:groupmode="layer"
     id="layer3"
     inkscape:label="foreground">
    <g
       fill-rule="nonzero"
       id="g6"
       style="display:inline;mix-blend-mode:normal">
      <path
         d="M 47.706,97.649 A 67.814,67.814 0 0 1 38.394,92.642 110.82,110.82 0 0 1 25.135,82.358 31.137,31.137 0 0 1 16.503,68.479 62.735,62.735 0 0 1 13.77,49.012 V 3.721 h 72.459 v 45.291 a 63.828,63.828 0 0 1 -2.674,19.527 30.877,30.877 0 0 1 -8.612,13.839 114.524,114.524 0 0 1 -13.298,10.214 69.217,69.217 0 0 1 -7.931,4.466 c -0.401,0.201 -3.605,1.663 -3.605,1.663 z"
         fill="#ffffff"
         id="path1" />
      <path
         d="M 82.414,22.046 H 17.545 V 7.526 H 82.414 Z M 22.322,72.745 a 24.874,24.874 0 0 0 5.356,6.909 101.605,101.605 0 0 0 12.217,9.413 62.174,62.174 0 0 0 8.512,4.606 l 1.602,0.732 h 0.05 l 1.663,-0.752 a 61.844,61.844 0 0 0 8.39,-4.606 105.644,105.644 0 0 0 12.237,-9.413 24.595,24.595 0 0 0 5.388,-6.909 z"
         fill="#231f20"
         id="path2" />
      <path
         d="M 50.069,55.771 28.439,22.807 h 43.24 z M 82.404,22.822 V 45.608 L 64.949,71.984 H 35.129 L 17.545,45.608 V 22.817 L 50.069,71.944 82.404,22.822 v -0.015 h 0.01 z"
         fill="#00468b"
         id="path3" />
      <path
         d="m 52.332,11.642 c 1.001,0 1.101,0.4 1.101,3.003 0,2.604 -0.1,3.004 -1.101,3.004 h -0.5 v -6.007 z m 0.661,7.84 c 2.944,0 3.104,-2.313 3.104,-4.877 0,-2.563 -0.16,-4.886 -3.104,-4.886 h -3.705 v 9.763 z m -7.47,-2.083 v -7.68 h -2.544 v 9.763 h 5.678 v -2.083 z m -6.349,0 v -7.68 h -2.543 v 9.763 h 5.678 v -2.083 z m -14.67,-2.122 c 0.47,0 0.902,0.4 0.902,1.181 0,0.781 -0.422,1.201 -0.902,1.201 h -0.701 v -2.382 z m -0.08,-3.726 c 0.52,10e-4 0.801,0.471 0.801,1.002 0,0.53 -0.281,1.001 -0.801,1.001 H 23.803 V 11.551 Z M 21.249,9.719 v 9.763 h 3.856 a 2.629,2.629 0 0 0 2.944,-2.904 2.071,2.071 0 0 0 -1.802,-2.233 2.017,2.017 0 0 0 1.521,-2.183 c 0,-1.442 -0.841,-2.443 -2.663,-2.443 z m 50.049,9.753 v -5.307 h -3.284 v 1.722 h 0.931 c -0.01,1.672 -0.331,2.002 -0.861,2.002 -0.781,0 -0.851,-0.7 -0.851,-3.344 0,-2.643 0.08,-3.345 0.901,-3.345 a 0.584,0.584 0 0 1 0.6,0.421 c 0.105,0.375 0.149,0.764 0.131,1.152 h 2.473 c 0,-2.383 -1.281,-3.304 -3.084,-3.304 -3.014,0 -3.635,1.852 -3.635,5.076 0,3.224 0.23,5.067 2.804,5.067 a 2.07,2.07 0 0 0 2.102,-1.001 l 0.07,0.861 z M 60.344,17.95 c -0.792,0 -0.862,-0.701 -0.862,-3.345 0,-2.643 0.1,-3.345 0.862,-3.345 0.76,0 0.861,0.712 0.861,3.345 0,2.634 -0.091,3.345 -0.861,3.345 z m 0,-8.421 c -2.604,0 -3.506,1.431 -3.506,5.076 0,3.646 0.922,5.067 3.506,5.067 2.582,0 3.484,-1.411 3.484,-5.067 0,-3.655 -0.882,-5.076 -3.484,-5.076 z m 15.801,3.004 2.363,0.09 c 0,-2.103 -1.011,-3.004 -3.155,-3.004 -2.142,0 -3.204,1.001 -3.204,3.004 0,3.445 4.006,2.504 4.006,4.446 l 0.006,0.1 c 0,0.46 -0.377,0.839 -0.838,0.842 -0.49,0 -0.82,-0.292 -0.82,-1.133 v -0.23 h -2.464 v 0.33 c 0,2.024 1.172,2.744 3.274,2.744 2.264,0 3.465,-0.921 3.465,-3.004 0,-3.555 -4.165,-2.624 -4.165,-4.556 l -0.004,-0.081 c 0,-0.428 0.352,-0.78 0.78,-0.78 h 0.024 c 0.491,0 0.732,0.431 0.732,1.002 z M 31.463,9.719 h -2.502 v 6.449 c 0,2.683 1.151,3.554 3.274,3.554 2.122,0 3.305,-0.82 3.305,-3.554 V 9.719 h -2.544 v 7.009 c 0,0.951 -0.31,1.201 -0.771,1.201 -0.46,0 -0.762,-0.26 -0.762,-1.201 z m 19.146,59.241 0.532,0.03 c 0.681,0.501 2.453,0.441 3.405,0.281 l 0.46,-0.101 a 9.606,9.606 0 0 0 -0.4,1.722 c -0.18,0.473 -0.502,0.879 -0.922,1.162 h -0.05 a 4.109,4.109 0 0 0 -1.072,2.803 c -0.003,0.385 0.058,0.768 0.181,1.133 a 2.812,2.812 0 0 0 2.523,1.862 c 0.462,0.036 0.908,-0.184 1.161,-0.571 l 1.483,0.2 c 0.172,0.16 0.388,0.265 0.621,0.3 0.33,0.029 0.659,-0.061 0.931,-0.25 0.869,0.037 1.74,0.004 2.603,-0.1 0.432,0.192 0.932,0.146 1.323,-0.12 A 4.653,4.653 0 0 0 65.11,76.67 l 0.22,-0.15 0.1,-0.27 c 0.152,-0.309 0.254,-0.641 0.3,-0.981 a 5.014,5.014 0 0 0 -0.6,-2.354 6.092,6.092 0 0 0 -0.841,-2.503 1.477,1.477 0 0 1 -0.12,-0.601 c 0.114,-0.923 0.332,-1.83 0.65,-2.704 v -0.07 c 0.406,-1.173 0.674,-2.389 0.801,-3.625 0,-0.77 0.14,-2.203 0.24,-2.804 a 5.274,5.274 0 0 0 0.301,-1.542 v -0.451 c -0.025,-0.852 0.042,-1.704 0.2,-2.542 0.194,-0.527 0.338,-1.07 0.431,-1.623 0.162,0.14 0.349,0.249 0.551,0.32 0.272,0.06 0.513,0.222 0.671,0.451 a 17.256,17.256 0 0 0 2.153,3.635 c 0.048,0.61 0.155,1.214 0.32,1.802 v 0.041 c 0.234,0.348 0.413,0.729 0.531,1.131 0.078,0.5 0.185,0.995 0.32,1.482 l 4.747,-7.831 a 6.88,6.88 0 0 0 -0.702,-2.804 2.806,2.806 0 0 1 -0.4,-1.461 V 50.915 A 16.464,16.464 0 0 0 73.321,44.977 15.493,15.493 0 0 1 72.019,41.703 V 41.532 C 71.761,39.544 69.716,36.095 69.716,36.095 L 65.55,31.088 A 6.505,6.505 0 0 0 61.615,28.855 11.678,11.678 0 0 0 59.001,23.377 C 57.4,21.375 55.146,21.034 53.895,21.826 a 7.107,7.107 0 0 0 -4.637,-0.802 l -0.37,0.151 h -0.271 a 7.685,7.685 0 0 0 -4.777,0.06 h -0.11 a 1.21,1.21 0 0 1 -0.24,0.13 c -0.871,-0.622 -2.844,-1.252 -6.669,0.601 -3.335,1.601 -3.605,2.232 -3.565,4.746 v 0.902 c 0,0.55 0,2.282 1.231,2.522 0.376,0.069 0.763,-0.018 1.073,-0.24 a 31.966,31.966 0 0 0 -0.201,2.834 l -4.456,8.152 a 5.785,5.785 0 0 0 -2.203,4.445 1.665,1.665 0 0 1 -0.241,0.541 5.366,5.366 0 0 0 -0.5,2.343 c -0.01,0.689 0.126,1.372 0.4,2.003 0.175,0.383 0.261,0.801 0.251,1.222 -10e-4,0.39 -0.058,0.778 -0.171,1.151 a 9.824,9.824 0 0 0 -0.48,3.304 7.17,7.17 0 0 0 1.222,4.407 c 0.37,1.076 0.592,2.198 0.661,3.335 0,0.64 -4.086,6.629 -4.086,6.629 a 4.642,4.642 0 0 0 -1.602,2.773 c -0.003,0.205 0.031,0.409 0.1,0.601 l 0.16,0.401 0.42,0.1 c 0.2,0.023 0.402,0.023 0.602,0 l 0.25,0.5 0.581,-0.07 a 6.119,6.119 0 0 0 1.221,-0.3 3.277,3.277 0 0 0 2.374,0.1 c 0.116,0.094 0.244,0.171 0.38,0.23 l 0.45,0.18 0.721,-0.62 c 0.528,0.17 1.089,0.204 1.633,0.1 a 3.671,3.671 0 0 0 1.562,-0.701 l 1.002,-0.1 0.14,-0.06 a 3.486,3.486 0 0 0 1.401,-2.604 c 0.155,-0.289 0.231,-0.613 0.22,-0.941 a 4.406,4.406 0 0 0 -0.28,-1.432 v -0.08 c 0.016,-0.211 0.078,-0.416 0.18,-0.601 0.172,-0.305 0.255,-0.652 0.241,-1.001 a 4.006,4.006 0 0 0 -0.401,-1.603 5.411,5.411 0 0 1 -0.13,-1.501 c 0.025,-1.274 0.125,-2.544 0.3,-3.805 0.29,-0.582 0.492,-1.203 0.601,-1.843 a 3.449,3.449 0 0 1 1.102,-0.281 c 1.18,-0.23 3.245,1.001 3.245,1.001 z m 0.782,12.246 c 0.145,0.023 0.289,0.056 0.431,0.101 l 0.34,0.17 c 0.108,0.054 0.208,0.122 0.3,0.201 0.077,0.088 0.138,0.19 0.181,0.3 0.047,0.119 0.081,0.243 0.1,0.37 0.015,0.109 0.015,0.221 0,0.331 a 1.339,1.339 0 0 1 -0.161,0.27 c -0.074,0.083 -0.154,0.16 -0.24,0.23 l -0.3,0.2 -0.33,0.161 -0.371,0.1 -0.4,0.04 h -1.122 a 0.247,0.247 0 0 1 -0.101,-0.08 0.33,0.33 0 0 1 -0.1,-0.141 c -0.021,-0.054 0,-0.17 0,-0.28 v -0.4 a 2.87,2.87 0 0 0 0,-0.371 v -0.71 a 0.374,0.374 0 0 1 -0.136,-0.205 0.664,0.664 0 0 1 0.176,-0.136 c 0.106,-0.046 0.218,-0.08 0.331,-0.101 l 0.46,-0.05 z m 1.762,5.117 a 1.747,1.747 0 0 1 -0.14,0.501 v 0.07 a 2.175,2.175 0 0 1 -0.27,0.461 2.494,2.494 0 0 1 -0.401,0.331 c -0.15,0.08 -0.37,0.18 -0.48,0.23 a 2.968,2.968 0 0 1 -0.481,0.12 2.718,2.718 0 0 1 -0.46,0 h -0.442 l -0.36,-0.05 -0.26,-0.06 -0.181,-0.08 -0.12,-0.1 a 0.122,0.122 0 0 1 0,-0.08 c 0.009,-0.026 0,-0.201 0,-0.361 v -0.041 c 0,-0.16 0,-0.43 0.06,-0.6 v -1.682 c 10e-4,-0.116 0.022,-0.231 0.06,-0.34 a 0.25,0.25 0 0 1 0.161,-0.1 h 1.222 c 0.178,-0.002 0.355,0.015 0.53,0.05 0.17,0.034 0.337,0.077 0.501,0.13 0.126,0.048 0.244,0.115 0.35,0.2 l 0.281,0.23 c 0.096,0.086 0.177,0.187 0.24,0.301 0.065,0.128 0.119,0.262 0.16,0.4 0.029,0.155 0.039,0.313 0.03,0.47 z m -2.544,2.434 h 1.103 l 0.48,-0.13 c 0.172,-0.064 0.339,-0.141 0.501,-0.23 0.13,-0.07 0.33,-0.181 0.44,-0.261 0.127,-0.077 0.244,-0.168 0.35,-0.27 l 0.251,-0.321 c 0.092,-0.139 0.176,-0.283 0.251,-0.431 0.076,-0.15 0.137,-0.307 0.18,-0.47 0.037,-0.148 0.06,-0.299 0.07,-0.451 a 1.453,1.453 0 0 0 -0.091,-0.336 c -0.003,-0.121 -0.1,-0.316 -0.129,-0.434 a 2.416,2.416 0 0 0 -0.431,-0.741 2.952,2.952 0 0 0 -0.271,-0.241 1.173,1.173 0 0 0 -0.25,-0.161 0.247,0.247 0 0 1 -0.14,-0.14 c -0.024,-0.064 0,-0.13 0.12,-0.2 a 1.75,1.75 0 0 0 0.3,-0.32 c 0.103,-0.157 0.186,-0.325 0.251,-0.501 v -0.06 c 0.061,-0.184 0.095,-0.376 0.1,-0.571 a 1.979,1.979 0 0 0 -0.07,-0.53 1.99,1.99 0 0 0 -0.451,-0.752 2.511,2.511 0 0 0 -0.831,-0.581 l -0.5,-0.18 a 2.08,2.08 0 0 0 -0.421,-0.07 h -0.43 a 4.67,4.67 0 0 0 -0.502,0 l -0.53,0.08 -0.501,0.1 -0.3,0.04 h -0.406 a 0.254,0.254 0 0 0 -0.25,0.251 l 0.005,0.05 v 0.17 c 0,0.17 0.06,0.431 0.08,0.602 v 0.2 c 0,0.15 0.05,0.4 0.06,0.57 v 4.786 l -0.07,0.582 v 0.23 a 0.363,0.363 0 0 0 0.15,0.361 c 0.1,0.05 0.321,0.12 0.461,0.16 l 0.5,0.1 0.451,0.1 c 0.157,0.009 0.314,0.009 0.47,0 z m 0.382,-10.254 -0.572,-0.06 h -0.58 a 3.795,3.795 0 0 0 -0.521,0.06 l -0.501,0.1 a 3.038,3.038 0 0 0 -0.52,0.201 h -0.07 a 3.133,3.133 0 0 0 -0.501,0.3 l -0.1,0.07 a 4.319,4.319 0 0 0 -0.441,0.37 5.337,5.337 0 0 0 -0.701,0.931 c -0.089,0.17 -0.163,0.348 -0.22,0.531 -0.06,0.16 -0.16,0.421 -0.16,0.561 -0.03,0.161 -0.131,0.421 -0.131,0.601 v 0.05 c -0.02,0.16 -0.1,0.421 -0.1,0.581 v 0.08 c -0.05,0.15 -0.1,0.42 -0.15,0.52 l -0.18,0.401 c -0.065,0.12 -0.145,0.231 -0.24,0.33 -0.1,0.089 -0.207,0.17 -0.321,0.24 a 0.155,0.155 0 0 0 -0.066,0.126 c 0,0.05 0.025,0.097 0.066,0.126 0.09,0.081 0.17,0.172 0.241,0.27 l 0.23,0.32 c 0.08,0.122 0.154,0.25 0.22,0.381 0.072,0.162 0.132,0.329 0.18,0.5 0.03,0.17 0.09,0.441 0.1,0.571 0.01,0.13 0.051,0.36 0.061,0.5 0.01,0.141 0.08,0.381 0.08,0.562 v 0.1 c 0.036,0.191 0.089,0.379 0.16,0.561 l 0.06,0.17 c 0.05,0.16 0.17,0.4 0.25,0.54 l 0.1,0.181 c 0.099,0.167 0.213,0.324 0.341,0.47 0.124,0.143 0.258,0.277 0.4,0.401 l 0.1,0.08 c 0.159,0.122 0.327,0.232 0.502,0.33 l 0.25,0.15 0.52,0.251 0.181,0.1 c 0.15,0.071 0.39,0.151 0.55,0.201 0.193,0.013 0.388,0.013 0.581,0 0.385,0.021 0.771,0 1.152,-0.06 0.179,-0.038 0.356,-0.084 0.531,-0.141 h 0.07 l 0.55,-0.16 c 0.16,-0.052 0.315,-0.119 0.461,-0.201 0.119,-0.064 0.247,-0.108 0.38,-0.13 h 0.361 c 0.126,0.004 0.25,0.024 0.371,0.06 0.1,0.04 0.15,-0.07 0.15,-0.23 l -0.1,-0.871 c -0.02,-0.14 -0.15,-0.24 -0.281,-0.14 l -0.281,0.18 a 3.181,3.181 0 0 1 -0.5,0.28 l -0.32,0.13 c -0.151,0.08 -0.391,0.201 -0.551,0.201 l -0.38,0.1 c -0.19,0.051 -0.385,0.085 -0.581,0.1 H 50.7 c -0.2,0.012 -0.401,0.012 -0.601,0 h -0.2 a 2.184,2.184 0 0 1 -0.581,-0.13 l -0.3,-0.121 a 2.99,2.99 0 0 1 -0.521,-0.27 l -0.24,-0.2 a 2.882,2.882 0 0 1 -0.431,-0.38 l -0.1,-0.101 a 3.234,3.234 0 0 1 -0.341,-0.48 l -0.1,-0.18 a 3.534,3.534 0 0 1 -0.24,-0.541 l -0.1,-0.33 a 4.492,4.492 0 0 1 -0.131,-0.562 l -0.04,-0.4 c -0.011,-0.2 0,-0.601 0,-0.601 l 0.06,-3.565 c 0.01,-0.16 0.05,-0.42 0.05,-0.58 l 0.061,-0.34 c 0.039,-0.193 0.096,-0.381 0.17,-0.562 l 0.08,-0.16 c 0.083,-0.177 0.183,-0.345 0.3,-0.501 l 0.101,-0.14 c 0.117,-0.148 0.252,-0.282 0.401,-0.4 l 0.23,-0.171 c 0.156,-0.116 0.324,-0.217 0.5,-0.3 l 0.251,-0.12 c 0.179,-0.053 0.364,-0.087 0.55,-0.1 h 0.17 c 0.195,-0.011 0.388,-0.011 0.581,0 h 0.401 l 0.601,0.06 h 0.15 c 0.191,0.033 0.379,0.083 0.561,0.15 l 0.17,0.06 c 0.14,0.06 0.39,0.18 0.541,0.26 l 0.3,0.181 c 0.174,0.088 0.341,0.188 0.5,0.3 l 0.121,0.1 0.481,0.401 0.1,0.07 c 0.13,0.1 0.23,0.06 0.23,-0.101 v -0.6 a 5.477,5.477 0 0 1 0,-0.601 l 0.06,-0.43 c 0.02,-0.16 -0.01,-0.261 -0.06,-0.261 v 0.021 a 0.93,0.93 0 0 0 -0.2,0.25 c -0.091,0.072 -0.192,0.13 -0.3,0.17 a 1.136,1.136 0 0 1 -0.362,0.05 h -0.33 a 2.496,2.496 0 0 1 -0.35,-0.1 l -0.431,-0.18 -0.43,-0.17 -0.481,-0.141 a 5.108,5.108 0 0 0 -0.56,-0.13 z"
         fill="#ffffff"
         id="path4" />
      <path
         d="m 60.072,36.275 c 0.26,-0.749 0.342,-1.547 0.242,-2.333 0,-0.601 -0.422,-1.262 -0.101,-1.763 0.344,-0.416 0.77,-0.757 1.252,-1.001 0.801,-0.3 1.802,0.761 2.403,1.372 -0.741,0.821 -1.833,1.141 -2.303,2.203 -0.28,0.621 -0.18,1.432 -1.081,1.422 z m -7.45,-4.085 c -1.401,-1.102 -3.504,-0.601 -5.167,-0.931 l -0.881,0.2 c -1.101,1.001 -2.934,1.261 -3.505,2.744 a 5.91,5.91 0 0 0 -0.16,2.854 c 0.261,1.271 0.701,1.401 1.443,1.121 a 0.839,0.839 0 0 1 -0.101,0.18 v 0.32 c 1.352,0.301 2.233,1.703 3.636,1.903 0.962,0.118 1.938,0.05 2.874,-0.2 1.001,-0.331 2.402,-1.302 1.801,-2.453 a 0.929,0.929 0 0 0 1.052,-0.651 c 0.571,-1.303 0.13,-4.147 -1.002,-5.077 z m -17.984,9.072 c 1.002,0.2 1.002,1.602 1.222,2.404 a 9.371,9.371 0 0 0 5.116,5.546 10.135,10.135 0 0 1 -3.384,-0.4 c -0.561,-0.2 -1.101,-0.701 -1.642,-0.671 -0.2,1.121 1.602,1.803 2.343,2.244 a 24.909,24.909 0 0 0 5.187,2.262 19.215,19.215 0 0 1 -4.236,-0.751 5.465,5.465 0 0 0 -2.373,-0.6 18.894,18.894 0 0 0 2.654,2.583 c -2.053,-0.4 -4.777,0 -5.728,-2.203 a 2.57,2.57 0 0 0 -0.831,-1.301 6.73,6.73 0 0 1 -0.921,-0.581 c -1.363,-1.483 0.1,-3.104 0.45,-4.557 a 2.579,2.579 0 0 1 0.621,-1.471 4.442,4.442 0 0 0 1.361,-2.504 z m 35.239,2.233 a 4.997,4.997 0 0 0 1.071,2.703 c 0.471,0.829 0.752,1.753 0.821,2.704 a 16.377,16.377 0 0 0 1.132,5.748 c -1.002,-0.951 -1.593,-2.984 -2.274,-4.205 a 8.35,8.35 0 0 1 -0.83,-2.904 c -0.06,-0.581 -0.952,-3.745 0,-4.086 z m -11.67,12.801 c -0.228,1.094 -4.206,1.86 -5.204,2.089 a 11.006,11.006 0 0 1 -4.306,0.501 7.74,7.74 0 0 1 -3.504,-1.502 c 0.861,-0.09 1.752,0.04 2.633,0.04 a 5.234,5.234 0 0 0 2.743,-1.301 c 0.282,-0.205 0.549,-0.425 0.802,-0.662 -0.796,-0.265 -1.567,-0.6 -2.303,-1.001 l -0.12,-0.1 c 0.65,-0.24 1.541,-0.02 2.303,-0.32 a 5.672,5.672 0 0 0 2.503,-1.703 6.923,6.923 0 0 1 -2.603,-0.601 c 0.811,-0.25 1.862,0.13 2.663,-0.2 a 2.521,2.521 0 0 0 1.162,-1.482 c 0.15,-0.681 -0.15,-0.511 -0.851,-0.581 a 3.722,3.722 0 0 1 -1.422,-0.301 c 0.951,-0.52 2.603,0.02 3.184,-1.121 0.33,-0.65 0.49,-1.571 0.751,-2.253 0.402,0.381 0.759,0.809 1.062,1.272 a 10.66,10.66 0 0 1 1.001,3.845 17.504,17.504 0 0 1 -0.501,5.308 l 0.01,0.06 z m 3.428,-9.988 c 0.16,1.083 0.48,2.124 0.621,3.245 0.18,1.502 0.26,3.004 0.3,4.507 0.07,2.083 -0.26,4.355 -0.05,6.388 0.671,-1.432 0.47,-3.765 0.601,-5.407 0.13,-1.642 0.561,-3.175 0.601,-4.736 0.04,-1.563 -1.282,-2.854 -2.003,-3.907 z M 38.424,80.605 h 0.66 v 4.717 a 0.228,0.228 0 0 0 0.07,0.181 0.685,0.685 0 0 0 0.301,0.1 l 0.4,0.05 a 0.273,0.273 0 0 1 0,0.07 c -0.003,0.023 0,0.1 0,0.2 h -2.504 c -0.003,-0.05 -0.003,-0.1 0,-0.15 a 0.94,0.94 0 0 1 0,-0.13 l 0.371,-0.1 a 0.907,0.907 0 0 0 0.361,-0.12 0.207,0.207 0 0 0 0.07,-0.151 v -3.865 c -0.212,0.155 -0.433,0.3 -0.661,0.431 l -0.361,0.18 a 1.505,1.505 0 0 1 -0.17,-0.3 5.97,5.97 0 0 0 0.601,-0.321 c 0.19,-0.139 0.37,-0.289 0.541,-0.451 0.107,-0.11 0.207,-0.227 0.301,-0.351 z m 18.444,2.885 -0.2,-0.241 c 0.375,-0.243 0.712,-0.54 1.002,-0.881 a 0.766,0.766 0 0 0 0.16,-0.46 0.604,0.604 0 0 0 -0.18,-0.451 0.574,0.574 0 0 0 -0.421,-0.181 c -0.389,0.033 -0.733,0.27 -0.902,0.622 l -0.25,-0.14 c 0.096,-0.228 0.224,-0.441 0.381,-0.632 0.148,-0.158 0.329,-0.281 0.53,-0.36 0.205,-0.075 0.424,-0.109 0.642,-0.1 0.296,-0.021 0.59,0.072 0.821,0.26 a 0.849,0.849 0 0 1 0.28,0.662 1,1 0 0 1 -0.2,0.6 c -0.192,0.252 -0.43,0.466 -0.701,0.631 h 0.08 c 0.343,-0.01 0.672,0.147 0.881,0.42 0.216,0.252 0.337,0.571 0.34,0.901 a 2.229,2.229 0 0 1 -0.2,0.902 1.645,1.645 0 0 1 -0.701,0.751 c -0.381,0.203 -0.809,0.3 -1.242,0.28 a 2.004,2.004 0 0 1 -1.101,-0.25 0.452,0.452 0 0 1 -0.24,-0.38 0.352,0.352 0 0 1 0.1,-0.261 0.398,0.398 0 0 1 0.3,-0.1 0.512,0.512 0 0 1 0.3,0.08 c 0.135,0.102 0.253,0.225 0.351,0.361 0.055,0.08 0.131,0.142 0.22,0.18 0.085,0.043 0.176,0.07 0.271,0.08 a 0.877,0.877 0 0 0 0.441,-0.14 c 0.173,-0.123 0.303,-0.299 0.37,-0.501 0.097,-0.249 0.144,-0.514 0.14,-0.782 A 1.151,1.151 0 0 0 57.9,83.6 0.7,0.7 0 0 0 57.369,83.319 0.94,0.94 0 0 0 56.868,83.52 Z m 5.508,-2.834 h 0.3 a 5.17,5.17 0 0 1 -0.25,0.932 0.15,0.15 0 0 1 -0.1,0.08 h -1.702 v 1.111 c 0.116,-0.063 0.241,-0.11 0.37,-0.14 0.133,-0.015 0.268,-0.015 0.401,0 0.405,0.003 0.794,0.165 1.081,0.45 0.12,0.132 0.221,0.28 0.3,0.441 a 0.912,0.912 0 0 1 0.13,0.3 v 0.36 c 0.007,0.192 -0.01,0.384 -0.05,0.572 a 1.844,1.844 0 0 1 -0.3,0.57 1.572,1.572 0 0 1 -1.001,0.701 3.528,3.528 0 0 1 -0.801,0.07 1.55,1.55 0 0 1 -0.902,-0.25 0.445,0.445 0 0 1 -0.22,-0.38 0.404,0.404 0 0 1 0.13,-0.301 0.43,0.43 0 0 1 0.3,-0.1 0.799,0.799 0 0 1 0.602,0.351 c 0.068,0.103 0.152,0.194 0.25,0.27 0.099,0.047 0.21,0.068 0.321,0.06 a 0.803,0.803 0 0 0 0.45,-0.14 c 0.157,-0.104 0.282,-0.25 0.36,-0.421 0.082,-0.165 0.128,-0.346 0.131,-0.53 a 1,1 0 0 0 -0.281,-0.732 0.905,0.905 0 0 0 -0.7,-0.3 1.069,1.069 0 0 0 -0.351,0.04 1.21,1.21 0 0 0 -0.28,0.17 l -0.17,0.1 h -0.1 a 0.174,0.174 0 0 1 -0.101,0 0.094,0.094 0 0 1 0,-0.07 l 0.051,-1.281 a 0.952,0.952 0 0 1 0,-0.151 c 0.003,-0.05 0,-0.15 0,-0.34 v -0.832 a 0.534,0.534 0 0 0 0,-0.08 v -0.16 c 0,-0.06 0,-0.1 0.13,-0.14 0.213,-0.015 0.427,-0.015 0.64,0 h 1.001 a 0.829,0.829 0 0 0 0.281,0 0.298,0.298 0 0 0 0.1,-0.2 z m -21.62,5.407 a 0.259,0.259 0 0 1 -0.07,-0.15 0.143,0.143 0 0 1 0,-0.1 0.788,0.788 0 0 1 0.24,-0.13 c 0.259,-0.097 0.503,-0.232 0.722,-0.401 0.197,-0.149 0.366,-0.332 0.5,-0.54 0.141,-0.214 0.243,-0.452 0.301,-0.702 0.052,-0.197 0.085,-0.398 0.1,-0.601 0.015,-0.203 0,-0.17 0,-0.35 a 4.633,4.633 0 0 0 0,-0.5 2.758,2.758 0 0 0 -0.25,-1.403 0.564,0.564 0 0 0 -0.461,-0.3 0.54,0.54 0 0 0 -0.44,0.24 c -0.193,0.297 -0.281,0.65 -0.252,1.002 -0.015,0.24 -0.015,0.481 0,0.721 0.023,0.142 0.074,0.278 0.152,0.4 a 0.39,0.39 0 0 0 0.13,0.16 0.743,0.743 0 0 0 0.32,0.081 0.744,0.744 0 0 0 0.2,0 h 0.07 a 0.117,0.117 0 0 1 0.1,0 0.199,0.199 0 0 1 0,0.14 0.18,0.18 0 0 1 -0.13,0.2 c -0.182,0.07 -0.376,0.104 -0.57,0.1 h -0.03 a 2.54,2.54 0 0 1 -0.482,-0.2 1.423,1.423 0 0 1 -0.35,-0.351 1.255,1.255 0 0 1 -0.18,-0.4 2.503,2.503 0 0 1 -0.101,-0.601 c 0,-0.315 0.08,-0.624 0.231,-0.901 0.137,-0.255 0.346,-0.464 0.6,-0.601 0.245,-0.14 0.521,-0.216 0.802,-0.22 0.497,-0.006 0.969,0.215 1.282,0.6 0.374,0.486 0.559,1.091 0.52,1.703 a 3.593,3.593 0 0 1 -0.2,1.171 5.66,5.66 0 0 1 -0.3,0.572 3.005,3.005 0 0 1 -1.522,1.271 c -0.24,0.098 -0.494,0.155 -0.752,0.17 z m 9.234,11.525 -0.001,0.001 V 97.588 L 48.137,96.757 A 66.556,66.556 0 0 1 38.974,91.751 109.163,109.163 0 0 1 25.786,81.608 30.204,30.204 0 0 1 17.444,68.168 61.976,61.976 0 0 1 14.771,49.012 V 4.732 h 70.436 v 44.28 a 62.68,62.68 0 0 1 -2.623,19.226 29.843,29.843 0 0 1 -8.352,13.4 113.275,113.275 0 0 1 -13.198,10.113 67.196,67.196 0 0 1 -7.811,4.406 l -1.231,0.57 -1.913,0.823 v 0.079 L 49.99,97.588 50.079,97.55 v -2.274 l -0.067,-0.03 1.98,-0.871 a 62.699,62.699 0 0 0 8.532,-4.637 107.013,107.013 0 0 0 12.317,-9.483 28.21,28.21 0 0 0 7.9,-12.687 57.91,57.91 0 0 0 2.444,-18.025 V 6.785 H 16.794 v 42.758 a 57.945,57.945 0 0 0 2.523,18.025 28.4,28.4 0 0 0 7.871,12.687 102.43,102.43 0 0 0 12.277,9.483 62.3,62.3 0 0 0 8.612,4.657 l 1.935,0.851 -0.023,0.01 v 2.332 z"
         fill="#878a8f"
         id="path5" />
      <path
         d="m 40.576,41.402 c 0.922,0.07 0.702,-1.151 0.702,-1.633 a 12.953,12.953 0 0 1 0.53,-4.005 8.992,8.992 0 0 1 1.532,-3.004 0.998,0.998 0 0 0 0.3,-0.33 c 0.149,-0.156 0.309,-0.301 0.481,-0.431 l 0.13,-0.06 c 0.341,-0.17 0.701,-0.3 1.002,-0.44 0.72,-0.301 1.001,-1.002 1.702,-1.333 0.217,-0.12 0.441,-0.227 0.671,-0.32 0.24,-0.1 0.501,-0.07 0.701,-0.14 a 0.412,0.412 0 0 0 0.14,-0.05 h 0.801 a 5.46,5.46 0 0 1 1.573,0.06 7.141,7.141 0 0 1 1.852,0.952 0.663,0.663 0 0 0 -0.161,-0.502 c 0.451,-0.1 0.671,0.231 1.202,0.401 a 1.012,1.012 0 0 1 -0.181,-0.451 1.007,1.007 0 0 1 0.221,-0.7 c 0.171,0.5 0.381,1.242 0.862,1.071 0.48,-0.17 0.3,-0.901 0.2,-1.302 0.29,0.133 0.494,0.405 0.54,0.721 a 0.923,0.923 0 0 1 -0.36,0.832 c 0.36,0 0.601,-0.261 0.751,-0.802 0.65,-0.08 0.48,1.002 1.302,0.601 0.1,-0.481 0.23,-0.901 -0.071,-1.272 0,0 -0.52,-0.27 -0.55,-0.3 -0.201,-0.13 -0.101,-0.35 -0.431,-0.36 a 4.13,4.13 0 0 0 -2.002,-0.2 2.242,2.242 0 0 0 -0.822,0.36 c -0.104,0.056 -0.21,0.106 -0.32,0.15 a 1.187,1.187 0 0 1 -0.24,0.08 8.501,8.501 0 0 0 -0.901,0.601 0.999,0.999 0 0 1 -0.521,-0.801 c 0.053,-0.67 0.215,-1.325 0.481,-1.943 0.395,-1.172 0.571,-2.409 0.52,-3.645 -0.28,1.172 -0.951,2.303 -1.251,3.485 -0.2,0.822 -0.302,1.733 -0.432,2.533 a 3.406,3.406 0 0 0 -1.872,-0.16 c -0.32,0 -0.5,0.14 -0.801,0 -0.651,-0.3 -1.102,-1.221 -1.502,-1.753 0,0.522 0.36,1.233 0.38,1.833 -0.2,0.231 -0.32,0.651 -0.5,0.871 a 6.341,6.341 0 0 1 -2.003,1.202 4.51,4.51 0 0 0 -2.253,1.742 9.18,9.18 0 0 0 -2.273,5.138 c -0.1,0.771 -0.34,3.204 0.881,3.304 z m 15.551,22.831 c 0,0 -0.15,0.751 -0.52,0.751 a 1.776,1.776 0 0 0 -1.372,1.002 c -0.15,0.37 0,0.561 0.23,0.26 0,0 0.451,-0.4 0.751,-0.4 0.301,0 1.101,-0.07 1.201,-1.573 -0.05,-0.26 -0.27,-0.03 -0.27,-0.03 z M 41.578,26.962 a 6.744,6.744 0 0 1 1.802,-1.001 c 1.252,-0.431 2.533,-0.621 3.224,-1.933 l -0.2,0.1 a 13.82,13.82 0 0 0 -4.536,1.773 2.643,2.643 0 0 0 -1.603,1.903 c 0.501,0.1 0.871,-0.582 1.263,-0.902 z m 0.06,2.944 c 0.17,0.551 0.4,0.762 0.761,0.802 a 0.924,0.924 0 0 1 0.17,-1.563 c -0.1,0.421 -0.14,1.202 0.2,1.302 0.34,0.1 0.701,-0.561 0.871,-1.071 a 0.94,0.94 0 0 1 0.22,0.7 0.995,0.995 0 0 1 -0.2,0.461 c 0.641,-0.2 0.832,-0.621 1.483,-0.301 0.248,-0.148 0.428,-0.389 0.5,-0.67 a 9.664,9.664 0 0 0 -0.901,-0.601 l -0.25,-0.08 a 3.123,3.123 0 0 1 -0.321,-0.15 2.271,2.271 0 0 0 -0.801,-0.351 4.131,4.131 0 0 0 -2.002,0.201 c -0.342,0 -0.232,0.22 -0.442,0.36 0,0 -0.52,0.25 -0.55,0.3 -0.301,0.361 -0.151,0.781 -0.05,1.252 0.8,0.361 0.65,-0.721 1.272,-0.651 z M 57.86,72.965 c -0.168,0.27 -0.198,0.605 -0.08,0.901 0.187,0.257 0.292,0.564 0.3,0.881 0.008,0.318 0.23,0.402 0.341,0.16 a 1.948,1.948 0 0 0 0,-1.081 1.916,1.916 0 0 1 0.2,-1.581 c 0.2,-0.462 -0.361,-0.241 -0.801,0.73 z M 54.856,24.298 a 20.451,20.451 0 0 1 2.564,3.054 c 0.46,0.752 0.56,0.432 0.6,0.302 0.04,-0.13 -0.14,-0.602 0.501,-0.302 0.64,0.302 1.051,0.632 0.55,-0.53 -0.5,-1.161 -1.531,-2.774 -3.004,-3.184 -1.121,-0.241 -1.842,0.2 -1.201,0.66 z m 21.79,46.024 c -0.361,0.53 -0.802,0.38 -1.002,-0.601 -0.15,0.16 -0.1,0.521 -0.1,0.521 0,0 -0.901,0.3 -1.051,0.1 -0.151,-0.201 -0.241,-0.221 -0.301,0.08 -0.24,-0.06 -0.701,-0.15 -0.671,-1.001 0,0 -0.33,-0.1 -0.781,0.45 -0.641,0.15 -0.601,-0.821 -0.501,-1.422 0,0 -0.54,-0.1 -0.621,1.242 a 0.602,0.602 0 0 1 -0.43,-0.06 5.006,5.006 0 0 1 1.151,-3.405 c 1.423,-1.182 0.822,-4.687 0.341,-5.377 a 16.48,16.48 0 0 1 -1.152,-3.004 7.013,7.013 0 0 1 -1.621,-2.454 c -0.06,-0.24 -0.852,-2.002 -1.333,-2.172 -0.48,-0.171 -2.263,-1.403 -2.233,-2.554 0.852,-0.901 0.12,-3.004 0.12,-3.004 a 5.366,5.366 0 0 0 1.843,-6.279 3.26,3.26 0 0 1 -0.601,-1.482 7.163,7.163 0 0 0 -0.57,-2.653 c -0.067,0.954 -0.043,1.913 0.07,2.863 1.902,2.463 0.57,5.638 -1.273,7.01 a 9.047,9.047 0 0 0 -2.382,-2.523 c -1.122,-0.571 -1.262,-1.573 -1.453,-2.574 -0.19,-1.001 -0.45,-2.103 -1.321,-2.504 0.418,0.623 0.676,1.338 0.751,2.083 0,0.221 -0.3,2.064 0.701,3.005 4.255,3.805 3.604,5.407 3.004,6.238 a 3.063,3.063 0 0 0 -0.2,2.083 3.437,3.437 0 0 1 -0.02,2.293 6.498,6.498 0 0 0 -0.441,2.003 8.778,8.778 0 0 1 -0.2,3.004 7.361,7.361 0 0 0 -0.361,2.153 15.542,15.542 0 0 1 -1.002,5.007 c -0.606,1.602 -0.941,3.304 -0.5,3.865 a 5.18,5.18 0 0 1 0.902,2.323 c 0.483,0.451 0.667,1.141 0.47,1.773 -0.25,0.4 -0.902,0.2 -0.902,0.2 0,0.26 -0.5,0.571 -0.54,0.26 -0.04,-0.31 -0.381,-0.78 -0.701,-0.22 a 2.011,2.011 0 0 1 -2.173,0.401 0.353,0.353 0 0 0 -0.531,0.07 c -0.22,0.32 -0.38,0.07 -0.38,0.07 0.06,-1.001 -0.18,-0.931 -0.18,-0.931 a 1.486,1.486 0 0 1 -2.184,0.43 c -0.23,-0.22 -0.76,-0.2 -0.7,0.621 -1.051,-0.381 -0.601,-2.063 0.22,-2.664 0.357,-0.271 0.555,-0.704 0.53,-1.151 h -0.28 a 0.55,0.55 0 0 1 -0.28,0.52 c -0.661,0.301 -1.352,0.871 -1.322,2.935 -0.5,-0.151 -0.6,-2.404 0.781,-3.105 a 11.925,11.925 0 0 0 2.053,-6.178 c 0.098,-2.211 0,-4.647 0.601,-6.109 0,0 0.701,-1.943 -0.18,-2.183 l -1.272,0.33 c 0,0 -1.162,0.161 -1.362,0.532 a 1.657,1.657 0 0 1 -1.533,1.051 6.37,6.37 0 0 0 -2.552,0.601 3.466,3.466 0 0 0 -2.354,-0.871 10.93,10.93 0 0 1 -5.808,-2.654 c -0.5,-0.4 -1.331,-1.663 -2.503,-1.663 -5.207,-0.3 -7.941,-1.001 -8.471,-4.305 0,4.637 1.751,5.407 1.751,5.407 -0.13,1.322 0.131,5.648 0.861,6.339 -1.381,-8.472 2.764,-5.678 1.403,-3.605 a 19.72,19.72 0 0 0 0,6.229 c 0.27,0.215 0.411,0.556 0.37,0.901 a 2.287,2.287 0 0 0 -0.36,2.053 3.514,3.514 0 0 1 -0.681,3.585 c 0,-1.233 -0.601,-0.762 -0.601,-0.762 -1.002,1.903 -2.803,1.863 -3.255,1.232 l -0.831,0.701 c -0.33,-0.17 0.1,-1.442 0.1,-1.442 0,0 -0.36,0 -0.53,0.601 -0.17,0.601 -0.461,0.661 -0.461,0.661 a 1.731,1.731 0 0 1 -2.053,-0.301 c -0.701,0.601 -0.941,0.401 -0.941,0.401 0.016,-0.297 0.105,-0.587 0.26,-0.841 l -1.061,0.601 h -0.37 c -0.1,-1.363 1.521,-2.004 1.521,-2.004 0.331,-1.361 2.905,-1.862 2.905,-1.862 0.1,-0.3 1.701,-2.423 1.701,-2.423 v -0.4 c 0,0 0.07,-4.387 -0.841,-6.129 -1.341,-1.823 -1.231,-6.289 -0.4,-7.891 0.14,-0.401 0.3,-0.901 -0.38,-2.683 -0.671,-2.123 0.1,-6.008 1.933,-7.511 a 3.91,3.91 0 0 0 1.601,-2.944 c 0,-1.171 1.603,-3.104 2.134,-3.745 a 7.502,7.502 0 0 0 -0.151,1.361 c 0.02,1.256 0.209,2.502 0.561,3.706 0.1,0.651 0.17,0.931 0.701,1.302 0.505,0.322 0.988,0.679 1.442,1.071 0.401,0.371 0.571,0.702 1.101,0.822 0.325,0.115 0.66,0.195 1.002,0.24 h 0.06 c 0.728,0.379 1.58,0.451 2.363,0.2 a 2.32,2.32 0 0 0 1.001,-1.603 l 0.28,-0.961 c 0.432,-2.003 0.742,-3.384 2.854,-4.075 l 0.802,-0.28 c 1.502,-0.562 2.933,-1.082 4.366,0.3 0.901,0.881 0.861,2.002 0.801,3.305 v 1.001 c 0,1.532 0.33,2.003 1.102,2.503 -0.411,0.292 -0.725,0.7 -0.902,1.172 -0.561,1.502 -3.154,1.752 -3.365,0.22 -0.23,-1.251 -0.65,-3.084 -0.25,-4.226 -0.651,0.881 -0.27,2.544 -0.801,3.455 a 5.03,5.03 0 0 1 -1.642,1.251 1.142,1.142 0 0 1 -0.761,-1.001 c -0.951,-0.36 -2.144,0.451 -3.155,0.12 -0.32,-0.1 -0.7,-0.57 -1.001,-0.46 -0.3,0.11 0,0.701 0.271,0.901 0.462,0.469 1.12,0.693 1.771,0.6 0.298,-0.07 0.599,-0.12 0.902,-0.15 0.401,0.832 1.942,1.072 3.085,1.002 a 3.226,3.226 0 0 0 4.175,-0.23 8.333,8.333 0 0 1 2.053,-1.773 c 1.932,0 2.623,-2.273 3.054,-4.055 a 23.263,23.263 0 0 1 1.652,-4.547 c 0.801,-1.882 0,-5.527 -0.33,-6.669 h 1.051 c 0.702,1.182 1.282,1.383 1.182,0.18 2.444,0.181 4.266,2.834 4.266,2.834 0,0 5.137,5.368 5.207,8.012 0.13,1.185 0.469,2.337 1.001,3.404 0.533,1.068 1.923,3.665 1.923,6.269 -0.007,0.77 0.165,1.531 0.501,2.223 0.411,0.44 0.621,1.031 0.58,1.632 a 4.423,4.423 0 0 0 0.361,2.233 5.833,5.833 0 0 1 1.151,3.255 c 0.047,1.175 -0.18,2.002 0.201,2.453 0.462,0.681 0.719,1.48 0.741,2.303 a 2.207,2.207 0 0 0 0.4,1.572 c 1.031,0.931 1.452,3.956 -0.54,3.926 z m -21.43,-2.664 a 6.93,6.93 0 0 1 -2.003,0 c -0.26,-0.2 -0.651,-0.501 -0.651,0.2 h -0.33 a 2.805,2.805 0 0 1 1.001,-2.262 c 0.667,-0.559 1.443,-0.752 0.782,-1.002 a 3.356,3.356 0 0 0 -2.354,2.844 h -0.85 a 4.309,4.309 0 0 1 2.182,-2.904 l -0.2,-0.131 a 4.014,4.014 0 0 0 -2.444,2.744 c -1.121,-1.001 0.552,-2.503 1.302,-2.754 a 2.403,2.403 0 0 0 1.602,-1.431 c 0.23,-0.882 0.652,-2.253 0.652,-2.253 a 5.007,5.007 0 0 0 1.602,-0.301 2.504,2.504 0 0 1 1.742,-0.921 c -0.23,0 -0.651,7.07 -0.651,7.07 a 1.884,1.884 0 0 1 -1.342,1.101 z m 4.005,-38.232 h -0.77 c 0,-0.501 0.28,-1.001 0.47,-0.561 z M 36.29,35.784 v -0.24 c 0.221,-1.122 0.348,-2.261 0.381,-3.405 -0.261,-7.259 8.632,-10.464 11.496,-9.573 0.321,0.108 0.663,0.143 1.001,0.1 a 7.188,7.188 0 0 1 3.945,0.501 c 1.242,0.535 0.601,0.671 1.202,0.33 3.405,-1.601 5.477,3.905 5.807,5.838 0.202,1.002 -0.07,0.901 -0.45,0.101 -0.671,-1.262 -0.501,-1.262 -1.502,-1.182 -0.56,0 -0.7,-0.08 0.301,4.006 0.7,3.765 0,4.877 0,4.005 0,-0.301 0,-1.702 -0.501,-1.672 a 12.837,12.837 0 0 1 -0.25,3.605 c -0.13,0.46 -0.28,0.57 -0.341,0.33 -0.06,-0.651 -0.621,-2.273 -0.941,-1.171 a 3.708,3.708 0 0 0 0.5,2.002 c 0,1.683 -0.3,3.385 -1.201,4.086 -0.301,0.14 -0.771,0.261 -1.262,0.481 a 9.17,9.17 0 0 1 -0.34,-3.104 c 0,-1.633 0,-3.305 -1.202,-4.387 a 3.114,3.114 0 0 0 -1.602,-0.631 c -0.772,-0.13 -1.522,-0.27 -1.803,-1.261 a 1.907,1.907 0 0 1 0.521,-1.903 c 0.13,-0.1 0.26,-0.14 0.34,-0.1 0.08,0.04 0.17,0.16 0.13,0.651 v 0.06 h 0.06 c 0.462,0.13 0.672,-0.05 0.762,-0.231 a 2.43,2.43 0 0 0 -0.6,-2.172 2.11,2.11 0 0 0 -2.364,-0.2 1.54,1.54 0 0 0 -1.402,0 1.145,1.145 0 0 0 -0.401,1.001 c 0,0.601 0.561,1.301 1.002,1.301 0.15,0 0.401,-0.1 0.431,-0.64 a 0.383,0.383 0 0 1 0.23,0.2 c 0.131,0.316 0.189,0.659 0.17,1.001 a 4.335,4.335 0 0 1 -0.4,2.003 2.807,2.807 0 0 1 -1.773,0.941 3.22,3.22 0 0 0 -1.602,0.722 4.797,4.797 0 0 0 -1.002,2.502 7.153,7.153 0 0 1 -0.501,1.663 c -0.77,1.542 -1.501,1.952 -2.733,2.053 a 2.104,2.104 0 0 1 -0.361,-0.131 19.268,19.268 0 0 1 -2.063,-1.311 c -0.18,-0.12 -0.36,-0.2 -0.53,-0.301 0,-2.603 0.27,-5.387 1.652,-7.61 -1.262,1.302 -1.402,2.924 -2.003,4.576 -0.18,0.551 -0.38,1.001 -0.5,1.402 0,-0.16 -0.07,-0.321 -0.1,-0.451 A 14.88,14.88 0 0 1 36.31,35.764 Z m -0.48,-9.272 c -1.062,3.244 -1.202,1.602 -1.152,0 0.05,-1.602 0.201,-2.063 1.232,-2.554 a 21.99,21.99 0 0 1 4.836,-1.702 c 1.252,-0.17 1.683,0.501 0.602,0.501 0,0.02 -4.447,0.5 -5.508,3.735 z m 42.217,40.055 a 2.555,2.555 0 0 1 -0.6,-1.173 5.7,5.7 0 0 0 -0.301,-2.402 4.068,4.068 0 0 1 -0.48,-1.433 c 0,-0.45 -0.13,-3.604 -0.902,-4.706 a 2.103,2.103 0 0 1 -0.501,-1.482 6.572,6.572 0 0 0 -0.52,-2.303 3.223,3.223 0 0 1 -0.571,-1.852 15.792,15.792 0 0 0 -1.603,-5.909 17.561,17.561 0 0 1 -1.331,-3.504 10.618,10.618 0 0 0 -2.143,-5.188 c -1.166,-1.504 -2.002,-2.302 -4.206,-5.006 a 6.113,6.113 0 0 0 -4.005,-2.003 10.606,10.606 0 0 0 -2.483,-5.588 c -1.242,-1.532 -3.005,-2.002 -4.006,-1.372 0,0 -0.47,0.281 -0.781,0.061 a 6.304,6.304 0 0 0 -4.176,-0.751 c -0.12,0 -0.53,0.38 -0.841,0.2 -0.23,0 -2.754,-0.801 -4.436,0 0,0 -0.781,0.52 -1.102,0.15 -0.6,-0.47 -2.363,-1.101 -5.908,0.621 -3.545,1.723 -3.104,2.003 -3.104,4.907 0,2.904 1.402,1.401 1.573,1.001 0.4,-0.821 1.251,-1.131 1.001,0 a 22.512,22.512 0 0 0 -0.431,4.356 c -0.403,0.63 -0.739,1.302 -1.001,2.003 a 6.685,6.685 0 0 0 -2.223,4.005 3.51,3.51 0 0 1 -1.603,2.604 5.011,5.011 0 0 0 -1.862,3.775 c -0.042,0.357 -0.165,0.7 -0.36,1.002 a 5,5 0 0 0 0,3.424 4.35,4.35 0 0 1 0.13,3.004 c -0.671,1.702 -0.762,5.377 0.54,6.88 0.521,0.56 0.881,3.434 0.881,3.905 0,0.801 0.231,2.734 0.231,2.734 0,0 -1.472,1.571 -1.502,2.002 0,0 -2.804,1.242 -2.874,2.303 0,0 -1.863,1.643 -1.473,2.664 0.409,0.03 0.816,-0.06 1.173,-0.26 -0.065,0.21 -0.088,0.431 -0.07,0.65 a 4.408,4.408 0 0 0 1.341,-0.4 c 0.773,0.534 1.807,0.51 2.554,-0.06 a 0.757,0.757 0 0 0 0.48,0.52 l 0.751,-0.65 c 0.988,0.512 2.2,0.338 3.004,-0.431 l 1.082,-0.1 c 0.821,-0.42 1.001,-2.153 1.001,-2.153 0.461,-0.541 0,-1.802 0,-1.802 a 1.898,1.898 0 0 1 0.241,-1.382 c 0.4,-0.651 -0.201,-1.862 -0.201,-1.862 -0.52,-1.503 0.131,-5.889 0.131,-5.889 a 6.444,6.444 0 0 0 0.63,-2.003 c 0.23,-0.5 3.605,-1.833 5.788,0.561 a 8.07,8.07 0 0 0 4.186,2.223 c 0.601,0 3.004,0.2 3.766,1.141 a 0.652,0.652 0 0 0 0.52,-0.13 c 0.401,-0.5 1.802,-0.52 1.802,-0.52 l -0.701,2.453 c -2.733,0.881 -3.164,3.075 -2.934,4.006 0,0 0.631,0.8 1.223,0.8 0.36,-0.37 1.001,0.181 1.001,0.181 0.52,0.401 3.905,0.401 4.676,-0.781 0.02,0.335 -0.003,0.671 -0.071,1.001 a 6.272,6.272 0 0 0 -0.82,2.483 3.209,3.209 0 0 1 -1.272,1.703 c -0.942,0.921 -1.602,4.106 1.242,4.376 0.22,0.05 0.66,-0.651 0.66,-0.651 l 2.264,0.331 c 0.32,0.57 0.931,-0.061 0.931,-0.061 1.049,0.082 2.103,0.048 3.144,-0.1 0,0.401 0.751,-0.05 0.751,-0.05 a 3.747,3.747 0 0 0 1.542,-0.54 3.805,3.805 0 0 0 -0.46,-2.854 5.808,5.808 0 0 0 -0.751,-2.344 2.089,2.089 0 0 1 -0.24,-1.001 c 0.118,-1.029 0.367,-2.038 0.741,-3.004 a 15.57,15.57 0 0 0 0.75,-3.385 c 0.124,-1.153 0.101,-2.173 0.261,-3.004 0.161,-0.451 0.252,-0.924 0.27,-1.402 a 15.15,15.15 0 0 1 0.24,-3.245 7.234,7.234 0 0 0 0.451,-2.873 c 0,-0.481 0.33,-0.361 0.33,-0.361 0,0 0.702,1.252 1.202,1.402 0.487,0.138 0.901,0.461 1.152,0.901 0.33,0.701 1.502,3.105 2.203,3.625 0.048,0.632 0.148,1.259 0.3,1.873 0.246,0.44 0.429,0.911 0.541,1.402 0.075,0.472 0.175,0.941 0.3,1.402 a 2.583,2.583 0 0 1 -0.36,2.534 6.565,6.565 0 0 0 -1.142,4.506 c 0.752,0.484 1.709,0.53 2.504,0.12 0.701,1.001 2.503,0.45 2.503,0.45 a 1.001,1.001 0 0 0 1.502,0.06 c 2.204,-0.32 1.502,-3.504 0.861,-4.335 z m -16.622,7.83 a 0.373,0.373 0 0 0 0.5,0.15 c 0.16,-1.121 -0.6,-1.532 -0.62,-1.301 a 1.9,1.9 0 0 1 0.1,1.151 z M 75.494,69.12 h 0.27 a 12.87,12.87 0 0 1 0.06,-1.883 c -0.22,-0.1 -0.701,0.701 -0.34,1.883 z m -2.173,-0.33 h 0.301 c 0.04,-0.736 0.282,-1.446 0.7,-2.053 0.271,-0.671 -1.151,0.15 -1.001,2.053 z M 53.103,30.868 c 1.262,1.001 1.673,4.125 1.733,6.088 0,0.571 -0.1,4.206 0.801,2.633 0.44,-0.781 -0.13,-4.065 -0.301,-5.006 -0.35,-1.503 -1.101,-3.575 -2.223,-3.705 z m -0.25,2.843 a 0.202,0.202 0 0 0 -0.201,0.201 c 0,0.11 0.091,0.201 0.201,0.201 0.11,0 0.201,-0.091 0.201,-0.201 a 0.202,0.202 0 0 0 -0.201,-0.201 z m -0.571,-0.25 a 0.303,0.303 0 0 0 -0.29,-0.27 c -0.17,0 -0.311,0.14 -0.311,0.31 0,0.171 0.141,0.311 0.311,0.311 h 0.003 a 0.303,0.303 0 0 0 0.297,-0.341 z m -1.351,0.531 a 0.305,0.305 0 0 0 -0.302,0.301 c 0,0.164 0.137,0.3 0.302,0.3 0.164,0 0.3,-0.136 0.3,-0.3 a 0.323,0.323 0 0 0 -0.3,-0.301 z m 1.321,0.261 c -0.17,0 -0.31,0.14 -0.31,0.31 0,0.17 0.14,0.31 0.31,0.31 0.17,0 0.31,-0.14 0.31,-0.31 0,-0.17 -0.14,-0.31 -0.31,-0.31 z m -5.307,0.67 c 0.165,0 0.3,-0.136 0.3,-0.3 0,-0.165 -0.136,-0.3 -0.3,-0.3 a 0.302,0.302 0 0 0 -0.301,0.3 c 0,0.164 0.136,0.3 0.301,0.3 z m -1.222,-0.37 a 0.3,0.3 0 0 0 -0.3,0.3 l -0.001,0.02 c 0,0.165 0.136,0.301 0.3,0.301 h 10e-4 a 0.304,0.304 0 0 0 0.301,-0.301 l 10e-4,-0.021 a 0.303,0.303 0 0 0 -0.282,-0.299 z m -1.001,-0.661 c -0.165,0 -0.3,0.135 -0.3,0.301 0,0.168 0.132,0.309 0.3,0.32 0.164,0 0.3,-0.136 0.3,-0.3 v -0.02 c 0,-0.165 -0.135,-0.3 -0.3,-0.301 z m 1.262,-0.802 a 0.384,0.384 0 0 0 -0.381,0.381 c 0,0.209 0.171,0.381 0.381,0.381 0.209,0 0.38,-0.172 0.38,-0.381 a 0.385,0.385 0 0 0 -0.38,-0.381 z"
         fill="#231f20"
         id="path6" />
    </g>
  </g>
</svg>
