<?xml version="1.0" encoding="UTF-8" standalone="no"?>
<svg
   clip-rule="evenodd"
   fill-rule="evenodd"
   stroke-linejoin="round"
   stroke-miterlimit="1.414"
   viewBox="0 0 100 100"
   version="1.1"
   id="svg3"
   sodipodi:docname="badge-light-6.svg"
   inkscape:version="1.3.2 (091e20e, 2023-11-25)"
   xmlns:inkscape="http://www.inkscape.org/namespaces/inkscape"
   xmlns:sodipodi="http://sodipodi.sourceforge.net/DTD/sodipodi-0.dtd"
   xmlns="http://www.w3.org/2000/svg"
   xmlns:svg="http://www.w3.org/2000/svg">
  <defs
     id="defs3" />
  <sodipodi:namedview
     id="namedview3"
     pagecolor="#ffffff"
     bordercolor="#000000"
     borderopacity="0.25"
     inkscape:showpageshadow="2"
     inkscape:pageopacity="0.0"
     inkscape:pagecheckerboard="0"
     inkscape:deskcolor="#d1d1d1"
     inkscape:zoom="2.36"
     inkscape:cx="49.788136"
     inkscape:cy="50"
     inkscape:window-width="1456"
     inkscape:window-height="825"
     inkscape:window-x="0"
     inkscape:window-y="39"
     inkscape:window-maximized="0"
     inkscape:current-layer="layer6" />
  <g
     inkscape:groupmode="layer"
     id="layer6"
     inkscape:label="back">
    <rect
       style="fill:#ffffff;fill-opacity:1;fill-rule:evenodd;stroke:#000000"
       id="rect3"
       width="180.08475"
       height="145.76271"
       x="-30.932203"
       y="-11.016949" />
  </g>
  <g
     inkscape:groupmode="layer"
     id="layer5"
     inkscape:label="fore">
    <path
       d="m 56.713266,83.305124 a 52.00724,56.23814 0 0 0 6.839534,-4.78625 c 1.432621,-0.499498 2.754782,-0.964007 2.992436,-1.056909 -0.252158,0.571889 -0.50878,1.160669 -0.749782,1.753068 a 58.169514,62.90173 0 0 1 -5.887802,4.090091 h -0.0012 a 62.150504,67.20658 0 0 1 -8.060162,4.090091 l -0.628166,0.258194 -0.62705,0.319727 L 49.9596,87.653409 49.334782,87.395215 A 62.34799,67.420133 0 0 1 41.265737,83.305124 C 35.052138,79.53838 29.72221,74.726792 25.595058,69.110459 23.142644,65.782887 21.17335,62.25624 19.694984,58.58119 c 0.967353,0.215968 1.926896,0.465716 2.878629,0.749247 0.654944,0.193044 1.312119,0.411423 1.969295,0.645487 1.549774,4.009254 3.496754,7.767552 5.700356,10.75368 3.754492,5.107184 8.591258,9.266045 14.21909,12.57552 h 0.0012 a 62.924832,68.043902 0 0 0 6.128803,3.140562 63.168066,68.306923 0 0 0 6.120993,-3.140562 z M 71.367498,66.901328 c 5.501754,1.387493 15.86482,3.320333 27.812248,2.087273 0,0 -1.897888,0.710638 -5.316539,1.532275 -2.081985,0.494673 -4.180707,0.906094 -6.290587,1.234267 -0.276704,0.04947 -0.567915,0.08808 -0.859125,0.133923 -2.476961,0.367988 -4.967309,0.627389 -7.463237,0.780616 -1.559816,0.09653 -3.184345,0.161673 -4.857967,0.172532 l -3.582666,2.470946 1.091201,-2.49025 c -0.35927,-0.0073 -0.717426,-0.01568 -1.08116,-0.02655 l -6.814988,2.678467 v -3.181584 c -0.604734,-0.07721 -1.216164,-0.15805 -1.823132,-0.242507 l -4.155044,1.660167 0.725236,-2.224816 c -0.0357,-0.0073 -0.0714,-0.01568 -0.113806,-0.02293 a 71.404516,77.213427 0 0 1 -2.55841,-0.545345 l -3.163146,1.041224 1.36456,-1.482809 c -0.348114,-0.08928 -0.696226,-0.177358 -1.04434,-0.273879 a 63.870986,69.067028 0 0 1 -5.252941,-1.728932 52.722434,57.011517 0 0 1 -4.981814,-2.198273 46.403954,50.179015 0 0 1 -4.587955,-2.671227 69.944002,75.634097 0 0 0 -4.182939,-2.574706 59.954712,64.832156 0 0 0 -3.877224,-2.00885 55.98265,60.536957 0 0 0 -3.625065,-1.541928 48.140058,52.056355 0 0 0 -9.574232,-2.520413 47.21845,51.059772 0 0 0 -5.397988,-0.434346 43.804262,47.367831 0 0 0 -8.1025613,0.661171 34.20883,36.991791 0 0 0 -2.5026225,0.56103 v -0.0073 c 11.0180098,-3.228638 23.0714338,-0.711845 26.1107318,0.0181 0.216455,0.06153 0.44072,0.115825 0.66387,0.173738 l 0.06472,0.01086 c 0,0 0.304599,0.07721 0.46192,0.112205 0.191909,0.04223 0.383817,0.08325 0.579073,0.130304 0.912682,0.196662 1.808627,0.392118 2.696763,0.587573 a 9.9669756,10.777811 0 0 1 -1.499565,-3.339637 c 0,0 3.582666,3.793288 10.832796,5.453454 1.94698,0.460889 3.844867,0.91454 5.685851,1.364569 1.862183,0.457271 4.498695,1.122061 4.947226,1.237887 l 3.552541,0.913333 c 0,0 3.163145,0.845768 3.632875,0.965213 l 3.269141,0.891615 c 1.556468,0.434346 3.052686,0.849388 4.477496,1.25719 1.442662,0.410215 2.811685,0.814398 4.104837,1.194452 z M 68.433082,67.63489 C 65.372586,67.247598 67.12431,67.611972 65.184024,66.1557 l 7.679692,1.456266 c 0,0 -1.360096,0.411422 -4.430634,0.02292 z M 80.355964,42.107417 C 80.345944,42.094149 71.877396,30.784261 55.503796,28.822465 l 0.185214,-0.161673 c 0.557874,-0.476574 1.158146,-0.960387 1.78408,-1.433342 l 0.195256,-0.149607 c 19.087099,2.585564 27.025646,15.029574 27.025646,15.029574 0,4.664392 -0.74532,9.231056 -2.174594,13.626395 l -0.788833,-0.4259 -3.059381,-1.614319 c 1.07335,-4.050276 1.687011,-8.077626 1.687011,-11.586176 z m -59.534075,0 c 0.0022,0.722703 0.0279,1.445406 0.07476,2.166903 -1.151452,0.569476 -2.587419,1.283733 -4.197443,2.087274 a 37.187876,40.21319 0 0 1 -0.216457,-4.254177 c 0,0 4.20079,-6.575514 13.809611,-11.160277 a 27.157302,29.366608 0 0 1 -0.0703,1.47919 l -0.398322,0.400563 a 29.807204,32.232085 0 0 0 -2.722424,3.377039 c -4.147236,3.063345 -6.268272,5.889007 -6.27943,5.903485 z M 32.980194,33.88742 c -0.398322,0.383673 -0.775446,0.768552 -1.130253,1.148604 a 25.944486,28.055125 0 0 0 -2.893135,3.685908 22.475624,24.304065 0 0 0 -1.811974,3.288964 c -0.864704,1.906295 -1.115748,3.163486 -1.138062,3.281724 4.389352,-2.029361 6.279428,-6.628601 6.973424,-11.4052 z m 14.452282,4.472557 C 45.90167,35.642902 43.555252,31.808594 40.74803,28.322968 c 0.20976,-0.108587 0.411711,-0.219586 0.629282,-0.330586 1.016446,-0.518802 2.099838,-1.026746 3.2591,-1.510559 a 61.704204,66.723974 0 0 1 3.663,-1.368189 c 1.28311,-0.422281 2.648785,-0.830083 4.098142,-1.206517 a 80.86829,87.447098 0 0 1 4.570103,-1.041223 L 55.66,17.162691 c 0,0 0.447416,0.645486 3.368443,0.845768 1.464977,0.100144 3.540268,0.08808 6.447907,-0.180978 A 103.31602,111.721 0 0 0 70.415766,17.227843 143.30666,154.96496 0 0 0 76.549032,16.183 l -8.13157,5.210944 c 0,0 -7.014708,-0.495878 -9.075494,0.821637 a 57.96868,62.684556 0 0 0 -3.52911,2.463707 c -0.649366,0.495878 -1.287574,1.011061 -1.912392,1.541928 -0.642671,0.552585 -1.278647,1.129299 -1.883382,1.732557 a 24.852168,26.873945 0 0 0 -1.743914,1.913535 c -0.538906,0.65152 -1.033183,1.342853 -1.479482,2.071589 a 11.053714,11.952957 0 0 0 -1.058844,2.205512 7.1798376,7.7639326 0 0 0 -0.473078,2.317717 5.849866,6.3257652 0 0 0 0.17071,1.897851 z"
       fill="#221f20"
       id="path2"
       style="stroke-width:1.16025" />
    <path
       d="m 53.278994,78.941154 c 0,0 0.795528,-2.463706 1.396916,-4.310883 -0.38047,0.125478 -9.983711,1.813395 -9.983711,1.813395 0,0 1.777386,-1.917155 4.086985,-4.415851 -0.585768,-0.202695 -1.179346,-0.399356 -1.747262,-0.618942 a 57.500066,62.17782 0 0 1 -5.252941,-2.316512 50.242126,54.329432 0 0 1 -4.872471,-2.8329 65.31588,70.629467 0 0 0 -4.012229,-2.474565 59.507296,64.348343 0 0 0 -3.589361,-1.864068 c 1.115748,2.479391 2.410016,4.776598 3.823668,6.702198 4.343606,5.903485 10.363066,10.318128 17.463686,13.485233 3.848214,-1.718078 7.380672,-3.812591 10.504766,-6.30646 z M 27.982759,55.942539 c 0,0 -0.504318,-0.123064 -0.720773,-0.185803 -2.989089,-0.721496 -14.723409,-3.169519 -25.5941405,-0.161673 -0.1707094,0.04343 -0.3425346,0.0929 -0.5165913,0.143576 v -0.08205 l 16.7563018,-6.98211 8.092519,-3.37342 0.0066,-0.0084 c 4.389352,-2.029362 6.280545,-6.628601 6.973424,-11.4052 0.681722,-5.379856 -0.61924,-13.015898 -0.61924,-13.015898 8.209673,4.119046 15.573609,18.27631 16.816552,20.759321 0.579073,0.661171 1.294267,1.313895 2.175708,1.948523 1.068887,0.77217 2.373196,1.514179 3.940821,2.21999 1.588825,0.711845 3.145294,1.422483 4.659364,2.122263 1.541963,0.710638 3.038181,1.421275 4.498695,2.117436 1.48506,0.707019 2.924375,1.405591 4.321291,2.090893 a 371.9736,402.23445 0 0 1 8.027806,4.041829 c 1.273068,0.661171 2.491465,1.306657 3.660769,1.9256 2.174593,1.15705 4.339143,2.338229 6.492537,3.542332 1.990494,1.119648 3.738871,2.129502 5.256288,3.021117 1.538616,0.9073 2.821726,1.691536 3.852677,2.332196 a 84.018046,90.853094 0 0 1 3.116284,1.995578 C 87.232318,70.221661 76.869252,68.288821 71.367498,66.901328 L 70.731522,66.709492 C 69.43837,66.329438 68.069348,65.925255 66.626686,65.513834 65.201876,65.107238 63.705658,64.692196 62.14919,64.25785 l -1.325508,-0.365574 c 0.56122,1.510558 1.354518,2.666401 2.270546,3.274485 l -2.01504,-0.180977 c -0.912682,-0.726323 -1.680316,-2.001611 -2.19914,-3.619549 0.660524,0.180978 1.300962,0.353509 1.943634,0.526041 A 11.59262,12.535705 0 0 1 60.265808,61.894285 L 58.36792,61.152278 c 0.120501,0.787854 0.294558,1.537101 0.512128,2.213957 l -1.738334,-0.460889 a 13.169172,14.240512 0 0 1 -0.458573,-2.405794 l -1.833173,-0.708225 c 0.0636,0.922984 0.20195,1.798916 0.398322,2.609695 l -0.06472,-0.01086 c -0.227612,-0.06515 -0.45411,-0.119446 -0.689532,-0.184598 L 53.549,61.963054 A 14.00152,15.140574 0 0 1 53.218738,59.157905 L 51.438004,58.46657 v 0.04223 c 0,1.041223 0.0926,2.040219 0.255506,2.977682 l -1.16149,-0.295598 -1.852141,-0.460889 c -0.198604,-0.05068 -0.40167,-0.100144 -0.610314,-0.149609 -0.437374,-0.112205 -0.882558,-0.223205 -1.322162,-0.330586 -1.840984,-0.45003 -3.73887,-0.90368 -5.68585,-1.364569 -7.25013,-1.660166 -10.832796,-5.453454 -10.832796,-5.453454 0.341418,1.306657 0.88925,2.413032 1.499564,3.339637 -0.0066,-0.0036 -0.0212,-0.0036 -0.0279,-0.0036 -0.88144,-0.195456 -1.769576,-0.392118 -2.668868,-0.583953 -0.195256,-0.04705 -0.387165,-0.08808 -0.58019,-0.130305 -0.156204,-0.03498 -0.312408,-0.07721 -0.468614,-0.111 z m 29.362021,10.701801 1.943632,0.176151 c -0.913797,-0.818018 -1.666927,-2.201893 -2.146698,-3.915145 -0.629282,-0.170119 -1.254101,-0.334206 -1.893424,-0.504324 0.44072,1.833904 1.179345,3.320333 2.09649,4.243318 z m -1.756188,-0.161673 c -0.920492,-1.002615 -1.641264,-2.59763 -2.039586,-4.519611 0,0 -1.691474,-0.437965 -1.854374,-0.475367 0.358156,2.024534 1.058845,3.726929 1.974874,4.822445 z M 52.020431,32.442014 c -0.304599,0.407803 -0.582421,0.80716 -0.816727,1.199278 a 7.960861,8.6084942 0 0 0 -0.775446,1.609493 3.93859,4.2590027 0 0 0 -0.29121,1.376634 c -0.0066,0.06515 -0.0066,0.123065 -0.0066,0.184597 0,0.09893 0.0212,0.191836 0.029,0.291978 0.519938,0.916952 1.022025,1.84597 1.506259,2.785846 0.37266,0.372814 0.788834,0.742007 1.28311,1.099136 0.941692,0.680476 2.099838,1.329581 3.449893,1.932839 l 4.683909,2.14036 4.532168,2.125882 4.349185,2.105371 4.155045,2.063143 1.072234,0.550171 c 0.604735,-2.752063 0.938344,-5.442595 0.938344,-7.847182 0,0 -8.230872,-10.998603 -24.10908,-11.617546 z"
       fill="#008bc0"
       id="path3"
       style="stroke-width:1.16025" />
  </g>
</svg>
