<?xml version="1.0" encoding="UTF-8" standalone="no"?>
<svg
   width="100"
   height="100"
   viewBox="0 0 100 100"
   fill="none"
   version="1.1"
   id="svg4"
   sodipodi:docname="badge-3.svg"
   inkscape:version="1.3.2 (091e20e, 2023-11-25)"
   xmlns:inkscape="http://www.inkscape.org/namespaces/inkscape"
   xmlns:sodipodi="http://sodipodi.sourceforge.net/DTD/sodipodi-0.dtd"
   xmlns="http://www.w3.org/2000/svg"
   xmlns:svg="http://www.w3.org/2000/svg">
  <defs
     id="defs4" />
  <sodipodi:namedview
     id="namedview4"
     pagecolor="#ffffff"
     bordercolor="#000000"
     borderopacity="0.25"
     inkscape:showpageshadow="2"
     inkscape:pageopacity="0.0"
     inkscape:pagecheckerboard="0"
     inkscape:deskcolor="#d1d1d1"
     inkscape:zoom="2.36"
     inkscape:cx="49.788136"
     inkscape:cy="50"
     inkscape:window-width="1584"
     inkscape:window-height="911"
     inkscape:window-x="0"
     inkscape:window-y="39"
     inkscape:window-maximized="0"
     inkscape:current-layer="layer3" />
  <g
     inkscape:groupmode="layer"
     id="layer4"
     inkscape:label="back">
    <rect
       style="fill:#367bac;fill-rule:evenodd;stroke:#000000;fill-opacity:1"
       id="rect4"
       width="144.06779"
       height="142.37288"
       x="-21.186441"
       y="-13.135593" />
  </g>
  <g
     inkscape:groupmode="layer"
     id="layer3"
     inkscape:label="fore"
     transform="matrix(0.94597242,0,0,0.92309273,2.7314691,3.8135593)">
    <path
       d="m 70.766,28.57 0.24,-4.782 c -0.41,-0.034 -1.606,-0.136 -1.947,-0.205 -4.167,-0.82 -11.715,-3.961 -12.193,-4.235 6.797,4.406 12.876,5.704 12.876,5.704 z M 51.368,13.509 54.407,4.287 h -8.265 l 3.04,9.222 z M 45.63,9.615 c -7.445,2.22 -10.793,8.163 -11.988,11.373 3.62,-1.093 10.11,-3.313 13.866,-5.601 z m 33.342,60.43 h 2.114 c 5.706,-6.248 7.055,-13.074 7.087,-13.202 L 75.4,51.603 85.645,57.185 c -1.442,5.567 -4.298,9.953 -6.673,12.86 z M 25.13,63.268 h 11.11 c -4.844,-4.92 -7.42,-8.964 -8.896,-12.393 l -14.546,5.968 c 0.032,0.128 1.382,6.954 7.089,13.202 h 5.243 z m 30.063,-21.106 -1.4,-0.648 0.41,17.69 1.365,-0.478 z m -8.813,17.042 0.41,-17.69 -1.4,0.648 -0.376,16.564 z M 31.012,43.836 29.954,24.096 31.593,23.891 c 0,0 14.14,-4.03 18.647,-7.787 v 21.652 l -17.28,-8.81 3.039,8.81 7.787,3.723 L 43.41,57.77 31.013,43.836 Z"
       fill="#00a3e0"
       id="path1" />
    <path
       d="m 35.275,66.21 c 0.812,-0.037 1.44,0.665 1.44,1.478 0,0.812 -0.59,1.477 -1.404,1.477 -0.85,0 -1.44,-0.665 -1.44,-1.477 0,-0.813 0.59,-1.478 1.404,-1.478 z m 10.8,1.44 c 0,0.841 -0.585,1.39 -1.39,1.39 h -0.803 v -2.814 h 0.803 c 0.805,0 1.39,0.584 1.39,1.425 z m 15.682,0.382 0.616,-1.523 0.616,1.523 z m -9.338,15.256 h -2.788 l 0.88,-2.898 0.514,-1.762 h 0.037 l 0.513,1.761 z M 57.157,66.21 c 0.85,-0.037 1.44,0.665 1.44,1.478 0,0.812 -0.59,1.477 -1.403,1.477 -0.85,0 -1.44,-0.665 -1.44,-1.477 0,-0.813 0.59,-1.478 1.403,-1.478 z m 34.564,24.453 c 0,2.568 -1.468,3.742 -3.155,3.302 -2.128,-0.55 -5.394,-1.21 -7.669,-1.688 -2.018,-0.44 -3.155,-0.88 -3.155,-2.935 V 86.92 h 4.55 v 0.697 c 0,0.55 0.367,0.66 0.807,0.807 0.44,0.148 2.788,0.698 3.156,0.808 0.366,0.11 0.806,-0.037 0.806,-0.808 V 85.16 c 0,-0.844 -0.513,-0.99 -1.174,-1.1 C 85.19,83.95 83.759,83.62 81.411,83.142 79.026,82.665 78.255,81.454 78.255,79.84 V 75.4 c 0,-1.614 0.808,-2.935 3.156,-2.935 h 7.558 a 2.302,2.302 0 0 1 2.312,2.311 v 3.486 h -4.44 v -0.917 a 0.814,0.814 0 0 0 -0.807,-0.807 h -4.366 c 0,0 0.697,0.257 1.247,0.66 v 2.019 c 0,0.88 0.294,1.027 1.174,1.173 0.881,0.147 2.349,0.44 4.44,0.771 2.055,0.257 3.192,1.284 3.192,2.898 v 6.605 z M 72.086,91.14 65.445,80.536 H 65.408 V 90.552 L 60.932,90.296 V 73.308 c -0.624,-0.477 -1.431,-0.807 -1.431,-0.807 h 5.687 l 5.65,9.026 h 0.037 v -8.219 c -0.624,-0.477 -1.431,-0.807 -1.431,-0.807 h 5.87 v -0.037 19.08 z M 54.658,90.076 53.74,87.287 h -7.154 c 0,0 0.844,0.33 1.467,0.844 l -0.66,1.982 -4.477,0.146 5.798,-16.95 C 48.09,72.794 47.246,72.464 47.246,72.464 h 6.09 l 6.165,17.758 z m -18.64,0.587 V 76.537 h -3.925 v -4.073 h 12.511 v 4.073 h -5.687 c 0,0 1.174,0.44 1.724,1.1 v 12.695 l -4.622,0.331 z m -10.31,1.174 V 72.464 h 4.623 v 18.75 l -4.622,0.623 z m -5.723,-14.2 v 15.19 l -4.623,1.064 V 76.537 h -3.743 l -1.394,-4.073 h 13.723 v 4.073 H 18.26 c 0,0 1.174,0.44 1.725,1.1 z m 12.06,-8.281 a 3.047,3.047 0 0 1 -2.016,0.733 c -1.503,0 -2.493,-1.027 -2.493,-2.42 0,-1.356 1.026,-2.456 2.456,-2.456 0.843,0 1.356,0.22 1.833,0.66 l -0.66,0.77 c -0.366,-0.294 -0.696,-0.477 -1.21,-0.477 -0.733,0 -1.356,0.66 -1.356,1.466 0,0.843 0.587,1.503 1.43,1.503 0.366,0 0.696,-0.11 0.99,-0.293 v -0.66 h -1.027 v -0.88 h 2.053 z M 12.8,56.844 27.346,50.876 c 1.475,3.429 4.052,7.473 8.895,12.392 h -11.11 v 6.777 H 19.888 C 14.182,63.797 12.832,56.971 12.8,56.844 Z M 31.595,23.89 c 0,0 14.14,-4.03 18.647,-7.786 V 37.756 L 32.961,28.945 36,37.757 43.786,41.48 43.411,57.77 31.013,43.836 29.954,24.096 31.594,23.891 Z M 45.632,9.616 47.51,15.387 c -3.757,2.289 -10.246,4.509 -13.866,5.601 1.195,-3.21 4.542,-9.152 11.988,-11.372 z m 8.777,-5.328 -3.04,9.221 h -2.186 l -3.04,-9.221 z m 7.582,31.181 v -1.673 l 2.527,-1.298 -1.4,3.996 -7.446,3.585 -0.853,-1.16 z m 7.07,-11.885 c 0.34,0.069 1.536,0.17 1.946,0.205 l -0.239,4.781 -1.025,-3.517 c 0,0 -6.079,-1.298 -12.875,-5.704 0.478,0.273 8.026,3.415 12.192,4.235 z m 19.114,33.26 c -0.032,0.127 -1.381,6.953 -7.087,13.201 h -2.115 c 2.376,-2.906 5.231,-7.292 6.674,-12.86 l -10.246,-5.58 z m -34.381,-15.33 1.4,0.649 0.376,16.564 -1.366,0.478 z m -7.001,0 -0.41,17.69 -1.366,-0.477 0.375,-16.564 1.4,-0.649 z m -1.059,-2.63 -0.854,1.161 -7.445,-3.586 -1.366,-3.995 2.527,1.297 v 1.674 l 7.138,3.45 z M 37.786,67.65 c 0,1.33 -1.071,2.439 -2.511,2.439 -1.478,0 -2.512,-1.108 -2.512,-2.439 0,-1.329 1.034,-2.437 2.512,-2.437 1.477,0 2.511,1.108 2.511,2.438 z m 4.275,1.418 v 0.922 h -3.388 v -4.677 h 1.031 v 3.755 z m 2.588,0.921 h -1.827 v -4.676 h 1.827 c 1.462,0 2.485,0.986 2.485,2.338 0,1.315 -1.023,2.338 -2.485,2.338 z m 7.616,-0.854 c 0.55,0 0.88,-0.22 1.246,-0.55 l 0.66,0.66 c -0.476,0.514 -1.026,0.844 -1.906,0.844 -1.393,0 -2.42,-1.064 -2.42,-2.42 0,-1.356 0.99,-2.456 2.457,-2.456 0.88,0 1.43,0.293 1.833,0.733 l -0.66,0.77 c -0.367,-0.33 -0.734,-0.513 -1.21,-0.513 -0.807,0 -1.357,0.66 -1.357,1.466 0,0.806 0.55,1.466 1.357,1.466 z m 7.44,-1.485 c 0,1.33 -1.033,2.439 -2.511,2.439 -1.477,0 -2.512,-1.108 -2.512,-2.439 0,-1.329 1.035,-2.437 2.512,-2.437 1.44,0 2.512,1.108 2.512,2.438 z m 5.133,2.34 h -1.05 l -0.436,-1.052 h -1.958 l -0.435,1.052 h -1.052 l 1.994,-4.677 h 0.943 z m 3.744,-0.3 c -0.312,0.261 -0.752,0.399 -1.274,0.399 a 3.25,3.25 0 0 1 -2.094,-0.745 l 0.627,-0.738 c 0.492,0.409 0.947,0.599 1.43,0.599 0.43,0 0.688,-0.173 0.688,-0.462 0,-0.268 -0.143,-0.42 -0.987,-0.612 -0.922,-0.249 -1.574,-0.498 -1.574,-1.46 0,-0.414 0.17,-0.787 0.477,-1.051 0.305,-0.262 0.734,-0.407 1.207,-0.407 0.675,0 1.278,0.2 1.794,0.595 l -0.553,0.774 c -0.451,-0.327 -0.858,-0.486 -1.24,-0.486 -0.297,0 -0.613,0.112 -0.613,0.425 0,0.307 0.188,0.422 1.062,0.65 0.949,0.255 1.536,0.582 1.536,1.421 0,0.454 -0.168,0.834 -0.486,1.099 z m 0.878,-3.457 v -0.92 h 3.903 v 0.92 h -1.437 v 3.757 h -1.03 V 66.233 Z M 93.693,80.68 v -5.905 a 4.736,4.736 0 0 0 -4.73,-4.73 h -6.95 c 2.931,-1.835 8.248,-6.271 9.235,-14.802 L 72.43,47.525 73.694,20.75 69.698,20.203 C 68.913,18.393 67.376,15.422 64.678,12.792 63.448,5.62 58.462,2.205 58.462,2.205 h -15.95 c 0,0 -4.986,3.415 -6.215,10.587 -2.698,2.63 -4.235,5.6 -5.02,7.41 L 27.28,20.75 28.544,47.525 9.726,55.243 c 0.987,8.53 6.304,12.967 9.235,14.802 H 6.84 l 3.05,8.91 h 3.052 V 96.852 C 29.269,92.266 59.99,89.811 87.948,96.306 a 5.09,5.09 0 0 0 1.282,0.166 4.6,4.6 0 0 0 2.828,-0.95 c 1.338,-1.035 2.075,-2.76 2.075,-4.86 v -6.604 c 0,-1.148 -0.367,-2.382 -1.25,-3.378 z"
       fill="#0c2340"
       id="path2" />
    <path
       d="m 96.079,81.489 v -6.715 a 7.124,7.124 0 0 0 -7.117,-7.117 h -0.816 c 2.404,-2.755 4.659,-6.712 5.289,-12.162 L 93.627,53.837 74.703,46.075 75.988,18.838 71.191,18.182 C 70.001,15.752 68.474,13.545 66.715,11.717 65.153,4.193 59.934,0.542 59.705,0.386 L 59.144,0 H 41.829 l -0.563,0.386 c -0.228,0.156 -5.447,3.807 -7.01,11.331 -1.758,1.828 -3.285,4.035 -4.475,6.465 l -4.797,0.656 1.285,27.237 -18.924,7.762 0.191,1.658 c 0.631,5.45 2.886,9.407 5.289,12.163 H 3.5 L 8.184,81.34 h 2.371 V 100 l 3.032,-0.852 c 9.987,-2.804 23.739,-4.414 37.73,-4.414 12.633,0 25.102,1.345 36.063,3.888 0.61,0.156 1.231,0.235 1.85,0.235 a 6.94,6.94 0 0 0 4.286,-1.45 c 1.937,-1.495 3.003,-3.89 3.003,-6.746 v -6.604 a 7.64,7.64 0 0 0 -0.44,-2.568 z m -1.947,9.172 c 0,2.1 -0.737,3.824 -2.074,4.858 a 4.598,4.598 0 0 1 -2.829,0.952 c -0.423,0 -0.853,-0.055 -1.281,-0.166 C 59.99,89.809 29.269,92.265 12.942,96.851 V 78.954 H 9.89 L 6.84,70.044 H 18.96 C 16.03,68.208 10.711,63.772 9.725,55.242 l 18.818,-7.719 -1.264,-26.775 3.996,-0.547 c 0.786,-1.81 2.322,-4.78 5.02,-7.41 1.23,-7.173 6.216,-10.588 6.216,-10.588 h 15.95 c 0,0 4.986,3.415 6.215,10.587 2.698,2.63 4.235,5.601 5.02,7.412 l 3.996,0.546 -1.263,26.775 18.818,7.719 c -0.987,8.53 -6.304,12.966 -9.235,14.802 h 6.95 a 4.736,4.736 0 0 1 4.73,4.73 v 5.904 h -0.81 c 0.884,0.997 1.25,2.231 1.25,3.379 z m -5.604,-9.502 c -2.091,-0.33 -3.559,-0.624 -4.44,-0.771 -0.88,-0.147 -1.174,-0.294 -1.174,-1.174 v -2.018 c -0.55,-0.403 -1.247,-0.66 -1.247,-0.66 h 4.366 c 0.44,0 0.807,0.366 0.807,0.806 v 0.918 h 4.44 V 74.774 A 2.302,2.302 0 0 0 88.968,72.463 H 81.41 c -2.348,0 -3.156,1.32 -3.156,2.935 v 4.44 c 0,1.614 0.77,2.825 3.156,3.302 2.348,0.477 3.779,0.807 4.476,0.917 0.66,0.11 1.174,0.257 1.174,1.1 v 3.266 c 0,0.77 -0.44,0.917 -0.806,0.808 -0.368,-0.11 -2.716,-0.66 -3.156,-0.808 -0.44,-0.147 -0.808,-0.257 -0.808,-0.807 v -0.697 h -4.55 v 2.421 c 0,2.055 1.138,2.496 3.156,2.936 2.275,0.477 5.54,1.137 7.669,1.688 1.687,0.44 3.155,-0.734 3.155,-3.303 v -6.604 c 0,-1.614 -1.137,-2.641 -3.192,-2.898 z M 23.946,72.463 H 10.224 l 1.394,4.073 h 3.743 V 93.89 l 4.622,-1.064 v -15.19 c -0.55,-0.66 -1.724,-1.1 -1.724,-1.1 h 5.687 z m 6.384,0 H 25.707 V 91.836 L 30.33,91.212 V 72.462 Z M 75.313,72.5 h -5.87 c 0,0 0.807,0.33 1.43,0.807 v 8.218 H 70.837 L 65.187,72.5 h -5.688 c 0,0 0.808,0.33 1.432,0.807 v 16.988 l 4.475,0.256 V 80.535 h 0.038 l 6.64,10.603 3.23,0.404 V 72.5 Z M 40.64,77.636 c -0.55,-0.66 -1.724,-1.1 -1.724,-1.1 h 5.687 V 72.463 H 32.091 v 4.073 h 3.926 v 14.126 l 4.623,-0.33 V 77.635 Z m 12.695,-5.173 h -6.09 c 0,0 0.844,0.33 1.467,0.844 l -5.797,16.95 4.477,-0.146 0.66,-1.981 c -0.624,-0.514 -1.468,-0.844 -1.468,-0.844 h 7.155 l 0.917,2.788 4.843,0.147 z m -3.705,10.824 0.88,-2.899 0.514,-1.761 h 0.037 l 0.513,1.761 0.844,2.899 z"
       fill="#ffffff"
       id="path3" />
    <path
       d="m 67.53,67.166 c -0.873,-0.227 -1.061,-0.342 -1.061,-0.65 0,-0.312 0.316,-0.424 0.612,-0.424 0.383,0 0.79,0.159 1.24,0.486 l 0.554,-0.775 a 2.887,2.887 0 0 0 -1.794,-0.594 c -0.473,0 -0.902,0.145 -1.208,0.407 a 1.364,1.364 0 0 0 -0.477,1.051 c 0,0.962 0.653,1.211 1.575,1.46 0.844,0.191 0.987,0.344 0.987,0.612 0,0.289 -0.258,0.462 -0.688,0.462 -0.483,0 -0.938,-0.19 -1.43,-0.599 l -0.627,0.738 a 3.256,3.256 0 0 0 2.094,0.745 c 0.522,0 0.962,-0.138 1.274,-0.398 0.318,-0.265 0.486,-0.645 0.486,-1.099 0,-0.84 -0.588,-1.166 -1.536,-1.422 z m 4.395,2.82 v -3.757 h 1.437 v -0.92 h -3.904 v 0.92 h 1.436 v 3.756 h 1.031 z m -14.769,-3.78 c -0.812,0 -1.404,0.665 -1.404,1.477 0,0.813 0.592,1.478 1.44,1.478 0.814,0 1.404,-0.665 1.404,-1.478 0,-0.812 -0.59,-1.514 -1.44,-1.477 z m 0.037,-0.997 c 1.44,0 2.512,1.108 2.512,2.437 0,1.33 -1.035,2.439 -2.512,2.439 -1.477,0 -2.512,-1.109 -2.512,-2.439 0,-1.33 1.035,-2.437 2.512,-2.437 z m -4.93,0.99 c 0.477,0 0.844,0.183 1.21,0.512 l 0.66,-0.769 C 53.73,65.502 53.18,65.209 52.3,65.209 c -1.466,0 -2.456,1.1 -2.456,2.456 0,1.356 1.027,2.42 2.42,2.42 0.88,0 1.43,-0.33 1.906,-0.844 l -0.66,-0.66 c -0.366,0.33 -0.696,0.55 -1.246,0.55 -0.807,0 -1.357,-0.66 -1.357,-1.466 0,-0.807 0.55,-1.467 1.357,-1.467 z m -16.99,0.007 c -0.813,0 -1.403,0.665 -1.403,1.477 0,0.813 0.59,1.478 1.44,1.478 0.813,0 1.404,-0.665 1.404,-1.478 0,-0.812 -0.628,-1.514 -1.44,-1.477 z m 0,-0.997 c 1.477,0 2.512,1.108 2.512,2.437 0,1.33 -1.071,2.439 -2.512,2.439 -1.477,0 -2.512,-1.109 -2.512,-2.439 0,-1.33 1.035,-2.437 2.512,-2.437 z m -5.282,2.969 h 1.026 v 0.66 a 1.846,1.846 0 0 1 -0.99,0.293 c -0.842,0 -1.43,-0.66 -1.43,-1.503 0,-0.806 0.624,-1.466 1.357,-1.466 0.514,0 0.843,0.183 1.21,0.476 l 0.66,-0.77 c -0.477,-0.44 -0.99,-0.66 -1.833,-0.66 -1.43,0 -2.456,1.1 -2.456,2.457 0,1.393 0.99,2.42 2.493,2.42 0.88,0 1.54,-0.33 2.016,-0.734 V 67.298 H 29.99 v 0.88 z m 32.38,-1.673 -0.616,1.523 h 1.233 z m -0.47,-1.197 h 0.942 l 1.994,4.677 h -1.051 l -0.435,-1.05 h -1.959 l -0.434,1.05 H 59.906 L 61.9,65.308 Z m -15.828,2.339 c 0,-0.84 -0.585,-1.425 -1.389,-1.425 h -0.803 v 2.813 h 0.803 c 0.804,0 1.389,-0.548 1.389,-1.388 z m 1.06,0 c 0,1.315 -1.024,2.338 -2.485,2.338 h -1.827 v -4.677 h 1.827 c 1.461,0 2.484,0.987 2.484,2.339 z m -7.43,-2.339 h -1.03 v 4.677 h 3.387 v -0.92 h -2.357 z m -3.636,-32.848 1.367,3.996 7.445,3.586 0.854,-1.161 -7.138,-3.45 v -1.673 z m 19.604,7.616 -0.853,-1.16 7.172,-3.45 V 33.79 l 2.527,-1.297 -1.4,3.995 -7.446,3.586 z"
       fill="#ffc72c"
       id="path4" />
  </g>
</svg>
