<?xml version="1.0" encoding="UTF-8" standalone="no"?>
<svg version="1.1" id="Layer_1" xmlns="http://www.w3.org/2000/svg" xmlns:xlink="http://www.w3.org/1999/xlink" x="0px" y="0px"
	 width="100%" viewBox="0 0 96 96" enable-background="new 0 0 96 96" xml:space="preserve">
<path fill="#000000" opacity="1.000000" stroke="none" 
	d="
M61.000000,1.000000 
	C72.970093,1.000000 84.940193,1.000000 96.955139,1.000000 
	C96.955139,32.890297 96.955139,64.780670 96.955139,97.000000 
	C82.647446,97.000000 68.292381,97.000000 53.176918,96.702721 
	C60.779785,91.313286 68.961617,85.886528 77.558449,81.225128 
	C85.799049,76.756874 92.945557,71.648407 94.585014,61.722450 
	C94.849655,60.120243 94.090683,57.297989 92.941040,56.699760 
	C88.562469,54.421314 83.883224,52.672020 79.210716,51.024532 
	C76.200630,49.963203 74.667755,48.504749 74.951485,45.017643 
	C75.618507,36.819771 75.943108,28.594030 76.383690,20.780106 
	C74.096519,19.982910 71.797752,19.909115 71.126160,18.826197 
	C67.527107,13.022840 64.333618,6.967969 61.000000,1.000000 
z"/>
<path fill="#000000" opacity="1.000000" stroke="none" 
	d="
M45.000000,97.000000 
	C30.369877,97.000000 15.739756,97.000000 1.054816,97.000000 
	C1.054816,65.116356 1.054816,33.232594 1.054816,1.000000 
	C12.685247,1.000000 24.373964,1.000000 36.821945,1.287378 
	C35.654167,4.889997 33.954021,8.366612 31.740904,11.478397 
	C29.150721,15.120363 28.522717,20.985111 21.492891,20.172915 
	C22.013065,28.118755 22.521145,35.507114 22.970675,42.899029 
	C23.206198,46.771927 23.464697,50.174637 17.937925,51.207489 
	C13.479870,52.040615 9.291590,54.509708 5.117815,56.530212 
	C4.130402,57.008217 2.954666,58.710266 3.101332,59.658012 
	C4.108506,66.166290 6.188724,72.301666 12.169510,75.995033 
	C19.689754,80.639084 27.449411,84.896149 34.956902,89.559830 
	C38.484097,91.750946 41.663170,94.502449 45.000000,97.000000 
z"/>
<path fill="#F5F7F8" opacity="1.000000" stroke="none" 
	d="
M45.444164,97.000000 
	C41.663170,94.502449 38.484097,91.750946 34.956902,89.559830 
	C27.449411,84.896149 19.689754,80.639084 12.169510,75.995033 
	C6.188724,72.301666 4.108506,66.166290 3.101332,59.658012 
	C2.954666,58.710266 4.130402,57.008217 5.117815,56.530212 
	C9.291590,54.509708 13.479870,52.040615 17.937925,51.207489 
	C23.464697,50.174637 23.206198,46.771927 22.970675,42.899029 
	C22.521145,35.507114 22.013065,28.118755 21.492891,20.172915 
	C28.522717,20.985111 29.150721,15.120363 31.740904,11.478397 
	C33.954021,8.366612 35.654167,4.889997 37.290604,1.287378 
	C44.687576,1.000000 52.375153,1.000000 60.531364,1.000000 
	C64.333618,6.967969 67.527107,13.022840 71.126160,18.826197 
	C71.797752,19.909115 74.096519,19.982910 76.383690,20.780106 
	C75.943108,28.594030 75.618507,36.819771 74.951485,45.017643 
	C74.667755,48.504749 76.200630,49.963203 79.210716,51.024532 
	C83.883224,52.672020 88.562469,54.421314 92.941040,56.699760 
	C94.090683,57.297989 94.849655,60.120243 94.585014,61.722450 
	C92.945557,71.648407 85.799049,76.756874 77.558449,81.225128 
	C68.961617,85.886528 60.779785,91.313286 52.708260,96.702721 
	C50.629444,97.000000 48.258884,97.000000 45.444164,97.000000 
M84.017189,73.018349 
	C84.017189,73.018349 84.039566,73.089272 84.656601,73.086449 
	C84.804169,72.749001 84.951736,72.411545 85.036255,72.147430 
	C85.036255,72.147430 85.112610,72.206795 85.806641,72.080421 
	C88.166069,68.100609 90.525497,64.120796 93.100792,59.776878 
	C86.388237,57.036789 81.083473,54.704407 75.650841,52.722511 
	C72.834435,51.695057 71.948006,50.226116 72.184814,47.208103 
	C72.807037,39.278282 73.039680,31.317896 73.427521,23.369686 
	C72.936188,23.630629 72.444855,23.891573 71.953514,24.152515 
	C69.266159,20.667202 65.390434,17.560083 64.136093,13.618711 
	C61.433064,5.125242 56.478230,2.357472 47.853069,3.063707 
	C39.033192,3.785886 37.827763,4.334760 34.354618,12.450930 
	C32.419426,16.973154 30.400118,21.905851 24.538923,23.596405 
	C24.927349,31.531113 25.170984,39.498234 25.784233,47.436802 
	C26.003111,50.270161 25.185993,51.611702 22.555010,52.591068 
	C16.990347,54.662491 11.547833,57.062057 6.136893,59.293346 
	C7.077481,65.944305 8.567689,68.746819 12.955215,72.159424 
	C12.955215,72.159424 12.904684,72.077988 12.848894,72.702263 
	C13.219067,72.831055 13.589239,72.959846 13.982936,73.018478 
	C13.982936,73.018478 13.909949,73.030678 13.952436,73.660187 
	C14.305113,73.887100 14.657789,74.114021 15.380617,74.882843 
	C26.591457,81.198174 37.802299,87.513504 49.707443,93.875458 
	C58.984837,88.291466 68.262230,82.707466 78.283989,77.108757 
	C79.870148,76.145683 81.456314,75.182602 83.594658,74.004753 
	C83.759750,73.681091 83.924843,73.357430 84.017189,73.018349 
z"/>
<path fill="#0F2844" opacity="1.000000" stroke="none" 
	d="
M77.539612,77.123466 
	C68.262230,82.707466 58.984837,88.291466 49.356728,93.399467 
	C49.001244,90.931725 48.741776,88.900574 49.042599,86.956100 
	C49.757042,82.337959 47.710583,79.598030 44.251038,76.585548 
	C36.949776,70.227814 30.330887,63.086437 22.671694,55.514923 
	C20.270372,56.498699 16.383944,58.299259 12.351924,59.672283 
	C9.480182,60.650196 9.403003,62.271400 10.283257,64.629959 
	C11.217151,67.132248 12.017895,69.684227 12.876789,72.214508 
	C8.567689,68.746819 7.077481,65.944305 6.136893,59.293346 
	C11.547833,57.062057 16.990347,54.662491 22.555010,52.591068 
	C25.185993,51.611702 26.003111,50.270161 25.784233,47.436802 
	C25.170984,39.498234 24.927349,31.531113 24.538923,23.596405 
	C30.400118,21.905851 32.419426,16.973154 34.354618,12.450930 
	C37.827763,4.334760 39.033192,3.785886 47.853069,3.063707 
	C56.478230,2.357472 61.433064,5.125242 64.136093,13.618711 
	C65.390434,17.560083 69.266159,20.667202 71.953514,24.152515 
	C72.444855,23.891573 72.936188,23.630629 73.427521,23.369686 
	C73.039680,31.317896 72.807037,39.278282 72.184814,47.208103 
	C71.948006,50.226116 72.834435,51.695057 75.650841,52.722511 
	C81.083473,54.704407 86.388237,57.036789 93.100792,59.776878 
	C90.525497,64.120796 88.166069,68.100609 85.238785,71.798653 
	C85.738258,69.117157 86.782021,66.706596 87.878548,64.320274 
	C89.451820,60.896408 87.928413,59.899799 85.428055,59.947403 
	C85.220467,61.870930 85.483017,63.610641 84.816689,64.851585 
	C82.568909,69.037743 79.991173,73.046730 77.539612,77.123466 
M32.872082,32.942856 
	C37.982262,35.420456 43.092438,37.898056 48.378822,40.461090 
	C48.378822,32.724667 48.378822,25.900023 48.378822,18.808905 
	C44.200729,20.567368 40.599186,22.252577 36.879501,23.615303 
	C27.624598,27.005882 28.564425,27.034222 27.671530,36.864288 
	C26.618565,48.456589 34.565422,53.843777 41.315475,60.697968 
	C41.937469,55.857613 42.110401,51.110924 41.804729,46.395264 
	C41.736172,45.337616 40.162529,43.854286 38.991047,43.482159 
	C33.977245,41.889473 32.087944,38.205292 31.855484,33.134071 
	C31.855484,33.134071 32.167824,32.817577 32.872082,32.942856 
M32.565784,20.192289 
	C31.619268,22.082481 31.660046,23.211117 34.213108,22.226044 
	C38.043354,20.748184 41.856632,19.226366 46.006786,17.593542 
	C45.111324,15.120492 44.414162,13.195094 43.191093,9.817273 
	C39.251152,13.571754 36.099262,16.575279 32.565784,20.192289 
M45.938030,10.472313 
	C46.942669,11.990129 47.947308,13.507944 48.951946,15.025762 
	C49.831467,13.534852 50.859161,12.108686 51.547153,10.534093 
	C52.183956,9.076656 52.457233,7.460383 52.982693,5.585461 
	C50.102139,5.585461 47.701382,5.585461 44.787857,5.585461 
	C45.166763,7.220991 45.452599,8.454771 45.938030,10.472313 
z"/>
<path fill="#02A2DE" opacity="1.000000" stroke="none" 
	d="
M12.916002,72.186966 
	C12.017895,69.684227 11.217151,67.132248 10.283257,64.629959 
	C9.403003,62.271400 9.480182,60.650196 12.351924,59.672283 
	C16.383944,58.299259 20.270372,56.498699 22.671694,55.514923 
	C30.330887,63.086437 36.949776,70.227814 44.251038,76.585548 
	C47.710583,79.598030 49.757042,82.337959 49.042599,86.956100 
	C48.741776,88.900574 49.001244,90.931725 49.009579,93.376152 
	C37.802299,87.513504 26.591457,81.198174 15.192968,74.255219 
	C14.640197,73.428612 14.275074,73.229645 13.909950,73.030678 
	C13.909949,73.030678 13.982936,73.018478 14.019993,72.696358 
	C13.672929,72.275482 13.288807,72.176735 12.904685,72.077988 
	C12.904684,72.077988 12.955215,72.159424 12.916002,72.186966 
z"/>
<path fill="#0797CF" opacity="1.000000" stroke="none" 
	d="
M77.911804,77.116112 
	C79.991173,73.046730 82.568909,69.037743 84.816689,64.851585 
	C85.483017,63.610641 85.220467,61.870930 85.428055,59.947403 
	C87.928413,59.899799 89.451820,60.896408 87.878548,64.320274 
	C86.782021,66.706596 85.738258,69.117157 84.891769,71.861839 
	C85.112610,72.206795 85.036255,72.147430 84.737213,72.023529 
	C84.305298,72.296181 84.172432,72.692726 84.039566,73.089272 
	C84.039566,73.089272 84.017189,73.018349 83.723999,73.026314 
	C83.301361,73.429359 83.171913,73.824440 83.042473,74.219521 
	C81.456314,75.182602 79.870148,76.145683 77.911804,77.116112 
z"/>
<path fill="#0F2844" opacity="1.000000" stroke="none" 
	d="
M12.876790,72.390121 
	C13.288807,72.176735 13.672929,72.275482 14.008231,72.731445 
	C13.589239,72.959846 13.219067,72.831055 12.876790,72.390121 
z"/>
<path fill="#0F2844" opacity="1.000000" stroke="none" 
	d="
M84.348083,73.087860 
	C84.172432,72.692726 84.305298,72.296181 84.768738,71.986862 
	C84.951736,72.411545 84.804169,72.749001 84.348083,73.087860 
z"/>
<path fill="#0F2844" opacity="1.000000" stroke="none" 
	d="
M13.931194,73.345428 
	C14.275074,73.229645 14.640197,73.428612 15.007893,73.984261 
	C14.657789,74.114021 14.305113,73.887100 13.931194,73.345428 
z"/>
<path fill="#0F2844" opacity="1.000000" stroke="none" 
	d="
M83.318565,74.112137 
	C83.171913,73.824440 83.301361,73.429359 83.760376,73.034027 
	C83.924843,73.357430 83.759750,73.681091 83.318565,74.112137 
z"/>
<path fill="#019DD8" opacity="1.000000" stroke="none" 
	d="
M31.522938,33.429268 
	C32.087944,38.205292 33.977245,41.889473 38.991047,43.482159 
	C40.162529,43.854286 41.736172,45.337616 41.804729,46.395264 
	C42.110401,51.110924 41.937469,55.857613 41.315475,60.697968 
	C34.565422,53.843777 26.618565,48.456589 27.671530,36.864288 
	C28.564425,27.034222 27.624598,27.005882 36.879501,23.615303 
	C40.599186,22.252577 44.200729,20.567368 48.378822,18.808905 
	C48.378822,25.900023 48.378822,32.724667 48.378822,40.461090 
	C43.092438,37.898056 37.982262,35.420456 32.397232,32.694904 
	C31.789232,32.774391 31.656084,33.101830 31.522938,33.429268 
z"/>
<path fill="#019BD5" opacity="1.000000" stroke="none" 
	d="
M32.756577,19.885548 
	C36.099262,16.575279 39.251152,13.571754 43.191093,9.817273 
	C44.414162,13.195094 45.111324,15.120492 46.006786,17.593542 
	C41.856632,19.226366 38.043354,20.748184 34.213108,22.226044 
	C31.660046,23.211117 31.619268,22.082481 32.756577,19.885548 
z"/>
<path fill="#0194CD" opacity="1.000000" stroke="none" 
	d="
M45.838234,10.080433 
	C45.452599,8.454771 45.166763,7.220991 44.787857,5.585461 
	C47.701382,5.585461 50.102139,5.585461 52.982693,5.585461 
	C52.457233,7.460383 52.183956,9.076656 51.547153,10.534093 
	C50.859161,12.108686 49.831467,13.534852 48.951950,15.025761 
	C47.947308,13.507944 46.942669,11.990129 45.838234,10.080433 
z"/>
<path fill="#0F2844" opacity="1.000000" stroke="none" 
	d="
M31.689211,33.281670 
	C31.656084,33.101830 31.789232,32.774391 32.045101,32.632263 
	C32.167824,32.817577 31.855484,33.134071 31.689211,33.281670 
z"/>
</svg>
