<?xml version="1.0" encoding="UTF-8" standalone="no"?>
<svg
   clip-rule="evenodd"
   fill-rule="evenodd"
   stroke-linejoin="round"
   stroke-miterlimit="1.414"
   viewBox="0 0 100 100"
   version="1.1"
   id="svg1"
   sodipodi:docname="badge-light-5.svg"
   inkscape:version="1.3.2 (091e20e, 2023-11-25)"
   xmlns:inkscape="http://www.inkscape.org/namespaces/inkscape"
   xmlns:sodipodi="http://sodipodi.sourceforge.net/DTD/sodipodi-0.dtd"
   xmlns="http://www.w3.org/2000/svg"
   xmlns:svg="http://www.w3.org/2000/svg">
  <defs
     id="defs1" />
  <sodipodi:namedview
     id="namedview1"
     pagecolor="#ffffff"
     bordercolor="#000000"
     borderopacity="0.25"
     inkscape:showpageshadow="2"
     inkscape:pageopacity="0.0"
     inkscape:pagecheckerboard="0"
     inkscape:deskcolor="#d1d1d1"
     inkscape:zoom="2.36"
     inkscape:cx="49.788136"
     inkscape:cy="50"
     inkscape:window-width="1712"
     inkscape:window-height="1069"
     inkscape:window-x="0"
     inkscape:window-y="38"
     inkscape:window-maximized="0"
     inkscape:current-layer="layer1" />
  <g
     inkscape:groupmode="layer"
     id="layer2"
     inkscape:label="back">
    <rect
       style="fill:#532d87;fill-rule:evenodd;stroke:#000000;fill-opacity:1"
       id="rect1"
       width="137.28813"
       height="133.47458"
       x="-15.254237"
       y="-12.288136" />
  </g>
  <g
     inkscape:groupmode="layer"
     id="layer1"
     inkscape:label="fore">
    <path
       d="m 34.252453,101.32767 -0.873703,4.19112 -5.273259,-10e-4 c -0.756913,0.005 -1.574439,0.0458 -1.978027,0.27645 -0.446461,0.25427 -0.569163,0.58692 -0.601687,1.04815 -0.144878,2.02238 8.124988,0.95649 7.722879,6.62152 -0.150791,2.10369 -1.024494,4.06988 -2.409704,5.13281 -1.627659,1.2492 -3.954575,1.68679 -6.393846,1.71045 h -6.387932 l 0.879615,-4.15416 5.237779,-0.003 c 0.635689,0 2.056379,0 2.643284,-0.36516 0.433155,-0.26905 0.808655,-0.83674 0.841178,-1.2832 0.03105,-0.43907 -0.32228,-0.74657 -0.891442,-1.0112 -2.080034,-0.96683 -7.047276,-1.40442 -6.726475,-5.95625 0.144879,-2.04012 0.894399,-3.66481 2.245607,-4.64644 1.500523,-1.09102 3.685517,-1.51973 5.837988,-1.55966 z m 30.827946,1.96917 c -1.015623,-1.10285 -2.451098,-1.93221 -4.673051,-2.06969 -6.949704,-0.42872 -10.886538,4.54591 -11.850421,10.32329 -0.724389,4.34043 0.8944,7.82933 6.120353,8.1516 2.731983,0.17 5.089945,-0.35332 6.893527,-1.57591 2.782246,-1.88637 4.372947,-5.24074 4.956893,-8.74589 0.415416,-2.49693 -0.0754,-4.59028 -1.447301,-6.0834 z m -14.866246,-1.96917 -0.889964,4.18964 h -5.7552 l 0.85744,3.84665 -2.096295,9.9818 h -5.31761 l 2.900515,-13.82845 h -4.794276 l 0.888486,-4.18964 z m 27.66133,0 c 3.91466,0 5.90895,1.97804 5.67685,5.28954 -0.17149,2.47178 -1.380776,4.40397 -3.930924,5.61475 l 1.49313,7.1138 h -5.350134 l -2.074119,-10.04832 h 1.958808 c 1.71636,0 3.002521,-0.42871 3.171052,-2.15691 0.13453,-1.39555 -0.823438,-1.90262 -2.275173,-1.90262 h -3.7003 l 0.798306,4.06397 -2.173169,10.04388 h -5.292478 l 3.791957,-18.01809 z m 17.540575,8.15457 h 0.05322 l 4.600612,-8.15603 h 6.83883 l -3.79344,18.01955 h -5.314647 l 1.865674,-8.97947 0.394713,-1.43252 h -0.0547 l -6.117392,9.60777 H 92.3145 l -1.978027,-9.60777 h -0.05469 l -0.22323,1.58626 -1.812452,8.82573 h -5.292479 l 3.790479,-18.01955 h 6.968909 z m -34.247361,-0.11237 c -0.638647,3.83484 -2.346135,6.20461 -5.159427,6.03016 -1.803583,-0.11086 -2.492493,-1.44432 -2.093338,-3.84073 0.64308,-3.85995 2.347613,-6.20315 5.159427,-6.03018 1.803581,0.11087 2.496926,1.41923 2.093338,3.84075 z m 26.47274,-12.51271 c -0.240971,1.138324 0.07835,2.057858 1.374861,2.057858 1.295031,0 2.007594,-0.919534 2.248564,-2.057858 0.240971,-1.132411 -0.08131,-2.047508 -1.37634,-2.047508 -1.296509,0 -2.006115,0.915097 -2.247085,2.047508 z m 5.922253,-1.986895 -0.539596,2.53832 c -0.07392,0.345933 -0.05913,0.751 0.561771,0.751 0.609079,0 0.79535,-0.405067 0.869268,-0.751 l 0.539595,-2.53832 h 0.921011 l -0.539596,2.53832 c -0.221752,1.039276 -0.972752,1.506433 -1.957331,1.506433 -0.990492,0 -1.536001,-0.467157 -1.315727,-1.506433 l 0.539595,-2.53832 z m -13.198672,0 h 0.919531 l -0.685952,3.230184 h 1.759231 l -0.16114,0.756913 h -2.678762 z m 25.130402,0 h 2.74972 l -0.16115,0.756913 h -1.83018 l -0.16706,0.790914 h 1.55966 l -0.16114,0.756913 h -1.55965 l -0.19662,0.925444 h 1.85976 l -0.16262,0.756913 h -2.77929 z m -6.764911,0 c 0.848571,0 1.293551,0.504115 1.125021,1.289117 a 1.4990427,1.4990427 0 0 1 -1.006753,1.161981 l 0.326714,1.535999 h -0.923966 l -0.45533,-2.162819 h 0.456808 c 0.322279,0 0.603165,-0.165575 0.682997,-0.535161 0.07983,-0.3755 -0.13453,-0.532204 -0.419851,-0.532204 h -0.756912 l -0.687432,3.230184 h -0.921009 l 0.84857,-3.987097 z m -22.160405,0 h 2.751202 l -0.162618,0.756913 h -1.828713 l -0.167054,0.790914 h 1.558177 l -0.159662,0.756913 h -1.561134 l -0.195142,0.925444 h 1.858281 l -0.161139,0.756913 h -2.779291 z m 26.420996,2.486577 h 0.0118 l 0.19219,-0.986057 0.31784,-1.50052 h 0.83822 l -0.84709,3.987097 h -0.89588 l -1.09693,-2.393441 h -0.0133 l -0.16557,0.892921 -0.31933,1.50052 h -0.8397 l 0.84857,-3.987097 h 0.83823 z M 85.778721,94.870265 c 0.855962,0 1.235896,0.385848 1.098411,1.03632 A 1.2166788,1.2166788 0 0 1 86.068477,96.7862 l -0.003,0.01331 c 0.400633,0.128617 0.669692,0.431677 0.560294,0.950577 -0.146356,0.684467 -0.721433,1.107276 -1.577395,1.107276 h -1.830213 l 0.847093,-3.987093 z m -12.82465,2.168733 h 0.0103 l 1.250681,-2.168733 h 1.274333 l -0.847091,3.987097 H 73.722762 L 74.15444,96.7862 74.302274,96.206689 h -0.01183 l -1.540436,2.476227 H 72.395205 L 71.863,96.206689 h -0.01183 l -0.107915,0.579511 -0.431678,2.071162 h -0.838222 l 0.847092,-3.987097 h 1.191548 z M 90.343853,96.85716 c -0.164097,0.780568 -0.527769,1.302425 -1.167893,1.302425 -0.637167,0 -0.77909,-0.521857 -0.614993,-1.302425 0.168533,-0.785001 0.527771,-1.289116 1.166416,-1.289116 0.640123,0 0.785001,0.504115 0.61647,1.289116 z m -5.082554,0.334108 H 84.49256 l -0.192184,0.909181 h 0.80422 c 0.314886,0 0.551422,-0.116792 0.622383,-0.450894 0.06948,-0.323758 -0.11383,-0.458287 -0.46568,-0.458287 z m 0.291235,-1.56409 h -0.725868 l -0.172967,0.808655 h 0.725868 c 0.317844,0 0.511507,-0.110879 0.573599,-0.405067 0.05765,-0.270537 -0.08279,-0.403588 -0.400632,-0.403588 z M 47.270767,59.24065 31.748135,46.336169 28.797356,48.742915 c 4.517824,7.965329 13.744181,14.175859 13.744181,14.175859 l -0.01922,6.934922 -14.264559,23.178985 18.962744,-22.429465 z m 7.203979,33.792031 H 33.541368 L 52.255749,71.765197 V 53.581541 l 16.316504,2.442228 C 65.980713,73.0484 49.541506,87.749072 49.541506,87.749072 c 0,0 26.809803,-3.355845 37.422848,-16.044488 l 7.168499,6.597857 C 79.161644,92.34525 60.773978,93.032681 54.474746,93.032681 Z M 78.867453,92.132368 C 89.242486,90.540189 95.615634,86.406735 99.68552,83.417519 l -2.675806,-2.491013 c -2.662501,2.316568 -8.326044,7.24833 -18.142261,11.205862 z m 13.127712,-52.549284 0.551423,9.357929 1.068845,1.252161 -3.089744,1.880456 -4.537043,-7.314856 c 0,0 -5.22004,4.902194 -8.547796,12.573331 l -4.557742,-0.684473 c 0,0 -0.977185,7.764272 -6.699863,17.218293 0.06948,-0.04878 0.136008,-0.10053 0.202535,-0.150791 6.982226,-5.144643 9.501327,-12.230355 9.501327,-12.230355 0,0 6.235664,5.712328 6.801871,6.17505 0.199577,0.16114 0.64308,0.487855 1.207808,0.770219 0.609079,0.304539 1.19746,0.323758 1.924806,0.304539 0.529248,-0.01331 1.150153,-0.03992 1.57444,-0.476027 1.01858,-1.176763 1.830191,-2.359441 1.830191,-2.359441 l -2.152471,-2.488056 0.396196,-1.132413 2.811815,1.76219 1.092496,-1.086585 -4.40547,-2.740854 -2.538321,0.711085 0.650473,-1.516783 1.874544,-1.085106 3.670731,2.700938 1.154589,0.802741 0.780566,-2.035682 -1.664617,-1.534522 -0.06357,-1.08215 3.072002,1.432518 1.130935,-0.400632 0.412458,-6.724996 2.408226,0.177402 1.466518,-10.122234 c 0,0 -9.530894,-8.593626 -17.128115,-12.171222 2.516145,2.856164 9.799955,10.218326 9.799955,10.218326 z M 38.819063,26.835308 -2.0557223,69.887698 37.043569,38.171264 l 1.262508,4.362598 13.739747,-14.80859 0.07392,0.233579 c 0,0 1.006753,0.136008 0.922488,-0.342977 -0.08722,-0.487853 -0.756913,-3.719517 -0.953533,-4.810538 -0.0414,-0.229143 -0.110878,-0.376977 -0.35776,-0.502637 -1.504956,-0.71404 -8.197428,-3.658907 -7.569131,-4.469039 0.669691,-0.863354 5.137253,-5.084033 5.137253,-5.084033 0,0 -4.361121,2.114036 -8.297956,5.013073 -9.069652,6.6836 -14.019155,12.696033 -15.824215,15.896652 -1.243289,2.201257 -2.223432,5.735982 -2.223432,5.735982 L 41.293814,20.167968 c 0,0 4.077279,0.8397 9.080001,2.913819 L 40.250103,32.16918 Z m 0.58986,39.844379 C 32.113287,62.299348 24.950701,51.860747 24.950701,51.860747 29.273384,61.997765 37.574297,67.11432 39.397096,68.237863 Z M 68.795483,53.387879 C 71.08544,36.063143 79.287303,28.230867 79.287303,28.230867 70.863689,33.337074 68.30615,46.816631 67.506366,51.637517 L 53.023011,49.291382 c -2.165778,-3.190271 -4.488258,-6.683601 -8.156035,-9.517591 l -0.889964,0.952054 c 3.420893,3.036524 6.476633,7.26607 8.225516,10.006924 0.745087,0.12566 16.297286,2.610759 16.592955,2.65511 z M 91.127376,40.288255 c -1.997245,1.472433 -4.402514,3.747606 -4.402514,3.747606 l 4.022579,3.502202 z M 54.152467,20.227103 a 0.87813746,0.87813746 0 0 1 0.26758,0.551422 c 0.162618,1.297987 0.751,5.987301 0.776132,6.175051 0.02957,0.218795 1.271378,-0.416895 1.227027,-0.946142 -0.03548,-0.452373 -0.360716,-4.436516 -0.453852,-5.557102 A 0.54550964,0.54550964 0 0 0 55.70473,20.002393 c -0.125659,-0.07836 -5.304305,-3.460808 -5.304305,-3.460808 0,0 3.629339,3.549508 3.752042,3.685518 z m 3.926487,-1.933678 c 0.0754,1.086585 0.41098,6.031652 0.433155,6.285928 0.02365,0.286797 1.299466,-0.478985 1.278769,-0.963883 -0.02069,-0.433155 -0.25871,-4.880019 -0.311931,-5.873468 A 0.36219474,0.36219474 0 0 0 59.295632,17.449289 C 59.186235,17.382769 54.025329,14.46303 54.025329,14.46303 l 3.904312,3.497768 a 0.51742106,0.51742106 0 0 1 0.149313,0.332627 z m 3.385412,-1.877499 0.141921,5.94295 c 0.0103,0.34002 1.250681,-0.434633 1.253637,-0.93875 0.003,-0.400631 -0.02069,-3.904311 -0.03105,-5.323522 L 87.81588,-10.648153 60.306819,14.173275 56.916972,12.38152 c 0,0 4.288681,3.571684 4.367034,3.650036 0.08131,0.0754 0.177401,0.2321 0.180358,0.38437 z"
       fill="#ffffff"
       fill-rule="nonzero"
       id="path1"
       style="stroke-width:1.47835" />
  </g>
</svg>
