<?xml version="1.0" encoding="UTF-8" standalone="no"?>
<svg
   clip-rule="evenodd"
   fill-rule="evenodd"
   stroke-linejoin="round"
   stroke-miterlimit="2"
   viewBox="0 0 100 100"
   version="1.1"
   id="svg3"
   sodipodi:docname="Newcastle_colours.svg"
   inkscape:version="1.3.2 (091e20e, 2023-11-25)"
   xmlns:inkscape="http://www.inkscape.org/namespaces/inkscape"
   xmlns:sodipodi="http://sodipodi.sourceforge.net/DTD/sodipodi-0.dtd"
   xmlns="http://www.w3.org/2000/svg"
   xmlns:svg="http://www.w3.org/2000/svg">
  <defs
     id="defs3" />
  <sodipodi:namedview
     id="namedview3"
     pagecolor="#ffffff"
     bordercolor="#000000"
     borderopacity="0.25"
     inkscape:showpageshadow="2"
     inkscape:pageopacity="0.0"
     inkscape:pagecheckerboard="0"
     inkscape:deskcolor="#d1d1d1"
     inkscape:zoom="2.36"
     inkscape:cx="49.788136"
     inkscape:cy="50"
     inkscape:window-width="1712"
     inkscape:window-height="1069"
     inkscape:window-x="0"
     inkscape:window-y="38"
     inkscape:window-maximized="0"
     inkscape:current-layer="layer2" />
  <g
     inkscape:groupmode="layer"
     id="layer2"
     inkscape:label="back">
    <rect
       style="display:inline;opacity:1;fill:#183fac;fill-opacity:1;fill-rule:evenodd;stroke:#000000;stroke-opacity:1"
       id="rect3"
       width="142.79662"
       height="138.98305"
       x="-23.305084"
       y="-11.864407" />
  </g>
  <g
     inkscape:groupmode="layer"
     id="layer1"
     inkscape:label="foreground"
     style="display:inline;opacity:1">
    <g
       fill-rule="nonzero"
       id="g3"
       transform="matrix(1.221434,0,0,1.2230152,-10.647994,-1.4049974)">
      <path
         d="M 22.209,38.918 C 27.921,39.472 28.828,33.941 20.348,28.879 11.868,23.812 9.572,19.594 9.835,14.344 10.106,9.095 14.366,3.795 22.368,2.793 30.37,1.796 34.674,3.394 42.886,6.817 51.1,10.243 65.58,6.542 71.496,5.748 c 5.915,-0.796 9.761,0.164 12.789,2.737 4.641,3.943 4.106,14.32 -3.162,16.907 -6.865,2.442 -19.416,-2.419 -24.578,-3.656 -3.022,-0.724 -2.658,1.42 -0.846,2.052 l -2.249,0.753 c -3.909,-1.576 -4.705,-3.428 -3.846,-5.083 l -1.186,0.16 c -5.279,0.49 -6.957,-0.124 -11.277,-0.926 -7.46,-1.386 -6.897,4.669 -0.845,4.191 6.063,-0.476 8.708,1.131 10.408,3.745 C 36.677,35.379 35.602,48.256 35.602,48.256 17.063,58.5 9.073,40.747 15.289,30.479 c 0.059,0.659 1.209,7.882 6.92,8.439 z"
         fill="#e92d2b"
         id="path1" />
      <path
         d="m 88.15,87.406 c -0.381,-0.301 -0.763,-0.523 -1.144,-0.667 -0.381,-0.145 -0.75,-0.218 -1.108,-0.218 -0.452,0 -0.821,0.104 -1.107,0.313 -0.285,0.208 -0.429,0.48 -0.429,0.815 0,0.231 0.072,0.423 0.215,0.572 0.143,0.151 0.331,0.281 0.563,0.39 0.232,0.111 0.494,0.206 0.785,0.287 0.292,0.081 0.581,0.167 0.867,0.26 1.143,0.37 1.979,0.865 2.51,1.483 0.53,0.618 0.795,1.425 0.795,2.419 0,0.671 -0.116,1.278 -0.349,1.821 -0.232,0.544 -0.571,1.009 -1.017,1.397 -0.447,0.387 -0.995,0.688 -1.644,0.902 -0.649,0.214 -1.385,0.32 -2.206,0.32 -1.704,0 -3.282,-0.491 -4.734,-1.474 l 1.5,-2.74 c 0.524,0.451 1.042,0.786 1.555,1.006 0.511,0.219 1.018,0.33 1.518,0.33 0.571,0 0.997,-0.128 1.277,-0.382 0.28,-0.255 0.42,-0.543 0.42,-0.867 0,-0.197 -0.036,-0.367 -0.107,-0.512 C 86.238,92.717 86.119,92.583 85.952,92.462 85.785,92.341 85.569,92.228 85.3,92.124 85.033,92.02 84.708,91.904 84.327,91.777 83.874,91.638 83.431,91.485 82.996,91.317 82.561,91.149 82.174,90.927 81.835,90.649 81.495,90.372 81.221,90.023 81.012,89.6 80.805,89.179 80.7,88.644 80.7,87.996 c 0,-0.647 0.11,-1.234 0.331,-1.76 0.22,-0.526 0.529,-0.978 0.929,-1.353 0.399,-0.376 0.887,-0.668 1.465,-0.876 0.577,-0.208 1.223,-0.312 1.938,-0.312 0.667,0 1.364,0.089 2.09,0.268 0.726,0.18 1.423,0.442 2.09,0.79 z m -32.862,2.441 v 6.53 c -0.951,0.689 -3.038,1.024 -4.616,1.024 -4.056,0 -7.281,-2.661 -7.281,-6.921 0,-4.261 3.225,-6.848 7.281,-6.848 0.006,0 0.012,10e-4 0.018,10e-4 0.069,-0.003 0.138,-0.006 0.209,-0.006 0.525,0 1.069,0.058 1.63,0.168 0.156,0.03 0.309,0.063 0.457,0.1 l 0.012,0.003 c 0.096,0.025 0.191,0.051 0.284,0.08 0.62,0.174 1.221,0.407 1.797,0.708 l -1.393,2.653 c -0.528,-0.388 -1.091,-0.568 -1.567,-0.652 -0.251,-0.037 -0.503,-0.059 -0.751,-0.059 -2.139,0 -3.836,1.47 -3.836,3.87 0,2.381 1.409,3.87 3.445,3.87 0.153,0 0.458,-0.019 0.628,-0.037 v -1.842 h -1.68 V 89.847 Z M 14.8,97.01 h -3.836 v -9.768 c 0,-1.414 -0.203,-2.438 -1.136,-2.754 V 84.005 H 14.8 v 5.172 l 3.122,-5.172 h 4.379 l -4.073,5.86 4.429,7.145 H 17.922 L 14.8,91.391 Z m 27.438,0 h -3.835 v -9.768 c 0,-1.414 -0.204,-2.438 -1.137,-2.754 v -0.483 h 4.972 z m 34.498,0 h -3.819 v -9.694 h -3.241 v -3.311 h 10.301 v 3.311 h -3.241 z m -15.832,0 h -3.835 v -9.768 c 0,-1.414 -0.204,-2.438 -1.138,-2.754 v -0.483 h 4.973 v 5.023 h 3.801 v -5.023 h 3.818 V 97.01 h -3.818 v -5.024 h -3.801 z m -33.259,0 h -3.547 v -9.768 c 0,-1.414 -0.204,-2.419 -1.137,-2.735 v -0.502 h 4.514 l 5.312,6.53 v -6.53 h 3.53 V 97.01 h -3.055 l -5.617,-6.829 z m 42.459,-19.146 0.248,-2.186 c 0.951,-6.159 2.302,-8.302 4.198,-13.788 l 3.115,1.339 C 79.83,56.271 83.891,50.381 89.58,43.688 l -9.615,0.403 C 69.816,28.833 59.658,26.156 51.937,23.477 30.551,34.586 32.988,52.39 35.291,66.043 l -3.517,4.913 -0.311,0.464 c 16.643,-5.201 28.563,2.563 38.641,8.008 z M 26.821,4.364 C 22.662,3.991 12.132,5.75 12.132,15.506 c 0,9.836 16.656,11.625 16.656,20.824 0,4.252 -4.277,4.659 -4.277,4.659 3.224,0.172 5.678,-1.751 5.678,-5.069 0,-9.435 -16.472,-12.166 -16.56,-20.412 C 13.552,8.368 21.46,4.136 26.821,4.364 Z m 58.005,13.723 c -0.139,6.946 -11.138,6.31 -15.659,4.999 5.224,0.219 14.867,-0.192 15.659,-4.999 z"
         fill="#ffffff"
         id="path2" />
      <path
         d="M 80.335,43.726 C 69.923,27.889 59.518,25.109 51.61,22.331 32.089,32.599 31.889,48.055 33.753,61.393 c 0.281,2.398 -0.566,4.909 -1.799,7.201 -0.588,1.098 -1.399,2.148 -2.062,2.924 l -0.731,0.798 -1.07,0.881 c 13.392,-6.026 27.81,-0.823 37.869,4.794 l 4.31,2.605 h 4.496 L 74.77,80.59 70.29,77.843 c 0.977,-6.301 2.565,-9.987 4.49,-15.642 l 3.195,1.389 c 2.218,-7.222 6.379,-13.336 12.21,-20.284 z m 0.905,4.767 -0.923,1.579 c -0.136,0.244 -0.277,0.5 -0.417,0.76 l -0.833,1.573 c -0.13,0.249 -0.261,0.502 -0.385,0.758 l -0.77,1.579 c -0.711,1.503 -1.458,3.16 -2.261,5.032 -3.59,-1.246 -15.842,-3.946 -23.214,-4.862 -0.327,-1.472 -0.914,-3.866 -1.81,-6.7 -0.661,0.363 -1.42,0.57 -2.226,0.57 -0.265,0 -0.523,-0.023 -0.776,-0.065 1.497,4.687 2.144,8.265 2.153,8.315 l 0.024,-0.005 c 0.002,0.011 0.005,0.022 0.007,0.032 9.295,1.394 14.153,4.866 18.316,7.922 l -5.281,8.643 C 59.289,71.807 55.782,70.267 52.546,68.981 44.849,62.434 35.02,49.355 49.553,28.483 l 0.498,-0.68 C 38.743,38.035 36.067,50.12 41.279,65.028 40.051,64.648 39.028,64.345 38.256,64.113 31.855,42.652 40.282,30.564 52.165,24.134 71.383,31.619 76.837,44.233 76.837,44.233 l -2.394,-0.066 -1.667,-2.361 -16.9,-2.249 2.752,4.408 c -0.841,0 -3.022,-0.124 -5.621,-0.359 0.02,0.176 0.032,0.355 0.032,0.536 0,0.591 -0.112,1.155 -0.313,1.674 8.383,0.49 25.008,1.06 29.863,0.686 0,0 -0.97,1.374 -1.349,1.991 z m -4.542,0.005 c -1.436,2.866 -3.285,6.562 -4.274,8.57 0.773,0.197 1.483,0.386 2.11,0.563 1.063,-2.145 2.963,-5.945 4.563,-9.135 -0.409,0.004 -0.836,0.006 -1.29,0.006 -0.358,0 -0.733,-0.002 -1.109,-0.004 z M 72.67,48.447 c -1.253,2.498 -2.826,5.644 -3.871,7.751 0.744,0.17 1.459,0.338 2.143,0.503 1.1,-2.214 2.717,-5.446 4.107,-8.217 -0.769,-0.009 -1.565,-0.022 -2.379,-0.037 z m -4.008,-0.094 c -1.11,2.216 -2.485,4.964 -3.52,7.046 0.733,0.154 1.454,0.309 2.162,0.464 1.08,-2.167 2.495,-4.995 3.726,-7.45 -0.78,-0.018 -1.57,-0.038 -2.368,-0.06 z M 48.401,47.236 c -1.711,0 -3.094,-1.384 -3.094,-3.094 0,-1.707 1.383,-3.094 3.094,-3.094 1.701,0 3.094,1.387 3.094,3.094 0,1.71 -1.393,3.094 -3.094,3.094 z"
         fill="#231f20"
         id="path3" />
    </g>
  </g>
</svg>
