<?xml version="1.0" encoding="UTF-8" standalone="no"?>
<svg clip-rule="evenodd" fill-rule="evenodd" stroke-linejoin="round" stroke-miterlimit="2" viewBox="0 0 100 100" xmlns="http://www.w3.org/2000/svg"><g fill-rule="nonzero"><path d="m22.209 38.918c5.712.554 6.619-4.977-1.861-10.039-8.48-5.067-10.776-9.285-10.513-14.535.271-5.249 4.531-10.549 12.533-11.551 8.002-.997 12.306.601 20.518 4.024 8.214 3.426 22.694-.275 28.61-1.069 5.915-.796 9.761.164 12.789 2.737 4.641 3.943 4.106 14.32-3.162 16.907-6.865 2.442-19.416-2.419-24.578-3.656-3.022-.724-2.658 1.42-.846 2.052l-2.249.753c-3.909-1.576-4.705-3.428-3.846-5.083l-1.186.16c-5.279.49-6.957-.124-11.277-.926-7.46-1.386-6.897 4.669-.845 4.191 6.063-.476 8.708 1.131 10.408 3.745-10.027 8.751-11.102 21.628-11.102 21.628-18.539 10.244-26.529-7.509-20.313-17.777.059.659 1.209 7.882 6.92 8.439z" fill="#e92d2b"/><path d="m88.15 87.406c-.381-.301-.763-.523-1.144-.667-.381-.145-.75-.218-1.108-.218-.452 0-.821.104-1.107.313-.285.208-.429.48-.429.815 0 .231.072.423.215.572.143.151.331.281.563.39.232.111.494.206.785.287.292.081.581.167.867.26 1.143.37 1.979.865 2.51 1.483.53.618.795 1.425.795 2.419 0 .671-.116 1.278-.349 1.821-.232.544-.571 1.009-1.017 1.397-.447.387-.995.688-1.644.902s-1.385.32-2.206.32c-1.704 0-3.282-.491-4.734-1.474l1.5-2.74c.524.451 1.042.786 1.555 1.006.511.219 1.018.33 1.518.33.571 0 .997-.128 1.277-.382.28-.255.42-.543.42-.867 0-.197-.036-.367-.107-.512-.072-.144-.191-.278-.358-.399s-.383-.234-.652-.338c-.267-.104-.592-.22-.973-.347-.453-.139-.896-.292-1.331-.46s-.822-.39-1.161-.668c-.34-.277-.614-.626-.823-1.049-.207-.421-.312-.956-.312-1.604 0-.647.11-1.234.331-1.76.22-.526.529-.978.929-1.353.399-.376.887-.668 1.465-.876.577-.208 1.223-.312 1.938-.312.667 0 1.364.089 2.09.268.726.18 1.423.442 2.09.79zm-32.862 2.441v6.53c-.951.689-3.038 1.024-4.616 1.024-4.056 0-7.281-2.661-7.281-6.921 0-4.261 3.225-6.848 7.281-6.848.006 0 .012.001.018.001.069-.003.138-.006.209-.006.525 0 1.069.058 1.63.168.156.03.309.063.457.1l.012.003c.096.025.191.051.284.08.62.174 1.221.407 1.797.708l-1.393 2.653c-.528-.388-1.091-.568-1.567-.652-.251-.037-.503-.059-.751-.059-2.139 0-3.836 1.47-3.836 3.87 0 2.381 1.409 3.87 3.445 3.87.153 0 .458-.019.628-.037v-1.842h-1.68v-2.642zm-40.488 7.163h-3.836v-9.768c0-1.414-.203-2.438-1.136-2.754v-.483h4.972v5.172l3.122-5.172h4.379l-4.073 5.86 4.429 7.145h-4.735l-3.122-5.619zm27.438 0h-3.835v-9.768c0-1.414-.204-2.438-1.137-2.754v-.483h4.972zm34.498 0h-3.819v-9.694h-3.241v-3.311h10.301v3.311h-3.241zm-15.832 0h-3.835v-9.768c0-1.414-.204-2.438-1.138-2.754v-.483h4.973v5.023h3.801v-5.023h3.818v13.005h-3.818v-5.024h-3.801zm-33.259 0h-3.547v-9.768c0-1.414-.204-2.419-1.137-2.735v-.502h4.514l5.312 6.53v-6.53h3.53v13.005h-3.055l-5.617-6.829zm42.459-19.146.248-2.186c.951-6.159 2.302-8.302 4.198-13.788l3.115 1.339c2.165-6.958 6.226-12.848 11.915-19.541l-9.615.403c-10.149-15.258-20.307-17.935-28.028-20.614-21.386 11.109-18.949 28.913-16.646 42.566l-3.517 4.913-.311.464c16.643-5.201 28.563 2.563 38.641 8.008zm-43.283-73.5c-4.159-.373-14.689 1.386-14.689 11.142 0 9.836 16.656 11.625 16.656 20.824 0 4.252-4.277 4.659-4.277 4.659 3.224.172 5.678-1.751 5.678-5.069 0-9.435-16.472-12.166-16.56-20.412-.077-7.14 7.831-11.372 13.192-11.144zm58.005 13.723c-.139 6.946-11.138 6.31-15.659 4.999 5.224.219 14.867-.192 15.659-4.999z" fill="#fff"/><path d="m80.335 43.726c-10.412-15.837-20.817-18.617-28.725-21.395-19.521 10.268-19.721 25.724-17.857 39.062.281 2.398-.566 4.909-1.799 7.201-.588 1.098-1.399 2.148-2.062 2.924l-.731.798-1.07.881c13.392-6.026 27.81-.823 37.869 4.794l4.31 2.605h4.496l.004-.006-4.48-2.747c.977-6.301 2.565-9.987 4.49-15.642l3.195 1.389c2.218-7.222 6.379-13.336 12.21-20.284zm.905 4.767-.923 1.579c-.136.244-.277.5-.417.76l-.833 1.573c-.13.249-.261.502-.385.758l-.77 1.579c-.711 1.503-1.458 3.16-2.261 5.032-3.59-1.246-15.842-3.946-23.214-4.862-.327-1.472-.914-3.866-1.81-6.7-.661.363-1.42.57-2.226.57-.265 0-.523-.023-.776-.065 1.497 4.687 2.144 8.265 2.153 8.315l.024-.005c.002.011.005.022.007.032 9.295 1.394 14.153 4.866 18.316 7.922l-5.281 8.643c-3.555-1.817-7.062-3.357-10.298-4.643-7.697-6.547-17.526-19.626-2.993-40.498l.498-.68c-11.308 10.232-13.984 22.317-8.772 37.225-1.228-.38-2.251-.683-3.023-.915-6.401-21.461 2.026-33.549 13.909-39.979 19.218 7.485 24.672 20.099 24.672 20.099l-2.394-.066-1.667-2.361-16.9-2.249 2.752 4.408c-.841 0-3.022-.124-5.621-.359.02.176.032.355.032.536 0 .591-.112 1.155-.313 1.674 8.383.49 25.008 1.06 29.863.686 0 0-.97 1.374-1.349 1.991zm-4.542.005c-1.436 2.866-3.285 6.562-4.274 8.57.773.197 1.483.386 2.11.563 1.063-2.145 2.963-5.945 4.563-9.135-.409.004-.836.006-1.29.006-.358 0-.733-.002-1.109-.004zm-4.028-.051c-1.253 2.498-2.826 5.644-3.871 7.751.744.17 1.459.338 2.143.503 1.1-2.214 2.717-5.446 4.107-8.217-.769-.009-1.565-.022-2.379-.037zm-4.008-.094c-1.11 2.216-2.485 4.964-3.52 7.046.733.154 1.454.309 2.162.464 1.08-2.167 2.495-4.995 3.726-7.45-.78-.018-1.57-.038-2.368-.06zm-20.261-1.117c-1.711 0-3.094-1.384-3.094-3.094 0-1.707 1.383-3.094 3.094-3.094 1.701 0 3.094 1.387 3.094 3.094 0 1.71-1.393 3.094-3.094 3.094z" fill="#231f20"/></g></svg>
